<?xml version="1.0" encoding="utf-8"?>
<!-- Generator: Adobe Illustrator 23.0.0, SVG Export Plug-In . SVG Version: 6.00 Build 0)  -->
<svg version="1.1" id="Camada_1" xmlns="http://www.w3.org/2000/svg" xmlns:xlink="http://www.w3.org/1999/xlink" x="0px" y="0px"
	 viewBox="0 0 420.3 268.9" style="enable-background:new 0 0 420.3 268.9;" xml:space="preserve">
<style type="text/css">
	.st0{opacity:0.75;fill:none;stroke:url(#SVGID_1_);stroke-width:4;stroke-miterlimit:10;enable-background:new    ;}
	.st1{fill:none;stroke:url(#SVGID_2_);stroke-width:4;stroke-miterlimit:10;}
	.st2{opacity:0.28;fill:none;stroke:url(#SVGID_3_);stroke-width:4;stroke-miterlimit:10;enable-background:new    ;}
	.st3{fill:#FF00FF;}
	.st4{fill:none;stroke:#FFFFFF;stroke-width:5;stroke-miterlimit:10;}
	.st5{fill:url(#SVGID_4_);}
	.st6{fill:url(#SVGID_5_);}
	.st7{fill:url(#SVGID_6_);}
	.st8{fill:url(#SVGID_7_);}
	.st9{fill:url(#SVGID_8_);}
	.st10{fill:none;}
	.st11{fill:url(#SVGID_9_);}
	.st12{fill:url(#SVGID_10_);}
	.st13{fill:url(#SVGID_11_);}
	.st14{fill:url(#SVGID_12_);}
	.st15{fill:url(#SVGID_13_);}
	.st16{fill:url(#SVGID_14_);}
	.st17{fill:url(#SVGID_15_);}
	.st18{fill:url(#SVGID_16_);}
	.st19{fill:url(#SVGID_17_);}
	.st20{fill:url(#SVGID_18_);}
	.st21{fill:url(#SVGID_19_);}
	.st22{fill:url(#SVGID_20_);}
	.st23{fill:url(#SVGID_21_);}
	.st24{fill:url(#SVGID_22_);}
	.st25{fill:url(#SVGID_23_);}
	.st26{fill:url(#SVGID_24_);}
	.st27{fill:url(#SVGID_25_);}
	.st28{fill:url(#SVGID_26_);}
	.st29{fill:url(#SVGID_27_);}
	.st30{fill:none;stroke:#D300EA;}
	.st31{fill:#00FFFF;stroke:#00D4F7;stroke-miterlimit:10;}
</style>
<linearGradient id="SVGID_1_" gradientUnits="userSpaceOnUse" x1="200.3147" y1="271.4399" x2="127.4532" y2="-0.4826" gradientTransform="matrix(1 0 0 -1 0 251.7228)">
	<stop  offset="0" style="stop-color:#C400C1"/>
	<stop  offset="0.2151" style="stop-color:#F300F2"/>
	<stop  offset="0.2709" style="stop-color:#FFFFFF"/>
	<stop  offset="0.3045" style="stop-color:#FF00FF"/>
	<stop  offset="0.6453" style="stop-color:#FF00FF"/>
	<stop  offset="0.7067" style="stop-color:#FFFFFF"/>
	<stop  offset="0.7514" style="stop-color:#FF00FF"/>
	<stop  offset="1" style="stop-color:#FF00FF"/>
</linearGradient>
<polygon class="st0" points="188.9,265.2 360.1,26.1 17,26.1 "/>
<linearGradient id="SVGID_2_" gradientUnits="userSpaceOnUse" x1="147.139" y1="199.885" x2="74.3022" y2="-71.9455" gradientTransform="matrix(0.9923 -0.1235 -0.1235 -0.9923 59.7852 196.1876)">
	<stop  offset="0" style="stop-color:#C400C1"/>
	<stop  offset="0.2151" style="stop-color:#F300F2"/>
	<stop  offset="0.2709" style="stop-color:#FFFFFF"/>
	<stop  offset="0.3045" style="stop-color:#FF00FF"/>
	<stop  offset="0.6453" style="stop-color:#FF00FF"/>
	<stop  offset="0.7067" style="stop-color:#FFFFFF"/>
	<stop  offset="0.7514" style="stop-color:#FF00FF"/>
	<stop  offset="1" style="stop-color:#FF00FF"/>
</linearGradient>
<polygon class="st1" points="204.9,263.7 345.3,5.4 4.9,47.7 "/>
<linearGradient id="SVGID_3_" gradientUnits="userSpaceOnUse" x1="248.1972" y1="354.6675" x2="175.3325" y2="82.733" gradientTransform="matrix(0.9913 0.1315 0.1315 -0.9913 -70.7305 302.2158)">
	<stop  offset="0" style="stop-color:#C400C1"/>
	<stop  offset="0.2151" style="stop-color:#F300F2"/>
	<stop  offset="0.2709" style="stop-color:#FFFFFF"/>
	<stop  offset="0.3045" style="stop-color:#FF00FF"/>
	<stop  offset="0.6453" style="stop-color:#FF00FF"/>
	<stop  offset="0.7067" style="stop-color:#FFFFFF"/>
	<stop  offset="0.7514" style="stop-color:#FF00FF"/>
	<stop  offset="1" style="stop-color:#FF00FF"/>
</linearGradient>
<polygon class="st2" points="173.1,264.2 374.3,49.7 34.2,4.6 "/>
<g>
	<g>
		<g>
			<g>
				<path class="st3" d="M91.6,49.6h18.7c2.4,0.4,3.5,1,3.5,1.8v0.8c0.4,0,0.7,0.1,0.7,0.2c-0.2,0.2-0.3,0.6-0.3,1.3
					c0.3,0,0.8,0.3,1.3,1l-0.7,0.2c0-0.2-0.1-0.2-0.3-0.2v0.7l0.6,0.8c-1.9,0.7-2.9,1.5-2.9,2.5c-11.5,2.8-21.3,6-29.6,9.6
					c-2.4,1-5.8,2.2-10,3.6v0.2h17.7c2.4,0,5.5-0.1,9.4-0.2c4.1,0.9,6.1,1.8,6.1,2.8V76h0.3v0.5c-0.9,0-1.3,0.2-1.3,0.5
					c0.2,0.9,0.3,1.4,0.3,1.5c-0.4,0.6-0.7,1.1-0.7,1.5v0.8c-0.7,0.1-6.1,2.8-16.1,8.1c-11.6,6-31,17.9-57.9,35.8
					c-5.5,4-12.5,6.9-20.9,8.6c0-0.3-0.3-0.5-1-0.5v-0.2c0-0.9,4.2-5.5,12.6-13.9v-0.3c-0.4,0-0.7-0.2-0.7-0.5v-3.3
					c0-1.8,1.4-5.6,4.2-11.4C31.7,82,37.5,65.2,42,53l1.9-1.3h1.9l0.9,0.5l1.6-1c0.1,0.4,0.3,0.5,0.6,0.5
					C49.1,51.2,63.3,50.5,91.6,49.6z M44.9,80.8c-0.4,0.6-3.6,10.1-9.6,28.4h0.3c19.6-12.9,34.8-22.1,45.7-27.6v-0.3H66.8
					C63.8,81.3,56.5,81.2,44.9,80.8z M78.4,59.3c-17.8,0.4-26.7,0.9-26.7,1.5c0,0.4-0.6,2.3-1.9,5.6c0.3,0,0.6,0.3,1,0.8l-0.3,0.5
					c0.4,0.1,0.6,0.2,0.6,0.5c-0.5,0.3-0.9,0.5-1.3,0.5c0.2,0.3,0.3,0.6,0.3,0.8c4.4-1,14.3-4.4,29.6-10.2V59
					C78.9,59.2,78.5,59.3,78.4,59.3z"/>
				<path class="st3" d="M115,106.5c0.4,0.2,0.7,0.3,0.7,0.5c0.1,0,0.2-0.1,0.2-0.2c0.6,0.1,1,0.2,1.3,0.2l0.3-0.2
					c0.5,0,0.8,0.4,0.8,1.2l0.3-0.2h0.2c0.7,0.2,1,0.8,1,2.1c0,3.7-1.2,6.9-3.6,9.6c-1.1,0.4-2.1,0.9-2.8,1.5l-0.2-0.3l-0.3,0.2
					c-0.7-1-1.3-1.5-1.8-1.5c-1.6,1.2-2.5,1.8-2.6,1.8V121c0.1-0.2,0.2-0.4,0.2-0.5c-0.2,0-0.3,0.2-0.3,0.5h-0.3l-0.2-0.9
					c0-1.3-0.1-3.1-0.3-5.4c1-3.4,1.6-5.4,2-5.7c0.4,0,0.7-0.3,0.7-1l0.3-0.2v0.5h0.5c0.2,0,0.3-0.2,0.3-0.5h0.3
					c0.1,0.5,0.2,0.7,0.5,0.7c0.4,0,0.7-0.5,0.7-1.4h0.7c0.5,0.4,0.8,0.7,0.8,0.7h0.2v-0.2l-0.2-0.9
					C114.5,106.6,114.8,106.5,115,106.5z"/>
				<path class="st3" d="M183.1,50.2h1.4c3,0,6.6,0.5,10.7,1.4v-0.2c-0.2-0.3-0.3-0.5-0.3-0.6h0.3c0.4,0,0.5,0.2,0.5,0.6h0.3v-0.2
					c-0.2-0.2-0.3-0.5-0.3-0.8h0.3c0.2,0,1,0.6,2.5,1.8c1-0.1,1.5-0.2,1.6-0.2c3.1,0.7,6,3.2,8.5,7.3c4.2,7.9,6.3,15.1,6.3,21.7
					c0,3-1.1,9.5-3.3,19.4h-0.5v-1.6h-0.3l-0.3,2H210l-0.5-3.9h-0.3c-1.5,3.7-6.6,9.1-15.3,16c-6.3,5-13.2,9-20.8,12
					c-5.4,1.7-9.3,2.5-11.5,2.5c-2.4,0-7.5-0.8-15.3-2.5c-5.2,0-9.9-2.4-14.3-7.3c-1.6-3.7-2.5-7.6-2.5-11.8
					c0-11.1,4.5-21.6,13.4-31.3c3-4.4,8.2-9.1,15.6-14.1c7.3-3.8,11.2-5.7,11.5-5.7c0-1.2,3.2-2.5,9.6-4.1
					C180.4,50.4,181.5,50.2,183.1,50.2z M151.3,86.3c0.9,1.5,1.4,2.9,1.4,4.1c-2.7,6.4-4.1,10.4-4.1,11.8c0,3,1.4,6.1,4.1,9.4
					c3.5,1.4,6,2.1,7.4,2.1c9.2-1,14.8-2.3,17-3.9c8.6-4.9,12.9-8,12.9-9.4c6.6-9.4,9.9-18.9,9.9-28.8c0-2.2-0.6-3.4-1.7-3.7
					c-6.4-4.3-10.5-6.5-12.3-6.5l-3.3,2c-6.3,2.3-12.5,5.3-18.4,9.2c-3.5,2.6-5.2,4.5-5.2,5.7C157.6,78.3,155.1,80.9,151.3,86.3z"/>
				<path class="st3" d="M223.3,106.5c0.4,0.2,0.7,0.3,0.7,0.5c0.1,0,0.2-0.1,0.2-0.2c0.6,0.1,1,0.2,1.3,0.2l0.3-0.2
					c0.5,0,0.8,0.4,0.8,1.2l0.3-0.2h0.2c0.7,0.2,1,0.8,1,2.1c0,3.7-1.2,6.9-3.6,9.6c-1.1,0.4-2.1,0.9-2.8,1.5l-0.2-0.3l-0.3,0.2
					c-0.7-1-1.3-1.5-1.8-1.5c-1.6,1.2-2.5,1.8-2.6,1.8V121c0.1-0.2,0.2-0.4,0.2-0.5c-0.2,0-0.3,0.2-0.3,0.5h-0.4l-0.2-0.9
					c0-1.3-0.1-3.1-0.3-5.4c1-3.4,1.6-5.4,2-5.7c0.4,0,0.7-0.3,0.7-1l0.3-0.2v0.5h0.5c0.2,0,0.3-0.2,0.3-0.5h0.3
					c0.1,0.5,0.2,0.7,0.5,0.7c0.4,0,0.7-0.5,0.7-1.4h0.7c0.5,0.4,0.8,0.7,0.8,0.7h0.2v-0.2l-0.2-0.9
					C222.9,106.6,223.1,106.5,223.3,106.5z"/>
				<path class="st3" d="M310.2,49.6h18.7c2.4,0.4,3.5,1,3.5,1.8v0.8c0.4,0,0.7,0.1,0.7,0.2c-0.2,0.2-0.3,0.6-0.3,1.3
					c0.3,0,0.8,0.3,1.3,1l-0.8,0.3c0-0.2-0.1-0.2-0.3-0.2v0.7l0.6,0.8c-1.9,0.7-2.9,1.5-2.9,2.5c-11.5,2.8-21.3,6-29.6,9.6
					c-2.4,1-5.8,2.2-10,3.6v0.2h17.7c2.4,0,5.5-0.1,9.4-0.2c4.1,0.9,6.1,1.8,6.1,2.8V76h0.3v0.5c-0.9,0-1.3,0.2-1.3,0.5
					c0.2,0.9,0.3,1.4,0.3,1.5c-0.4,0.6-0.7,1.1-0.7,1.5v0.8c-0.7,0.1-6.1,2.8-16.1,8.1c-11.6,6-31,17.9-57.9,35.8
					c-5.5,4-12.5,6.9-20.9,8.6c0-0.3-0.3-0.5-1-0.5v-0.2c0-0.9,4.2-5.5,12.6-13.9v-0.3c-0.4,0-0.7-0.2-0.7-0.5v-3.3
					c0-1.8,1.4-5.6,4.2-11.4c7.1-21.2,12.9-38,17.4-50.2l1.9-1.3h1.9l0.9,0.5l1.6-1c0.1,0.4,0.3,0.5,0.6,0.5
					C267.7,51.2,281.9,50.5,310.2,49.6z M263.5,80.8c-0.4,0.6-3.6,10.1-9.6,28.4h0.3c19.6-12.9,34.8-22.1,45.7-27.6v-0.3h-14.5
					C282.4,81.3,275.1,81.2,263.5,80.8z M297,59.3c-17.8,0.4-26.7,0.9-26.7,1.5c0,0.4-0.6,2.3-1.9,5.6c0.3,0,0.6,0.3,1,0.8l-0.3,0.5
					c0.4,0.1,0.6,0.2,0.6,0.5c-0.5,0.3-0.9,0.5-1.3,0.5c0.2,0.3,0.3,0.6,0.3,0.8c4.4-1,14.3-4.4,29.6-10.2V59
					C297.5,59.2,297.1,59.3,297,59.3z"/>
			</g>
		</g>
		<g>
			<g>
				<g>
					<path class="st4" d="M88,46.8h18.7c2.4,0.4,3.5,1,3.5,1.8v0.8c0.4,0,0.7,0.1,0.7,0.2c-0.2,0.2-0.3,0.6-0.3,1.3
						c0.3,0,0.8,0.3,1.3,1l-0.7,0.2c0-0.2-0.1-0.2-0.3-0.2v0.7l0.6,0.8c-1.9,0.7-2.9,1.5-2.9,2.5c-11.5,2.8-21.3,6-29.6,9.6
						c-2.4,1-5.8,2.2-10,3.6v0.2h17.7c2.4,0,5.5-0.1,9.4-0.2c4.1,0.9,6.1,1.8,6.1,2.8v1.2h0.3v0.5c-0.9,0-1.3,0.2-1.3,0.5
						c0.2,0.9,0.3,1.4,0.3,1.5c-0.4,0.6-0.7,1.1-0.7,1.5V78c-0.7,0.1-6.1,2.8-16.1,8.1c-11.6,6-31,17.9-57.9,35.8
						c-5.5,4-12.5,6.9-20.9,8.6c0-0.3-0.3-0.5-1-0.5v-0.2c0-0.9,4.2-5.5,12.6-13.9v-0.3c-0.4,0-0.7-0.2-0.7-0.5v-3.3
						c0-1.8,1.4-5.6,4.2-11.4c7.1-21.2,12.9-38,17.4-50.2l1.9-1.3h1.9l0.9,0.5l1.6-1c0.1,0.4,0.3,0.5,0.6,0.5
						C45.5,48.3,59.7,47.7,88,46.8z M41.4,78c-0.4,0.6-3.6,10.1-9.6,28.4h0.3c19.6-12.9,34.8-22.1,45.7-27.6v-0.3H63.3
						C60.2,78.5,52.9,78.4,41.4,78z M74.8,56.5C57,56.9,48.1,57.4,48.1,58c0,0.4-0.6,2.3-1.9,5.6c0.3,0,0.6,0.3,1,0.8l-0.3,0.5
						c0.4,0.1,0.6,0.2,0.6,0.5c-0.5,0.3-0.9,0.5-1.3,0.5c0.2,0.3,0.3,0.6,0.3,0.8c4.4-1,14.3-4.4,29.6-10.2v-0.2
						C75.4,56.4,74.9,56.5,74.8,56.5z"/>
					<path class="st4" d="M111.4,103.7c0.4,0.2,0.7,0.3,0.7,0.5c0.1,0,0.2-0.1,0.2-0.2c0.6,0.1,1,0.2,1.3,0.2l0.3-0.2
						c0.5,0,0.8,0.4,0.8,1.2l0.3-0.2h0.2c0.7,0.2,1,0.8,1,2.1c0,3.7-1.2,6.9-3.6,9.6c-1.1,0.4-2.1,0.9-2.8,1.5l-0.2-0.3l-0.3,0.2
						c-0.7-1-1.3-1.5-1.8-1.5c-1.6,1.2-2.5,1.8-2.6,1.8v-0.2c0.1-0.2,0.2-0.4,0.2-0.5c-0.2,0-0.3,0.2-0.3,0.5h-0.3l-0.2-0.9
						c0-1.3-0.1-3.1-0.3-5.4c1-3.4,1.6-5.4,2-5.7c0.4,0,0.7-0.3,0.7-1l0.3-0.2v0.5h0.5c0.2,0,0.3-0.2,0.3-0.5h0.3
						c0.1,0.5,0.2,0.7,0.5,0.7c0.4,0,0.7-0.5,0.7-1.4h0.7c0.5,0.4,0.8,0.7,0.8,0.7h0.2v-0.2l-0.2-0.9
						C111,103.8,111.2,103.7,111.4,103.7z"/>
					<path class="st4" d="M179.5,47.4h1.4c3,0,6.6,0.5,10.7,1.4v-0.2c-0.2-0.3-0.3-0.5-0.3-0.6h0.3c0.4,0,0.5,0.2,0.5,0.6h0.3v-0.2
						c-0.2-0.2-0.3-0.5-0.3-0.8h0.3c0.2,0,1,0.6,2.5,1.8c1-0.1,1.5-0.2,1.6-0.2c3.1,0.7,6,3.2,8.5,7.3c4.2,7.9,6.3,15.1,6.3,21.7
						c0,3-1.1,9.5-3.3,19.4h-0.5V96h-0.3l-0.3,2h-0.5l-0.5-3.9h-0.3c-1.5,3.7-6.6,9.1-15.3,16c-6.3,5-13.2,9-20.8,12
						c-5.4,1.7-9.3,2.5-11.5,2.5c-2.4,0-7.5-0.8-15.3-2.5c-5.2,0-9.9-2.4-14.3-7.3c-1.6-3.7-2.5-7.6-2.5-11.8
						c0-11.1,4.5-21.6,13.4-31.3c3-4.4,8.2-9.1,15.6-14.1c7.3-3.8,11.2-5.7,11.5-5.7c0-1.2,3.2-2.5,9.6-4.1
						C176.8,47.6,178,47.4,179.5,47.4z M147.8,83.5c0.9,1.5,1.4,2.9,1.4,4.1c-2.7,6.4-4.1,10.4-4.1,11.8c0,3,1.4,6.1,4.1,9.4
						c3.5,1.4,6,2.1,7.4,2.1c9.2-1,14.8-2.3,17-3.9c8.6-4.9,12.9-8,12.9-9.4c6.6-9.4,9.9-18.9,9.9-28.8c0-2.2-0.6-3.4-1.7-3.7
						c-6.4-4.3-10.5-6.5-12.3-6.5l-3.3,2c-6.3,2.3-12.5,5.3-18.4,9.2c-3.5,2.6-5.2,4.5-5.2,5.7C154.1,75.4,151.5,78.1,147.8,83.5z"
						/>
					<path class="st4" d="M219.8,103.7c0.4,0.2,0.7,0.3,0.7,0.5c0.1,0,0.2-0.1,0.2-0.2c0.6,0.1,1,0.2,1.3,0.2l0.3-0.2
						c0.5,0,0.8,0.4,0.8,1.2l0.3-0.2h0.2c0.7,0.2,1,0.8,1,2.1c0,3.7-1.2,6.9-3.6,9.6c-1.1,0.4-2.1,0.9-2.8,1.5l-0.2-0.3l-0.3,0.2
						c-0.7-1-1.3-1.5-1.8-1.5c-1.6,1.2-2.5,1.8-2.6,1.8v-0.2c0.1-0.2,0.2-0.4,0.2-0.5c-0.2,0-0.3,0.2-0.3,0.5h-0.3l-0.2-0.9
						c0-1.3-0.1-3.1-0.3-5.4c1-3.4,1.6-5.4,2-5.7c0.4,0,0.7-0.3,0.7-1l0.3-0.2v0.5h0.5c0.2,0,0.3-0.2,0.3-0.5h0.3
						c0.1,0.5,0.2,0.7,0.5,0.7c0.4,0,0.7-0.5,0.7-1.4h0.7c0.5,0.4,0.8,0.7,0.8,0.7h0.2v-0.2l-0.2-0.9
						C219.3,103.8,219.6,103.7,219.8,103.7z"/>
					<path class="st4" d="M306.7,46.8h18.6c2.4,0.4,3.5,1,3.5,1.8v0.8c0.4,0,0.7,0.1,0.7,0.2c-0.2,0.2-0.3,0.6-0.3,1.3
						c0.3,0,0.8,0.3,1.3,1l-0.7,0.2c0-0.2-0.1-0.2-0.3-0.2v0.7l0.6,0.8c-1.9,0.7-2.9,1.5-2.9,2.5c-11.5,2.8-21.3,6-29.6,9.6
						c-2.4,1-5.8,2.2-10,3.6v0.2h17.7c2.4,0,5.5-0.1,9.4-0.2c4.1,0.9,6.1,1.8,6.1,2.8v1.2h0.3v0.5c-0.9,0-1.3,0.2-1.3,0.5
						c0.2,0.9,0.3,1.4,0.3,1.5c-0.4,0.6-0.7,1.1-0.7,1.5V78c-0.7,0.1-6.1,2.8-16.1,8.1c-11.6,6-31,17.9-57.9,35.8
						c-5.5,4-12.5,6.9-20.9,8.6c0-0.3-0.3-0.5-1-0.5v-0.2c0-0.9,4.2-5.5,12.6-13.9v-0.3c-0.4,0-0.7-0.2-0.7-0.5v-3.3
						c0-1.8,1.4-5.6,4.2-11.4c7.1-21.2,12.9-38,17.4-50.2l1.9-1.3h1.9l0.9,0.5l1.6-1c0.1,0.4,0.3,0.5,0.6,0.5
						C264.2,48.3,278.3,47.7,306.7,46.8z M260,78c-0.4,0.6-3.6,10.1-9.6,28.4h0.3c19.6-12.9,34.8-22.1,45.7-27.6v-0.3h-14.5
						C278.8,78.5,271.5,78.4,260,78z M293.4,56.5c-17.8,0.4-26.7,0.9-26.7,1.5c0,0.4-0.6,2.3-1.9,5.6c0.3,0,0.6,0.3,1,0.8l-0.3,0.5
						c0.4,0.1,0.6,0.2,0.6,0.5c-0.5,0.3-0.9,0.5-1.3,0.5c0.2,0.3,0.3,0.6,0.3,0.8c4.4-1,14.3-4.4,29.6-10.2v-0.2
						C294,56.4,293.6,56.5,293.4,56.5z"/>
				</g>
				<g>
					
						<linearGradient id="SVGID_4_" gradientUnits="userSpaceOnUse" x1="58.4166" y1="204.8783" x2="58.4166" y2="121.1783" gradientTransform="matrix(1 0 0 -1 0 251.7228)">
						<stop  offset="0" style="stop-color:#156DFF"/>
						<stop  offset="0.2039" style="stop-color:#159AFF"/>
						<stop  offset="0.4609" style="stop-color:#FFFFFF"/>
						<stop  offset="0.5" style="stop-color:#0050E9"/>
						<stop  offset="1" style="stop-color:#04006A"/>
					</linearGradient>
					<path class="st5" d="M88,46.8h18.7c2.4,0.4,3.5,1,3.5,1.8v0.8c0.4,0,0.7,0.1,0.7,0.2c-0.2,0.2-0.3,0.6-0.3,1.3
						c0.3,0,0.8,0.3,1.3,1l-0.7,0.2c0-0.2-0.1-0.2-0.3-0.2v0.7l0.6,0.8c-1.9,0.7-2.9,1.5-2.9,2.5c-11.5,2.8-21.3,6-29.6,9.6
						c-2.4,1-5.8,2.2-10,3.6v0.2h17.7c2.4,0,5.5-0.1,9.4-0.2c4.1,0.9,6.1,1.8,6.1,2.8v1.2h0.3v0.5c-0.9,0-1.3,0.2-1.3,0.5
						c0.2,0.9,0.3,1.4,0.3,1.5c-0.4,0.6-0.7,1.1-0.7,1.5V78c-0.7,0.1-6.1,2.8-16.1,8.1c-11.6,6-31,17.9-57.9,35.8
						c-5.5,4-12.5,6.9-20.9,8.6c0-0.3-0.3-0.5-1-0.5v-0.2c0-0.9,4.2-5.5,12.6-13.9v-0.3c-0.4,0-0.7-0.2-0.7-0.5v-3.3
						c0-1.8,1.4-5.6,4.2-11.4c7.1-21.2,12.9-38,17.4-50.2l1.9-1.3h1.9l0.9,0.5l1.6-1c0.1,0.4,0.3,0.5,0.6,0.5
						C45.5,48.3,59.7,47.7,88,46.8z M41.4,78c-0.4,0.6-3.6,10.1-9.6,28.4h0.3c19.6-12.9,34.8-22.1,45.7-27.6v-0.3H63.3
						C60.2,78.5,52.9,78.4,41.4,78z M74.8,56.5C57,56.9,48.1,57.4,48.1,58c0,0.4-0.6,2.3-1.9,5.6c0.3,0,0.6,0.3,1,0.8l-0.3,0.5
						c0.4,0.1,0.6,0.2,0.6,0.5c-0.5,0.3-0.9,0.5-1.3,0.5c0.2,0.3,0.3,0.6,0.3,0.8c4.4-1,14.3-4.4,29.6-10.2v-0.2
						C75.4,56.4,74.9,56.5,74.8,56.5z"/>
					
						<linearGradient id="SVGID_5_" gradientUnits="userSpaceOnUse" x1="110.1166" y1="204.8652" x2="110.1166" y2="121.1519" gradientTransform="matrix(1 0 0 -1 0 251.7228)">
						<stop  offset="0" style="stop-color:#156DFF"/>
						<stop  offset="0.2039" style="stop-color:#159AFF"/>
						<stop  offset="0.4609" style="stop-color:#FFFFFF"/>
						<stop  offset="0.5" style="stop-color:#0050E9"/>
						<stop  offset="1" style="stop-color:#04006A"/>
					</linearGradient>
					<path class="st6" d="M111.4,103.7c0.4,0.2,0.7,0.3,0.7,0.5c0.1,0,0.2-0.1,0.2-0.2c0.6,0.1,1,0.2,1.3,0.2l0.3-0.2
						c0.5,0,0.8,0.4,0.8,1.2l0.3-0.2h0.2c0.7,0.2,1,0.8,1,2.1c0,3.7-1.2,6.9-3.6,9.6c-1.1,0.4-2.1,0.9-2.8,1.5l-0.2-0.3l-0.3,0.2
						c-0.7-1-1.3-1.5-1.8-1.5c-1.6,1.2-2.5,1.8-2.6,1.8v-0.2c0.1-0.2,0.2-0.4,0.2-0.5c-0.2,0-0.3,0.2-0.3,0.5h-0.3l-0.2-0.9
						c0-1.3-0.1-3.1-0.3-5.4c1-3.4,1.6-5.4,2-5.7c0.4,0,0.7-0.3,0.7-1l0.3-0.2v0.5h0.5c0.2,0,0.3-0.2,0.3-0.5h0.3
						c0.1,0.5,0.2,0.7,0.5,0.7c0.4,0,0.7-0.5,0.7-1.4h0.7c0.5,0.4,0.8,0.7,0.8,0.7h0.2v-0.2l-0.2-0.9
						C111,103.8,111.2,103.7,111.4,103.7z"/>
					
						<linearGradient id="SVGID_6_" gradientUnits="userSpaceOnUse" x1="168.6166" y1="204.8652" x2="168.6166" y2="121.1519" gradientTransform="matrix(1 0 0 -1 0 251.7228)">
						<stop  offset="0" style="stop-color:#156DFF"/>
						<stop  offset="0.2039" style="stop-color:#159AFF"/>
						<stop  offset="0.4609" style="stop-color:#FFFFFF"/>
						<stop  offset="0.5" style="stop-color:#0050E9"/>
						<stop  offset="1" style="stop-color:#04006A"/>
					</linearGradient>
					<path class="st7" d="M179.5,47.4h1.4c3,0,6.6,0.5,10.7,1.4v-0.2c-0.2-0.3-0.3-0.5-0.3-0.6h0.3c0.4,0,0.5,0.2,0.5,0.6h0.3v-0.2
						c-0.2-0.2-0.3-0.5-0.3-0.8h0.3c0.2,0,1,0.6,2.5,1.8c1-0.1,1.5-0.2,1.6-0.2c3.1,0.7,6,3.2,8.5,7.3c4.2,7.9,6.3,15.1,6.3,21.7
						c0,3-1.1,9.5-3.3,19.4h-0.5V96h-0.3l-0.3,2h-0.5l-0.5-3.9h-0.3c-1.5,3.7-6.6,9.1-15.3,16c-6.3,5-13.2,9-20.8,12
						c-5.4,1.7-9.3,2.5-11.5,2.5c-2.4,0-7.5-0.8-15.3-2.5c-5.2,0-9.9-2.4-14.3-7.3c-1.6-3.7-2.5-7.6-2.5-11.8
						c0-11.1,4.5-21.6,13.4-31.3c3-4.4,8.2-9.1,15.6-14.1c7.3-3.8,11.2-5.7,11.5-5.7c0-1.2,3.2-2.5,9.6-4.1
						C176.8,47.6,178,47.4,179.5,47.4z M147.8,83.5c0.9,1.5,1.4,2.9,1.4,4.1c-2.7,6.4-4.1,10.4-4.1,11.8c0,3,1.4,6.1,4.1,9.4
						c3.5,1.4,6,2.1,7.4,2.1c9.2-1,14.8-2.3,17-3.9c8.6-4.9,12.9-8,12.9-9.4c6.6-9.4,9.9-18.9,9.9-28.8c0-2.2-0.6-3.4-1.7-3.7
						c-6.4-4.3-10.5-6.5-12.3-6.5l-3.3,2c-6.3,2.3-12.5,5.3-18.4,9.2c-3.5,2.6-5.2,4.5-5.2,5.7C154.1,75.4,151.5,78.1,147.8,83.5z"
						/>
					
						<linearGradient id="SVGID_7_" gradientUnits="userSpaceOnUse" x1="218.5166" y1="204.8652" x2="218.5166" y2="121.1519" gradientTransform="matrix(1 0 0 -1 0 251.7228)">
						<stop  offset="0" style="stop-color:#156DFF"/>
						<stop  offset="0.2039" style="stop-color:#159AFF"/>
						<stop  offset="0.4609" style="stop-color:#FFFFFF"/>
						<stop  offset="0.5" style="stop-color:#0050E9"/>
						<stop  offset="1" style="stop-color:#04006A"/>
					</linearGradient>
					<path class="st8" d="M219.8,103.7c0.4,0.2,0.7,0.3,0.7,0.5c0.1,0,0.2-0.1,0.2-0.2c0.6,0.1,1,0.2,1.3,0.2l0.3-0.2
						c0.5,0,0.8,0.4,0.8,1.2l0.3-0.2h0.2c0.7,0.2,1,0.8,1,2.1c0,3.7-1.2,6.9-3.6,9.6c-1.1,0.4-2.1,0.9-2.8,1.5l-0.2-0.3l-0.3,0.2
						c-0.7-1-1.3-1.5-1.8-1.5c-1.6,1.2-2.5,1.8-2.6,1.8v-0.2c0.1-0.2,0.2-0.4,0.2-0.5c-0.2,0-0.3,0.2-0.3,0.5h-0.3l-0.2-0.9
						c0-1.3-0.1-3.1-0.3-5.4c1-3.4,1.6-5.4,2-5.7c0.4,0,0.7-0.3,0.7-1l0.3-0.2v0.5h0.5c0.2,0,0.3-0.2,0.3-0.5h0.3
						c0.1,0.5,0.2,0.7,0.5,0.7c0.4,0,0.7-0.5,0.7-1.4h0.7c0.5,0.4,0.8,0.7,0.8,0.7h0.2v-0.2l-0.2-0.9
						C219.3,103.8,219.6,103.7,219.8,103.7z"/>
					
						<linearGradient id="SVGID_8_" gradientUnits="userSpaceOnUse" x1="277.0166" y1="204.8783" x2="277.0166" y2="121.1783" gradientTransform="matrix(1 0 0 -1 0 251.7228)">
						<stop  offset="0" style="stop-color:#156DFF"/>
						<stop  offset="0.2039" style="stop-color:#159AFF"/>
						<stop  offset="0.4609" style="stop-color:#FFFFFF"/>
						<stop  offset="0.5" style="stop-color:#0050E9"/>
						<stop  offset="1" style="stop-color:#04006A"/>
					</linearGradient>
					<path class="st9" d="M306.7,46.8h18.6c2.4,0.4,3.5,1,3.5,1.8v0.8c0.4,0,0.7,0.1,0.7,0.2c-0.2,0.2-0.3,0.6-0.3,1.3
						c0.3,0,0.8,0.3,1.3,1l-0.7,0.2c0-0.2-0.1-0.2-0.3-0.2v0.7l0.6,0.8c-1.9,0.7-2.9,1.5-2.9,2.5c-11.5,2.8-21.3,6-29.6,9.6
						c-2.4,1-5.8,2.2-10,3.6v0.2h17.7c2.4,0,5.5-0.1,9.4-0.2c4.1,0.9,6.1,1.8,6.1,2.8v1.2h0.3v0.5c-0.9,0-1.3,0.2-1.3,0.5
						c0.2,0.9,0.3,1.4,0.3,1.5c-0.4,0.6-0.7,1.1-0.7,1.5V78c-0.7,0.1-6.1,2.8-16.1,8.1c-11.6,6-31,17.9-57.9,35.8
						c-5.5,4-12.5,6.9-20.9,8.6c0-0.3-0.3-0.5-1-0.5v-0.2c0-0.9,4.2-5.5,12.6-13.9v-0.3c-0.4,0-0.7-0.2-0.7-0.5v-3.3
						c0-1.8,1.4-5.6,4.2-11.4c7.1-21.2,12.9-38,17.4-50.2l1.9-1.3h1.9l0.9,0.5l1.6-1c0.1,0.4,0.3,0.5,0.6,0.5
						C264.2,48.3,278.3,47.7,306.7,46.8z M260,78c-0.4,0.6-3.6,10.1-9.6,28.4h0.3c19.6-12.9,34.8-22.1,45.7-27.6v-0.3h-14.5
						C278.8,78.5,271.5,78.4,260,78z M293.4,56.5c-17.8,0.4-26.7,0.9-26.7,1.5c0,0.4-0.6,2.3-1.9,5.6c0.3,0,0.6,0.3,1,0.8l-0.3,0.5
						c0.4,0.1,0.6,0.2,0.6,0.5c-0.5,0.3-0.9,0.5-1.3,0.5c0.2,0.3,0.3,0.6,0.3,0.8c4.4-1,14.3-4.4,29.6-10.2v-0.2
						C294,56.4,293.6,56.5,293.4,56.5z"/>
				</g>
			</g>
		</g>
	</g>
	<rect x="75" y="147.8" class="st10" width="240.2" height="33.4"/>
	<rect x="299.3" y="139" class="st10" width="5.4" height="0.4"/>
	<rect x="378.1" y="125.7" class="st10" width="10.8" height="0.4"/>
	<g>
		<g>
			<g>
				
					<linearGradient id="SVGID_9_" gradientUnits="userSpaceOnUse" x1="75.7686" y1="143.3434" x2="75.7686" y2="73.5511" gradientTransform="matrix(1 0 0 -1 0 251.7228)">
					<stop  offset="2.234637e-02" style="stop-color:#FFC3FF"/>
					<stop  offset="6.145251e-02" style="stop-color:#FF00FF"/>
					<stop  offset="0.6955" style="stop-color:#E000BB"/>
					<stop  offset="1" style="stop-color:#8D0080"/>
				</linearGradient>
				<path class="st11" d="M97.8,110.9c1,0.7,1.6,1.5,1.9,2.5c0.3,1,0.4,2,0.2,3.1s-0.4,2.1-0.9,3.2c-0.5,1-1,2-1.6,2.7
					c-0.5,0.7-1.1,1.4-1.7,2c-0.6,0.6-1.3,1.2-2,1.8c0,0-0.1,0.1-0.3,0.2s-0.4,0.2-0.6,0.4c-0.2,0.1-0.4,0.2-0.5,0.3
					c-0.2,0.1-0.2,0.1-0.2,0l0,0V127l0.1-0.1c0.5-0.7,1-1.3,1.4-1.8s0.7-0.9,1-1.4c0.3-0.4,0.6-0.8,0.8-1.3c0.3-0.4,0.5-0.9,0.8-1.4
					c0.3-0.6,0.7-1.3,1-2.2s0.5-1.7,0.6-2.5c0-0.8-0.1-1.6-0.4-2.2c-0.3-0.7-1-1.2-2.1-1.5c-0.9-0.2-1.9-0.2-2.8-0.1
					s-1.8,0.3-2.7,0.6s-1.8,0.6-2.7,1s-1.7,0.8-2.5,1.2c-3.4,1.8-6.5,4-9.3,6.6c-2.9,2.6-5.5,5.4-8,8.3c-1.2,1.5-2.4,3-3.6,4.5
					c-1.2,1.5-2.3,3.1-3.3,4.8c-1,1.6-1.9,3.3-2.7,5.1c-0.8,1.7-1.5,3.6-2,5.4c-0.3,0.9-0.4,1.9-0.5,2.9s0.1,2,0.6,3
					c0.5,0.8,1.2,1.4,2.1,1.7c0.9,0.3,1.9,0.5,2.9,0.4c1,0,2.1-0.1,3.1-0.4c1-0.2,1.9-0.5,2.7-0.7c2.9-1,5.7-2.3,8.4-3.8
					c2.6-1.5,5.2-3.2,7.6-5.1c2.5-1.9,4.8-3.9,7.2-6.1c2.3-2.2,4.7-4.5,7-6.8c0,0,0.1-0.1,0.2-0.2c0.1-0.1,0.2-0.2,0.4-0.4
					c0.1-0.1,0.2-0.2,0.3-0.3s0.2-0.1,0.2,0c0,0.2-0.1,0.5-0.3,0.9s-0.4,0.7-0.6,1c-0.8,1.3-1.8,2.6-2.8,3.9c-1,1.3-2.1,2.6-3.1,3.7
					c-2.5,2.7-5.2,5.3-8.1,7.5c-2.9,2.3-5.9,4.3-9.2,6.1c-1.3,0.7-2.8,1.3-4.5,2.1c-1.7,0.7-3.5,1.3-5.3,1.7
					c-1.8,0.4-3.6,0.5-5.3,0.3s-3.3-0.8-4.6-2c-0.9-0.8-1.6-1.8-2-2.9s-0.6-2.2-0.6-3.5s0.1-2.4,0.4-3.7c0.3-1.2,0.6-2.4,1-3.5
					c1.4-3.6,3.1-7,5.2-10.1s4.4-6.1,7-9c2.5-2.8,5.3-5.5,8.2-8s6.1-4.6,9.5-6.4c0.9-0.5,2.1-0.9,3.3-1.4c1.3-0.5,2.6-0.9,3.9-1.1
					s2.7-0.4,4-0.3C95.5,109.8,96.7,110.2,97.8,110.9z"/>
				
					<linearGradient id="SVGID_10_" gradientUnits="userSpaceOnUse" x1="103.0071" y1="143.3434" x2="103.0071" y2="73.5511" gradientTransform="matrix(1 0 0 -1 0 251.7228)">
					<stop  offset="2.234637e-02" style="stop-color:#FFC3FF"/>
					<stop  offset="6.145251e-02" style="stop-color:#FF00FF"/>
					<stop  offset="0.6955" style="stop-color:#E000BB"/>
					<stop  offset="1" style="stop-color:#8D0080"/>
				</linearGradient>
				<path class="st12" d="M112.3,141.8c-0.3,0.3-0.6,0.6-0.9,1c-0.3,0.4-0.7,0.7-1,1s-0.5,0.5-0.6,0.6c-1.3,1.1-2.6,2.3-4,3.4
					c-1.4,1.1-2.9,2.1-4.5,3c-0.8,0.5-1.6,0.9-2.5,1.3c-0.8,0.4-1.7,0.6-2.6,0.6c-0.8,0-1.5-0.3-2.1-0.8s-0.9-1.2-0.8-2
					c0.2-1.9,0.8-3.5,1.8-5s2.1-2.9,3.4-4.3c0.6-0.7,1.3-1.3,2-1.8c0.7-0.6,1.4-1.1,2.2-1.6c0.7-0.5,1.5-1,2.3-1.4s1.6-0.7,2.5-1
					c0.4-0.1,0.8-0.2,1.3-0.2s0.9,0.1,1.3,0.3c0.8,0.5,1.1,1.1,1.1,1.9c-0.1,0.8-0.4,1.6-0.9,2.5c-0.3,0.4-0.5,0.7-0.8,1
					s-0.5,0.7-0.8,1c-1.2,1.3-2.5,2.4-4,3.2c-1,0.6-2.1,1.1-3.1,1.5s-2.2,0.8-3.6,1.2c-0.7,0.9-1.2,2-1.6,3.1c0.9,0,2-0.2,3.1-0.7
					c1.1-0.4,2.3-1,3.4-1.7s2.3-1.4,3.4-2.1s2.1-1.4,3-2c0.1,0,0.3-0.2,0.6-0.4c0.4-0.3,0.7-0.5,1.2-0.9c0.4-0.3,1-0.7,1.6-1.2
					C112.7,141.4,112.6,141.5,112.3,141.8z M100.1,143.9c-0.3,0.4-0.6,0.7-0.8,0.9c-0.2,0.3-0.4,0.6-0.6,0.9
					c1.1-0.3,2.2-0.7,3.3-1.3s2-1.2,2.9-2s1.7-1.7,2.4-2.6c0.7-1,1.3-2,1.6-3.2c-1.7,0.8-3.3,1.9-4.7,3.2S101.4,142.5,100.1,143.9z"
					/>
				
					<linearGradient id="SVGID_11_" gradientUnits="userSpaceOnUse" x1="113.6666" y1="143.3434" x2="113.6666" y2="73.5511" gradientTransform="matrix(1 0 0 -1 0 251.7228)">
					<stop  offset="2.234637e-02" style="stop-color:#FFC3FF"/>
					<stop  offset="6.145251e-02" style="stop-color:#FF00FF"/>
					<stop  offset="0.6955" style="stop-color:#E000BB"/>
					<stop  offset="1" style="stop-color:#8D0080"/>
				</linearGradient>
				<path class="st13" d="M124.1,142.1c0,0.1-0.1,0.2-0.4,0.5s-0.6,0.6-1,0.9c-0.4,0.3-0.8,0.7-1.2,1s-0.7,0.5-0.8,0.7
					c-0.5,0.4-1,0.8-1.5,1.2s-1,0.8-1.5,1.2c-0.8,0.7-1.5,1.3-2.3,2c-0.7,0.7-1.4,1.3-2.2,2.1c-0.2,0.2-0.4,0.4-0.7,0.7
					c-0.2,0.2-0.4,0.4-0.7,0.6c-0.5,0.3-0.9,0.3-1.4,0.1s-0.8-0.6-0.8-1.2c-0.1-0.5,0-1,0.3-1.6c0.3-0.5,0.5-1,0.8-1.4
					c0.8-1.2,1.5-2.4,2.4-3.6c0.8-1.2,1.6-2.4,2.3-3.6c0.1-0.2,0.2-0.4,0.1-0.7c-0.1-0.3-0.2-0.6-0.2-0.8c-1.1,1-2.3,2-3.7,3
					s-2.7,2-3.9,2.8s-2.2,1.5-3.1,1.9c-0.9,0.5-1.3,0.6-1.4,0.5c0-0.1,0.2-0.3,0.8-0.7c0.5-0.4,1.2-1,2-1.6c0.8-0.7,1.7-1.4,2.7-2.2
					s1.9-1.6,2.8-2.4c0.9-0.8,1.6-1.5,2.2-2.2c0.6-0.7,1-1.3,1.1-1.7c0-0.6,0-1.2,0-1.9s0.3-1.3,0.8-1.8c0.4-0.4,0.9-0.6,1.4-0.6
					c0.6,0,1,0.3,1.2,0.9s0.3,1.2,0,1.7c-0.2,0.5-0.5,1.1-0.7,1.5c-0.1,0.2-0.1,0.3-0.2,0.4c-0.1,0.1-0.1,0.3-0.1,0.5
					c0.1,0.5,0.2,0.9,0.4,1.3s0.4,0.8,0.6,1.3c0.3,0.7,0.3,1.3,0.2,1.8s-0.4,1.1-0.8,1.7c-0.4,0.6-0.8,1.1-1.2,1.7
					c-0.4,0.6-0.8,1.1-1.2,1.7c0.8-0.5,1.5-1,2.2-1.5s1.5-1,2.2-1.5c0.1-0.1,0.4-0.3,0.8-0.6c0.5-0.3,1-0.6,1.5-0.9s1-0.6,1.4-0.8
					C123.8,142.1,124,142,124.1,142.1z"/>
				
					<linearGradient id="SVGID_12_" gradientUnits="userSpaceOnUse" x1="130.4166" y1="143.3434" x2="130.4166" y2="73.5511" gradientTransform="matrix(1 0 0 -1 0 251.7228)">
					<stop  offset="2.234637e-02" style="stop-color:#FFC3FF"/>
					<stop  offset="6.145251e-02" style="stop-color:#FF00FF"/>
					<stop  offset="0.6955" style="stop-color:#E000BB"/>
					<stop  offset="1" style="stop-color:#8D0080"/>
				</linearGradient>
				<path class="st14" d="M140.7,132.1c0,0,0,0.1-0.1,0.3s-0.4,0.6-1,1.3s-1.4,1.7-2.5,3s-2.7,3.1-4.7,5.4c-1.5,1.6-2.9,3.2-4.3,4.6
					c-1.4,1.4-2.9,2.9-4.5,4.4c-0.3,0.3-0.6,0.6-0.9,0.8c-0.3,0.2-0.6,0.3-1.1,0.3c-0.4-0.1-0.8-0.3-1.1-0.6s-0.4-0.7-0.4-1.1
					c0-0.4,0.1-0.8,0.2-1.2c0.1-0.5,0.3-0.9,0.5-1.4s0.4-1,0.6-1.4c0.2-0.5,0.4-0.9,0.6-1.2c0.7-1.4,1.3-2.7,2.1-4.1
					c0.7-1.4,1.5-2.7,2.4-4.1c0.2-0.4,0.5-0.7,0.7-1.1c0.2-0.4,0.5-0.7,0.9-1c0.1-0.1,0.2-0.2,0.3-0.1c0,0.1,0.1,0.2,0.1,0.3
					s0,0.3,0,0.5s0,0.3,0,0.3c-0.1,0.7-0.4,1.5-0.7,2.5c-0.4,0.9-0.8,1.9-1.2,2.9s-0.8,1.9-1.3,2.9c-0.4,0.9-0.7,1.8-1,2.5
					c0.3-0.4,0.9-1,1.9-1.9c0.9-0.9,2-1.9,3.2-3s2.5-2.3,3.8-3.5s2.5-2.2,3.7-3.2c1.1-1,2.1-1.7,2.8-2.3
					C140.2,132.3,140.6,132,140.7,132.1z"/>
				
					<linearGradient id="SVGID_13_" gradientUnits="userSpaceOnUse" x1="141.4071" y1="143.3434" x2="141.4071" y2="73.5511" gradientTransform="matrix(1 0 0 -1 0 251.7228)">
					<stop  offset="2.234637e-02" style="stop-color:#FFC3FF"/>
					<stop  offset="6.145251e-02" style="stop-color:#FF00FF"/>
					<stop  offset="0.6955" style="stop-color:#E000BB"/>
					<stop  offset="1" style="stop-color:#8D0080"/>
				</linearGradient>
				<path class="st15" d="M150.7,141.8c-0.3,0.3-0.6,0.6-0.9,1c-0.3,0.4-0.7,0.7-1,1s-0.5,0.5-0.6,0.6c-1.3,1.1-2.6,2.3-4,3.4
					c-1.4,1.1-2.9,2.1-4.5,3c-0.8,0.5-1.6,0.9-2.5,1.3c-0.8,0.4-1.7,0.6-2.6,0.6c-0.8,0-1.5-0.3-2.1-0.8s-0.9-1.2-0.8-2
					c0.2-1.9,0.8-3.5,1.8-5s2.1-2.9,3.4-4.3c0.6-0.7,1.3-1.3,2-1.8c0.7-0.6,1.4-1.1,2.2-1.6c0.7-0.5,1.5-1,2.3-1.4s1.6-0.7,2.5-1
					c0.4-0.1,0.8-0.2,1.3-0.2s0.9,0.1,1.3,0.3c0.8,0.5,1.1,1.1,1.1,1.9c-0.1,0.8-0.4,1.6-0.9,2.5c-0.3,0.4-0.5,0.7-0.8,1
					s-0.5,0.7-0.8,1c-1.2,1.3-2.5,2.4-4,3.2c-1,0.6-2.1,1.1-3.1,1.5s-2.2,0.8-3.6,1.2c-0.7,0.9-1.2,2-1.6,3.1c0.9,0,2-0.2,3.1-0.7
					c1.1-0.4,2.3-1,3.4-1.7s2.3-1.4,3.4-2.1s2.1-1.4,3-2c0.1,0,0.3-0.2,0.6-0.4c0.4-0.3,0.7-0.5,1.2-0.9c0.4-0.3,1-0.7,1.6-1.2
					C151,141.4,150.9,141.5,150.7,141.8z M138.4,143.9c-0.3,0.4-0.6,0.7-0.8,0.9c-0.2,0.3-0.4,0.6-0.6,0.9c1.1-0.3,2.2-0.7,3.3-1.3
					s2-1.2,2.9-2s1.7-1.7,2.4-2.6c0.7-1,1.3-2,1.6-3.2c-1.7,0.8-3.3,1.9-4.7,3.2S139.8,142.5,138.4,143.9z"/>
				
					<linearGradient id="SVGID_14_" gradientUnits="userSpaceOnUse" x1="139.4344" y1="143.3434" x2="139.4344" y2="73.5511" gradientTransform="matrix(1 0 0 -1 0 251.7228)">
					<stop  offset="2.234637e-02" style="stop-color:#FFC3FF"/>
					<stop  offset="6.145251e-02" style="stop-color:#FF00FF"/>
					<stop  offset="0.6955" style="stop-color:#E000BB"/>
					<stop  offset="1" style="stop-color:#8D0080"/>
				</linearGradient>
				<path class="st16" d="M160.4,135.5c0.2,0.1,0,0.5-0.3,1.3c-0.4,0.8-0.9,1.7-1.6,2.8c-0.7,1.1-1.5,2.3-2.4,3.6s-1.7,2.5-2.5,3.6
					s-1.5,2.1-2.1,3s-1,1.3-1.1,1.5c-2.5,3.6-5.2,7-8.1,10.3c-2.9,3.3-6,6.3-9.5,9c-1.7,1.3-3.4,2.5-5.2,3.6s-3.7,2-5.7,2.7
					c-0.9,0.3-1.8,0.6-2.7,0.8s-1.9,0.4-2.8,0.4c-0.2,0-0.4,0-0.6,0s-0.4,0-0.6-0.1c-0.3-0.1-0.3-0.1-0.1-0.2
					c0.2-0.1,0.3-0.2,0.4-0.2c0.4-0.2,0.8-0.3,1.3-0.4c0.4-0.1,0.8-0.3,1.2-0.4c2-0.7,3.9-1.6,5.7-2.7s3.5-2.3,5.2-3.6
					s3.2-2.7,4.7-4.1c1.5-1.5,3-3,4.4-4.5c0.7-0.8,1.5-1.7,2.3-2.7s1.7-2.1,2.5-3.3c0.9-1.1,1.7-2.3,2.6-3.5
					c0.9-1.2,1.7-2.3,2.5-3.5c1.9-2.6,3.8-5.3,5.7-8.1c-1.4,1-2.8,1.9-4.2,2.8c-1.4,0.9-2.8,1.8-4.3,2.7c-0.1,0.1-0.3,0.2-0.6,0.3
					c-0.2,0.1-0.4,0.1-0.4,0.1c0-0.1,0-0.1,0.1-0.2c0.4-0.4,0.8-0.8,1.3-1.2s0.9-0.7,1.4-1.1c0.2-0.1,0.6-0.5,1.2-1s1.5-1.1,2.4-1.8
					s1.9-1.4,3-2.2s2.1-1.5,3-2.1c1-0.6,1.8-1.1,2.5-1.4C159.7,135.4,160.2,135.3,160.4,135.5z M163.8,127.1c0.1,0.3,0.1,0.5,0,0.8
					s-0.2,0.5-0.4,0.8c-0.2,0.2-0.4,0.5-0.6,0.7c-0.2,0.2-0.5,0.3-0.7,0.4c-0.2,0.1-0.4,0.2-0.7,0.2s-0.5,0.1-0.8,0
					c-0.3,0-0.5-0.1-0.7-0.2c-0.2-0.1-0.4-0.3-0.5-0.5c-0.2-0.5-0.1-1,0.2-1.5s0.7-0.8,1.1-1.1c0.2-0.1,0.4-0.2,0.7-0.3
					s0.6-0.1,0.9-0.1s0.6,0,0.9,0.1C163.4,126.6,163.6,126.8,163.8,127.1z"/>
				
					<linearGradient id="SVGID_15_" gradientUnits="userSpaceOnUse" x1="165.197" y1="143.3434" x2="165.197" y2="73.5511" gradientTransform="matrix(1 0 0 -1 0 251.7228)">
					<stop  offset="2.234637e-02" style="stop-color:#FFC3FF"/>
					<stop  offset="6.145251e-02" style="stop-color:#FF00FF"/>
					<stop  offset="0.6955" style="stop-color:#E000BB"/>
					<stop  offset="1" style="stop-color:#8D0080"/>
				</linearGradient>
				<path class="st17" d="M176.3,142.3c0,0,0,0.1-0.1,0.2c-0.4,0.4-0.8,0.8-1.3,1.1c-0.5,0.4-0.9,0.7-1.4,1.1
					c-1.5,1.1-3.1,2.3-4.9,3.8c-0.6,0.4-1.1,0.8-1.5,1.3c-0.4,0.4-0.9,0.9-1.4,1.3c-0.1,0.1-0.3,0.3-0.6,0.5s-0.4,0.4-0.5,0.4
					c-0.3,0.3-0.6,0.4-1,0.3c-0.4-0.1-0.8-0.3-1-0.6c-0.3-0.3-0.4-0.7-0.3-1.1c0.1-0.4,0.2-0.8,0.4-1.1c0.4-0.8,0.7-1.6,1.2-2.3
					c0.4-0.7,0.9-1.5,1.3-2.2c-0.5,0.4-1,0.9-1.4,1.3c-0.5,0.4-0.9,0.8-1.4,1.2c-0.7,0.7-1.4,1.3-2.2,1.9c-0.7,0.6-1.5,1.2-2.3,1.8
					c-0.2,0.2-0.4,0.3-0.7,0.5s-0.6,0.4-0.8,0.5c-0.3,0.1-0.6,0.2-0.9,0.2s-0.6-0.1-0.8-0.3c-0.4-0.3-0.5-0.6-0.6-1.1s0-0.9,0.2-1.2
					c0.3-1.1,0.9-2.3,1.6-3.4c0.7-1.1,1.5-2.2,2.3-3.1c0.8-0.9,1.5-1.7,2.2-2.3s1.1-1,1.3-1.2c0.6-0.6,1.3-1.1,2.1-1.7
					c0.8-0.6,1.7-1.1,2.6-1.6c0.9-0.5,1.9-0.9,2.8-1.2c1-0.3,1.9-0.4,2.8-0.4c0.5,0,1,0.1,1.5,0.2c0.6,0.1,1,0.4,1.2,0.7
					c0,0,0.1,0.1,0.1,0.2c0.1,0.1,0,0.2,0,0.1c-0.9-0.2-1.7-0.3-2.5-0.1s-1.6,0.4-2.4,0.8s-1.5,0.9-2.3,1.4
					c-0.7,0.6-1.4,1.1-2.1,1.6c-0.6,0.5-1.2,1.1-1.9,1.8s-1.4,1.4-2,2.3s-1.3,1.7-1.9,2.6s-1.1,1.9-1.6,2.9c1.3-0.8,2.7-1.8,4.1-2.9
					c1.5-1.1,2.9-2.1,4.2-3.2c0.7-0.6,1.4-1.1,2.1-1.6s1.5-1.1,2.2-1.7c0.2-0.2,0.4-0.4,0.8-0.6s0.6-0.5,0.9-0.7
					c0.3-0.2,0.6-0.4,0.8-0.6c0.2-0.2,0.4-0.3,0.5-0.3c0.3-0.1,0.5,0,0.6,0.2c0.2,0.2,0.2,0.4,0.1,0.6c0,0.1-0.1,0.2-0.2,0.3
					c-0.1,0.2-0.3,0.3-0.4,0.5c-0.2,0.2-0.3,0.4-0.5,0.5c-0.1,0.2-0.2,0.3-0.3,0.3c-0.5,0.6-1.1,1.3-1.7,2.1
					c-0.6,0.8-1.3,1.5-1.9,2.3c-0.6,0.7-1.1,1.4-1.6,1.9c-0.4,0.6-0.7,0.9-0.9,1.1c0.3-0.2,0.7-0.5,1.2-0.8s0.9-0.6,1.2-0.8
					c0.9-0.6,1.8-1.2,2.8-1.8c0.9-0.6,1.9-1.1,2.9-1.6c0.1-0.1,0.2-0.2,0.5-0.3C176.1,142.3,176.2,142.3,176.3,142.3z"/>
				
					<linearGradient id="SVGID_16_" gradientUnits="userSpaceOnUse" x1="206.5166" y1="143.3278" x2="206.5166" y2="73.5356" gradientTransform="matrix(1 0 0 -1 0 251.7228)">
					<stop  offset="2.234637e-02" style="stop-color:#FFC3FF"/>
					<stop  offset="6.145251e-02" style="stop-color:#FF00FF"/>
					<stop  offset="0.6955" style="stop-color:#E000BB"/>
					<stop  offset="1" style="stop-color:#8D0080"/>
				</linearGradient>
				<path class="st18" d="M226.7,108.4c0,0,0,0.1,0,0.3c0,0.2-0.1,0.3-0.2,0.5s-0.2,0.4-0.2,0.5c-0.1,0.2-0.1,0.3-0.2,0.3
					c-0.9,1.8-2,3.6-3.1,5.3c-1.1,1.7-2.3,3.5-3.4,5.2c-1.2,1.8-2.5,3.6-3.7,5.4c-1.3,1.8-2.5,3.6-3.8,5.4c-2,2.8-4,5.5-6,8.3
					s-4.1,5.5-6.3,8.2c0.3-0.2,0.7-0.5,1.2-0.8c0.4-0.3,0.8-0.5,1.1-0.7c0.9-0.7,1.9-1.3,3-2s2.1-1.2,3.1-1.8
					c0.1-0.1,0.2-0.2,0.5-0.3s0.4-0.2,0.5-0.1c-0.1,0.1-0.3,0.4-0.7,0.7c-0.4,0.4-0.9,0.7-1.4,1.2c-0.5,0.4-1,0.8-1.5,1.2
					s-0.8,0.6-1,0.8c-0.9,0.7-1.8,1.5-2.8,2.4s-1.9,1.7-2.7,2.5c-0.4,0.4-0.8,0.6-1,0.9c-0.2,0.2-0.6,0.5-1.1,0.7
					c-0.7,0.3-1.3,0.1-1.8-0.3c-0.3-0.3-0.3-0.7-0.2-1.2c0.1-0.5,0.2-0.9,0.4-1.2c0.3-0.8,0.8-1.7,1.4-2.6c0.6-1,1.2-1.8,1.7-2.5
					c-1.2,1.1-2.6,2.3-4.1,3.5s-3,2.4-4.4,3.4c-0.2,0.2-0.4,0.3-0.7,0.5c-0.3,0.2-0.6,0.4-0.8,0.5c-0.3,0.1-0.6,0.2-0.9,0.2
					s-0.6-0.1-0.8-0.3c-0.4-0.3-0.5-0.7-0.6-1.1c0-0.5,0-0.9,0.2-1.3c0.5-1.5,1.1-2.8,2-4c0.8-1.2,1.7-2.3,2.6-3.3s1.8-1.9,2.7-2.6
					c0.9-0.7,1.6-1.3,2.2-1.8c0.6-0.4,1.3-0.9,2.2-1.3c0.8-0.5,1.7-0.9,2.6-1.3c0.9-0.4,1.8-0.7,2.8-0.8c0.9-0.2,1.8-0.2,2.6,0
					c1-1.3,1.9-2.6,2.7-3.8s1.7-2.5,2.7-3.8c1.3-1.8,2.7-3.5,4-5.2s2.7-3.4,4-5.1c0.9-1.2,1.9-2.4,2.9-3.6s2-2.3,3.1-3.4
					c0,0,0.1-0.1,0.3-0.3c0.2-0.2,0.3-0.4,0.5-0.5s0.4-0.3,0.5-0.4C226.6,108.3,226.7,108.3,226.7,108.4z M189.6,149.7
					c1.2-0.9,2.5-1.8,3.8-2.8c1.3-0.9,2.7-2,4-3.1s2.6-2.3,3.9-3.7c1.3-1.3,2.4-2.8,3.5-4.5c-0.7,0-1.4,0.1-2.2,0.4
					c-0.8,0.3-1.5,0.6-2.2,1.1c-0.7,0.4-1.4,0.9-2,1.4s-1.1,0.9-1.6,1.3c-0.3,0.3-0.8,0.7-1.4,1.4s-1.3,1.5-2,2.4s-1.4,1.9-2.1,3
					C190.6,147.7,190.1,148.7,189.6,149.7z"/>
				
					<linearGradient id="SVGID_17_" gradientUnits="userSpaceOnUse" x1="213.5071" y1="143.3434" x2="213.5071" y2="73.5511" gradientTransform="matrix(1 0 0 -1 0 251.7228)">
					<stop  offset="2.234637e-02" style="stop-color:#FFC3FF"/>
					<stop  offset="6.145251e-02" style="stop-color:#FF00FF"/>
					<stop  offset="0.6955" style="stop-color:#E000BB"/>
					<stop  offset="1" style="stop-color:#8D0080"/>
				</linearGradient>
				<path class="st19" d="M222.8,141.8c-0.3,0.3-0.6,0.6-0.9,1s-0.7,0.7-1,1s-0.5,0.5-0.6,0.6c-1.3,1.1-2.6,2.3-4,3.4
					c-1.4,1.1-2.9,2.1-4.5,3c-0.8,0.5-1.6,0.9-2.5,1.3c-0.8,0.4-1.7,0.6-2.6,0.6c-0.8,0-1.5-0.3-2.1-0.8s-0.9-1.2-0.8-2
					c0.2-1.9,0.8-3.5,1.8-5s2.1-2.9,3.4-4.3c0.6-0.7,1.3-1.3,2-1.8c0.7-0.6,1.4-1.1,2.2-1.6c0.7-0.5,1.5-1,2.3-1.4s1.6-0.7,2.5-1
					c0.4-0.1,0.8-0.2,1.3-0.2s0.9,0.1,1.3,0.3c0.8,0.5,1.1,1.1,1.1,1.9c-0.1,0.8-0.4,1.6-0.9,2.5c-0.3,0.4-0.5,0.7-0.8,1
					s-0.5,0.7-0.8,1c-1.2,1.3-2.5,2.4-4,3.2c-1,0.6-2.1,1.1-3.1,1.5s-2.2,0.8-3.6,1.2c-0.7,0.9-1.2,2-1.6,3.1c0.9,0,2-0.2,3.1-0.7
					c1.1-0.4,2.3-1,3.4-1.7s2.3-1.4,3.4-2.1s2.1-1.4,3-2c0.1,0,0.3-0.2,0.6-0.4c0.4-0.3,0.7-0.5,1.2-0.9c0.4-0.3,1-0.7,1.6-1.2
					C223.2,141.4,223.1,141.5,222.8,141.8z M210.6,143.9c-0.3,0.4-0.6,0.7-0.8,0.9c-0.2,0.3-0.4,0.6-0.6,0.9
					c1.1-0.3,2.2-0.7,3.3-1.3c1.1-0.6,2-1.2,2.9-2s1.7-1.7,2.4-2.6c0.7-1,1.3-2,1.6-3.2c-1.7,0.8-3.3,1.9-4.7,3.2
					S211.9,142.5,210.6,143.9z"/>
				
					<linearGradient id="SVGID_18_" gradientUnits="userSpaceOnUse" x1="242.6055" y1="143.3434" x2="242.6055" y2="73.5511" gradientTransform="matrix(1 0 0 -1 0 251.7228)">
					<stop  offset="2.234637e-02" style="stop-color:#FFC3FF"/>
					<stop  offset="6.145251e-02" style="stop-color:#FF00FF"/>
					<stop  offset="0.6955" style="stop-color:#E000BB"/>
					<stop  offset="1" style="stop-color:#8D0080"/>
				</linearGradient>
				<path class="st20" d="M251,134.9c0.4,0.1,0.8,0.4,1,0.7c0.3,0.3,0.4,0.5,0.3,0.4c-0.1,0-0.2-0.1-0.4-0.1c-0.2,0-0.4-0.1-0.8-0.1
					c-0.6-0.1-1.2,0-1.9,0.2c-0.6,0.2-1.2,0.4-1.9,0.8c-0.6,0.3-1.2,0.8-1.9,1.2c-0.6,0.5-1.3,1-1.9,1.5c-0.3,0.3-0.8,0.8-1.6,1.6
					c-0.8,0.8-1.6,1.7-2.4,2.7s-1.5,2.1-2.1,3.2s-0.9,2.1-0.9,3.1c0.9-0.1,2.1-0.6,3.3-1.4c1.3-0.8,2.5-1.7,3.7-2.8s2.3-2.3,3.3-3.5
					s1.6-2.3,2-3.4c0.1-0.3,0.2-0.6,0.2-1c0-0.3,0-0.6-0.1-1c-0.1-0.2-0.1-0.3-0.1-0.3c0-0.1,0.2-0.1,0.4,0.2c0.2,0.3,0.4,0.6,0.5,1
					c0.4,1.5,0.2,3-0.6,4.6s-1.8,3-3.2,4.4c-1.4,1.3-2.8,2.5-4.5,3.5c-1.6,1-3.1,1.6-4.4,2c-0.9,0.3-1.7,0.3-2.5,0
					c-0.7-0.3-1.1-0.7-1.4-1.4s-0.3-1.3-0.2-2c0.1-0.8,0.4-1.7,0.7-2.4c0.3-0.8,0.8-1.5,1.3-2.3c0.5-0.7,1-1.4,1.7-2.2
					s1.5-1.6,2.3-2.3c0.9-0.8,1.8-1.5,2.8-2.2s2-1.3,3-1.7c1-0.5,2-0.8,3-1S250.1,134.6,251,134.9z"/>
				
					<linearGradient id="SVGID_19_" gradientUnits="userSpaceOnUse" x1="258.8354" y1="143.3434" x2="258.8354" y2="73.5511" gradientTransform="matrix(1 0 0 -1 0 251.7228)">
					<stop  offset="2.234637e-02" style="stop-color:#FFC3FF"/>
					<stop  offset="6.145251e-02" style="stop-color:#FF00FF"/>
					<stop  offset="0.6955" style="stop-color:#E000BB"/>
					<stop  offset="1" style="stop-color:#8D0080"/>
				</linearGradient>
				<path class="st21" d="M270.2,141.8c0.1,0.1,0,0.3-0.3,0.5s-0.4,0.4-0.5,0.4c-1.5,1.2-2.9,2.4-4.4,3.5c-0.9,0.7-1.7,1.4-2.5,2.2
					s-1.7,1.5-2.5,2.3l-1.2,1c-0.2,0.1-0.3,0.2-0.5,0.3s-0.3,0.2-0.5,0.2c-0.4,0.1-0.8,0-1.1-0.3c-0.3-0.2-0.5-0.6-0.6-1
					s0-0.9,0.2-1.3c0.2-0.5,0.4-0.9,0.6-1.3c0.5-1,1-1.9,1.6-2.7s1.3-1.8,2.2-2.9c-0.9,0.8-1.8,1.5-2.6,2.3
					c-0.8,0.8-1.7,1.5-2.5,2.3c-0.7,0.7-1.4,1.3-2.2,1.9c-0.7,0.6-1.5,1.2-2.2,1.8c-0.2,0.2-0.4,0.3-0.7,0.5
					c-0.3,0.2-0.6,0.4-0.8,0.5c-0.3,0.1-0.6,0.2-0.9,0.2s-0.6-0.1-0.8-0.3c-0.4-0.3-0.6-0.8-0.6-1.4c0-0.6,0.1-1.2,0.4-1.9
					c0.2-0.7,0.5-1.3,0.9-1.9c0.4-0.6,0.6-1,0.8-1.4c0.8-1.3,1.8-2.5,2.9-3.7s2.2-2.2,3.4-3.2c0.7-0.6,1.4-1.1,2.1-1.6
					c0.8-0.5,1.6-0.9,2.4-1.1c0,0,0.1,0,0.2,0s0.2,0,0.3,0c0.1,0,0.2,0,0.3,0c0.1,0,0,0.1,0,0.2c-0.1,0.2-0.3,0.3-0.4,0.4
					c-0.1,0.1-0.3,0.2-0.5,0.4c-0.4,0.3-0.7,0.6-1,0.9c-0.3,0.3-0.6,0.7-1,1c-0.7,0.8-1.4,1.6-2,2.5c-0.7,0.9-1.3,1.8-2,2.8
					c-0.7,0.9-1.3,1.9-1.9,2.8c-0.6,0.9-1.2,1.9-1.8,2.7c2.6-1.7,5.3-3.7,7.9-5.9c2.6-2.2,5.3-4.4,8.1-6.7c0.4-0.3,0.9-0.7,1.4-1.1
					c0.6-0.4,0.9-0.7,1.2-0.7c0.3,0,0.5,0,0.6,0.2c0.2,0.2,0.2,0.4,0.1,0.6c0,0.1-0.2,0.4-0.4,0.7c-0.3,0.3-0.4,0.6-0.5,0.7
					c-0.1,0.1-0.3,0.4-0.7,0.9c-0.4,0.5-0.8,1.1-1.4,1.8c-0.5,0.7-1.1,1.4-1.7,2.2s-1.2,1.5-1.7,2.3c-0.5,0.7-1,1.4-1.4,1.9
					c-0.4,0.6-0.6,0.9-0.7,1.1c0,0,0.3-0.2,0.7-0.5c0.5-0.3,1-0.7,1.6-1.2s1.3-0.9,2.1-1.4c0.8-0.5,1.5-1,2.1-1.4
					c0.7-0.4,1.2-0.7,1.7-1S270.1,141.7,270.2,141.8z"/>
				
					<linearGradient id="SVGID_20_" gradientUnits="userSpaceOnUse" x1="291.0291" y1="143.3434" x2="291.0291" y2="73.5511" gradientTransform="matrix(1 0 0 -1 0 251.7228)">
					<stop  offset="2.234637e-02" style="stop-color:#FFC3FF"/>
					<stop  offset="6.145251e-02" style="stop-color:#FF00FF"/>
					<stop  offset="0.6955" style="stop-color:#E000BB"/>
					<stop  offset="1" style="stop-color:#8D0080"/>
				</linearGradient>
				<path class="st22" d="M316.6,118.2c1.3-0.1,1.9-0.1,1.9,0c0,0-0.6,0.2-1.9,0.4c-0.6,0.1-1.3,0.3-2.2,0.4
					c-0.9,0.1-1.8,0.3-2.9,0.5c-2.9,0.5-5.7,0.9-8.4,1.3c-2.7,0.4-5.6,0.9-8.6,1.3c-1.5,0.2-3,0.4-4.4,0.6s-2.8,0.4-4.1,0.5
					c-1,1.5-1.9,2.8-2.6,3.9c-0.8,1.1-1.3,1.8-1.5,2.2c-1.2,1.7-2.4,3.4-3.7,5c-1.2,1.6-2.5,3.3-3.7,5c-1,1.4-2.1,2.7-3.1,4.1
					c-1,1.4-2,2.7-3,4.1c1.1-0.8,2.3-1.6,3.5-2.4c1.2-0.8,2.4-1.5,3.6-2.3c0.3-0.2,0.5-0.3,0.8-0.4c0.3-0.1,0.5-0.3,0.8-0.4
					c0.3-0.1,0.4-0.2,0.4-0.1c0,0.1-0.2,0.3-0.6,0.7c-0.4,0.3-0.8,0.7-1.3,1.1c-0.5,0.4-1,0.8-1.4,1.1c-0.5,0.3-0.8,0.6-0.9,0.7
					c-0.8,0.7-1.7,1.4-2.5,2.1c-0.8,0.7-1.7,1.4-2.5,2.2c-0.3,0.3-0.6,0.5-1,0.8c-0.3,0.3-0.6,0.6-1,0.9c-0.3,0.2-0.5,0.4-0.8,0.6
					s-0.6,0.2-1,0c-0.5-0.2-0.7-0.4-0.9-0.7c-0.1-0.3-0.1-0.7,0-1.1c0.1-0.4,0.3-0.8,0.5-1.2s0.4-0.7,0.6-1c0.3-0.6,0.7-1.1,1-1.6
					s0.7-1,1-1.5c1.2-1.9,2.5-3.7,3.8-5.4c1.3-1.8,2.6-3.6,3.8-5.4c0.4-0.5,0.8-1.1,1.4-2s1.3-1.7,2-2.6c0.7-0.9,1.4-1.9,2.2-3
					c0.8-1,1.5-2,2.3-3c-0.8,0.1-1.6,0.1-2.5,0.2c-0.9,0.1-1.8,0.2-2.6,0.2s-1.7,0.1-2.5,0.2c-0.8,0-1.5,0.1-2.2,0.1
					c-1.3,0-2-0.1-2-0.3c0-0.1,0.1-0.2,0.4-0.3s0.8-0.3,1.4-0.4c1.7-0.5,3.6-0.9,5.6-1.1c2.1-0.3,4.1-0.6,6.1-0.9
					c0.6-0.8,1.1-1.4,1.5-1.9s0.6-0.8,0.7-0.9c1.3-1.6,2.6-3.2,3.8-4.8c1.3-1.6,2.7-3.1,4.1-4.6c0,0,0.1-0.1,0.3-0.2
					c0.1-0.1,0.3-0.2,0.4-0.3c0.1-0.1,0.3-0.1,0.3-0.1c0.1,0,0.1,0.2,0,0.4c-0.4,0.9-0.9,1.8-1.4,2.7c-0.5,0.8-1.1,1.7-1.7,2.7
					c-0.6,0.9-1.3,1.9-2,3s-1.5,2.3-2.4,3.6c1-0.1,2.1-0.3,3.2-0.4c1.1-0.1,2.2-0.2,3.4-0.4c3-0.3,5.9-0.6,8.6-0.9
					c2.7-0.3,5.5-0.5,8.4-0.8c1.1-0.1,2.1-0.2,3-0.2C315.2,118.3,315.9,118.3,316.6,118.2z"/>
				
					<linearGradient id="SVGID_21_" gradientUnits="userSpaceOnUse" x1="279.0666" y1="143.3434" x2="279.0666" y2="73.5511" gradientTransform="matrix(1 0 0 -1 0 251.7228)">
					<stop  offset="2.234637e-02" style="stop-color:#FFC3FF"/>
					<stop  offset="6.145251e-02" style="stop-color:#FF00FF"/>
					<stop  offset="0.6955" style="stop-color:#E000BB"/>
					<stop  offset="1" style="stop-color:#8D0080"/>
				</linearGradient>
				<path class="st23" d="M289.5,142.1c0,0.1-0.1,0.2-0.4,0.5s-0.6,0.6-1,0.9c-0.4,0.3-0.8,0.7-1.2,1c-0.4,0.3-0.7,0.5-0.8,0.7
					c-0.5,0.4-1,0.8-1.5,1.2s-1,0.8-1.5,1.2c-0.8,0.7-1.5,1.3-2.3,2c-0.7,0.7-1.4,1.3-2.2,2.1c-0.2,0.2-0.4,0.4-0.7,0.7
					c-0.2,0.2-0.4,0.4-0.7,0.6c-0.5,0.3-0.9,0.3-1.4,0.1s-0.8-0.6-0.8-1.2c-0.1-0.5,0-1,0.3-1.6c0.3-0.5,0.5-1,0.8-1.4
					c0.8-1.2,1.5-2.4,2.4-3.6c0.8-1.2,1.6-2.4,2.3-3.6c0.1-0.2,0.2-0.4,0.1-0.7s-0.2-0.6-0.2-0.8c-1.1,1-2.3,2-3.7,3s-2.7,2-3.9,2.8
					c-1.2,0.8-2.2,1.5-3.1,1.9c-0.9,0.5-1.3,0.6-1.4,0.5c0-0.1,0.2-0.3,0.8-0.7c0.5-0.4,1.2-1,2-1.6c0.8-0.7,1.7-1.4,2.7-2.2
					s1.9-1.6,2.8-2.4c0.9-0.8,1.6-1.5,2.2-2.2s1-1.3,1.1-1.7c0-0.6,0-1.2,0-1.9s0.3-1.3,0.8-1.8c0.4-0.4,0.9-0.6,1.4-0.6
					c0.6,0,1,0.3,1.2,0.9s0.3,1.2,0,1.7c-0.2,0.5-0.5,1.1-0.7,1.5c-0.1,0.2-0.1,0.3-0.2,0.4c-0.1,0.1-0.1,0.3-0.1,0.5
					c0.1,0.5,0.2,0.9,0.4,1.3s0.4,0.8,0.6,1.3c0.3,0.7,0.3,1.3,0.2,1.8s-0.4,1.1-0.8,1.7c-0.4,0.6-0.8,1.1-1.2,1.7
					c-0.4,0.6-0.8,1.1-1.2,1.7c0.8-0.5,1.5-1,2.2-1.5s1.5-1,2.2-1.5c0.1-0.1,0.4-0.3,0.8-0.6c0.5-0.3,1-0.6,1.5-0.9s1-0.6,1.4-0.8
					C289.2,142.1,289.4,142,289.5,142.1z"/>
				
					<linearGradient id="SVGID_22_" gradientUnits="userSpaceOnUse" x1="293.9055" y1="143.3434" x2="293.9055" y2="73.5511" gradientTransform="matrix(1 0 0 -1 0 251.7228)">
					<stop  offset="2.234637e-02" style="stop-color:#FFC3FF"/>
					<stop  offset="6.145251e-02" style="stop-color:#FF00FF"/>
					<stop  offset="0.6955" style="stop-color:#E000BB"/>
					<stop  offset="1" style="stop-color:#8D0080"/>
				</linearGradient>
				<path class="st24" d="M302.3,134.9c0.4,0.1,0.8,0.4,1,0.7c0.3,0.3,0.4,0.5,0.3,0.4c-0.1,0-0.2-0.1-0.4-0.1
					c-0.2,0-0.4-0.1-0.8-0.1c-0.6-0.1-1.2,0-1.9,0.2c-0.6,0.2-1.2,0.4-1.9,0.8c-0.6,0.3-1.2,0.8-1.9,1.2c-0.6,0.5-1.3,1-1.9,1.5
					c-0.3,0.3-0.8,0.8-1.6,1.6c-0.8,0.8-1.6,1.7-2.4,2.7s-1.5,2.1-2.1,3.2s-0.9,2.1-0.9,3.1c0.9-0.1,2.1-0.6,3.3-1.4
					c1.3-0.8,2.5-1.7,3.7-2.8s2.3-2.3,3.3-3.5s1.6-2.3,2-3.4c0.1-0.3,0.2-0.6,0.2-1c0-0.3,0-0.6-0.1-1c-0.1-0.2-0.1-0.3-0.1-0.3
					c0-0.1,0.2-0.1,0.4,0.2c0.2,0.3,0.4,0.6,0.5,1c0.4,1.5,0.2,3-0.6,4.6s-1.8,3-3.2,4.4c-1.4,1.3-2.8,2.5-4.5,3.5
					c-1.6,1-3.1,1.6-4.4,2c-0.9,0.3-1.7,0.3-2.5,0c-0.7-0.3-1.1-0.7-1.4-1.4s-0.3-1.3-0.2-2c0.1-0.8,0.4-1.7,0.7-2.4
					c0.3-0.8,0.8-1.5,1.3-2.3c0.5-0.7,1-1.4,1.7-2.2s1.5-1.6,2.3-2.3c0.9-0.8,1.8-1.5,2.8-2.2s2-1.3,3-1.7c1-0.5,2-0.8,3-1
					S301.4,134.6,302.3,134.9z"/>
				
					<linearGradient id="SVGID_23_" gradientUnits="userSpaceOnUse" x1="328.7166" y1="143.3434" x2="328.7166" y2="73.5511" gradientTransform="matrix(1 0 0 -1 0 251.7228)">
					<stop  offset="2.234637e-02" style="stop-color:#FFC3FF"/>
					<stop  offset="6.145251e-02" style="stop-color:#FF00FF"/>
					<stop  offset="0.6955" style="stop-color:#E000BB"/>
					<stop  offset="1" style="stop-color:#8D0080"/>
				</linearGradient>
				<path class="st25" d="M344.3,142.7c0,0,0,0.1-0.2,0.3c-0.2,0.1-0.4,0.3-0.6,0.5s-0.4,0.4-0.6,0.5s-0.3,0.3-0.4,0.4
					c-0.4,0.3-0.7,0.6-1.1,0.9c-0.4,0.3-0.7,0.6-1.1,0.9c-0.9,0.7-1.7,1.3-2.5,2c-0.9,0.7-1.7,1.4-2.5,2.1c-0.2,0.2-0.5,0.4-0.8,0.7
					s-0.5,0.5-0.7,0.7c-0.3,0.3-0.7,0.6-1.1,0.8s-0.8,0.2-1.3-0.2c-0.2-0.1-0.3-0.3-0.3-0.5c-0.1-0.2-0.1-0.4-0.2-0.6
					c-0.1-0.5,0-1,0-1.5c0.1-0.5,0.2-1,0.4-1.5c0.2-0.5,0.4-1,0.6-1.5s0.5-0.9,0.7-1.3c0.5-0.9,1.1-1.9,1.8-3c0.8-1.1,1.5-2,2.1-2.8
					c-1.1,0.7-2.3,1.5-3.3,2.4s-2.2,1.7-3.2,2.6c-0.2,0.1-0.5,0.5-1.2,1c-0.6,0.6-1.3,1.1-2,1.7c-0.7,0.6-1.4,1-2,1.4
					c-0.7,0.4-1.1,0.5-1.3,0.4c-0.2-0.1-0.2-0.4-0.1-0.9s0.4-1,0.7-1.7c0.3-0.7,0.7-1.3,1.2-2.1c0.4-0.7,0.9-1.4,1.3-2.1
					c0.4-0.7,0.8-1.3,1.2-1.8s0.6-0.9,0.8-1.2c-2.4,1.7-4.6,3.6-6.8,5.7c-2.1,2.1-4.1,4.4-6.1,6.9c-0.1,0.2-0.3,0.3-0.4,0.5
					s-0.3,0.3-0.5,0.4c-0.4,0.2-0.8,0.1-1.1-0.1c-0.4-0.2-0.6-0.5-0.6-1c0-1.1,0.3-2.2,0.9-3.3s1.2-2.1,1.8-3.1
					c0.3-0.4,0.7-1,1.2-1.7c0.6-0.7,1.2-1.4,1.9-2.3c0.7-0.8,1.4-1.7,2.2-2.5c0.8-0.9,1.5-1.7,2.3-2.5c0.7-0.8,1.4-1.5,2-2.1
					s1.1-1.1,1.4-1.4c0.1-0.1,0.2,0,0.1,0.1c0,0.2-0.1,0.4-0.2,0.7s-0.2,0.6-0.4,0.9c-0.1,0.3-0.2,0.4-0.2,0.5
					c-0.5,0.8-1,1.7-1.6,2.5s-1.2,1.7-1.8,2.6c-0.6,0.9-1.3,1.7-1.9,2.6s-1.2,1.7-1.6,2.6c1.2-1,2.4-2,3.6-3.1c1.2-1,2.3-2,3.3-2.9
					c1.1-0.9,2.1-1.7,3.1-2.5c1-0.7,1.9-1.3,2.8-1.7c0.4-0.2,0.9-0.2,1.4,0c0.4,0.2,0.6,0.5,0.7,0.9s0,0.8-0.2,1.1
					c-0.8,1.2-1.8,2.3-2.7,3.3c-1,1-1.9,2.1-2.8,3.3c1.7-1,3.3-2.2,4.8-3.5s3-2.6,4.6-3.9c0.5-0.4,0.9-0.8,1.5-1.2s1.1-0.7,1.7-0.9
					c0.2-0.1,0.5-0.1,0.7-0.1s0.5,0.1,0.7,0.2c0.4,0.2,0.6,0.5,0.7,0.9s0,0.8-0.2,1.2s-0.5,0.7-0.8,1s-0.5,0.6-0.8,1s-0.7,0.8-1,1.2
					s-0.7,0.8-1.1,1.2c-0.7,0.8-1.3,1.6-2,2.4s-1.2,1.7-1.8,2.5c-0.8,1.1-1.4,2.2-1.8,3.4c0.7-0.5,1.3-1,2-1.4
					c0.7-0.5,1.4-1,2.1-1.4c0.1-0.1,0.5-0.4,1.2-0.8c0.7-0.4,1.4-0.9,2.2-1.4c0.8-0.5,1.5-0.9,2.1-1.3
					C343.9,142.8,344.2,142.6,344.3,142.7z"/>
				
					<linearGradient id="SVGID_24_" gradientUnits="userSpaceOnUse" x1="350.8354" y1="143.3434" x2="350.8354" y2="73.5511" gradientTransform="matrix(1 0 0 -1 0 251.7228)">
					<stop  offset="2.234637e-02" style="stop-color:#FFC3FF"/>
					<stop  offset="6.145251e-02" style="stop-color:#FF00FF"/>
					<stop  offset="0.6955" style="stop-color:#E000BB"/>
					<stop  offset="1" style="stop-color:#8D0080"/>
				</linearGradient>
				<path class="st26" d="M362.2,141.8c0.1,0.1,0,0.3-0.3,0.5s-0.4,0.4-0.5,0.4c-1.5,1.2-2.9,2.4-4.4,3.5c-0.9,0.7-1.7,1.4-2.5,2.2
					s-1.7,1.5-2.5,2.3l-1.2,1c-0.2,0.1-0.3,0.2-0.5,0.3s-0.3,0.2-0.5,0.2c-0.4,0.1-0.8,0-1.1-0.3c-0.3-0.2-0.5-0.6-0.6-1
					s0-0.9,0.2-1.3c0.2-0.5,0.4-0.9,0.6-1.3c0.5-1,1-1.9,1.6-2.7s1.3-1.8,2.2-2.9c-0.9,0.8-1.8,1.5-2.6,2.3
					c-0.8,0.8-1.7,1.5-2.5,2.3c-0.7,0.7-1.4,1.3-2.2,1.9c-0.7,0.6-1.5,1.2-2.2,1.8c-0.2,0.2-0.4,0.3-0.7,0.5
					c-0.3,0.2-0.6,0.4-0.8,0.5c-0.3,0.1-0.6,0.2-0.9,0.2s-0.6-0.1-0.8-0.3c-0.4-0.3-0.6-0.8-0.6-1.4c0-0.6,0.1-1.2,0.4-1.9
					c0.2-0.7,0.5-1.3,0.9-1.9c0.4-0.6,0.6-1,0.8-1.4c0.8-1.3,1.8-2.5,2.9-3.7s2.2-2.2,3.4-3.2c0.7-0.6,1.4-1.1,2.1-1.6
					c0.8-0.5,1.6-0.9,2.4-1.1c0,0,0.1,0,0.2,0s0.2,0,0.3,0c0.1,0,0.2,0,0.3,0c0.1,0,0,0.1,0,0.2c-0.1,0.2-0.3,0.3-0.4,0.4
					c-0.1,0.1-0.3,0.2-0.5,0.4c-0.4,0.3-0.7,0.6-1,0.9c-0.3,0.3-0.6,0.7-1,1c-0.7,0.8-1.4,1.6-2,2.5c-0.7,0.9-1.3,1.8-2,2.8
					c-0.7,0.9-1.3,1.9-1.9,2.8c-0.6,0.9-1.2,1.9-1.8,2.7c2.6-1.7,5.3-3.7,7.9-5.9s5.3-4.4,8.1-6.7c0.4-0.3,0.9-0.7,1.4-1.1
					c0.6-0.4,0.9-0.7,1.2-0.7c0.3,0,0.5,0,0.6,0.2c0.2,0.2,0.2,0.4,0.1,0.6c0,0.1-0.2,0.4-0.4,0.7c-0.3,0.3-0.4,0.6-0.5,0.7
					c-0.1,0.1-0.3,0.4-0.7,0.9c-0.4,0.5-0.8,1.1-1.4,1.8c-0.5,0.7-1.1,1.4-1.7,2.2s-1.2,1.5-1.7,2.3c-0.5,0.7-1,1.4-1.4,1.9
					c-0.4,0.6-0.6,0.9-0.7,1.1c0,0,0.3-0.2,0.7-0.5c0.5-0.3,1-0.7,1.6-1.2s1.3-0.9,2.1-1.4c0.8-0.5,1.5-1,2.1-1.4
					c0.7-0.4,1.2-0.7,1.7-1S362.1,141.7,362.2,141.8z"/>
				
					<linearGradient id="SVGID_25_" gradientUnits="userSpaceOnUse" x1="366.7572" y1="143.3434" x2="366.7572" y2="73.5511" gradientTransform="matrix(1 0 0 -1 0 251.7228)">
					<stop  offset="2.234637e-02" style="stop-color:#FFC3FF"/>
					<stop  offset="6.145251e-02" style="stop-color:#FF00FF"/>
					<stop  offset="0.6955" style="stop-color:#E000BB"/>
					<stop  offset="1" style="stop-color:#8D0080"/>
				</linearGradient>
				<path class="st27" d="M378.3,142.9c0,0.1,0,0.2-0.2,0.3c-0.2,0.2-0.4,0.3-0.6,0.5s-0.4,0.4-0.6,0.5c-0.2,0.2-0.3,0.3-0.4,0.3
					c-0.4,0.3-0.7,0.6-1.1,0.9c-0.4,0.3-0.8,0.6-1.2,0.9c-1,0.8-2.2,1.7-3.3,2.5c-1.2,0.8-2.3,1.7-3.3,2.8c-0.2,0.1-0.3,0.3-0.5,0.4
					c-0.2,0.1-0.4,0.3-0.6,0.4c-0.2,0.1-0.4,0.1-0.6,0.1s-0.4-0.1-0.7-0.3c-0.4-0.3-0.6-0.7-0.6-1.3s0.1-1.2,0.3-1.9
					c0.2-0.7,0.5-1.3,0.8-1.9c0.3-0.6,0.5-1.1,0.7-1.5c0.5-0.9,1.1-1.8,1.8-2.9c0.8-1,1.4-2,2-2.7c-1.1,0.7-2.1,1.3-3.1,1.9
					c-1,0.6-1.9,1.3-2.9,2c-1,0.8-2,1.7-3,2.9c-1,1.1-2.2,2.6-3.4,4.4c-0.1,0.2-0.3,0.3-0.4,0.5s-0.3,0.3-0.5,0.4
					c-0.4,0.2-0.7,0.1-1.1-0.1c-0.4-0.2-0.6-0.5-0.6-1c-0.1-0.5,0.2-1.4,0.9-2.5c0.6-1.2,1.5-2.5,2.6-3.9s2.3-2.9,3.7-4.4
					c1.4-1.5,2.8-2.9,4.3-4.2c0.3-0.3,0.7-0.5,1.1-0.9c0.4-0.3,0.7-0.5,1-0.6c0.1,0,0,0.1-0.1,0.3s-0.3,0.4-0.5,0.7
					s-0.4,0.6-0.6,0.9c-0.2,0.3-0.4,0.5-0.5,0.7c-0.6,0.8-1.1,1.6-1.5,2.1c-0.4,0.6-0.8,1.1-1.1,1.6c-0.4,0.5-0.8,1.1-1.2,1.7
					c-0.4,0.6-1,1.4-1.8,2.4c1.1-0.9,2.4-1.9,3.7-3c1.3-1.1,2.6-2.1,3.8-3.1c1.3-1,2.5-1.9,3.7-2.7s2.2-1.4,3.1-1.9
					c0.5-0.2,0.9-0.2,1.4,0.1c0.4,0.2,0.6,0.5,0.7,0.9s0,0.8-0.2,1.1c-0.5,0.8-1.2,1.6-2,2.4c-0.9,0.9-1.6,1.7-2.3,2.5
					c-0.7,0.8-1.3,1.6-2,2.4c-0.6,0.8-1.2,1.7-1.8,2.5c-0.3,0.5-0.7,1.1-1,1.6c-0.3,0.6-0.6,1.1-0.8,1.8c0.7-0.5,1.3-1,2-1.5
					s1.4-0.9,2.1-1.4c0.1-0.1,0.3-0.2,0.7-0.4c0.3-0.2,0.8-0.5,1.2-0.8c0.5-0.3,1-0.6,1.5-1s1-0.6,1.5-0.9s0.8-0.5,1.2-0.6
					C378.1,142.9,378.3,142.9,378.3,142.9z"/>
				
					<linearGradient id="SVGID_26_" gradientUnits="userSpaceOnUse" x1="394.0166" y1="143.3278" x2="394.0166" y2="73.5356" gradientTransform="matrix(1 0 0 -1 0 251.7228)">
					<stop  offset="2.234637e-02" style="stop-color:#FFC3FF"/>
					<stop  offset="6.145251e-02" style="stop-color:#FF00FF"/>
					<stop  offset="0.6955" style="stop-color:#E000BB"/>
					<stop  offset="1" style="stop-color:#8D0080"/>
				</linearGradient>
				<path class="st28" d="M414.2,108.4c0,0,0,0.1,0,0.3c0,0.2-0.1,0.3-0.2,0.5s-0.2,0.4-0.2,0.5c-0.1,0.2-0.1,0.3-0.2,0.3
					c-0.9,1.8-2,3.6-3.1,5.3c-1.1,1.7-2.3,3.5-3.4,5.2c-1.2,1.8-2.5,3.6-3.7,5.4c-1.3,1.8-2.5,3.6-3.8,5.4c-2,2.8-4,5.5-6,8.3
					s-4.1,5.5-6.3,8.2c0.3-0.2,0.7-0.5,1.2-0.8c0.4-0.3,0.8-0.5,1.1-0.7c0.9-0.7,1.9-1.3,3-2s2.1-1.2,3.1-1.8
					c0.1-0.1,0.2-0.2,0.5-0.3s0.4-0.2,0.5-0.1c-0.1,0.1-0.3,0.4-0.7,0.7c-0.4,0.4-0.9,0.7-1.4,1.2c-0.5,0.4-1,0.8-1.5,1.2
					s-0.8,0.6-1,0.8c-0.9,0.7-1.8,1.5-2.8,2.4s-1.9,1.7-2.7,2.5c-0.4,0.4-0.8,0.6-1,0.9c-0.2,0.2-0.6,0.5-1.1,0.7
					c-0.7,0.3-1.3,0.1-1.8-0.3c-0.3-0.3-0.3-0.7-0.2-1.2c0.1-0.5,0.2-0.9,0.4-1.2c0.3-0.8,0.8-1.7,1.4-2.6c0.6-1,1.2-1.8,1.7-2.5
					c-1.2,1.1-2.6,2.3-4.1,3.5s-3,2.4-4.4,3.4c-0.2,0.2-0.4,0.3-0.7,0.5c-0.3,0.2-0.6,0.4-0.8,0.5c-0.3,0.1-0.6,0.2-0.9,0.2
					s-0.6-0.1-0.8-0.3c-0.4-0.3-0.5-0.7-0.6-1.1c0-0.5,0-0.9,0.2-1.3c0.5-1.5,1.1-2.8,2-4c0.8-1.2,1.7-2.3,2.6-3.3s1.8-1.9,2.7-2.6
					c0.9-0.7,1.6-1.3,2.2-1.8c0.6-0.4,1.3-0.9,2.2-1.3c0.8-0.5,1.7-0.9,2.6-1.3c0.9-0.4,1.8-0.7,2.8-0.8c0.9-0.2,1.8-0.2,2.6,0
					c1-1.3,1.9-2.6,2.7-3.8s1.7-2.5,2.7-3.8c1.3-1.8,2.7-3.5,4-5.2s2.7-3.4,4-5.1c0.9-1.2,1.9-2.4,2.9-3.6s2-2.3,3.1-3.4
					c0,0,0.1-0.1,0.3-0.3c0.2-0.2,0.3-0.4,0.5-0.5s0.4-0.3,0.5-0.4C414,108.3,414.1,108.3,414.2,108.4z M377.1,149.7
					c1.2-0.9,2.5-1.8,3.8-2.8c1.3-0.9,2.7-2,4-3.1s2.6-2.3,3.9-3.7c1.3-1.3,2.4-2.8,3.5-4.5c-0.7,0-1.4,0.1-2.2,0.4
					c-0.8,0.3-1.5,0.6-2.2,1.1c-0.7,0.4-1.4,0.9-2,1.4s-1.1,0.9-1.6,1.3c-0.3,0.3-0.8,0.7-1.4,1.4s-1.3,1.5-2,2.4s-1.4,1.9-2.1,3
					C378.1,147.7,377.5,148.7,377.1,149.7z"/>
				
					<linearGradient id="SVGID_27_" gradientUnits="userSpaceOnUse" x1="401.1055" y1="143.3434" x2="401.1055" y2="73.5511" gradientTransform="matrix(1 0 0 -1 0 251.7228)">
					<stop  offset="2.234637e-02" style="stop-color:#FFC3FF"/>
					<stop  offset="6.145251e-02" style="stop-color:#FF00FF"/>
					<stop  offset="0.6955" style="stop-color:#E000BB"/>
					<stop  offset="1" style="stop-color:#8D0080"/>
				</linearGradient>
				<path class="st29" d="M409.5,134.9c0.4,0.1,0.8,0.4,1,0.7c0.3,0.3,0.4,0.5,0.3,0.4c-0.1,0-0.2-0.1-0.4-0.1
					c-0.2,0-0.4-0.1-0.8-0.1c-0.6-0.1-1.2,0-1.9,0.2c-0.6,0.2-1.2,0.4-1.9,0.8c-0.6,0.3-1.2,0.8-1.9,1.2c-0.6,0.5-1.3,1-1.9,1.5
					c-0.3,0.3-0.8,0.8-1.6,1.6c-0.8,0.8-1.6,1.7-2.4,2.7s-1.5,2.1-2.1,3.2s-0.9,2.1-0.9,3.1c0.9-0.1,2.1-0.6,3.3-1.4
					c1.3-0.8,2.5-1.7,3.7-2.8s2.3-2.3,3.3-3.5s1.6-2.3,2-3.4c0.1-0.3,0.2-0.6,0.2-1c0-0.3,0-0.6-0.1-1c-0.1-0.2-0.1-0.3-0.1-0.3
					c0-0.1,0.2-0.1,0.4,0.2c0.2,0.3,0.4,0.6,0.5,1c0.4,1.5,0.2,3-0.6,4.6s-1.8,3-3.2,4.4c-1.4,1.3-2.8,2.5-4.5,3.5
					c-1.6,1-3.1,1.6-4.4,2c-0.9,0.3-1.7,0.3-2.5,0c-0.7-0.3-1.1-0.7-1.4-1.4s-0.3-1.3-0.2-2c0.1-0.8,0.4-1.7,0.7-2.4
					c0.3-0.8,0.8-1.5,1.3-2.3c0.5-0.7,1-1.4,1.7-2.2s1.5-1.6,2.3-2.3c0.9-0.8,1.8-1.5,2.8-2.2s2-1.3,3-1.7c1-0.5,2-0.8,3-1
					S408.5,134.6,409.5,134.9z"/>
			</g>
			<g>
				<path class="st30" d="M97.8,110.9c1,0.7,1.6,1.5,1.9,2.5c0.3,1,0.4,2,0.2,3.1s-0.4,2.1-0.9,3.2c-0.5,1-1,2-1.6,2.7
					c-0.5,0.7-1.1,1.4-1.7,2c-0.6,0.6-1.3,1.2-2,1.8c0,0-0.1,0.1-0.3,0.2s-0.4,0.2-0.6,0.4c-0.2,0.1-0.4,0.2-0.5,0.3
					c-0.2,0.1-0.2,0.1-0.2,0l0,0V127l0.1-0.1c0.5-0.7,1-1.3,1.4-1.8s0.7-0.9,1-1.4c0.3-0.4,0.6-0.8,0.8-1.3c0.3-0.4,0.5-0.9,0.8-1.4
					c0.3-0.6,0.7-1.3,1-2.2s0.5-1.7,0.6-2.5c0-0.8-0.1-1.6-0.4-2.2c-0.3-0.7-1-1.2-2.1-1.5c-0.9-0.2-1.9-0.2-2.8-0.1
					s-1.8,0.3-2.7,0.6s-1.8,0.6-2.7,1s-1.7,0.8-2.5,1.2c-3.4,1.8-6.5,4-9.3,6.6c-2.9,2.6-5.5,5.4-8,8.3c-1.2,1.5-2.4,3-3.6,4.5
					c-1.2,1.5-2.3,3.1-3.3,4.8c-1,1.6-1.9,3.3-2.7,5.1c-0.8,1.7-1.5,3.6-2,5.4c-0.3,0.9-0.4,1.9-0.5,2.9s0.1,2,0.6,3
					c0.5,0.8,1.2,1.4,2.1,1.7c0.9,0.3,1.9,0.5,2.9,0.4c1,0,2.1-0.1,3.1-0.4c1-0.2,1.9-0.5,2.7-0.7c2.9-1,5.7-2.3,8.4-3.8
					c2.6-1.5,5.2-3.2,7.6-5.1c2.5-1.9,4.8-3.9,7.2-6.1c2.3-2.2,4.7-4.5,7-6.8c0,0,0.1-0.1,0.2-0.2c0.1-0.1,0.2-0.2,0.4-0.4
					c0.1-0.1,0.2-0.2,0.3-0.3s0.2-0.1,0.2,0c0,0.2-0.1,0.5-0.3,0.9s-0.4,0.7-0.6,1c-0.8,1.3-1.8,2.6-2.8,3.9c-1,1.3-2.1,2.6-3.1,3.7
					c-2.5,2.7-5.2,5.3-8.1,7.5c-2.9,2.3-5.9,4.3-9.2,6.1c-1.3,0.7-2.8,1.3-4.5,2.1c-1.7,0.7-3.5,1.3-5.3,1.7
					c-1.8,0.4-3.6,0.5-5.3,0.3s-3.3-0.8-4.6-2c-0.9-0.8-1.6-1.8-2-2.9s-0.6-2.2-0.6-3.5s0.1-2.4,0.4-3.7c0.3-1.2,0.6-2.4,1-3.5
					c1.4-3.6,3.1-7,5.2-10.1s4.4-6.1,7-9c2.5-2.8,5.3-5.5,8.2-8s6.1-4.6,9.5-6.4c0.9-0.5,2.1-0.9,3.3-1.4c1.3-0.5,2.6-0.9,3.9-1.1
					s2.7-0.4,4-0.3C95.5,109.8,96.7,110.2,97.8,110.9z"/>
				<path class="st30" d="M112.3,141.8c-0.3,0.3-0.6,0.6-0.9,1c-0.3,0.4-0.7,0.7-1,1s-0.5,0.5-0.6,0.6c-1.3,1.1-2.6,2.3-4,3.4
					c-1.4,1.1-2.9,2.1-4.5,3c-0.8,0.5-1.6,0.9-2.5,1.3c-0.8,0.4-1.7,0.6-2.6,0.6c-0.8,0-1.5-0.3-2.1-0.8s-0.9-1.2-0.8-2
					c0.2-1.9,0.8-3.5,1.8-5s2.1-2.9,3.4-4.3c0.6-0.7,1.3-1.3,2-1.8c0.7-0.6,1.4-1.1,2.2-1.6c0.7-0.5,1.5-1,2.3-1.4s1.6-0.7,2.5-1
					c0.4-0.1,0.8-0.2,1.3-0.2s0.9,0.1,1.3,0.3c0.8,0.5,1.1,1.1,1.1,1.9c-0.1,0.8-0.4,1.6-0.9,2.5c-0.3,0.4-0.5,0.7-0.8,1
					s-0.5,0.7-0.8,1c-1.2,1.3-2.5,2.4-4,3.2c-1,0.6-2.1,1.1-3.1,1.5s-2.2,0.8-3.6,1.2c-0.7,0.9-1.2,2-1.6,3.1c0.9,0,2-0.2,3.1-0.7
					c1.1-0.4,2.3-1,3.4-1.7s2.3-1.4,3.4-2.1s2.1-1.4,3-2c0.1,0,0.3-0.2,0.6-0.4c0.4-0.3,0.7-0.5,1.2-0.9c0.4-0.3,1-0.7,1.6-1.2
					C112.7,141.4,112.6,141.5,112.3,141.8z M100.1,143.9c-0.3,0.4-0.6,0.7-0.8,0.9c-0.2,0.3-0.4,0.6-0.6,0.9
					c1.1-0.3,2.2-0.7,3.3-1.3s2-1.2,2.9-2s1.7-1.7,2.4-2.6c0.7-1,1.3-2,1.6-3.2c-1.7,0.8-3.3,1.9-4.7,3.2S101.4,142.5,100.1,143.9z"
					/>
				<path class="st30" d="M124.1,142.1c0,0.1-0.1,0.2-0.4,0.5s-0.6,0.6-1,0.9c-0.4,0.3-0.8,0.7-1.2,1s-0.7,0.5-0.8,0.7
					c-0.5,0.4-1,0.8-1.5,1.2s-1,0.8-1.5,1.2c-0.8,0.7-1.5,1.3-2.3,2c-0.7,0.7-1.4,1.3-2.2,2.1c-0.2,0.2-0.4,0.4-0.7,0.7
					c-0.2,0.2-0.4,0.4-0.7,0.6c-0.5,0.3-0.9,0.3-1.4,0.1s-0.8-0.6-0.8-1.2c-0.1-0.5,0-1,0.3-1.6c0.3-0.5,0.5-1,0.8-1.4
					c0.8-1.2,1.5-2.4,2.4-3.6c0.8-1.2,1.6-2.4,2.3-3.6c0.1-0.2,0.2-0.4,0.1-0.7c-0.1-0.3-0.2-0.6-0.2-0.8c-1.1,1-2.3,2-3.7,3
					s-2.7,2-3.9,2.8s-2.2,1.5-3.1,1.9c-0.9,0.5-1.3,0.6-1.4,0.5c0-0.1,0.2-0.3,0.8-0.7c0.5-0.4,1.2-1,2-1.6c0.8-0.7,1.7-1.4,2.7-2.2
					s1.9-1.6,2.8-2.4c0.9-0.8,1.6-1.5,2.2-2.2c0.6-0.7,1-1.3,1.1-1.7c0-0.6,0-1.2,0-1.9s0.3-1.3,0.8-1.8c0.4-0.4,0.9-0.6,1.4-0.6
					c0.6,0,1,0.3,1.2,0.9s0.3,1.2,0,1.7c-0.2,0.5-0.5,1.1-0.7,1.5c-0.1,0.2-0.1,0.3-0.2,0.4c-0.1,0.1-0.1,0.3-0.1,0.5
					c0.1,0.5,0.2,0.9,0.4,1.3s0.4,0.8,0.6,1.3c0.3,0.7,0.3,1.3,0.2,1.8s-0.4,1.1-0.8,1.7c-0.4,0.6-0.8,1.1-1.2,1.7
					c-0.4,0.6-0.8,1.1-1.2,1.7c0.8-0.5,1.5-1,2.2-1.5s1.5-1,2.2-1.5c0.1-0.1,0.4-0.3,0.8-0.6c0.5-0.3,1-0.6,1.5-0.9s1-0.6,1.4-0.8
					C123.8,142.1,124,142,124.1,142.1z"/>
				<path class="st30" d="M140.7,132.1c0,0,0,0.1-0.1,0.3s-0.4,0.6-1,1.3s-1.4,1.7-2.5,3s-2.7,3.1-4.7,5.4c-1.5,1.6-2.9,3.2-4.3,4.6
					c-1.4,1.4-2.9,2.9-4.5,4.4c-0.3,0.3-0.6,0.6-0.9,0.8c-0.3,0.2-0.6,0.3-1.1,0.3c-0.4-0.1-0.8-0.3-1.1-0.6s-0.4-0.7-0.4-1.1
					c0-0.4,0.1-0.8,0.2-1.2c0.1-0.5,0.3-0.9,0.5-1.4s0.4-1,0.6-1.4c0.2-0.5,0.4-0.9,0.6-1.2c0.7-1.4,1.3-2.7,2.1-4.1
					c0.7-1.4,1.5-2.7,2.4-4.1c0.2-0.4,0.5-0.7,0.7-1.1c0.2-0.4,0.5-0.7,0.9-1c0.1-0.1,0.2-0.2,0.3-0.1c0,0.1,0.1,0.2,0.1,0.3
					s0,0.3,0,0.5s0,0.3,0,0.3c-0.1,0.7-0.4,1.5-0.7,2.5c-0.4,0.9-0.8,1.9-1.2,2.9s-0.8,1.9-1.3,2.9c-0.4,0.9-0.7,1.8-1,2.5
					c0.3-0.4,0.9-1,1.9-1.9c0.9-0.9,2-1.9,3.2-3s2.5-2.3,3.8-3.5s2.5-2.2,3.7-3.2c1.1-1,2.1-1.7,2.8-2.3
					C140.2,132.3,140.6,132,140.7,132.1z"/>
				<path class="st30" d="M150.7,141.8c-0.3,0.3-0.6,0.6-0.9,1c-0.3,0.4-0.7,0.7-1,1s-0.5,0.5-0.6,0.6c-1.3,1.1-2.6,2.3-4,3.4
					c-1.4,1.1-2.9,2.1-4.5,3c-0.8,0.5-1.6,0.9-2.5,1.3c-0.8,0.4-1.7,0.6-2.6,0.6c-0.8,0-1.5-0.3-2.1-0.8s-0.9-1.2-0.8-2
					c0.2-1.9,0.8-3.5,1.8-5s2.1-2.9,3.4-4.3c0.6-0.7,1.3-1.3,2-1.8c0.7-0.6,1.4-1.1,2.2-1.6c0.7-0.5,1.5-1,2.3-1.4s1.6-0.7,2.5-1
					c0.4-0.1,0.8-0.2,1.3-0.2s0.9,0.1,1.3,0.3c0.8,0.5,1.1,1.1,1.1,1.9c-0.1,0.8-0.4,1.6-0.9,2.5c-0.3,0.4-0.5,0.7-0.8,1
					s-0.5,0.7-0.8,1c-1.2,1.3-2.5,2.4-4,3.2c-1,0.6-2.1,1.1-3.1,1.5s-2.2,0.8-3.6,1.2c-0.7,0.9-1.2,2-1.6,3.1c0.9,0,2-0.2,3.1-0.7
					c1.1-0.4,2.3-1,3.4-1.7s2.3-1.4,3.4-2.1s2.1-1.4,3-2c0.1,0,0.3-0.2,0.6-0.4c0.4-0.3,0.7-0.5,1.2-0.9c0.4-0.3,1-0.7,1.6-1.2
					C151,141.4,150.9,141.5,150.7,141.8z M138.4,143.9c-0.3,0.4-0.6,0.7-0.8,0.9c-0.2,0.3-0.4,0.6-0.6,0.9c1.1-0.3,2.2-0.7,3.3-1.3
					s2-1.2,2.9-2s1.7-1.7,2.4-2.6c0.7-1,1.3-2,1.6-3.2c-1.7,0.8-3.3,1.9-4.7,3.2S139.8,142.5,138.4,143.9z"/>
				<path class="st30" d="M160.4,135.5c0.2,0.1,0,0.5-0.3,1.3c-0.4,0.8-0.9,1.7-1.6,2.8c-0.7,1.1-1.5,2.3-2.4,3.6s-1.7,2.5-2.5,3.6
					s-1.5,2.1-2.1,3s-1,1.3-1.1,1.5c-2.5,3.6-5.2,7-8.1,10.3c-2.9,3.3-6,6.3-9.5,9c-1.7,1.3-3.4,2.5-5.2,3.6s-3.7,2-5.7,2.7
					c-0.9,0.3-1.8,0.6-2.7,0.8s-1.9,0.4-2.8,0.4c-0.2,0-0.4,0-0.6,0s-0.4,0-0.6-0.1c-0.3-0.1-0.3-0.1-0.1-0.2
					c0.2-0.1,0.3-0.2,0.4-0.2c0.4-0.2,0.8-0.3,1.3-0.4c0.4-0.1,0.8-0.3,1.2-0.4c2-0.7,3.9-1.6,5.7-2.7s3.5-2.3,5.2-3.6
					s3.2-2.7,4.7-4.1c1.5-1.5,3-3,4.4-4.5c0.7-0.8,1.5-1.7,2.3-2.7s1.7-2.1,2.5-3.3c0.9-1.1,1.7-2.3,2.6-3.5
					c0.9-1.2,1.7-2.3,2.5-3.5c1.9-2.6,3.8-5.3,5.7-8.1c-1.4,1-2.8,1.9-4.2,2.8c-1.4,0.9-2.8,1.8-4.3,2.7c-0.1,0.1-0.3,0.2-0.6,0.3
					c-0.2,0.1-0.4,0.1-0.4,0.1c0-0.1,0-0.1,0.1-0.2c0.4-0.4,0.8-0.8,1.3-1.2s0.9-0.7,1.4-1.1c0.2-0.1,0.6-0.5,1.2-1s1.5-1.1,2.4-1.8
					s1.9-1.4,3-2.2s2.1-1.5,3-2.1c1-0.6,1.8-1.1,2.5-1.4C159.7,135.4,160.2,135.3,160.4,135.5z M163.8,127.1c0.1,0.3,0.1,0.5,0,0.8
					s-0.2,0.5-0.4,0.8c-0.2,0.2-0.4,0.5-0.6,0.7c-0.2,0.2-0.5,0.3-0.7,0.4c-0.2,0.1-0.4,0.2-0.7,0.2s-0.5,0.1-0.8,0
					c-0.3,0-0.5-0.1-0.7-0.2c-0.2-0.1-0.4-0.3-0.5-0.5c-0.2-0.5-0.1-1,0.2-1.5s0.7-0.8,1.1-1.1c0.2-0.1,0.4-0.2,0.7-0.3
					s0.6-0.1,0.9-0.1s0.6,0,0.9,0.1C163.4,126.6,163.6,126.8,163.8,127.1z"/>
				<path class="st30" d="M176.3,142.3c0,0,0,0.1-0.1,0.2c-0.4,0.4-0.8,0.8-1.3,1.1c-0.5,0.4-0.9,0.7-1.4,1.1
					c-1.5,1.1-3.1,2.3-4.9,3.8c-0.6,0.4-1.1,0.8-1.5,1.3c-0.4,0.4-0.9,0.9-1.4,1.3c-0.1,0.1-0.3,0.3-0.6,0.5s-0.4,0.4-0.5,0.4
					c-0.3,0.3-0.6,0.4-1,0.3c-0.4-0.1-0.8-0.3-1-0.6c-0.3-0.3-0.4-0.7-0.3-1.1c0.1-0.4,0.2-0.8,0.4-1.1c0.4-0.8,0.7-1.6,1.2-2.3
					c0.4-0.7,0.9-1.5,1.3-2.2c-0.5,0.4-1,0.9-1.4,1.3c-0.5,0.4-0.9,0.8-1.4,1.2c-0.7,0.7-1.4,1.3-2.2,1.9c-0.7,0.6-1.5,1.2-2.3,1.8
					c-0.2,0.2-0.4,0.3-0.7,0.5s-0.6,0.4-0.8,0.5c-0.3,0.1-0.6,0.2-0.9,0.2s-0.6-0.1-0.8-0.3c-0.4-0.3-0.5-0.6-0.6-1.1s0-0.9,0.2-1.2
					c0.3-1.1,0.9-2.3,1.6-3.4c0.7-1.1,1.5-2.2,2.3-3.1c0.8-0.9,1.5-1.7,2.2-2.3s1.1-1,1.3-1.2c0.6-0.6,1.3-1.1,2.1-1.7
					c0.8-0.6,1.7-1.1,2.6-1.6c0.9-0.5,1.9-0.9,2.8-1.2c1-0.3,1.9-0.4,2.8-0.4c0.5,0,1,0.1,1.5,0.2c0.6,0.1,1,0.4,1.2,0.7
					c0,0,0.1,0.1,0.1,0.2c0.1,0.1,0,0.2,0,0.1c-0.9-0.2-1.7-0.3-2.5-0.1s-1.6,0.4-2.4,0.8s-1.5,0.9-2.3,1.4
					c-0.7,0.6-1.4,1.1-2.1,1.6c-0.6,0.5-1.2,1.1-1.9,1.8s-1.4,1.4-2,2.3s-1.3,1.7-1.9,2.6s-1.1,1.9-1.6,2.9c1.3-0.8,2.7-1.8,4.1-2.9
					c1.5-1.1,2.9-2.1,4.2-3.2c0.7-0.6,1.4-1.1,2.1-1.6s1.5-1.1,2.2-1.7c0.2-0.2,0.4-0.4,0.8-0.6s0.6-0.5,0.9-0.7
					c0.3-0.2,0.6-0.4,0.8-0.6c0.2-0.2,0.4-0.3,0.5-0.3c0.3-0.1,0.5,0,0.6,0.2c0.2,0.2,0.2,0.4,0.1,0.6c0,0.1-0.1,0.2-0.2,0.3
					c-0.1,0.2-0.3,0.3-0.4,0.5c-0.2,0.2-0.3,0.4-0.5,0.5c-0.1,0.2-0.2,0.3-0.3,0.3c-0.5,0.6-1.1,1.3-1.7,2.1
					c-0.6,0.8-1.3,1.5-1.9,2.3c-0.6,0.7-1.1,1.4-1.6,1.9c-0.4,0.6-0.7,0.9-0.9,1.1c0.3-0.2,0.7-0.5,1.2-0.8s0.9-0.6,1.2-0.8
					c0.9-0.6,1.8-1.2,2.8-1.8c0.9-0.6,1.9-1.1,2.9-1.6c0.1-0.1,0.2-0.2,0.5-0.3C176.1,142.3,176.2,142.3,176.3,142.3z"/>
				<path class="st30" d="M226.7,108.4c0,0,0,0.1,0,0.3c0,0.2-0.1,0.3-0.2,0.5s-0.2,0.4-0.2,0.5c-0.1,0.2-0.1,0.3-0.2,0.3
					c-0.9,1.8-2,3.6-3.1,5.3c-1.1,1.7-2.3,3.5-3.4,5.2c-1.2,1.8-2.5,3.6-3.7,5.4c-1.3,1.8-2.5,3.6-3.8,5.4c-2,2.8-4,5.5-6,8.3
					s-4.1,5.5-6.3,8.2c0.3-0.2,0.7-0.5,1.2-0.8c0.4-0.3,0.8-0.5,1.1-0.7c0.9-0.7,1.9-1.3,3-2s2.1-1.2,3.1-1.8
					c0.1-0.1,0.2-0.2,0.5-0.3s0.4-0.2,0.5-0.1c-0.1,0.1-0.3,0.4-0.7,0.7c-0.4,0.4-0.9,0.7-1.4,1.2c-0.5,0.4-1,0.8-1.5,1.2
					s-0.8,0.6-1,0.8c-0.9,0.7-1.8,1.5-2.8,2.4s-1.9,1.7-2.7,2.5c-0.4,0.4-0.8,0.6-1,0.9c-0.2,0.2-0.6,0.5-1.1,0.7
					c-0.7,0.3-1.3,0.1-1.8-0.3c-0.3-0.3-0.3-0.7-0.2-1.2c0.1-0.5,0.2-0.9,0.4-1.2c0.3-0.8,0.8-1.7,1.4-2.6c0.6-1,1.2-1.8,1.7-2.5
					c-1.2,1.1-2.6,2.3-4.1,3.5s-3,2.4-4.4,3.4c-0.2,0.2-0.4,0.3-0.7,0.5c-0.3,0.2-0.6,0.4-0.8,0.5c-0.3,0.1-0.6,0.2-0.9,0.2
					s-0.6-0.1-0.8-0.3c-0.4-0.3-0.5-0.7-0.6-1.1c0-0.5,0-0.9,0.2-1.3c0.5-1.5,1.1-2.8,2-4c0.8-1.2,1.7-2.3,2.6-3.3s1.8-1.9,2.7-2.6
					c0.9-0.7,1.6-1.3,2.2-1.8c0.6-0.4,1.3-0.9,2.2-1.3c0.8-0.5,1.7-0.9,2.6-1.3c0.9-0.4,1.8-0.7,2.8-0.8c0.9-0.2,1.8-0.2,2.6,0
					c1-1.3,1.9-2.6,2.7-3.8s1.7-2.5,2.7-3.8c1.3-1.8,2.7-3.5,4-5.2s2.7-3.4,4-5.1c0.9-1.2,1.9-2.4,2.9-3.6s2-2.3,3.1-3.4
					c0,0,0.1-0.1,0.3-0.3c0.2-0.2,0.3-0.4,0.5-0.5s0.4-0.3,0.5-0.4C226.6,108.3,226.7,108.3,226.7,108.4z M189.6,149.7
					c1.2-0.9,2.5-1.8,3.8-2.8c1.3-0.9,2.7-2,4-3.1s2.6-2.3,3.9-3.7c1.3-1.3,2.4-2.8,3.5-4.5c-0.7,0-1.4,0.1-2.2,0.4
					c-0.8,0.3-1.5,0.6-2.2,1.1c-0.7,0.4-1.4,0.9-2,1.4s-1.1,0.9-1.6,1.3c-0.3,0.3-0.8,0.7-1.4,1.4s-1.3,1.5-2,2.4s-1.4,1.9-2.1,3
					C190.6,147.7,190.1,148.7,189.6,149.7z"/>
				<path class="st30" d="M222.8,141.8c-0.3,0.3-0.6,0.6-0.9,1s-0.7,0.7-1,1s-0.5,0.5-0.6,0.6c-1.3,1.1-2.6,2.3-4,3.4
					c-1.4,1.1-2.9,2.1-4.5,3c-0.8,0.5-1.6,0.9-2.5,1.3c-0.8,0.4-1.7,0.6-2.6,0.6c-0.8,0-1.5-0.3-2.1-0.8s-0.9-1.2-0.8-2
					c0.2-1.9,0.8-3.5,1.8-5s2.1-2.9,3.4-4.3c0.6-0.7,1.3-1.3,2-1.8c0.7-0.6,1.4-1.1,2.2-1.6c0.7-0.5,1.5-1,2.3-1.4s1.6-0.7,2.5-1
					c0.4-0.1,0.8-0.2,1.3-0.2s0.9,0.1,1.3,0.3c0.8,0.5,1.1,1.1,1.1,1.9c-0.1,0.8-0.4,1.6-0.9,2.5c-0.3,0.4-0.5,0.7-0.8,1
					s-0.5,0.7-0.8,1c-1.2,1.3-2.5,2.4-4,3.2c-1,0.6-2.1,1.1-3.1,1.5s-2.2,0.8-3.6,1.2c-0.7,0.9-1.2,2-1.6,3.1c0.9,0,2-0.2,3.1-0.7
					c1.1-0.4,2.3-1,3.4-1.7s2.3-1.4,3.4-2.1s2.1-1.4,3-2c0.1,0,0.3-0.2,0.6-0.4c0.4-0.3,0.7-0.5,1.2-0.9c0.4-0.3,1-0.7,1.6-1.2
					C223.2,141.4,223.1,141.5,222.8,141.8z M210.6,143.9c-0.3,0.4-0.6,0.7-0.8,0.9c-0.2,0.3-0.4,0.6-0.6,0.9
					c1.1-0.3,2.2-0.7,3.3-1.3c1.1-0.6,2-1.2,2.9-2s1.7-1.7,2.4-2.6c0.7-1,1.3-2,1.6-3.2c-1.7,0.8-3.3,1.9-4.7,3.2
					S211.9,142.5,210.6,143.9z"/>
				<path class="st30" d="M251,134.9c0.4,0.1,0.8,0.4,1,0.7c0.3,0.3,0.4,0.5,0.3,0.4c-0.1,0-0.2-0.1-0.4-0.1c-0.2,0-0.4-0.1-0.8-0.1
					c-0.6-0.1-1.2,0-1.9,0.2c-0.6,0.2-1.2,0.4-1.9,0.8c-0.6,0.3-1.2,0.8-1.9,1.2c-0.6,0.5-1.3,1-1.9,1.5c-0.3,0.3-0.8,0.8-1.6,1.6
					c-0.8,0.8-1.6,1.7-2.4,2.7s-1.5,2.1-2.1,3.2s-0.9,2.1-0.9,3.1c0.9-0.1,2.1-0.6,3.3-1.4c1.3-0.8,2.5-1.7,3.7-2.8s2.3-2.3,3.3-3.5
					s1.6-2.3,2-3.4c0.1-0.3,0.2-0.6,0.2-1c0-0.3,0-0.6-0.1-1c-0.1-0.2-0.1-0.3-0.1-0.3c0-0.1,0.2-0.1,0.4,0.2c0.2,0.3,0.4,0.6,0.5,1
					c0.4,1.5,0.2,3-0.6,4.6s-1.8,3-3.2,4.4c-1.4,1.3-2.8,2.5-4.5,3.5c-1.6,1-3.1,1.6-4.4,2c-0.9,0.3-1.7,0.3-2.5,0
					c-0.7-0.3-1.1-0.7-1.4-1.4s-0.3-1.3-0.2-2c0.1-0.8,0.4-1.7,0.7-2.4c0.3-0.8,0.8-1.5,1.3-2.3c0.5-0.7,1-1.4,1.7-2.2
					s1.5-1.6,2.3-2.3c0.9-0.8,1.8-1.5,2.8-2.2s2-1.3,3-1.7c1-0.5,2-0.8,3-1S250.1,134.6,251,134.9z"/>
				<path class="st30" d="M270.2,141.8c0.1,0.1,0,0.3-0.3,0.5s-0.4,0.4-0.5,0.4c-1.5,1.2-2.9,2.4-4.4,3.5c-0.9,0.7-1.7,1.4-2.5,2.2
					s-1.7,1.5-2.5,2.3l-1.2,1c-0.2,0.1-0.3,0.2-0.5,0.3s-0.3,0.2-0.5,0.2c-0.4,0.1-0.8,0-1.1-0.3c-0.3-0.2-0.5-0.6-0.6-1
					s0-0.9,0.2-1.3c0.2-0.5,0.4-0.9,0.6-1.3c0.5-1,1-1.9,1.6-2.7s1.3-1.8,2.2-2.9c-0.9,0.8-1.8,1.5-2.6,2.3
					c-0.8,0.8-1.7,1.5-2.5,2.3c-0.7,0.7-1.4,1.3-2.2,1.9c-0.7,0.6-1.5,1.2-2.2,1.8c-0.2,0.2-0.4,0.3-0.7,0.5
					c-0.3,0.2-0.6,0.4-0.8,0.5c-0.3,0.1-0.6,0.2-0.9,0.2s-0.6-0.1-0.8-0.3c-0.4-0.3-0.6-0.8-0.6-1.4c0-0.6,0.1-1.2,0.4-1.9
					c0.2-0.7,0.5-1.3,0.9-1.9c0.4-0.6,0.6-1,0.8-1.4c0.8-1.3,1.8-2.5,2.9-3.7s2.2-2.2,3.4-3.2c0.7-0.6,1.4-1.1,2.1-1.6
					c0.8-0.5,1.6-0.9,2.4-1.1c0,0,0.1,0,0.2,0s0.2,0,0.3,0c0.1,0,0.2,0,0.3,0c0.1,0,0,0.1,0,0.2c-0.1,0.2-0.3,0.3-0.4,0.4
					c-0.1,0.1-0.3,0.2-0.5,0.4c-0.4,0.3-0.7,0.6-1,0.9c-0.3,0.3-0.6,0.7-1,1c-0.7,0.8-1.4,1.6-2,2.5c-0.7,0.9-1.3,1.8-2,2.8
					c-0.7,0.9-1.3,1.9-1.9,2.8c-0.6,0.9-1.2,1.9-1.8,2.7c2.6-1.7,5.3-3.7,7.9-5.9c2.6-2.2,5.3-4.4,8.1-6.7c0.4-0.3,0.9-0.7,1.4-1.1
					c0.6-0.4,0.9-0.7,1.2-0.7c0.3,0,0.5,0,0.6,0.2c0.2,0.2,0.2,0.4,0.1,0.6c0,0.1-0.2,0.4-0.4,0.7c-0.3,0.3-0.4,0.6-0.5,0.7
					c-0.1,0.1-0.3,0.4-0.7,0.9c-0.4,0.5-0.8,1.1-1.4,1.8c-0.5,0.7-1.1,1.4-1.7,2.2s-1.2,1.5-1.7,2.3c-0.5,0.7-1,1.4-1.4,1.9
					c-0.4,0.6-0.6,0.9-0.7,1.1c0,0,0.3-0.2,0.7-0.5c0.5-0.3,1-0.7,1.6-1.2s1.3-0.9,2.1-1.4c0.8-0.5,1.5-1,2.1-1.4
					c0.7-0.4,1.2-0.7,1.7-1S270.1,141.7,270.2,141.8z"/>
				<path class="st30" d="M316.6,118.2c1.3-0.1,1.9-0.1,1.9,0c0,0-0.6,0.2-1.9,0.4c-0.6,0.1-1.3,0.3-2.2,0.4
					c-0.9,0.1-1.8,0.3-2.9,0.5c-2.9,0.5-5.7,0.9-8.4,1.3c-2.7,0.4-5.6,0.9-8.6,1.3c-1.5,0.2-3,0.4-4.4,0.6s-2.8,0.4-4.1,0.5
					c-1,1.5-1.9,2.8-2.6,3.9c-0.8,1.1-1.3,1.8-1.5,2.2c-1.2,1.7-2.4,3.4-3.7,5c-1.2,1.6-2.5,3.3-3.7,5c-1,1.4-2.1,2.7-3.1,4.1
					c-1,1.4-2,2.7-3,4.1c1.1-0.8,2.3-1.6,3.5-2.4c1.2-0.8,2.4-1.5,3.6-2.3c0.3-0.2,0.5-0.3,0.8-0.4c0.3-0.1,0.5-0.3,0.8-0.4
					c0.3-0.1,0.4-0.2,0.4-0.1c0,0.1-0.2,0.3-0.6,0.7c-0.4,0.3-0.8,0.7-1.3,1.1c-0.5,0.4-1,0.8-1.4,1.1c-0.5,0.3-0.8,0.6-0.9,0.7
					c-0.8,0.7-1.7,1.4-2.5,2.1c-0.8,0.7-1.7,1.4-2.5,2.2c-0.3,0.3-0.6,0.5-1,0.8c-0.3,0.3-0.6,0.6-1,0.9c-0.3,0.2-0.5,0.4-0.8,0.6
					s-0.6,0.2-1,0c-0.5-0.2-0.7-0.4-0.9-0.7c-0.1-0.3-0.1-0.7,0-1.1c0.1-0.4,0.3-0.8,0.5-1.2s0.4-0.7,0.6-1c0.3-0.6,0.7-1.1,1-1.6
					s0.7-1,1-1.5c1.2-1.9,2.5-3.7,3.8-5.4c1.3-1.8,2.6-3.6,3.8-5.4c0.4-0.5,0.8-1.1,1.4-2s1.3-1.7,2-2.6c0.7-0.9,1.4-1.9,2.2-3
					c0.8-1,1.5-2,2.3-3c-0.8,0.1-1.6,0.1-2.5,0.2c-0.9,0.1-1.8,0.2-2.6,0.2s-1.7,0.1-2.5,0.2c-0.8,0-1.5,0.1-2.2,0.1
					c-1.3,0-2-0.1-2-0.3c0-0.1,0.1-0.2,0.4-0.3s0.8-0.3,1.4-0.4c1.7-0.5,3.6-0.9,5.6-1.1c2.1-0.3,4.1-0.6,6.1-0.9
					c0.6-0.8,1.1-1.4,1.5-1.9s0.6-0.8,0.7-0.9c1.3-1.6,2.6-3.2,3.8-4.8c1.3-1.6,2.7-3.1,4.1-4.6c0,0,0.1-0.1,0.3-0.2
					c0.1-0.1,0.3-0.2,0.4-0.3c0.1-0.1,0.3-0.1,0.3-0.1c0.1,0,0.1,0.2,0,0.4c-0.4,0.9-0.9,1.8-1.4,2.7c-0.5,0.8-1.1,1.7-1.7,2.7
					c-0.6,0.9-1.3,1.9-2,3s-1.5,2.3-2.4,3.6c1-0.1,2.1-0.3,3.2-0.4c1.1-0.1,2.2-0.2,3.4-0.4c3-0.3,5.9-0.6,8.6-0.9
					c2.7-0.3,5.5-0.5,8.4-0.8c1.1-0.1,2.1-0.2,3-0.2C315.2,118.3,315.9,118.3,316.6,118.2z"/>
				<path class="st30" d="M289.5,142.1c0,0.1-0.1,0.2-0.4,0.5s-0.6,0.6-1,0.9c-0.4,0.3-0.8,0.7-1.2,1c-0.4,0.3-0.7,0.5-0.8,0.7
					c-0.5,0.4-1,0.8-1.5,1.2s-1,0.8-1.5,1.2c-0.8,0.7-1.5,1.3-2.3,2c-0.7,0.7-1.4,1.3-2.2,2.1c-0.2,0.2-0.4,0.4-0.7,0.7
					c-0.2,0.2-0.4,0.4-0.7,0.6c-0.5,0.3-0.9,0.3-1.4,0.1s-0.8-0.6-0.8-1.2c-0.1-0.5,0-1,0.3-1.6c0.3-0.5,0.5-1,0.8-1.4
					c0.8-1.2,1.5-2.4,2.4-3.6c0.8-1.2,1.6-2.4,2.3-3.6c0.1-0.2,0.2-0.4,0.1-0.7s-0.2-0.6-0.2-0.8c-1.1,1-2.3,2-3.7,3s-2.7,2-3.9,2.8
					c-1.2,0.8-2.2,1.5-3.1,1.9c-0.9,0.5-1.3,0.6-1.4,0.5c0-0.1,0.2-0.3,0.8-0.7c0.5-0.4,1.2-1,2-1.6c0.8-0.7,1.7-1.4,2.7-2.2
					s1.9-1.6,2.8-2.4c0.9-0.8,1.6-1.5,2.2-2.2s1-1.3,1.1-1.7c0-0.6,0-1.2,0-1.9s0.3-1.3,0.8-1.8c0.4-0.4,0.9-0.6,1.4-0.6
					c0.6,0,1,0.3,1.2,0.9s0.3,1.2,0,1.7c-0.2,0.5-0.5,1.1-0.7,1.5c-0.1,0.2-0.1,0.3-0.2,0.4c-0.1,0.1-0.1,0.3-0.1,0.5
					c0.1,0.5,0.2,0.9,0.4,1.3s0.4,0.8,0.6,1.3c0.3,0.7,0.3,1.3,0.2,1.8s-0.4,1.1-0.8,1.7c-0.4,0.6-0.8,1.1-1.2,1.7
					c-0.4,0.6-0.8,1.1-1.2,1.7c0.8-0.5,1.5-1,2.2-1.5s1.5-1,2.2-1.5c0.1-0.1,0.4-0.3,0.8-0.6c0.5-0.3,1-0.6,1.5-0.9s1-0.6,1.4-0.8
					C289.2,142.1,289.4,142,289.5,142.1z"/>
				<path class="st30" d="M302.3,134.9c0.4,0.1,0.8,0.4,1,0.7c0.3,0.3,0.4,0.5,0.3,0.4c-0.1,0-0.2-0.1-0.4-0.1
					c-0.2,0-0.4-0.1-0.8-0.1c-0.6-0.1-1.2,0-1.9,0.2c-0.6,0.2-1.2,0.4-1.9,0.8c-0.6,0.3-1.2,0.8-1.9,1.2c-0.6,0.5-1.3,1-1.9,1.5
					c-0.3,0.3-0.8,0.8-1.6,1.6c-0.8,0.8-1.6,1.7-2.4,2.7s-1.5,2.1-2.1,3.2s-0.9,2.1-0.9,3.1c0.9-0.1,2.1-0.6,3.3-1.4
					c1.3-0.8,2.5-1.7,3.7-2.8s2.3-2.3,3.3-3.5s1.6-2.3,2-3.4c0.1-0.3,0.2-0.6,0.2-1c0-0.3,0-0.6-0.1-1c-0.1-0.2-0.1-0.3-0.1-0.3
					c0-0.1,0.2-0.1,0.4,0.2c0.2,0.3,0.4,0.6,0.5,1c0.4,1.5,0.2,3-0.6,4.6s-1.8,3-3.2,4.4c-1.4,1.3-2.8,2.5-4.5,3.5
					c-1.6,1-3.1,1.6-4.4,2c-0.9,0.3-1.7,0.3-2.5,0c-0.7-0.3-1.1-0.7-1.4-1.4s-0.3-1.3-0.2-2c0.1-0.8,0.4-1.7,0.7-2.4
					c0.3-0.8,0.8-1.5,1.3-2.3c0.5-0.7,1-1.4,1.7-2.2s1.5-1.6,2.3-2.3c0.9-0.8,1.8-1.5,2.8-2.2s2-1.3,3-1.7c1-0.5,2-0.8,3-1
					S301.4,134.6,302.3,134.9z"/>
				<path class="st30" d="M344.3,142.7c0,0,0,0.1-0.2,0.3c-0.2,0.1-0.4,0.3-0.6,0.5s-0.4,0.4-0.6,0.5s-0.3,0.3-0.4,0.4
					c-0.4,0.3-0.7,0.6-1.1,0.9c-0.4,0.3-0.7,0.6-1.1,0.9c-0.9,0.7-1.7,1.3-2.5,2c-0.9,0.7-1.7,1.4-2.5,2.1c-0.2,0.2-0.5,0.4-0.8,0.7
					s-0.5,0.5-0.7,0.7c-0.3,0.3-0.7,0.6-1.1,0.8s-0.8,0.2-1.3-0.2c-0.2-0.1-0.3-0.3-0.3-0.5c-0.1-0.2-0.1-0.4-0.2-0.6
					c-0.1-0.5,0-1,0-1.5c0.1-0.5,0.2-1,0.4-1.5c0.2-0.5,0.4-1,0.6-1.5s0.5-0.9,0.7-1.3c0.5-0.9,1.1-1.9,1.8-3c0.8-1.1,1.5-2,2.1-2.8
					c-1.1,0.7-2.3,1.5-3.3,2.4s-2.2,1.7-3.2,2.6c-0.2,0.1-0.5,0.5-1.2,1c-0.6,0.6-1.3,1.1-2,1.7c-0.7,0.6-1.4,1-2,1.4
					c-0.7,0.4-1.1,0.5-1.3,0.4c-0.2-0.1-0.2-0.4-0.1-0.9s0.4-1,0.7-1.7c0.3-0.7,0.7-1.3,1.2-2.1c0.4-0.7,0.9-1.4,1.3-2.1
					c0.4-0.7,0.8-1.3,1.2-1.8s0.6-0.9,0.8-1.2c-2.4,1.7-4.6,3.6-6.8,5.7c-2.1,2.1-4.1,4.4-6.1,6.9c-0.1,0.2-0.3,0.3-0.4,0.5
					s-0.3,0.3-0.5,0.4c-0.4,0.2-0.8,0.1-1.1-0.1c-0.4-0.2-0.6-0.5-0.6-1c0-1.1,0.3-2.2,0.9-3.3s1.2-2.1,1.8-3.1
					c0.3-0.4,0.7-1,1.2-1.7c0.6-0.7,1.2-1.4,1.9-2.3c0.7-0.8,1.4-1.7,2.2-2.5c0.8-0.9,1.5-1.7,2.3-2.5c0.7-0.8,1.4-1.5,2-2.1
					s1.1-1.1,1.4-1.4c0.1-0.1,0.2,0,0.1,0.1c0,0.2-0.1,0.4-0.2,0.7s-0.2,0.6-0.4,0.9c-0.1,0.3-0.2,0.4-0.2,0.5
					c-0.5,0.8-1,1.7-1.6,2.5s-1.2,1.7-1.8,2.6c-0.6,0.9-1.3,1.7-1.9,2.6s-1.2,1.7-1.6,2.6c1.2-1,2.4-2,3.6-3.1c1.2-1,2.3-2,3.3-2.9
					c1.1-0.9,2.1-1.7,3.1-2.5c1-0.7,1.9-1.3,2.8-1.7c0.4-0.2,0.9-0.2,1.4,0c0.4,0.2,0.6,0.5,0.7,0.9s0,0.8-0.2,1.1
					c-0.8,1.2-1.8,2.3-2.7,3.3c-1,1-1.9,2.1-2.8,3.3c1.7-1,3.3-2.2,4.8-3.5s3-2.6,4.6-3.9c0.5-0.4,0.9-0.8,1.5-1.2s1.1-0.7,1.7-0.9
					c0.2-0.1,0.5-0.1,0.7-0.1s0.5,0.1,0.7,0.2c0.4,0.2,0.6,0.5,0.7,0.9s0,0.8-0.2,1.2s-0.5,0.7-0.8,1s-0.5,0.6-0.8,1s-0.7,0.8-1,1.2
					s-0.7,0.8-1.1,1.2c-0.7,0.8-1.3,1.6-2,2.4s-1.2,1.7-1.8,2.5c-0.8,1.1-1.4,2.2-1.8,3.4c0.7-0.5,1.3-1,2-1.4
					c0.7-0.5,1.4-1,2.1-1.4c0.1-0.1,0.5-0.4,1.2-0.8c0.7-0.4,1.4-0.9,2.2-1.4c0.8-0.5,1.5-0.9,2.1-1.3
					C343.9,142.8,344.2,142.6,344.3,142.7z"/>
				<path class="st30" d="M362.2,141.8c0.1,0.1,0,0.3-0.3,0.5s-0.4,0.4-0.5,0.4c-1.5,1.2-2.9,2.4-4.4,3.5c-0.9,0.7-1.7,1.4-2.5,2.2
					s-1.7,1.5-2.5,2.3l-1.2,1c-0.2,0.1-0.3,0.2-0.5,0.3s-0.3,0.2-0.5,0.2c-0.4,0.1-0.8,0-1.1-0.3c-0.3-0.2-0.5-0.6-0.6-1
					s0-0.9,0.2-1.3c0.2-0.5,0.4-0.9,0.6-1.3c0.5-1,1-1.9,1.6-2.7s1.3-1.8,2.2-2.9c-0.9,0.8-1.8,1.5-2.6,2.3
					c-0.8,0.8-1.7,1.5-2.5,2.3c-0.7,0.7-1.4,1.3-2.2,1.9c-0.7,0.6-1.5,1.2-2.2,1.8c-0.2,0.2-0.4,0.3-0.7,0.5
					c-0.3,0.2-0.6,0.4-0.8,0.5c-0.3,0.1-0.6,0.2-0.9,0.2s-0.6-0.1-0.8-0.3c-0.4-0.3-0.6-0.8-0.6-1.4c0-0.6,0.1-1.2,0.4-1.9
					c0.2-0.7,0.5-1.3,0.9-1.9c0.4-0.6,0.6-1,0.8-1.4c0.8-1.3,1.8-2.5,2.9-3.7s2.2-2.2,3.4-3.2c0.7-0.6,1.4-1.1,2.1-1.6
					c0.8-0.5,1.6-0.9,2.4-1.1c0,0,0.1,0,0.2,0s0.2,0,0.3,0c0.1,0,0.2,0,0.3,0c0.1,0,0,0.1,0,0.2c-0.1,0.2-0.3,0.3-0.4,0.4
					c-0.1,0.1-0.3,0.2-0.5,0.4c-0.4,0.3-0.7,0.6-1,0.9c-0.3,0.3-0.6,0.7-1,1c-0.7,0.8-1.4,1.6-2,2.5c-0.7,0.9-1.3,1.8-2,2.8
					c-0.7,0.9-1.3,1.9-1.9,2.8c-0.6,0.9-1.2,1.9-1.8,2.7c2.6-1.7,5.3-3.7,7.9-5.9s5.3-4.4,8.1-6.7c0.4-0.3,0.9-0.7,1.4-1.1
					c0.6-0.4,0.9-0.7,1.2-0.7c0.3,0,0.5,0,0.6,0.2c0.2,0.2,0.2,0.4,0.1,0.6c0,0.1-0.2,0.4-0.4,0.7c-0.3,0.3-0.4,0.6-0.5,0.7
					c-0.1,0.1-0.3,0.4-0.7,0.9c-0.4,0.5-0.8,1.1-1.4,1.8c-0.5,0.7-1.1,1.4-1.7,2.2s-1.2,1.5-1.7,2.3c-0.5,0.7-1,1.4-1.4,1.9
					c-0.4,0.6-0.6,0.9-0.7,1.1c0,0,0.3-0.2,0.7-0.5c0.5-0.3,1-0.7,1.6-1.2s1.3-0.9,2.1-1.4c0.8-0.5,1.5-1,2.1-1.4
					c0.7-0.4,1.2-0.7,1.7-1S362.1,141.7,362.2,141.8z"/>
				<path class="st30" d="M378.3,142.9c0,0.1,0,0.2-0.2,0.3c-0.2,0.2-0.4,0.3-0.6,0.5s-0.4,0.4-0.6,0.5c-0.2,0.2-0.3,0.3-0.4,0.3
					c-0.4,0.3-0.7,0.6-1.1,0.9c-0.4,0.3-0.8,0.6-1.2,0.9c-1,0.8-2.2,1.7-3.3,2.5c-1.2,0.8-2.3,1.7-3.3,2.8c-0.2,0.1-0.3,0.3-0.5,0.4
					c-0.2,0.1-0.4,0.3-0.6,0.4c-0.2,0.1-0.4,0.1-0.6,0.1s-0.4-0.1-0.7-0.3c-0.4-0.3-0.6-0.7-0.6-1.3s0.1-1.2,0.3-1.9
					c0.2-0.7,0.5-1.3,0.8-1.9c0.3-0.6,0.5-1.1,0.7-1.5c0.5-0.9,1.1-1.8,1.8-2.9c0.8-1,1.4-2,2-2.7c-1.1,0.7-2.1,1.3-3.1,1.9
					c-1,0.6-1.9,1.3-2.9,2c-1,0.8-2,1.7-3,2.9c-1,1.1-2.2,2.6-3.4,4.4c-0.1,0.2-0.3,0.3-0.4,0.5s-0.3,0.3-0.5,0.4
					c-0.4,0.2-0.7,0.1-1.1-0.1c-0.4-0.2-0.6-0.5-0.6-1c-0.1-0.5,0.2-1.4,0.9-2.5c0.6-1.2,1.5-2.5,2.6-3.9s2.3-2.9,3.7-4.4
					c1.4-1.5,2.8-2.9,4.3-4.2c0.3-0.3,0.7-0.5,1.1-0.9c0.4-0.3,0.7-0.5,1-0.6c0.1,0,0,0.1-0.1,0.3s-0.3,0.4-0.5,0.7
					s-0.4,0.6-0.6,0.9c-0.2,0.3-0.4,0.5-0.5,0.7c-0.6,0.8-1.1,1.6-1.5,2.1c-0.4,0.6-0.8,1.1-1.1,1.6c-0.4,0.5-0.8,1.1-1.2,1.7
					c-0.4,0.6-1,1.4-1.8,2.4c1.1-0.9,2.4-1.9,3.7-3c1.3-1.1,2.6-2.1,3.8-3.1c1.3-1,2.5-1.9,3.7-2.7s2.2-1.4,3.1-1.9
					c0.5-0.2,0.9-0.2,1.4,0.1c0.4,0.2,0.6,0.5,0.7,0.9s0,0.8-0.2,1.1c-0.5,0.8-1.2,1.6-2,2.4c-0.9,0.9-1.6,1.7-2.3,2.5
					c-0.7,0.8-1.3,1.6-2,2.4c-0.6,0.8-1.2,1.7-1.8,2.5c-0.3,0.5-0.7,1.1-1,1.6c-0.3,0.6-0.6,1.1-0.8,1.8c0.7-0.5,1.3-1,2-1.5
					s1.4-0.9,2.1-1.4c0.1-0.1,0.3-0.2,0.7-0.4c0.3-0.2,0.8-0.5,1.2-0.8c0.5-0.3,1-0.6,1.5-1s1-0.6,1.5-0.9s0.8-0.5,1.2-0.6
					C378.1,142.9,378.3,142.9,378.3,142.9z"/>
				<path class="st30" d="M414.2,108.4c0,0,0,0.1,0,0.3c0,0.2-0.1,0.3-0.2,0.5s-0.2,0.4-0.2,0.5c-0.1,0.2-0.1,0.3-0.2,0.3
					c-0.9,1.8-2,3.6-3.1,5.3c-1.1,1.7-2.3,3.5-3.4,5.2c-1.2,1.8-2.5,3.6-3.7,5.4c-1.3,1.8-2.5,3.6-3.8,5.4c-2,2.8-4,5.5-6,8.3
					s-4.1,5.5-6.3,8.2c0.3-0.2,0.7-0.5,1.2-0.8c0.4-0.3,0.8-0.5,1.1-0.7c0.9-0.7,1.9-1.3,3-2s2.1-1.2,3.1-1.8
					c0.1-0.1,0.2-0.2,0.5-0.3s0.4-0.2,0.5-0.1c-0.1,0.1-0.3,0.4-0.7,0.7c-0.4,0.4-0.9,0.7-1.4,1.2c-0.5,0.4-1,0.8-1.5,1.2
					s-0.8,0.6-1,0.8c-0.9,0.7-1.8,1.5-2.8,2.4s-1.9,1.7-2.7,2.5c-0.4,0.4-0.8,0.6-1,0.9c-0.2,0.2-0.6,0.5-1.1,0.7
					c-0.7,0.3-1.3,0.1-1.8-0.3c-0.3-0.3-0.3-0.7-0.2-1.2c0.1-0.5,0.2-0.9,0.4-1.2c0.3-0.8,0.8-1.7,1.4-2.6c0.6-1,1.2-1.8,1.7-2.5
					c-1.2,1.1-2.6,2.3-4.1,3.5s-3,2.4-4.4,3.4c-0.2,0.2-0.4,0.3-0.7,0.5c-0.3,0.2-0.6,0.4-0.8,0.5c-0.3,0.1-0.6,0.2-0.9,0.2
					s-0.6-0.1-0.8-0.3c-0.4-0.3-0.5-0.7-0.6-1.1c0-0.5,0-0.9,0.2-1.3c0.5-1.5,1.1-2.8,2-4c0.8-1.2,1.7-2.3,2.6-3.3s1.8-1.9,2.7-2.6
					c0.9-0.7,1.6-1.3,2.2-1.8c0.6-0.4,1.3-0.9,2.2-1.3c0.8-0.5,1.7-0.9,2.6-1.3c0.9-0.4,1.8-0.7,2.8-0.8c0.9-0.2,1.8-0.2,2.6,0
					c1-1.3,1.9-2.6,2.7-3.8s1.7-2.5,2.7-3.8c1.3-1.8,2.7-3.5,4-5.2s2.7-3.4,4-5.1c0.9-1.2,1.9-2.4,2.9-3.6s2-2.3,3.1-3.4
					c0,0,0.1-0.1,0.3-0.3c0.2-0.2,0.3-0.4,0.5-0.5s0.4-0.3,0.5-0.4C414,108.3,414.1,108.3,414.2,108.4z M377.1,149.7
					c1.2-0.9,2.5-1.8,3.8-2.8c1.3-0.9,2.7-2,4-3.1s2.6-2.3,3.9-3.7c1.3-1.3,2.4-2.8,3.5-4.5c-0.7,0-1.4,0.1-2.2,0.4
					c-0.8,0.3-1.5,0.6-2.2,1.1c-0.7,0.4-1.4,0.9-2,1.4s-1.1,0.9-1.6,1.3c-0.3,0.3-0.8,0.7-1.4,1.4s-1.3,1.5-2,2.4s-1.4,1.9-2.1,3
					C378.1,147.7,377.5,148.7,377.1,149.7z"/>
				<path class="st30" d="M409.5,134.9c0.4,0.1,0.8,0.4,1,0.7c0.3,0.3,0.4,0.5,0.3,0.4c-0.1,0-0.2-0.1-0.4-0.1
					c-0.2,0-0.4-0.1-0.8-0.1c-0.6-0.1-1.2,0-1.9,0.2c-0.6,0.2-1.2,0.4-1.9,0.8c-0.6,0.3-1.2,0.8-1.9,1.2c-0.6,0.5-1.3,1-1.9,1.5
					c-0.3,0.3-0.8,0.8-1.6,1.6c-0.8,0.8-1.6,1.7-2.4,2.7s-1.5,2.1-2.1,3.2s-0.9,2.1-0.9,3.1c0.9-0.1,2.1-0.6,3.3-1.4
					c1.3-0.8,2.5-1.7,3.7-2.8s2.3-2.3,3.3-3.5s1.6-2.3,2-3.4c0.1-0.3,0.2-0.6,0.2-1c0-0.3,0-0.6-0.1-1c-0.1-0.2-0.1-0.3-0.1-0.3
					c0-0.1,0.2-0.1,0.4,0.2c0.2,0.3,0.4,0.6,0.5,1c0.4,1.5,0.2,3-0.6,4.6s-1.8,3-3.2,4.4c-1.4,1.3-2.8,2.5-4.5,3.5
					c-1.6,1-3.1,1.6-4.4,2c-0.9,0.3-1.7,0.3-2.5,0c-0.7-0.3-1.1-0.7-1.4-1.4s-0.3-1.3-0.2-2c0.1-0.8,0.4-1.7,0.7-2.4
					c0.3-0.8,0.8-1.5,1.3-2.3c0.5-0.7,1-1.4,1.7-2.2s1.5-1.6,2.3-2.3c0.9-0.8,1.8-1.5,2.8-2.2s2-1.3,3-1.7c1-0.5,2-0.8,3-1
					S408.5,134.6,409.5,134.9z"/>
			</g>
		</g>
		<g>
			<path class="st31" d="M96.3,110.9c1,0.7,1.6,1.5,1.9,2.5c0.3,1,0.4,2,0.2,3.1s-0.4,2.1-0.9,3.2c-0.5,1-1,2-1.6,2.7
				c-0.5,0.7-1.1,1.4-1.7,2c-0.6,0.6-1.3,1.2-2,1.8c0,0-0.1,0.1-0.3,0.2s-0.4,0.2-0.6,0.4c-0.2,0.1-0.4,0.2-0.5,0.3
				c-0.2,0.1-0.2,0.1-0.2,0l0,0V127l0.1-0.1c0.5-0.7,1-1.3,1.4-1.8s0.7-0.9,1-1.4c0.3-0.4,0.6-0.8,0.8-1.3c0.3-0.4,0.5-0.9,0.8-1.4
				c0.3-0.6,0.7-1.3,1-2.2s0.5-1.7,0.6-2.5c0-0.8-0.1-1.6-0.4-2.2c-0.3-0.7-1-1.2-2.1-1.5c-0.9-0.2-1.9-0.2-2.8-0.1
				s-1.8,0.3-2.7,0.6s-1.8,0.6-2.7,1s-1.7,0.8-2.5,1.2c-3.4,1.8-6.5,4-9.3,6.6c-2.9,2.6-5.5,5.4-8,8.3c-1.2,1.5-2.4,3-3.6,4.5
				c-1.2,1.5-2.3,3.1-3.3,4.8c-1,1.6-1.9,3.3-2.7,5.1c-0.8,1.7-1.5,3.6-2,5.4c-0.3,0.9-0.4,1.9-0.5,2.9s0.1,2,0.6,3
				c0.5,0.8,1.2,1.4,2.1,1.7s1.9,0.5,2.9,0.4c1,0,2.1-0.1,3.1-0.4c1-0.2,1.9-0.5,2.7-0.7c2.9-1,5.7-2.3,8.4-3.8
				c2.6-1.5,5.2-3.2,7.6-5.1c2.5-1.9,4.8-3.9,7.2-6.1c2.3-2.2,4.7-4.5,7-6.8c0,0,0.1-0.1,0.2-0.2c0.1-0.1,0.2-0.2,0.4-0.4
				c0.1-0.1,0.2-0.2,0.3-0.3s0.2-0.1,0.2,0c0,0.2-0.1,0.5-0.3,0.9s-0.4,0.7-0.6,1c-0.8,1.3-1.8,2.6-2.8,3.9c-1,1.3-2.1,2.6-3.1,3.7
				c-2.5,2.7-5.2,5.3-8.1,7.5c-2.9,2.3-5.9,4.3-9.2,6.1c-1.3,0.7-2.8,1.3-4.5,2.1c-1.7,0.7-3.5,1.3-5.3,1.7
				c-1.8,0.4-3.6,0.5-5.3,0.3s-3.3-0.8-4.6-2c-0.9-0.8-1.6-1.8-2-2.9S50,154.3,50,153s0.1-2.4,0.4-3.7c0.3-1.2,0.6-2.4,1-3.5
				c1.4-3.6,3.1-7,5.2-10.1s4.4-6.1,7-9c2.5-2.8,5.3-5.5,8.2-8s6.1-4.6,9.5-6.4c0.9-0.5,2.1-0.9,3.3-1.4c1.3-0.5,2.6-0.9,3.9-1.1
				s2.7-0.4,4-0.3C94.1,109.8,95.3,110.2,96.3,110.9z"/>
			<path class="st31" d="M110.9,141.8c-0.3,0.3-0.6,0.6-0.9,1c-0.3,0.4-0.7,0.7-1,1s-0.5,0.5-0.6,0.6c-1.3,1.1-2.6,2.3-4,3.4
				c-1.4,1.1-2.9,2.1-4.5,3c-0.8,0.5-1.6,0.9-2.5,1.3c-0.8,0.4-1.7,0.6-2.6,0.6c-0.8,0-1.5-0.3-2.1-0.8s-0.9-1.2-0.8-2
				c0.2-1.9,0.8-3.5,1.8-5s2.1-2.9,3.4-4.3c0.6-0.7,1.3-1.3,2-1.8c0.7-0.6,1.4-1.1,2.2-1.6c0.7-0.5,1.5-1,2.3-1.4s1.6-0.7,2.5-1
				c0.4-0.1,0.8-0.2,1.3-0.2s0.9,0.1,1.3,0.3c0.8,0.5,1.1,1.1,1.1,1.9c-0.1,0.8-0.4,1.6-0.9,2.5c-0.3,0.4-0.5,0.7-0.8,1
				s-0.5,0.7-0.8,1c-1.2,1.3-2.5,2.4-4,3.2c-1,0.6-2.1,1.1-3.1,1.5s-2.2,0.8-3.6,1.2c-0.7,0.9-1.2,2-1.6,3.1c0.9,0,2-0.2,3.1-0.7
				c1.1-0.4,2.3-1,3.4-1.7s2.3-1.4,3.4-2.1s2.1-1.4,3-2c0.1,0,0.3-0.2,0.6-0.4c0.4-0.3,0.7-0.5,1.2-0.9c0.4-0.3,1-0.7,1.6-1.2
				C111.3,141.4,111.2,141.5,110.9,141.8z M98.6,143.9c-0.3,0.4-0.6,0.7-0.8,0.9c-0.2,0.3-0.4,0.6-0.6,0.9c1.1-0.3,2.2-0.7,3.3-1.3
				s2-1.2,2.9-2s1.7-1.7,2.4-2.6c0.7-1,1.3-2,1.6-3.2c-1.7,0.8-3.3,1.9-4.7,3.2S100,142.5,98.6,143.9z"/>
			<path class="st31" d="M122.7,142.1c0,0.1-0.1,0.2-0.4,0.5s-0.6,0.6-1,0.9c-0.4,0.3-0.8,0.7-1.2,1s-0.7,0.5-0.8,0.7
				c-0.5,0.4-1,0.8-1.5,1.2s-1,0.8-1.5,1.2c-0.8,0.7-1.5,1.3-2.3,2c-0.7,0.7-1.4,1.3-2.2,2.1c-0.2,0.2-0.4,0.4-0.7,0.7
				c-0.2,0.2-0.4,0.4-0.7,0.6c-0.5,0.3-0.9,0.3-1.4,0.1s-0.8-0.6-0.8-1.2c-0.1-0.5,0-1,0.3-1.6c0.3-0.5,0.5-1,0.8-1.4
				c0.8-1.2,1.5-2.4,2.4-3.6c0.8-1.2,1.6-2.4,2.3-3.6c0.1-0.2,0.2-0.4,0.1-0.7c-0.1-0.3-0.2-0.6-0.2-0.8c-1.1,1-2.3,2-3.7,3
				s-2.7,2-3.9,2.8s-2.2,1.5-3.1,1.9c-0.9,0.5-1.3,0.6-1.4,0.5c0-0.1,0.2-0.3,0.8-0.7c0.5-0.4,1.2-1,2-1.6c0.8-0.7,1.7-1.4,2.7-2.2
				s1.9-1.6,2.8-2.4c0.9-0.8,1.6-1.5,2.2-2.2c0.6-0.7,1-1.3,1.1-1.7c0-0.6,0-1.2,0-1.9s0.3-1.3,0.8-1.8c0.4-0.4,0.9-0.6,1.4-0.6
				c0.6,0,1,0.3,1.2,0.9s0.3,1.2,0,1.7c-0.2,0.5-0.5,1.1-0.7,1.5c-0.1,0.2-0.1,0.3-0.2,0.4c-0.1,0.1-0.1,0.3-0.1,0.5
				c0.1,0.5,0.2,0.9,0.4,1.3s0.4,0.8,0.6,1.3c0.3,0.7,0.3,1.3,0.2,1.8s-0.4,1.1-0.8,1.7c-0.4,0.6-0.8,1.1-1.2,1.7
				c-0.4,0.6-0.8,1.1-1.2,1.7c0.8-0.5,1.5-1,2.2-1.5s1.5-1,2.2-1.5c0.1-0.1,0.4-0.3,0.8-0.6c0.5-0.3,1-0.6,1.5-0.9s1-0.6,1.4-0.8
				C122.3,142.1,122.6,142,122.7,142.1z"/>
			<path class="st31" d="M139.3,132.1c0,0,0,0.1-0.1,0.3s-0.4,0.6-1,1.3s-1.4,1.7-2.5,3s-2.7,3.1-4.7,5.4c-1.5,1.6-2.9,3.2-4.3,4.6
				c-1.4,1.4-2.9,2.9-4.5,4.4c-0.3,0.3-0.6,0.6-0.9,0.8c-0.3,0.2-0.6,0.3-1.1,0.3c-0.4-0.1-0.8-0.3-1.1-0.6s-0.4-0.7-0.4-1.1
				c0-0.4,0.1-0.8,0.2-1.2c0.1-0.5,0.3-0.9,0.5-1.4s0.4-1,0.6-1.4c0.2-0.5,0.4-0.9,0.6-1.2c0.7-1.4,1.3-2.7,2.1-4.1
				c0.7-1.4,1.5-2.7,2.4-4.1c0.2-0.4,0.5-0.7,0.7-1.1c0.2-0.4,0.5-0.7,0.9-1c0.1-0.1,0.2-0.2,0.3-0.1c0,0.1,0.1,0.2,0.1,0.3
				s0,0.3,0,0.5s0,0.3,0,0.3c-0.1,0.7-0.4,1.5-0.7,2.5c-0.4,0.9-0.8,1.9-1.2,2.9s-0.8,1.9-1.3,2.9c-0.4,0.9-0.7,1.8-1,2.5
				c0.3-0.4,0.9-1,1.9-1.9c0.9-0.9,2-1.9,3.2-3s2.5-2.3,3.8-3.5s2.5-2.2,3.7-3.2c1.1-1,2.1-1.7,2.8-2.3
				C138.7,132.3,139.2,132,139.3,132.1z"/>
			<path class="st31" d="M149.3,141.8c-0.3,0.3-0.6,0.6-0.9,1c-0.3,0.4-0.7,0.7-1,1s-0.5,0.5-0.6,0.6c-1.3,1.1-2.6,2.3-4,3.4
				c-1.4,1.1-2.9,2.1-4.5,3c-0.8,0.5-1.6,0.9-2.5,1.3c-0.8,0.4-1.7,0.6-2.6,0.6c-0.8,0-1.5-0.3-2.1-0.8s-0.9-1.2-0.8-2
				c0.2-1.9,0.8-3.5,1.8-5s2.1-2.9,3.4-4.3c0.6-0.7,1.3-1.3,2-1.8c0.7-0.6,1.4-1.1,2.2-1.6c0.7-0.5,1.5-1,2.3-1.4s1.6-0.7,2.5-1
				c0.4-0.1,0.8-0.2,1.3-0.2s0.9,0.1,1.3,0.3c0.8,0.5,1.1,1.1,1.1,1.9c-0.1,0.8-0.4,1.6-0.9,2.5c-0.3,0.4-0.5,0.7-0.8,1
				s-0.5,0.7-0.8,1c-1.2,1.3-2.5,2.4-4,3.2c-1,0.6-2.1,1.1-3.1,1.5s-2.2,0.8-3.6,1.2c-0.7,0.9-1.2,2-1.6,3.1c0.9,0,2-0.2,3.1-0.7
				c1.1-0.4,2.3-1,3.4-1.7s2.3-1.4,3.4-2.1s2.1-1.4,3-2c0.1,0,0.3-0.2,0.6-0.4c0.4-0.3,0.7-0.5,1.2-0.9c0.4-0.3,1-0.7,1.6-1.2
				C149.6,141.4,149.5,141.5,149.3,141.8z M137,143.9c-0.3,0.4-0.6,0.7-0.8,0.9c-0.2,0.3-0.4,0.6-0.6,0.9c1.1-0.3,2.2-0.7,3.3-1.3
				s2-1.2,2.9-2s1.7-1.7,2.4-2.6c0.7-1,1.3-2,1.6-3.2c-1.7,0.8-3.3,1.9-4.7,3.2S138.4,142.5,137,143.9z"/>
			<path class="st31" d="M159,135.5c0.2,0.1,0,0.5-0.3,1.3c-0.4,0.8-0.9,1.7-1.6,2.8c-0.7,1.1-1.5,2.3-2.4,3.6s-1.7,2.5-2.5,3.6
				s-1.5,2.1-2.1,3s-1,1.3-1.1,1.5c-2.5,3.6-5.2,7-8.1,10.3c-2.9,3.3-6,6.3-9.5,9c-1.7,1.3-3.4,2.5-5.2,3.6s-3.7,2-5.7,2.7
				c-0.9,0.3-1.8,0.6-2.7,0.8s-1.9,0.4-2.8,0.4c-0.2,0-0.4,0-0.6,0s-0.4,0-0.6-0.1c-0.3-0.1-0.3-0.1-0.1-0.2
				c0.2-0.1,0.3-0.2,0.4-0.2c0.4-0.2,0.8-0.3,1.3-0.4c0.4-0.1,0.8-0.3,1.2-0.4c2-0.7,3.9-1.6,5.7-2.7s3.5-2.3,5.2-3.6
				s3.2-2.7,4.7-4.1c1.5-1.5,3-3,4.4-4.5c0.7-0.8,1.5-1.7,2.3-2.7s1.7-2.1,2.5-3.3c0.9-1.1,1.7-2.3,2.6-3.5c0.9-1.2,1.7-2.3,2.5-3.5
				c1.9-2.6,3.8-5.3,5.7-8.1c-1.4,1-2.8,1.9-4.2,2.8c-1.4,0.9-2.8,1.8-4.3,2.7c-0.1,0.1-0.3,0.2-0.6,0.3c-0.2,0.1-0.4,0.1-0.4,0.1
				c0-0.1,0-0.1,0.1-0.2c0.4-0.4,0.8-0.8,1.3-1.2s0.9-0.7,1.4-1.1c0.2-0.1,0.6-0.5,1.2-1s1.5-1.1,2.4-1.8s1.9-1.4,3-2.2
				s2.1-1.5,3-2.1c1-0.6,1.8-1.1,2.5-1.4C158.3,135.4,158.8,135.3,159,135.5z M162.3,127.1c0.1,0.3,0.1,0.5,0,0.8s-0.2,0.5-0.4,0.8
				c-0.2,0.2-0.4,0.5-0.6,0.7c-0.2,0.2-0.5,0.3-0.7,0.4c-0.2,0.1-0.4,0.2-0.7,0.2s-0.5,0.1-0.8,0c-0.3,0-0.5-0.1-0.7-0.2
				c-0.2-0.1-0.4-0.3-0.5-0.5c-0.2-0.5-0.1-1,0.2-1.5s0.7-0.8,1.1-1.1c0.2-0.1,0.4-0.2,0.7-0.3s0.6-0.1,0.9-0.1s0.6,0,0.9,0.1
				C162,126.6,162.2,126.8,162.3,127.1z"/>
			<path class="st31" d="M174.9,142.3c0,0,0,0.1-0.1,0.2c-0.4,0.4-0.8,0.8-1.3,1.1c-0.5,0.4-0.9,0.7-1.4,1.1
				c-1.5,1.1-3.1,2.3-4.9,3.8c-0.6,0.4-1.1,0.8-1.5,1.3c-0.4,0.4-0.9,0.9-1.4,1.3c-0.1,0.1-0.3,0.3-0.6,0.5s-0.4,0.4-0.5,0.4
				c-0.3,0.3-0.6,0.4-1,0.3c-0.4-0.1-0.8-0.3-1-0.6c-0.3-0.3-0.4-0.7-0.3-1.1c0.1-0.4,0.2-0.8,0.4-1.1c0.4-0.8,0.7-1.6,1.2-2.3
				c0.4-0.7,0.9-1.5,1.3-2.2c-0.5,0.4-1,0.9-1.4,1.3c-0.5,0.4-0.9,0.8-1.4,1.2c-0.7,0.7-1.4,1.3-2.2,1.9c-0.7,0.6-1.5,1.2-2.3,1.8
				c-0.2,0.2-0.4,0.3-0.7,0.5s-0.6,0.4-0.8,0.5c-0.3,0.1-0.6,0.2-0.9,0.2s-0.6-0.1-0.8-0.3c-0.4-0.3-0.5-0.6-0.6-1.1s0-0.9,0.2-1.2
				c0.3-1.1,0.9-2.3,1.6-3.4c0.7-1.1,1.5-2.2,2.3-3.1c0.8-0.9,1.5-1.7,2.2-2.3s1.1-1,1.3-1.2c0.6-0.6,1.3-1.1,2.1-1.7
				c0.8-0.6,1.7-1.1,2.6-1.6c0.9-0.5,1.9-0.9,2.8-1.2s1.9-0.4,2.8-0.4c0.5,0,1,0.1,1.5,0.2c0.6,0.1,1,0.4,1.2,0.7
				c0,0,0.1,0.1,0.1,0.2c0.1,0.1,0,0.2,0,0.1c-0.9-0.2-1.7-0.3-2.5-0.1s-1.6,0.4-2.4,0.8s-1.5,0.9-2.3,1.4c-0.7,0.6-1.4,1.1-2.1,1.6
				c-0.6,0.5-1.2,1.1-1.9,1.8s-1.4,1.4-2,2.3s-1.3,1.7-1.9,2.6s-1.1,1.9-1.6,2.9c1.3-0.8,2.7-1.8,4.1-2.9c1.5-1.1,2.9-2.1,4.2-3.2
				c0.7-0.6,1.4-1.1,2.1-1.6s1.5-1.1,2.2-1.7c0.2-0.2,0.4-0.4,0.8-0.6s0.6-0.5,0.9-0.7c0.3-0.2,0.6-0.4,0.8-0.6
				c0.2-0.2,0.4-0.3,0.5-0.3c0.3-0.1,0.5,0,0.6,0.2c0.2,0.2,0.2,0.4,0.1,0.6c0,0.1-0.1,0.2-0.2,0.3c-0.1,0.2-0.3,0.3-0.4,0.5
				c-0.2,0.2-0.3,0.4-0.5,0.5c-0.1,0.2-0.2,0.3-0.3,0.3c-0.5,0.6-1.1,1.3-1.7,2.1c-0.6,0.8-1.3,1.5-1.9,2.3
				c-0.6,0.7-1.1,1.4-1.6,1.9c-0.4,0.6-0.7,0.9-0.9,1.1c0.3-0.2,0.7-0.5,1.2-0.8s0.9-0.6,1.2-0.8c0.9-0.6,1.8-1.2,2.8-1.8
				c0.9-0.6,1.9-1.1,2.9-1.6c0.1-0.1,0.2-0.2,0.5-0.3C174.7,142.3,174.8,142.3,174.9,142.3z"/>
			<path class="st31" d="M225.3,108.4c0,0,0,0.1,0,0.3c0,0.2-0.1,0.3-0.2,0.5s-0.2,0.4-0.2,0.5c-0.1,0.2-0.1,0.3-0.2,0.3
				c-0.9,1.8-2,3.6-3.1,5.3c-1.1,1.7-2.3,3.5-3.4,5.2c-1.2,1.8-2.5,3.6-3.7,5.4c-1.3,1.8-2.5,3.6-3.8,5.4c-2,2.8-4,5.5-6,8.3
				s-4.1,5.5-6.3,8.2c0.3-0.2,0.7-0.5,1.2-0.8c0.4-0.3,0.8-0.5,1.1-0.7c0.9-0.7,1.9-1.3,3-2s2.1-1.2,3.1-1.8
				c0.1-0.1,0.2-0.2,0.5-0.3s0.4-0.2,0.5-0.1c-0.1,0.1-0.3,0.4-0.7,0.7c-0.4,0.4-0.9,0.7-1.4,1.2c-0.5,0.4-1,0.8-1.5,1.2
				s-0.8,0.6-1,0.8c-0.9,0.7-1.8,1.5-2.8,2.4s-1.9,1.7-2.7,2.5c-0.4,0.4-0.8,0.6-1,0.9c-0.2,0.2-0.6,0.5-1.1,0.7
				c-0.7,0.3-1.3,0.1-1.8-0.3c-0.3-0.3-0.3-0.7-0.2-1.2c0.1-0.5,0.2-0.9,0.4-1.2c0.3-0.8,0.8-1.7,1.4-2.6c0.6-1,1.2-1.8,1.7-2.5
				c-1.2,1.1-2.6,2.3-4.1,3.5s-3,2.4-4.4,3.4c-0.2,0.2-0.4,0.3-0.7,0.5c-0.3,0.2-0.6,0.4-0.8,0.5c-0.3,0.1-0.6,0.2-0.9,0.2
				s-0.6-0.1-0.8-0.3c-0.4-0.3-0.5-0.7-0.6-1.1c0-0.5,0-0.9,0.2-1.3c0.5-1.5,1.1-2.8,2-4c0.8-1.2,1.7-2.3,2.6-3.3s1.8-1.9,2.7-2.6
				c0.9-0.7,1.6-1.3,2.2-1.8c0.6-0.4,1.3-0.9,2.2-1.3c0.8-0.5,1.7-0.9,2.6-1.3c0.9-0.4,1.8-0.7,2.8-0.8c0.9-0.2,1.8-0.2,2.6,0
				c1-1.3,1.9-2.6,2.7-3.8s1.7-2.5,2.7-3.8c1.3-1.8,2.7-3.5,4-5.2s2.7-3.4,4-5.1c0.9-1.2,1.9-2.4,2.9-3.6s2-2.3,3.1-3.4
				c0,0,0.1-0.1,0.3-0.3c0.2-0.2,0.3-0.4,0.5-0.5s0.4-0.3,0.5-0.4C225.1,108.3,225.2,108.3,225.3,108.4z M188.2,149.7
				c1.2-0.9,2.5-1.8,3.8-2.8c1.3-0.9,2.7-2,4-3.1s2.6-2.3,3.9-3.7c1.3-1.3,2.4-2.8,3.5-4.5c-0.7,0-1.4,0.1-2.2,0.4
				c-0.8,0.3-1.5,0.6-2.2,1.1c-0.7,0.4-1.4,0.9-2,1.4s-1.1,0.9-1.6,1.3c-0.3,0.3-0.8,0.7-1.4,1.4s-1.3,1.5-2,2.4s-1.4,1.9-2.1,3
				C189.2,147.7,188.6,148.7,188.2,149.7z"/>
			<path class="st31" d="M221.4,141.8c-0.3,0.3-0.6,0.6-0.9,1s-0.7,0.7-1,1s-0.5,0.5-0.6,0.6c-1.3,1.1-2.6,2.3-4,3.4
				c-1.4,1.1-2.9,2.1-4.5,3c-0.8,0.5-1.6,0.9-2.5,1.3c-0.8,0.4-1.7,0.6-2.6,0.6c-0.8,0-1.5-0.3-2.1-0.8s-0.9-1.2-0.8-2
				c0.2-1.9,0.8-3.5,1.8-5s2.1-2.9,3.4-4.3c0.6-0.7,1.3-1.3,2-1.8c0.7-0.6,1.4-1.1,2.2-1.6c0.7-0.5,1.5-1,2.3-1.4s1.6-0.7,2.5-1
				c0.4-0.1,0.8-0.2,1.3-0.2s0.9,0.1,1.3,0.3c0.8,0.5,1.1,1.1,1.1,1.9c-0.1,0.8-0.4,1.6-0.9,2.5c-0.3,0.4-0.5,0.7-0.8,1
				s-0.5,0.7-0.8,1c-1.2,1.3-2.5,2.4-4,3.2c-1,0.6-2.1,1.1-3.1,1.5s-2.2,0.8-3.6,1.2c-0.7,0.9-1.2,2-1.6,3.1c0.9,0,2-0.2,3.1-0.7
				c1.1-0.4,2.3-1,3.4-1.7s2.3-1.4,3.4-2.1s2.1-1.4,3-2c0.1,0,0.3-0.2,0.6-0.4c0.4-0.3,0.7-0.5,1.2-0.9c0.4-0.3,1-0.7,1.6-1.2
				C221.7,141.4,221.6,141.5,221.4,141.8z M209.1,143.9c-0.3,0.4-0.6,0.7-0.8,0.9c-0.2,0.3-0.4,0.6-0.6,0.9c1.1-0.3,2.2-0.7,3.3-1.3
				c1.1-0.6,2-1.2,2.9-2s1.7-1.7,2.4-2.6c0.7-1,1.3-2,1.6-3.2c-1.7,0.8-3.3,1.9-4.7,3.2S210.5,142.5,209.1,143.9z"/>
			<path class="st31" d="M249.6,134.9c0.4,0.1,0.8,0.4,1,0.7c0.3,0.3,0.4,0.5,0.3,0.4c-0.1,0-0.2-0.1-0.4-0.1
				c-0.2,0-0.4-0.1-0.8-0.1c-0.6-0.1-1.2,0-1.9,0.2c-0.6,0.2-1.2,0.4-1.9,0.8c-0.6,0.3-1.2,0.8-1.9,1.2c-0.6,0.5-1.3,1-1.9,1.5
				c-0.3,0.3-0.8,0.8-1.6,1.6c-0.8,0.8-1.6,1.7-2.4,2.7s-1.5,2.1-2.1,3.2s-0.9,2.1-0.9,3.1c0.9-0.1,2.1-0.6,3.3-1.4
				c1.3-0.8,2.5-1.7,3.7-2.8s2.3-2.3,3.3-3.5s1.6-2.3,2-3.4c0.1-0.3,0.2-0.6,0.2-1c0-0.3,0-0.6-0.1-1c-0.1-0.2-0.1-0.3-0.1-0.3
				c0-0.1,0.2-0.1,0.4,0.2c0.2,0.3,0.4,0.6,0.5,1c0.4,1.5,0.2,3-0.6,4.6s-1.8,3-3.2,4.4c-1.4,1.3-2.8,2.5-4.5,3.5
				c-1.6,1-3.1,1.6-4.4,2c-0.9,0.3-1.7,0.3-2.5,0c-0.7-0.3-1.1-0.7-1.4-1.4s-0.3-1.3-0.2-2c0.1-0.8,0.4-1.7,0.7-2.4
				c0.3-0.8,0.8-1.5,1.3-2.3c0.5-0.7,1-1.4,1.7-2.2s1.5-1.6,2.3-2.3c0.9-0.8,1.8-1.5,2.8-2.2s2-1.3,3-1.7c1-0.5,2-0.8,3-1
				S248.7,134.6,249.6,134.9z"/>
			<path class="st31" d="M268.8,141.8c0.1,0.1,0,0.3-0.3,0.5s-0.4,0.4-0.5,0.4c-1.5,1.2-2.9,2.4-4.4,3.5c-0.9,0.7-1.7,1.4-2.5,2.2
				s-1.7,1.5-2.5,2.3l-1.2,1c-0.2,0.1-0.3,0.2-0.5,0.3s-0.3,0.2-0.5,0.2c-0.4,0.1-0.8,0-1.1-0.3c-0.3-0.2-0.5-0.6-0.6-1
				s0-0.9,0.2-1.3c0.2-0.5,0.4-0.9,0.6-1.3c0.5-1,1-1.9,1.6-2.7s1.3-1.8,2.2-2.9c-0.9,0.8-1.8,1.5-2.6,2.3c-0.8,0.8-1.7,1.5-2.5,2.3
				c-0.7,0.7-1.4,1.3-2.2,1.9c-0.7,0.6-1.5,1.2-2.2,1.8c-0.2,0.2-0.4,0.3-0.7,0.5c-0.3,0.2-0.6,0.4-0.8,0.5
				c-0.3,0.1-0.6,0.2-0.9,0.2s-0.6-0.1-0.8-0.3c-0.4-0.3-0.6-0.8-0.6-1.4c0-0.6,0.1-1.2,0.4-1.9c0.2-0.7,0.5-1.3,0.9-1.9
				c0.4-0.6,0.6-1,0.8-1.4c0.8-1.3,1.8-2.5,2.9-3.7s2.2-2.2,3.4-3.2c0.7-0.6,1.4-1.1,2.1-1.6c0.8-0.5,1.6-0.9,2.4-1.1
				c0,0,0.1,0,0.2,0s0.2,0,0.3,0c0.1,0,0.2,0,0.3,0c0.1,0,0,0.1,0,0.2c-0.1,0.2-0.3,0.3-0.4,0.4c-0.1,0.1-0.3,0.2-0.5,0.4
				c-0.4,0.3-0.7,0.6-1,0.9c-0.3,0.3-0.6,0.7-1,1c-0.7,0.8-1.4,1.6-2,2.5c-0.7,0.9-1.3,1.8-2,2.8c-0.7,0.9-1.3,1.9-1.9,2.8
				c-0.6,0.9-1.2,1.9-1.8,2.7c2.6-1.7,5.3-3.7,7.9-5.9c2.6-2.2,5.3-4.4,8.1-6.7c0.4-0.3,0.9-0.7,1.4-1.1c0.6-0.4,0.9-0.7,1.2-0.7
				c0.3,0,0.5,0,0.6,0.2c0.2,0.2,0.2,0.4,0.1,0.6c0,0.1-0.2,0.4-0.4,0.7c-0.3,0.3-0.4,0.6-0.5,0.7c-0.1,0.1-0.3,0.4-0.7,0.9
				c-0.4,0.5-0.8,1.1-1.4,1.8c-0.5,0.7-1.1,1.4-1.7,2.2s-1.2,1.5-1.7,2.3c-0.5,0.7-1,1.4-1.4,1.9c-0.4,0.6-0.6,0.9-0.7,1.1
				c0,0,0.3-0.2,0.7-0.5c0.5-0.3,1-0.7,1.6-1.2s1.3-0.9,2.1-1.4c0.8-0.5,1.5-1,2.1-1.4c0.7-0.4,1.2-0.7,1.7-1
				S268.7,141.7,268.8,141.8z"/>
			<path class="st31" d="M315.1,118.2c1.3-0.1,1.9-0.1,1.9,0c0,0-0.6,0.2-1.9,0.4c-0.6,0.1-1.3,0.3-2.2,0.4
				c-0.9,0.1-1.8,0.3-2.9,0.5c-2.9,0.5-5.7,0.9-8.4,1.3c-2.7,0.4-5.6,0.9-8.6,1.3c-1.5,0.2-3,0.4-4.4,0.6s-2.8,0.4-4.1,0.5
				c-1,1.5-1.9,2.8-2.6,3.9c-0.8,1.1-1.3,1.8-1.5,2.2c-1.2,1.7-2.4,3.4-3.7,5s-2.5,3.3-3.7,5c-1,1.4-2.1,2.7-3.1,4.1
				c-1,1.4-2,2.7-3,4.1c1.1-0.8,2.3-1.6,3.5-2.4c1.2-0.8,2.4-1.5,3.6-2.3c0.3-0.2,0.5-0.3,0.8-0.4c0.3-0.1,0.5-0.3,0.8-0.4
				c0.3-0.1,0.4-0.2,0.4-0.1c0,0.1-0.2,0.3-0.6,0.7c-0.4,0.3-0.8,0.7-1.3,1.1c-0.5,0.4-1,0.8-1.4,1.1c-0.5,0.3-0.8,0.6-0.9,0.7
				c-0.8,0.7-1.7,1.4-2.5,2.1c-0.8,0.7-1.7,1.4-2.5,2.2c-0.3,0.3-0.6,0.5-1,0.8c-0.3,0.3-0.6,0.6-1,0.9c-0.3,0.2-0.5,0.4-0.8,0.6
				s-0.6,0.2-1,0c-0.5-0.2-0.7-0.4-0.9-0.7c-0.1-0.3-0.1-0.7,0-1.1c0.1-0.4,0.3-0.8,0.5-1.2s0.4-0.7,0.6-1c0.3-0.6,0.7-1.1,1-1.6
				s0.7-1,1-1.5c1.2-1.9,2.5-3.7,3.8-5.4c1.3-1.8,2.6-3.6,3.8-5.4c0.4-0.5,0.8-1.1,1.4-2s1.3-1.7,2-2.6c0.7-0.9,1.4-1.9,2.2-3
				c0.8-1,1.5-2,2.3-3c-0.8,0.1-1.6,0.1-2.5,0.2c-0.9,0.1-1.8,0.2-2.6,0.2s-1.7,0.1-2.5,0.2c-0.8,0-1.5,0.1-2.2,0.1
				c-1.3,0-2-0.1-2-0.3c0-0.1,0.1-0.2,0.4-0.3s0.8-0.3,1.4-0.4c1.7-0.5,3.6-0.9,5.6-1.1c2.1-0.3,4.1-0.6,6.1-0.9
				c0.6-0.8,1.1-1.4,1.5-1.9s0.6-0.8,0.7-0.9c1.3-1.6,2.6-3.2,3.8-4.8c1.3-1.6,2.7-3.1,4.1-4.6c0,0,0.1-0.1,0.3-0.2
				c0.1-0.1,0.3-0.2,0.4-0.3c0.1-0.1,0.3-0.1,0.3-0.1c0.1,0,0.1,0.2,0,0.4c-0.4,0.9-0.9,1.8-1.4,2.7c-0.5,0.8-1.1,1.7-1.7,2.7
				c-0.6,0.9-1.3,1.9-2,3s-1.5,2.3-2.4,3.6c1-0.1,2.1-0.3,3.2-0.4c1.1-0.1,2.2-0.2,3.4-0.4c3-0.3,5.9-0.6,8.6-0.9
				c2.7-0.3,5.5-0.5,8.4-0.8c1.1-0.1,2.1-0.2,3-0.2C313.8,118.3,314.5,118.3,315.1,118.2z"/>
			<path class="st31" d="M288.1,142.1c0,0.1-0.1,0.2-0.4,0.5s-0.6,0.6-1,0.9c-0.4,0.3-0.8,0.7-1.2,1c-0.4,0.3-0.7,0.5-0.8,0.7
				c-0.5,0.4-1,0.8-1.5,1.2s-1,0.8-1.5,1.2c-0.8,0.7-1.5,1.3-2.3,2c-0.7,0.7-1.4,1.3-2.2,2.1c-0.2,0.2-0.4,0.4-0.7,0.7
				c-0.2,0.2-0.4,0.4-0.7,0.6c-0.5,0.3-0.9,0.3-1.4,0.1s-0.8-0.6-0.8-1.2c-0.1-0.5,0-1,0.3-1.6c0.3-0.5,0.5-1,0.8-1.4
				c0.8-1.2,1.5-2.4,2.4-3.6c0.8-1.2,1.6-2.4,2.3-3.6c0.1-0.2,0.2-0.4,0.1-0.7s-0.2-0.6-0.2-0.8c-1.1,1-2.3,2-3.7,3s-2.7,2-3.9,2.8
				c-1.2,0.8-2.2,1.5-3.1,1.9c-0.9,0.5-1.3,0.6-1.4,0.5c0-0.1,0.2-0.3,0.8-0.7c0.5-0.4,1.2-1,2-1.6c0.8-0.7,1.7-1.4,2.7-2.2
				s1.9-1.6,2.8-2.4c0.9-0.8,1.6-1.5,2.2-2.2s1-1.3,1.1-1.7c0-0.6,0-1.2,0-1.9s0.3-1.3,0.8-1.8c0.4-0.4,0.9-0.6,1.4-0.6
				c0.6,0,1,0.3,1.2,0.9s0.3,1.2,0,1.7c-0.2,0.5-0.5,1.1-0.7,1.5c-0.1,0.2-0.1,0.3-0.2,0.4c-0.1,0.1-0.1,0.3-0.1,0.5
				c0.1,0.5,0.2,0.9,0.4,1.3s0.4,0.8,0.6,1.3c0.3,0.7,0.3,1.3,0.2,1.8s-0.4,1.1-0.8,1.7c-0.4,0.6-0.8,1.1-1.2,1.7
				c-0.4,0.6-0.8,1.1-1.2,1.7c0.8-0.5,1.5-1,2.2-1.5s1.5-1,2.2-1.5c0.1-0.1,0.4-0.3,0.8-0.6c0.5-0.3,1-0.6,1.5-0.9s1-0.6,1.4-0.8
				C287.8,142.1,288,142,288.1,142.1z"/>
			<path class="st31" d="M300.9,134.9c0.4,0.1,0.8,0.4,1,0.7c0.3,0.3,0.4,0.5,0.3,0.4c-0.1,0-0.2-0.1-0.4-0.1
				c-0.2,0-0.4-0.1-0.8-0.1c-0.6-0.1-1.2,0-1.9,0.2c-0.6,0.2-1.2,0.4-1.9,0.8c-0.6,0.3-1.2,0.8-1.9,1.2c-0.6,0.5-1.3,1-1.9,1.5
				c-0.3,0.3-0.8,0.8-1.6,1.6c-0.8,0.8-1.6,1.7-2.4,2.7s-1.5,2.1-2.1,3.2s-0.9,2.1-0.9,3.1c0.9-0.1,2.1-0.6,3.3-1.4
				c1.3-0.8,2.5-1.7,3.7-2.8s2.3-2.3,3.3-3.5s1.6-2.3,2-3.4c0.1-0.3,0.2-0.6,0.2-1c0-0.3,0-0.6-0.1-1c-0.1-0.2-0.1-0.3-0.1-0.3
				c0-0.1,0.2-0.1,0.4,0.2c0.2,0.3,0.4,0.6,0.5,1c0.4,1.5,0.2,3-0.6,4.6s-1.8,3-3.2,4.4c-1.4,1.3-2.8,2.5-4.5,3.5
				c-1.6,1-3.1,1.6-4.4,2c-0.9,0.3-1.7,0.3-2.5,0c-0.7-0.3-1.1-0.7-1.4-1.4s-0.3-1.3-0.2-2c0.1-0.8,0.4-1.7,0.7-2.4
				c0.3-0.8,0.8-1.5,1.3-2.3c0.5-0.7,1-1.4,1.7-2.2s1.5-1.6,2.3-2.3c0.9-0.8,1.8-1.5,2.8-2.2s2-1.3,3-1.7c1-0.5,2-0.8,3-1
				S300,134.6,300.9,134.9z"/>
			<path class="st31" d="M342.9,142.7c0,0,0,0.1-0.2,0.3c-0.2,0.1-0.4,0.3-0.6,0.5s-0.4,0.4-0.6,0.5s-0.3,0.3-0.4,0.4
				c-0.4,0.3-0.7,0.6-1.1,0.9c-0.4,0.3-0.7,0.6-1.1,0.9c-0.9,0.7-1.7,1.3-2.5,2c-0.9,0.7-1.7,1.4-2.5,2.1c-0.2,0.2-0.5,0.4-0.8,0.7
				s-0.5,0.5-0.7,0.7c-0.3,0.3-0.7,0.6-1.1,0.8s-0.8,0.2-1.3-0.2c-0.2-0.1-0.3-0.3-0.3-0.5c-0.1-0.2-0.1-0.4-0.2-0.6
				c-0.1-0.5,0-1,0-1.5c0.1-0.5,0.2-1,0.4-1.5c0.2-0.5,0.4-1,0.6-1.5s0.5-0.9,0.7-1.3c0.5-0.9,1.1-1.9,1.8-3c0.8-1.1,1.5-2,2.1-2.8
				c-1.1,0.7-2.3,1.5-3.3,2.4s-2.2,1.7-3.2,2.6c-0.2,0.1-0.5,0.5-1.2,1c-0.6,0.6-1.3,1.1-2,1.7c-0.7,0.6-1.4,1-2,1.4
				c-0.7,0.4-1.1,0.5-1.3,0.4c-0.2-0.1-0.2-0.4-0.1-0.9s0.4-1,0.7-1.7c0.3-0.7,0.7-1.3,1.2-2.1c0.4-0.7,0.9-1.4,1.3-2.1
				c0.4-0.7,0.8-1.3,1.2-1.8s0.6-0.9,0.8-1.2c-2.4,1.7-4.6,3.6-6.8,5.7c-2.1,2.1-4.1,4.4-6.1,6.9c-0.1,0.2-0.3,0.3-0.4,0.5
				s-0.3,0.3-0.5,0.4c-0.4,0.2-0.8,0.1-1.1-0.1c-0.4-0.2-0.6-0.5-0.6-1c0-1.1,0.3-2.2,0.9-3.3s1.2-2.1,1.8-3.1
				c0.3-0.4,0.7-1,1.2-1.7c0.6-0.7,1.2-1.4,1.9-2.3c0.7-0.8,1.4-1.7,2.2-2.5c0.8-0.9,1.5-1.7,2.3-2.5c0.7-0.8,1.4-1.5,2-2.1
				s1.1-1.1,1.4-1.4c0.1-0.1,0.2,0,0.1,0.1c0,0.2-0.1,0.4-0.2,0.7s-0.2,0.6-0.4,0.9c-0.1,0.3-0.2,0.4-0.2,0.5
				c-0.5,0.8-1,1.7-1.6,2.5s-1.2,1.7-1.8,2.6c-0.6,0.9-1.3,1.7-1.9,2.6s-1.2,1.7-1.6,2.6c1.2-1,2.4-2,3.6-3.1c1.2-1,2.3-2,3.3-2.9
				c1.1-0.9,2.1-1.7,3.1-2.5c1-0.7,1.9-1.3,2.8-1.7c0.4-0.2,0.9-0.2,1.4,0c0.4,0.2,0.6,0.5,0.7,0.9s0,0.8-0.2,1.1
				c-0.8,1.2-1.8,2.3-2.7,3.3c-1,1-1.9,2.1-2.8,3.3c1.7-1,3.3-2.2,4.8-3.5s3-2.6,4.6-3.9c0.5-0.4,0.9-0.8,1.5-1.2s1.1-0.7,1.7-0.9
				c0.2-0.1,0.5-0.1,0.7-0.1s0.5,0.1,0.7,0.2c0.4,0.2,0.6,0.5,0.7,0.9s0,0.8-0.2,1.2s-0.5,0.7-0.8,1s-0.5,0.6-0.8,1s-0.7,0.8-1,1.2
				s-0.7,0.8-1.1,1.2c-0.7,0.8-1.3,1.6-2,2.4s-1.2,1.7-1.8,2.5c-0.8,1.1-1.4,2.2-1.8,3.4c0.7-0.5,1.3-1,2-1.4c0.7-0.5,1.4-1,2.1-1.4
				c0.1-0.1,0.5-0.4,1.2-0.8c0.7-0.4,1.4-0.9,2.2-1.4c0.8-0.5,1.5-0.9,2.1-1.3C342.4,142.8,342.8,142.6,342.9,142.7z"/>
			<path class="st31" d="M360.7,141.8c0.1,0.1,0,0.3-0.3,0.5s-0.4,0.4-0.5,0.4c-1.5,1.2-2.9,2.4-4.4,3.5c-0.9,0.7-1.7,1.4-2.5,2.2
				s-1.7,1.5-2.5,2.3l-1.2,1c-0.2,0.1-0.3,0.2-0.5,0.3s-0.3,0.2-0.5,0.2c-0.4,0.1-0.8,0-1.1-0.3c-0.3-0.2-0.5-0.6-0.6-1
				s0-0.9,0.2-1.3c0.2-0.5,0.4-0.9,0.6-1.3c0.5-1,1-1.9,1.6-2.7s1.3-1.8,2.2-2.9c-0.9,0.8-1.8,1.5-2.6,2.3c-0.8,0.8-1.7,1.5-2.5,2.3
				c-0.7,0.7-1.4,1.3-2.2,1.9c-0.7,0.6-1.5,1.2-2.2,1.8c-0.2,0.2-0.4,0.3-0.7,0.5c-0.3,0.2-0.6,0.4-0.8,0.5
				c-0.3,0.1-0.6,0.2-0.9,0.2s-0.6-0.1-0.8-0.3c-0.4-0.3-0.6-0.8-0.6-1.4c0-0.6,0.1-1.2,0.4-1.9c0.2-0.7,0.5-1.3,0.9-1.9
				c0.4-0.6,0.6-1,0.8-1.4c0.8-1.3,1.8-2.5,2.9-3.7s2.2-2.2,3.4-3.2c0.7-0.6,1.4-1.1,2.1-1.6c0.8-0.5,1.6-0.9,2.4-1.1
				c0,0,0.1,0,0.2,0s0.2,0,0.3,0c0.1,0,0.2,0,0.3,0c0.1,0,0,0.1,0,0.2c-0.1,0.2-0.3,0.3-0.4,0.4c-0.1,0.1-0.3,0.2-0.5,0.4
				c-0.4,0.3-0.7,0.6-1,0.9c-0.3,0.3-0.6,0.7-1,1c-0.7,0.8-1.4,1.6-2,2.5c-0.7,0.9-1.3,1.8-2,2.8c-0.7,0.9-1.3,1.9-1.9,2.8
				c-0.6,0.9-1.2,1.9-1.8,2.7c2.6-1.7,5.3-3.7,7.9-5.9s5.3-4.4,8.1-6.7c0.4-0.3,0.9-0.7,1.4-1.1c0.6-0.4,0.9-0.7,1.2-0.7
				c0.3,0,0.5,0,0.6,0.2c0.2,0.2,0.2,0.4,0.1,0.6c0,0.1-0.2,0.4-0.4,0.7c-0.3,0.3-0.4,0.6-0.5,0.7c-0.1,0.1-0.3,0.4-0.7,0.9
				c-0.4,0.5-0.8,1.1-1.4,1.8c-0.5,0.7-1.1,1.4-1.7,2.2s-1.2,1.5-1.7,2.3c-0.5,0.7-1,1.4-1.4,1.9c-0.4,0.6-0.6,0.9-0.7,1.1
				c0,0,0.3-0.2,0.7-0.5c0.5-0.3,1-0.7,1.6-1.2s1.3-0.9,2.1-1.4c0.8-0.5,1.5-1,2.1-1.4c0.7-0.4,1.2-0.7,1.7-1
				S360.7,141.7,360.7,141.8z"/>
			<path class="st31" d="M376.9,142.9c0,0.1,0,0.2-0.2,0.3c-0.2,0.2-0.4,0.3-0.6,0.5s-0.4,0.4-0.6,0.5c-0.2,0.2-0.3,0.3-0.4,0.3
				c-0.4,0.3-0.7,0.6-1.1,0.9c-0.4,0.3-0.8,0.6-1.2,0.9c-1,0.8-2.2,1.7-3.3,2.5c-1.2,0.8-2.3,1.7-3.3,2.8c-0.2,0.1-0.3,0.3-0.5,0.4
				c-0.2,0.1-0.4,0.3-0.6,0.4c-0.2,0.1-0.4,0.1-0.6,0.1s-0.4-0.1-0.7-0.3c-0.4-0.3-0.6-0.7-0.6-1.3s0.1-1.2,0.3-1.9
				c0.2-0.7,0.5-1.3,0.8-1.9c0.3-0.6,0.5-1.1,0.7-1.5c0.5-0.9,1.1-1.8,1.8-2.9c0.8-1,1.4-2,2-2.7c-1.1,0.7-2.1,1.3-3.1,1.9
				c-1,0.6-1.9,1.3-2.9,2c-1,0.8-2,1.7-3,2.9c-1,1.1-2.2,2.6-3.4,4.4c-0.1,0.2-0.3,0.3-0.4,0.5s-0.3,0.3-0.5,0.4
				c-0.4,0.2-0.7,0.1-1.1-0.1c-0.4-0.2-0.6-0.5-0.6-1c-0.1-0.5,0.2-1.4,0.9-2.5c0.6-1.2,1.5-2.5,2.6-3.9s2.3-2.9,3.7-4.4
				c1.4-1.5,2.8-2.9,4.3-4.2c0.3-0.3,0.7-0.5,1.1-0.9c0.4-0.3,0.7-0.5,1-0.6c0.1,0,0,0.1-0.1,0.3s-0.3,0.4-0.5,0.7s-0.4,0.6-0.6,0.9
				c-0.2,0.3-0.4,0.5-0.5,0.7c-0.6,0.8-1.1,1.6-1.5,2.1c-0.4,0.6-0.8,1.1-1.1,1.6c-0.4,0.5-0.8,1.1-1.2,1.7c-0.4,0.6-1,1.4-1.8,2.4
				c1.1-0.9,2.4-1.9,3.7-3c1.3-1.1,2.6-2.1,3.8-3.1c1.3-1,2.5-1.9,3.7-2.7s2.2-1.4,3.1-1.9c0.5-0.2,0.9-0.2,1.4,0.1
				c0.4,0.2,0.6,0.5,0.7,0.9s0,0.8-0.2,1.1c-0.5,0.8-1.2,1.6-2,2.4c-0.9,0.9-1.6,1.7-2.3,2.5c-0.7,0.8-1.3,1.6-2,2.4
				c-0.6,0.8-1.2,1.7-1.8,2.5c-0.3,0.5-0.7,1.1-1,1.6c-0.3,0.6-0.6,1.1-0.8,1.8c0.7-0.5,1.3-1,2-1.5s1.4-0.9,2.1-1.4
				c0.1-0.1,0.3-0.2,0.7-0.4c0.3-0.2,0.8-0.5,1.2-0.8c0.5-0.3,1-0.6,1.5-1s1-0.6,1.5-0.9s0.8-0.5,1.2-0.6
				C376.7,142.9,376.9,142.9,376.9,142.9z"/>
			<path class="st31" d="M412.7,108.4c0,0,0,0.1,0,0.3c0,0.2-0.1,0.3-0.2,0.5s-0.2,0.4-0.2,0.5c-0.1,0.2-0.1,0.3-0.2,0.3
				c-0.9,1.8-2,3.6-3.1,5.3c-1.1,1.7-2.3,3.5-3.4,5.2c-1.2,1.8-2.5,3.6-3.7,5.4c-1.3,1.8-2.5,3.6-3.8,5.4c-2,2.8-4,5.5-6,8.3
				s-4.1,5.5-6.3,8.2c0.3-0.2,0.7-0.5,1.2-0.8c0.4-0.3,0.8-0.5,1.1-0.7c0.9-0.7,1.9-1.3,3-2s2.1-1.2,3.1-1.8
				c0.1-0.1,0.2-0.2,0.5-0.3s0.4-0.2,0.5-0.1c-0.1,0.1-0.3,0.4-0.7,0.7c-0.4,0.4-0.9,0.7-1.4,1.2c-0.5,0.4-1,0.8-1.5,1.2
				s-0.8,0.6-1,0.8c-0.9,0.7-1.8,1.5-2.8,2.4s-1.9,1.7-2.7,2.5c-0.4,0.4-0.8,0.6-1,0.9c-0.2,0.2-0.6,0.5-1.1,0.7
				c-0.7,0.3-1.3,0.1-1.8-0.3c-0.3-0.3-0.3-0.7-0.2-1.2c0.1-0.5,0.2-0.9,0.4-1.2c0.3-0.8,0.8-1.7,1.4-2.6c0.6-1,1.2-1.8,1.7-2.5
				c-1.2,1.1-2.6,2.3-4.1,3.5s-3,2.4-4.4,3.4c-0.2,0.2-0.4,0.3-0.7,0.5c-0.3,0.2-0.6,0.4-0.8,0.5c-0.3,0.1-0.6,0.2-0.9,0.2
				s-0.6-0.1-0.8-0.3c-0.4-0.3-0.5-0.7-0.6-1.1c0-0.5,0-0.9,0.2-1.3c0.5-1.5,1.1-2.8,2-4c0.8-1.2,1.7-2.3,2.6-3.3s1.8-1.9,2.7-2.6
				c0.9-0.7,1.6-1.3,2.2-1.8c0.6-0.4,1.3-0.9,2.2-1.3c0.8-0.5,1.7-0.9,2.6-1.3c0.9-0.4,1.8-0.7,2.8-0.8c0.9-0.2,1.8-0.2,2.6,0
				c1-1.3,1.9-2.6,2.7-3.8s1.7-2.5,2.7-3.8c1.3-1.8,2.7-3.5,4-5.2s2.7-3.4,4-5.1c0.9-1.2,1.9-2.4,2.9-3.6s2-2.3,3.1-3.4
				c0,0,0.1-0.1,0.3-0.3c0.2-0.2,0.3-0.4,0.5-0.5s0.4-0.3,0.5-0.4C412.6,108.3,412.7,108.3,412.7,108.4z M375.6,149.7
				c1.2-0.9,2.5-1.8,3.8-2.8c1.3-0.9,2.7-2,4-3.1s2.6-2.3,3.9-3.7c1.3-1.3,2.4-2.8,3.5-4.5c-0.7,0-1.4,0.1-2.2,0.4
				c-0.8,0.3-1.5,0.6-2.2,1.1c-0.7,0.4-1.4,0.9-2,1.4s-1.1,0.9-1.6,1.3c-0.3,0.3-0.8,0.7-1.4,1.4s-1.3,1.5-2,2.4s-1.4,1.9-2.1,3
				C376.6,147.7,376.1,148.7,375.6,149.7z"/>
			<path class="st31" d="M408,134.9c0.4,0.1,0.8,0.4,1,0.7c0.3,0.3,0.4,0.5,0.3,0.4c-0.1,0-0.2-0.1-0.4-0.1c-0.2,0-0.4-0.1-0.8-0.1
				c-0.6-0.1-1.2,0-1.9,0.2c-0.6,0.2-1.2,0.4-1.9,0.8c-0.6,0.3-1.2,0.8-1.9,1.2c-0.6,0.5-1.3,1-1.9,1.5c-0.3,0.3-0.8,0.8-1.6,1.6
				c-0.8,0.8-1.6,1.7-2.4,2.7s-1.5,2.1-2.1,3.2s-0.9,2.1-0.9,3.1c0.9-0.1,2.1-0.6,3.3-1.4c1.3-0.8,2.5-1.7,3.7-2.8s2.3-2.3,3.3-3.5
				s1.6-2.3,2-3.4c0.1-0.3,0.2-0.6,0.2-1c0-0.3,0-0.6-0.1-1c-0.1-0.2-0.1-0.3-0.1-0.3c0-0.1,0.2-0.1,0.4,0.2c0.2,0.3,0.4,0.6,0.5,1
				c0.4,1.5,0.2,3-0.6,4.6s-1.8,3-3.2,4.4c-1.4,1.3-2.8,2.5-4.5,3.5c-1.6,1-3.1,1.6-4.4,2c-0.9,0.3-1.7,0.3-2.5,0
				c-0.7-0.3-1.1-0.7-1.4-1.4s-0.3-1.3-0.2-2c0.1-0.8,0.4-1.7,0.7-2.4c0.3-0.8,0.8-1.5,1.3-2.3c0.5-0.7,1-1.4,1.7-2.2
				s1.5-1.6,2.3-2.3c0.9-0.8,1.8-1.5,2.8-2.2s2-1.3,3-1.7c1-0.5,2-0.8,3-1S407.1,134.6,408,134.9z"/>
		</g>
	</g>
</g>
</svg>
