<?xml version="1.0" encoding="utf-8"?>
<!-- Generator: Adobe Illustrator 23.0.0, SVG Export Plug-In . SVG Version: 6.00 Build 0)  -->
<svg version="1.1" id="Camada_1" xmlns="http://www.w3.org/2000/svg" xmlns:xlink="http://www.w3.org/1999/xlink" x="0px" y="0px"
	 viewBox="0 0 1920 1080" style="enable-background:new 0 0 1920 1080;" xml:space="preserve">
<style type="text/css">
	.st0{clip-path:url(#SVGID_2_);}
	.st1{fill:url(#SVGID_3_);}
	.st2{fill:url(#SVGID_4_);}
	.st3{fill:#FFFFFF;}
	.st4{opacity:0.1;}
	.st5{fill:none;stroke:#FC0000;stroke-miterlimit:10;}
</style>
<g>
	<g>
		<defs>
			<polygon id="SVGID_1_" points="0,0 0,1081.9 1920.7,1078.2 1920.3,0 			"/>
		</defs>
		<clipPath id="SVGID_2_">
			<use xlink:href="#SVGID_1_"  style="overflow:visible;"/>
		</clipPath>
		<g class="st0">
			
				<linearGradient id="SVGID_3_" gradientUnits="userSpaceOnUse" x1="960.0023" y1="1160" x2="960.0023" y2="73.7647" gradientTransform="matrix(1 0 0 -1 0 1160)">
				<stop  offset="5.586592e-03" style="stop-color:#0E0EAA"/>
				<stop  offset="0.3743" style="stop-color:#0E4AAA"/>
				<stop  offset="1" style="stop-color:#FF86FF"/>
			</linearGradient>
			<rect class="st1" width="1920" height="1086.2"/>
			<g>
				
					<linearGradient id="SVGID_4_" gradientUnits="userSpaceOnUse" x1="-170.7815" y1="1121.9779" x2="-170.7815" y2="1118.9725" gradientTransform="matrix(1 0 0 -1 0 1160)">
					<stop  offset="5.586592e-03" style="stop-color:#0E0EAA"/>
					<stop  offset="0.3743" style="stop-color:#0E4AAA"/>
					<stop  offset="1" style="stop-color:#FF86FF"/>
				</linearGradient>
				<path class="st2" d="M-170.8,41.1c1.9,0,1.9-3,0-3S-172.8,41.1-170.8,41.1L-170.8,41.1z"/>
			</g>
			<g>
				<path class="st3" d="M91.6,45.5c5.8,0,5.8-9,0-9C85.8,36.5,85.8,45.5,91.6,45.5L91.6,45.5z"/>
			</g>
			<g>
				<path class="st3" d="M211.5,95.4c5.8,0,5.8-9,0-9C205.7,86.5,205.7,95.4,211.5,95.4L211.5,95.4z"/>
			</g>
			<g>
				<path class="st3" d="M329.7,41.2c5.8,0,5.8-9,0-9C323.9,32.1,323.9,41.2,329.7,41.2L329.7,41.2z"/>
			</g>
			<g>
				<path class="st3" d="M1646,169.7c5.8,0,5.8-9,0-9C1640.2,160.6,1640.2,169.7,1646,169.7L1646,169.7z"/>
			</g>
			<g>
				<path class="st3" d="M1678.7,82.5c5.8,0,5.8-9,0-9C1672.9,73.5,1672.9,82.5,1678.7,82.5L1678.7,82.5z"/>
			</g>
			<g>
				<path class="st3" d="M1469.1,56.9c5.8,0,5.8-9,0-9C1463.3,47.8,1463.3,56.9,1469.1,56.9L1469.1,56.9z"/>
			</g>
			<g>
				<path class="st3" d="M103,214.5c1,0,1-1.5,0-1.5C102.1,212.9,102.1,214.5,103,214.5L103,214.5z"/>
			</g>
			<g>
				<path class="st3" d="M483.8,178.8c1,0,1-1.5,0-1.5S482.8,178.8,483.8,178.8L483.8,178.8z"/>
			</g>
			<g>
				<path class="st3" d="M513.7,51.7c1,0,1-1.5,0-1.5C512.8,50.2,512.8,51.7,513.7,51.7L513.7,51.7z"/>
			</g>
			<g>
				<path class="st3" d="M383.9,100.3c1,0,1-1.5,0-1.5S382.9,100.3,383.9,100.3L383.9,100.3z"/>
			</g>
			<g>
				<path class="st3" d="M649.2,208.8c1,0,1-1.5,0-1.5S648.2,208.8,649.2,208.8L649.2,208.8z"/>
			</g>
			<g>
				<path class="st3" d="M674.8,113.1c1,0,1-1.5,0-1.5C673.9,111.6,673.9,113.1,674.8,113.1L674.8,113.1z"/>
			</g>
			<g>
				<path class="st3" d="M1121.2,91.7c1,0,1-1.5,0-1.5S1120.2,91.7,1121.2,91.7L1121.2,91.7z"/>
			</g>
			<g>
				<path class="st3" d="M1219.5,208.8c1,0,1-1.5,0-1.5S1218.5,208.8,1219.5,208.8L1219.5,208.8z"/>
			</g>
			<g>
				<path class="st3" d="M1357.9,144.5c1,0,1-1.5,0-1.5S1356.9,144.5,1357.9,144.5L1357.9,144.5z"/>
			</g>
			<g>
				<path class="st3" d="M1305.1,50.3c1,0,1-1.5,0-1.5C1304.2,48.8,1304.1,50.3,1305.1,50.3L1305.1,50.3z"/>
			</g>
			<g>
				<path class="st3" d="M1340.8,393.1c1,0,1-1.5,0-1.5S1339.8,393.1,1340.8,393.1L1340.8,393.1z"/>
			</g>
			<g>
				<path class="st3" d="M378.2,524.4c1,0,1-1.5,0-1.5S377.2,524.4,378.2,524.4L378.2,524.4z"/>
			</g>
			<g>
				<path class="st3" d="M654.9,288.8c1,0,1-1.5,0-1.5S653.9,288.8,654.9,288.8L654.9,288.8z"/>
			</g>
			<g>
				<path class="st3" d="M1670.1,621.6c1,0,1-1.5,0-1.5S1669.1,621.6,1670.1,621.6L1670.1,621.6z"/>
			</g>
			<g>
				<path class="st3" d="M1807.1,345.9c1,0,1-1.5,0-1.5S1806.1,345.9,1807.1,345.9L1807.1,345.9z"/>
			</g>
			<g>
				<path class="st3" d="M1610.3,330.1c1,0,1-1.5,0-1.5S1609.4,330.1,1610.3,330.1L1610.3,330.1z"/>
			</g>
			<g>
				<path class="st3" d="M1802.8,87.5c1,0,1-1.5,0-1.5S1801.8,87.5,1802.8,87.5L1802.8,87.5z"/>
			</g>
			<g>
				<path class="st3" d="M180.1,298.8c1,0,1-1.5,0-1.5C179.1,297.3,179.1,298.8,180.1,298.8L180.1,298.8z"/>
			</g>
			<g>
				<path class="st3" d="M44.6,400.2c1,0,1-1.5,0-1.5S43.6,400.2,44.6,400.2L44.6,400.2z"/>
			</g>
			<path class="st3" d="M103,1081.9"/>
			<g>
				<path class="st3" d="M103,1082.7c1,0,1-1.5,0-1.5C102.1,1081.2,102.1,1082.7,103,1082.7L103,1082.7z"/>
			</g>
			<g>
				<path d="M1776.5,1343l-81.1-2.8c0,0,7.8-11,6.4-18.1c-1.4-7.2-32.7-41.4-32.7-41.4s-55.8-48.6-58.3-49.9
					c-2.8-1.4-56.9-44.1-56.9-44.1s-52.8-45.9-54.1-48.5c-1.4-2.8-59.7-62.7-62.6-69.8v-20c0,0,4.3,7.2,11.4,14.2
					c8.6,8.6,21.1,19.8,22.8,21.4c1,1,21.3,20,21.3,20l14.2,12.8l19.9,17.1l45.5,37.1l46.9,31.3l55.7,41l75,63.8
					c0.3,0.2,0.5,0.4,0.7,0.7L1776.5,1343z"/>
				<path d="M1437.1,1068.4c0,0-27-32.8-28.4-37.1c-1.4-4.3-15.8-30.2-19.9-44.1c-4.3-14.2-5.7-18.5-7.1-24.3
					c-1.4-5.7-2.8-22.9-2.8-22.9l10-1.4l2,11.1l3.4,18.5c0.2,1.1,0.5,2.2,0.9,3.3l4,10.8l5.4,14.6l7.1,14.2l5.7,12.8
					c0.3,0.6,1.6,3,1.8,3.3l8.1,9.5l10,11.4L1437.1,1068.4"/>
				<path d="M1422.9,1098.5c-10-49.9-2.8-118.3-2.8-115.4c0,2.8-8.5,31.3-8.5,31.3l-4.3-4.3v-7.2c0,0,8.5-42.7,5.7-32.8
					c-2.8,9.9-8.5,25.6-8.5,24.3s-2.8-37.1-2.8-37.1l7.1-8.5c0,0-9.3,13.8-10,15.7c-1.4,4.3,0-20-1.4-18.5
					c-1.4,1.4-1.4,17.1-1.4,17.1l-3.3-3.5l-3.8-20.8v-34.2c10-5.7,22.8,12.8,21.3,12.8l-5.7-1.4c4.3-2.8,24.2,29.9,24.2,29.9
					c-2.8-2.8-14.2-7.2-14.2-7.2v1.4c4.3-2.8,21.3,32.8,21.3,32.8c-1.4-1.4-14.2-15.7-14.2-15.7c14.2,11.4,25.6,94,25.6,94l-10-24.3
					l2.8,15.7l0.2,10.1l-4.5-6.1l-4.2-15.4l1.4,95.4c0,0-4.3-17.1-4.3-21.4s0,15.7,0,15.7"/>
				<path d="M1356,914.6c0,0,0,0,1.4,2.8c1.4,2.8,0,4.3,0,4.3s-10,10-11.4,7.2c-1.4-2.8,2.8-24.3,2.8-24.3s-3.5,0.5-8.7,1.5
					c-9.3,1.6-23.9,4.3-33.9,7.2c-15.7,4.3-37,29.9-37,29.9l22.8-8.5c-17.1,5.7-45.5,32.8-45.5,32.8c7.1-5.7,35.6-15.7,35.6-15.7
					c-8.5,1.4-51.2,39.9-51.2,39.9c5.7-4.3,18.5-11.4,18.5-11.4c-4.3,2.8-25.6,35.7-25.6,35.7l14.2-12.8
					c-5.7,1.4-14.2,37.1-14.2,37.1s10.6-20.6,12.8-22.9c2.8-2.8,17.1-14.2,14.2-14.2s-4.3,31.3-4.3,38.5s19.9,39.9,19.9,39.9
					c-1.4-2.8-4.3-47-4.3-47c0,2.8,11.4,25.6,11.4,25.6l1.4-24.3c0-2.8,4.3-27,4.3-24.3c0,2.8,8.5,17.1,8.5,17.1
					c-1.4-2.8,0-18.5,0-22.9c0-4.4,2.8-28.5,2.8-25.6c0,2.8,11.4,27,11.4,27s-1.4-17.1-1.4-21.4s1.4-20,1.4-20s4.3,4.3,5.7,7.2
					c1.4,2.9,7.1,12.8,7.1,12.8c0-1.4-1.4-11.4-1.4-11.4c0-2.8,5.7-31.3,4.3-28.5c-0.1,0.2-0.1,0.6,0,1c1.1,4.4,14.2,17.5,14.2,17.5
					l4.3-22.9l10-2.8c-1.2,0-10.1,12-14.2,15.9c-0.6,0.6-1.1,1-1.4,1.1c-2.8,1.4-8.5,18.5-8.5,18.5c1.4-1.4,4.3-4.3,5.7-7.2
					c1.4-2.8,17.1-12.8,17.1-12.8c-2.8,0-21.3,22.9-21.3,22.9c-4.3,1.4-7.1,15.7-7.1,15.7c1.4-2.8,18.5-11.4,18.5-11.4
					c-5.7,0-21.3,21.4-21.3,21.4c-5.7,1.4-8.5,25.6-11.4,48.5c-2.9,22.9,8.5,54.2,8.5,54.2c-2.8-2.8,0-44.1,0-44.1l1.4,4.3
					c4.3,15.7,5.7,49.9,7.1,55.6c1.4,5.7-2.8,27-2.8,27c5.7-4.3,5.7-14.2,8.5-18.5c2.8-4.3,0-22.9,1.4-24.3c1.4-1.4-4.3-27-4.3-29.9
					c0-2.9-2.8-27-2.8-27c-1.4-8.5,14.2-27,14.2-27s1.4-2.8-1.4,0c-2.8,2.8-1.4,29.9-1.4,34.2c0,4.3,15.7,27,15.7,27
					c0,2.8-1.4-31.3-1.4-31.3c-1.4,4.3,25.6-108.3,25.6-105.5c0,2.8,7.1,18.5,7.1,18.5l-1.4-31.3l2.8,7.2"/>
				<path d="M1339,900.3l1.4,5.7l-11.4-11.4l0.5,13.4l-7.6-14.8c0,0-2.8,10-2.8,14.2l-1.4,7.2c0,0-7.1-18.5-7.1-21.4
					s-5.7,20-5.7,22.9c0,2.8-4.3-24.3-4.3-27c0-2.8-6.4,24.9-6.1,30.2s-3.9-30.2-2.5-33.1c1.4-2.8-10,39.9-10.2,43.6
					c-0.2,3.7-6.9-39.4-5.5-46.6c1.4-7.2-4.3,21.4-4.3,27c0,5.7-4.3-27-4.3-29.9c0-2.9-5.7,42.5-5.7,49.9c0,7.2-5.7-42.7-5.7-47
					c0-4.3,1.4,54.1,1.4,57c0,4-17.1-49.9-14.2-59.8c0,0-2.8,12.8-4.3,27c0,0-5.7-22.9-5.7-29.9s-5.7,45.5-5.7,52.7
					c0,5.7-7.1-44.1-5.7-51.3c1.4-7.2-8.5,31.3-8.5,41.4s-5.7-35.7-2.8-44.1c2.8-8.5-5.7,20-7.1,32.8c-1.4,12.8-4.3-24.3-2.8-29.9
					c1.5-5.7-5.7,17.1-5.7,27s-2.8-20-1.4-27c1.4-7.2-7.1,24.3-7.1,29.9c0,5.7-4.3-17.1-4.3-24.3s-8.5,7.2-11.4,17.1
					c0,0-2.8-17.1,1.4-24.3c0,0-9.4,9.4-11.3,19.1c-0.1,0.3-0.1,0.5-0.1,0.8c-1.4,10-1.4-20,1.4-22.9c0,0-15.7,28.5-15.7,32.8
					c0,0,5.7-32.8,10-35.7c0,0-27.5,27.5-30.9,34.6c-0.2,0.5-0.2,0.9-0.3,1.1c-2.8,4.3,17.1-39.9,21.3-41.4c0,0-48.4,29.9-52.6,32.8
					c0,0,34.1-31.3,39.8-34.2c0,0-49.8,21.4-56.9,27c0,0,35.6-28.5,41.3-29.9l-59.7,29.9c0,0,44.1-29.9,48.4-32.8l-65.4,32.8
					c0,0,58.3-42.7,74-48.5c15.2-5.5,58.3-11.4,72.5-11.4c14.2,0,68.3,5.7,78.2,8.5c9.2,2.6,66.8,31.3,72.5,34.2
					s12.8,34.2,12.8,34.2"/>
				<path d="M1388.8,904.6c0,0,1.4-5.7,2.8-5.7c1.4,0,1.3,4.6,1.3,4.6l4.1,0.9l0.3-4l2.7,5.7l3.8,2.9c0,0,0.6-14.3,2-14.3
					s2.8,31.3,2.8,31.3l5.7,4.3c0,0,1.4-28.5,0-32.8c-1.4-4.3,8.5,39.9,7.1,42.7c0,0,0-38.5-2.8-45.6c0,0,14.2,54,14.2,54.1
					c0,0-4.3-44.1-2.8-47c0,0,7.1,27,8.5,38.5c0,0-2.8-35.7-1.4-38.5c0,0,8.5,54.1,10,57c0,0,0-34.2,1.4-35.7c0,0,5.7,49.9,4.3,51.3
					c0,0,8.5-61.3,5.7-64.1c0,0,5.7,38.5,5.7,44.1c0,0,4.3-34.2,2.8-38.5c0,0,5.7,57,4.3,59.8c0,0,8.5-51.3,7.1-58.5
					c0,0,0,57-1.4,59.8c0,0,17.1-59.8,14.2-72.7c0,0-8.5,68.4-8.3,75.1c0,0.3-0.2,0.4-0.2,0.5c0,2.8,19.9-71.2,18.5-74.2
					c0,0-12.8,65.5-14.2,68.4c0,0,17.1-48.5,19.9-64.1c0,0-11.4,65.5-12.8,68.4c0,0,14.2-35.7,15.7-41.4c1.4-5.7,7.1-25.6,7.1-28.5
					c0,0-8.5,55.6-10,58.5c-1.4,2.8-5.7,18.5-7.1,22.9c0,0,14.2-28.5,17.1-34.2c2.8-5.7,12.8-42.7,12.8-42.7s-12.8,66.9-12.8,75.6
					c0,0,17.1-61.3,22.8-62.7c0,0-1.4,59.8-2.8,65.5c0,0,11.4-55.6,14.2-55.6c0,0,5.7,69.8,4.3,76.9c0,0,12.8-51.3,11.4-57
					c0,0,12.8,69.9,12.8,61.3c0-1.4,2.8-51.3,1.4-54.1c0,0,8.5,27,7.1,31.3c0,0,2.8-20,1.4-29.9c-1.4-10-7.1-41.4-12.8-48.5
					c0,0-21.3-31.3-28.4-37.1c-7.1-5.7-19.9-20-32.7-24.3c-12.8-4.3-46.7-7.2-51.2-7.2c-4.3,0-33.9,2.1-44.1,8.5
					c-11.4,7.2-19.9,10-22.8,12.8c-0.2,0.2,0,0-1.8,0.8c-10,4.6-55.7,5.5-55.7,5.5l2,59.2l47.7,8.7l3.5-48.6"/>
				<path d="M1399,867.5c0,0-6-12.8-4.6-14.2c1.4-1.4,9.2,12.3,9.2,12.3l6.5,0.5c0,0-11.4-10-8.5-11.4c2.8-1.4,14.2,7.2,14.2,7.2
					l5.7-2.8c0,0-7.1-12.8-7.1-15.7c0-2.9,12.8,14.2,12.8,14.2l12.8-2.8c0,0-8.5-29.9-5.7-32.8c2.8-2.8,7.1,17.1,7.1,17.1l1.4-14.2
					c0,0,14.2,27,10,32.8c-4.3,5.7,8.5,4.3,8.5,4.3s-1.4-28.5-5.7-29.9c0,0,10,18.5,10,22.9c0,4.3-1.4-25.6-2.8-29.9
					c-1.4-4.3,4.3,0,5.7,5.7c1.4,5.7,4.3,20,2.8,22.9c-1.4,2.8,5.7,1.4,5.7,1.4s-1.4-27-1.4-31.3c0,0,1.4-15.7,5.7,0
					c4.3,15.7,1.4,31.3,1.4,34.2c0,2.9,5.7,0,5.7,0l-4.3-52.7c0,0,10,14.2,11.4,17.1c1.3,2.5,9.2,25.5,8.1,29.8
					c0,0,1.8-21.4,0.4-29.8c-1.4-8.5-1.4-17.1,1.4-12.8c2.8,4.3,8.5,20,8.5,22.9c0,0-1.4-17.1-2.8-22.9c-1.2-5,4.4,0.3,5.7,2.8
					c1.4,2.8,5.8,15.9,7.1,20c1.4,4.3,4.3,20,4.3,25.6c0,5.7,1.4,15.7,1.4,15.7h7.1l-4.3-4.3c0,0,1.4-22.9,0-29.9
					c-1.4-7.2-7.1-31.3-8.5-34.2c-6-11.8-11.4-15.7-8.5-12.8c2.8,2.9,10,12.8,11.4,17.1s8.5,35.7,10,39.9
					c1.6,4.9,4.3,14.2,14.2,17.1c10,2.8,10,2.8,12.8,2.8c0,0-10.3-3.4-12.8-7.2c-2.8-4.3-7.1-10-8.5-22.9
					c-0.7-6.1-4.2-18.2-7.1-29.9c-1.4-5.7-2.8-11.5-4.3-15.7c-2.1-5.7,5.7,4.3,11.4,21.4c5.7,17.1,2.8,18.5,7.1,27s8.5,10,12.8,10
					s14.2-1.4,14.2-2.8c0,0-14.2,0-17.1-4.3c-2.5-3.7-2.8-4.3-8.5-17.1c0,0-4.3-15.7-5.7-17.1c-1.4-1.4-4.3-12.8-5.7-17.1
					s1.4-4.3-2.8-4.3l2.8,7.2c0,0,4,11.1,8.5,21.4c1.3,3,1.7,5.8,2.8,8.5c1.7,4,4.3,8.5,5.7,10c0,0,7.1,8.5,17.1,2.8
					c10.5-6,11.4-7.2,15.7-12.8c0,0-11.4,8.5-18.5,10c-7.1,1.4-8.9-4.8-11.4-8.5c-2.8-4.3-4.3-17.1-4.3-21.4s-6.1-22-10-27
					c-4.3-5.7-15.7-12.8-22.8-17.1c0,0-27-10-41.3-7.2c0,0-35.6,7.2-41.3,12.8c0,0-39.8,38.5-39.8,41.4"/>
				<path d="M1400.7,808l-4.9-1.7h7.1l7.1-5.7l-8.5-1.4c0,0,10-4.3,12.8-1.4c2.8,2.8,2.8-2.8,2.8-2.8l-10.7-2.7l-0.7-0.2
					c0,0,5.9-2.3,10.1-0.4c4.2,1.9,7-1,7-1l-12.8-7.2c0,0,14.2,2.8,15.7,4.3c1.4,1.4,4.3-4.3,4.3-4.3l-15.7-10
					c0,0,22.8,5.7,22.8,7.2c0,1.5,4.3-7.2,4.3-7.2s-19.9-7.2-19.9-8.5s24.2,5.7,24.2,5.7l4.3-2.8c0,0-27-12.8-27-14.2
					s39.8,10,39.8,10l2.8-1.4c0,0-34.1-15.7-37-17.1c-2.9-1.4,42.7-2.8,49.8,1.4c7.1,4.3,7.1,5.7,7.1,5.7s-1.4-5.7-8.5-8.5
					c-7.1-2.9-46.9-8.5-46.9-8.5s-4.3-1.4,0-2.8c4.3-1.4,58.3-7.2,61.2-5.7c0,0-55.5-2.8-58.3-1.4c0,0,61.2-34.2,68.3-31.3
					l-56.9,15.7l62.6-34.2l-49.8,20l29.9-18.5l-19.9,7.2c0,0,51.2-35.7,59.7-35.7c0,0-12.8,1.4-18.5,4.3
					c-5.7,2.8-65.4,32.8-72.5,38.5c-7.1,5.7-32.7,25.6-35.6,29.9c-2.9,4.3-28.4,37.1-29.9,42.7c-1.5,5.7-10,41.4-10,48.5
					c0,7.2-2.8,2.8-2.8,2.8l2.8-47l2.8-54.1l-11.4,76.9l-1.4,2.8l-5.7-136.8l-2.8,87l-18.5-38.5l14.2,61.3l-10-28.5l19.9,71.2
					c0,0,2.8,5.7,0,2.8c-2.8-2.8-8.5-21.4-8.5-21.4s-12.8-32.8-15.7-35.7c-2.8-2.8-4.3-8.5-11.4-18.5c-7.1-10-62.6-52.7-65.4-54.1
					s-14.2-8.5-19.9-10l56.9,47l-39.8-25.6l45.5,38.5l-34.1-20l38.4,31.3l-35.6-12.8l39.8,22.9l-32.7,2.8l31.3,2.8l-21.3,7.2
					l21.3-1.4l-18.5,14.2l18.5-7.2l-17.1,12.8l1.4,2.8l17.1-8.5l-14.2,11.4l4.3,2.8l15.7-7.2l-14.2,8.5l-22.8-17.1
					c0,0-32.7-25.6-55.5-31.3c0,0-27-14.2-52.6-15.7c0,0-49.8-5.7-86.8-1.4l-14.2,4.3h32.7l52.6,4.3l10,2.8h-72.5l72.5,8.5h-54.1
					l62.6,7.2l-46.9,7.2l56.9-1.4l-35.6,25.6l42.7-20l-19.9,28.5l28.4-22.9l-11.4,35.7l15.7-27l-12.8,48.5l22.8-41.4l-8.5,38.5
					l18.5-31.3l-8.5,37.1l17.1-28.5l-10,29.9l18.5-24.3l-7.1,27l17.1-25.6l-8.5,25.6l18.5-24.3l-3.9,23.5l12.5-22.1l-2.8,27l10-8.5
					v8.5l8.5,5.7l5.7-11.4l-1.4,12.8l12.8-11.4l-5.7,11.4l64,31.3l58.3-11.4"/>
			</g>
			<g>
				<path d="M-48.5,1370.1l81.1-2.8c0,0-7.8-11-6.4-18.1c1.4-7.1,32.7-41.4,32.7-41.4s55.8-48.6,58.3-49.9
					c2.8-1.4,56.9-44.1,56.9-44.1s52.8-45.9,54.1-48.5c1.4-2.8,59.7-62.7,62.6-69.8v-20c0,0-4.3,7.2-11.4,14.2
					c-8.5,8.6-21.1,19.8-22.8,21.4c-1,1-21.3,20-21.3,20l-14.3,13l-19.9,17.1l-45.5,37.1l-46.9,31.3L53,1270.5l-75,63.8
					c-0.3,0.2-0.5,0.4-0.7,0.7L-48.5,1370.1z"/>
				<path d="M290.7,1095.5c0,0,27-32.8,28.5-37.1c1.5-4.3,15.8-30.2,19.9-44.1c4.3-14.2,5.7-18.5,7.1-24.3
					c1.4-5.7,2.8-22.9,2.8-22.9l-10-1.4l-2,11.1l-3.4,18.5c-0.2,1.1-0.5,2.2-0.9,3.3l-4,10.8l-5.4,14.6l-7.1,14.2l-5.7,12.8
					c-0.3,0.6-1.6,3-1.8,3.3l-8.1,9.5l-10,11.4L290.7,1095.5"/>
				<path d="M305,1125.5c10-49.9,2.8-118.3,2.8-115.4c0,2.8,8.5,31.3,8.5,31.3l4.3-4.3v-7.2c0,0-8.5-42.7-5.7-32.8
					c2.8,10,8.5,25.6,8.5,24.3c0-1.4,2.8-37.1,2.8-37.1l-7.1-8.5c0,0,9.3,13.8,10,15.7c1.4,4.3,0-20,1.4-18.5
					c1.4,1.4,1.4,17.1,1.4,17.1l3.4-3.5l3.8-20.8v-34.4c-10-5.7-22.8,12.8-21.3,12.8l5.7-1.4c-4.3-2.8-24.2,29.9-24.2,29.9
					c2.8-2.8,14.2-7.2,14.2-7.2v1.4c-4.3-2.8-21.3,32.8-21.3,32.8c1.4-1.4,14.2-15.7,14.2-15.7c-14.2,11.4-25.6,94-25.6,94l10-24.3
					l-2.8,15.6l-0.1,10.1l4.5-6.1l4.2-15.4l-1.4,95.4c0,0,4.3-17.1,4.3-21.4c0-4.3,0,15.7,0,15.7"/>
				<path d="M371.8,941.7c0,0,0,0-1.4,2.8c-1.4,2.8,0,4.3,0,4.3s10,10,11.4,7.2c1.4-2.8-2.8-24.3-2.8-24.3s3.5,0.5,8.7,1.5
					c9.3,1.6,23.9,4.3,34,7.2c15.6,4.3,37,29.9,37,29.9l-22.8-8.5c17.1,5.7,45.5,32.8,45.5,32.8c-7.1-5.7-35.6-15.7-35.6-15.7
					c8.5,1.4,51.2,39.9,51.2,39.9c-5.7-4.3-18.5-11.4-18.5-11.4c4.3,2.8,25.6,35.7,25.6,35.7l-14.2-12.8
					c5.7,1.4,14.2,37.1,14.2,37.1s-10.5-20.6-12.8-22.9c-2.8-2.8-17.1-14.2-14.2-14.2s4.3,31.3,4.3,38.5s-19.9,39.9-19.9,39.9
					c1.4-2.8,4.3-47,4.3-47c0,2.8-11.4,25.6-11.4,25.6l-1.4-24.3c0-2.8-4.3-27-4.3-24.3c0,2.8-8.5,17.1-8.5,17.1
					c1.4-2.8,0-18.5,0-22.9c0-4.4-2.8-28.5-2.8-25.6c0,2.8-11.4,27-11.4,27s1.4-17.1,1.4-21.4c0-4.2-1.4-20-1.4-20s-4.3,4.3-5.7,7.2
					c-1.4,2.8-7.1,12.8-7.1,12.8c0-1.4,1.4-11.4,1.4-11.4c0-2.8-5.7-31.3-4.3-28.5c0.1,0.2,0.1,0.6,0,1
					c-1.1,4.4-14.2,17.5-14.2,17.5l-4.3-22.9l-10-2.8c1.2,0,10.1,12,14.2,15.9c0.6,0.6,1.1,1,1.4,1.1c2.8,1.4,8.5,18.5,8.5,18.5
					c-1.4-1.4-4.3-4.3-5.7-7.2s-17.1-12.5-17.1-12.5c2.8,0,21.3,22.9,21.3,22.9c4.3,1.4,7.1,15.7,7.1,15.7
					c-1.4-2.8-18.5-11.4-18.5-11.4c5.7,0,21.3,21.4,21.3,21.4c5.7,1.4,8.5,25.6,11.4,48.5c2.9,22.9-8.5,54.2-8.5,54.2
					c2.8-2.8,0-44.1,0-44.1l-1.4,4.3c-4.3,15.7-5.7,49.9-7.1,55.6c-1.4,5.7,2.8,27,2.8,27c-5.7-4.3-5.7-14.2-8.5-18.5
					c-2.8-4.3,0-22.9-1.4-24.3s4.3-27,4.3-29.9c0-2.9,2.8-27,2.8-27c1.4-8.5-14.2-27-14.2-27s-1.4-2.8,1.4,0
					c2.8,2.8,1.4,29.9,1.4,34.2c0,4.2-15.6,27-15.6,27c0,2.8,1.4-31.3,1.4-31.3c1.4,4.3-25.6-108.3-25.6-105.5s-7.1,18.5-7.1,18.5
					l1.4-31.3l-2.8,7.2"/>
				<path d="M388.9,927.4l-1.4,5.7l11.4-11.4l-0.5,13.4l7.6-14.8c0,0,2.8,10,2.8,14.2l1.4,7.2c0,0,7.1-18.5,7.1-21.4
					s5.7,20,5.7,22.9c0,2.8,4.3-24.3,4.3-27c0-2.8,6.4,24.9,6,30.2c-0.4,5.4,3.9-30.2,2.5-33.1c-1.4-2.8,10,39.9,10.2,43.6
					c0.2,3.7,6.9-39.4,5.5-46.6c-1.4-7.2,4.3,21.4,4.3,27c0,5.7,4.3-27,4.3-29.9s5.7,42.5,5.7,49.9c0,7.2,5.7-42.7,5.7-47
					s-1.4,54.1-1.4,57c0,4,17.1-49.9,14.2-59.8c0,0,2.8,12.8,4.3,27c0,0,5.7-22.9,5.7-29.9c0-7.1,5.7,45.5,5.7,52.7
					c0,5.7,7.1-44.1,5.7-51.3c-1.4-7.2,8.5,31.3,8.5,41.4s5.7-35.7,2.8-44.1c-2.8-8.5,5.7,20,7.1,32.8c1.4,12.8,4.3-24.3,2.8-29.9
					c-1.4-5.7,5.7,17.1,5.7,27c0,9.9,2.8-20,1.4-27c-1.4-7.2,7.1,24.3,7.1,29.9c0,5.7,4.3-17.1,4.3-24.3s8.5,7.2,11.4,17.1
					c0,0,2.8-17.1-1.4-24.3c0,0,9.4,9.4,11.3,19.1c0,0.3,0.1,0.5,0.1,0.8c1.4,10,1.4-20-1.4-22.9c0,0,15.7,28.5,15.7,32.8
					c0,0-5.7-32.8-10-35.7c0,0,27.5,27.5,30.9,34.6c0.2,0.5,0.2,0.9,0.3,1.1c2.8,4.3-17.1-39.9-21.3-41.4c0,0,48.4,29.9,52.6,32.8
					c0,0-34.1-31.3-39.8-34.2c0,0,49.8,21.4,56.9,27c0,0-35.6-28.5-41.3-29.9l59.7,29.9c0,0-44.1-29.9-48.4-32.8l65.4,32.8
					c0,0-58.3-42.7-74-48.5c-15.2-5.5-58.3-11.4-72.5-11.4c-14.2,0-68.3,5.7-78.2,8.5c-9.2,2.6-66.9,31.3-72.5,34.2
					c-5.7,2.8-12.8,34.2-12.8,34.2"/>
				<path d="M339.1,931.7c0,0-1.4-5.7-2.8-5.7s-1.3,4.6-1.3,4.6l-4.1,0.9l-0.3-4l-2.7,5.7l-3.8,2.9c0,0-0.6-14.3-2-14.3
					c-1.4,0-2.8,31.3-2.8,31.3l-5.7,4.3c0,0-1.4-28.5,0-32.8s-8.5,39.9-7.1,42.7c0,0,0-38.5,2.8-45.6c0,0-14.1,54-14.2,54.1
					c0,0,4.3-44.1,2.8-47c0,0-7.1,27-8.5,38.5c0,0,2.8-35.7,1.4-38.5c0,0-8.5,54.1-10,57c0,0,0-34.2-1.4-35.7c0,0-5.7,49.9-4.3,51.3
					c0,0-8.5-61.3-5.7-64.1c0,0-5.7,38.5-5.7,44.1c0,0-4.3-34.2-2.8-38.5c0,0-5.7,57-4.3,59.8c0,0-8.5-51.3-7.1-58.5
					c0,0,0,57,1.4,59.8c0,0-17.1-59.8-14.2-72.7c0,0,8.5,68.4,8.3,75.1c0,0.3,0.2,0.4,0.2,0.5c0,2.8-19.9-71.2-18.5-74.2
					c0,0,12.8,65.5,14.2,68.4c0,0-17.1-48.5-19.9-64.1c0,0,11.4,65.5,12.8,68.4c0,0-14.2-35.7-15.6-41.4c-1.4-5.7-7.1-25.6-7.1-28.5
					c0,0,8.5,55.6,10,58.5c1.4,2.8,5.7,18.5,7.1,22.9c0,0-14.2-28.5-17.1-34.2c-2.8-5.7-12.8-42.7-12.8-42.7s12.8,66.9,12.8,75.6
					c0,0-17.1-61.3-22.8-62.7c0,0,1.4,59.8,2.8,65.5c0,0-11.4-55.6-14.2-55.6c0,0-5.7,69.8-4.3,76.9c0,0-12.8-51.3-11.4-57
					c0,0-12.8,69.9-12.8,61.3c0-1.4-2.8-51.3-1.4-54.1c0,0-8.5,27-7.1,31.3c0,0-2.8-20-1.4-29.9c1.4-9.9,7.1-41.4,12.8-48.5
					c0,0,21.3-31.3,28.4-37.1c7.1-5.7,19.9-20,32.7-24.3c12.8-4.3,46.7-7.2,51.2-7.2c4.3,0,33.9,2.1,44.1,8.5
					c11.4,7.2,19.9,10,22.8,12.8c0.2,0.2,0,0,1.8,0.8c10,4.6,55.7,5.5,55.7,5.5l-2,59.2l-47.7,8.7l-3.5-48.6"/>
				<path d="M328.8,894.6c0,0,6-12.8,4.6-14.2c-1.4-1.4-9.2,12.3-9.2,12.3l-6.5,0.5c0,0,11.4-10,8.5-11.4
					c-2.9-1.4-14.2,7.2-14.2,7.2l-5.7-2.8c0,0,7.1-12.8,7.1-15.7s-12.8,14.2-12.8,14.2l-12.8-2.8c0,0,8.5-29.9,5.7-32.8
					c-2.8-2.8-7.1,17.1-7.1,17.1l-1.4-14.2c0,0-14.2,27-10,32.8c4.3,5.7-8.5,4.3-8.5,4.3s1.4-28.5,5.7-29.9c0,0-10,18.5-10,22.9
					c0,4.3,1.4-25.6,2.8-29.9c1.4-4.3-4.3,0-5.7,5.7c-1.4,5.7-4.3,20-2.8,22.9c1.4,2.8-5.7,1.4-5.7,1.4s1.4-27,1.4-31.3
					c0,0-1.4-15.7-5.7,0c-4.3,15.7-1.4,31.3-1.4,34.2c0,2.8-5.7,0-5.7,0l4.3-52.7c0,0-10,14.2-11.4,17.1c-1.3,2.5-9.2,25.5-8.1,29.8
					c0,0-1.8-21.4-0.4-29.8c1.4-8.5,1.4-17.1-1.4-12.8c-2.8,4.3-8.5,20-8.5,22.9c0,0,1.4-17.1,2.8-22.9c1.2-5-4.4,0.3-5.7,2.8
					c-1.4,2.8-5.8,15.9-7.1,20c-1.4,4.3-4.3,20-4.3,25.6c0,5.7-1.4,15.7-1.4,15.7h-7.1l4.3-4.3c0,0-1.4-22.9,0-29.9
					c1.4-7.2,7.1-31.3,8.5-34.2c6-11.8,11.4-15.7,8.5-12.8c-2.8,2.9-10,12.8-11.4,17.1c-1.4,4.3-8.5,35.7-10,39.9
					c-1.6,4.9-4.3,14.2-14.2,17.1c-10,2.8-10,2.8-12.8,2.8c0,0,10.3-3.4,12.8-7.2c2.8-4.3,7.1-10,8.5-22.9
					c0.7-6.1,4.2-18.2,7.1-29.9c1.4-5.7,2.8-11.5,4.3-15.7c2.1-5.7-5.7,4.3-11.4,21.4c-5.7,17-2.8,18.5-7.1,27
					c-4.3,8.5-8.5,10-12.8,10c-4.3,0-14.2-1.4-14.2-2.8c0,0,14.2,0,17.1-4.3c2.5-3.7,2.8-4.3,8.5-17.1c0,0,4.3-15.7,5.7-17.1
					c1.4-1.4,4.3-12.8,5.7-17.1c1.4-4.3-1.4-4.3,2.8-4.3l-2.8,7.2c0,0-4,11.1-8.5,21.4c-1.4,3-1.7,5.8-2.8,8.5
					c-1.7,4-4.3,8.5-5.7,10c0,0-7.1,8.5-17.1,2.8c-10.5-6-11.4-7.2-15.6-12.8c0,0,11.4,8.5,18.5,10c7.1,1.4,8.9-4.8,11.4-8.5
					c2.8-4.3,4.3-17.1,4.3-21.4c0-4.3,6.1-22,10-27c4.3-5.7,15.6-12.8,22.8-17.1c0,0,27-10,41.3-7.2c0,0,35.6,7.2,41.3,12.8
					c0,0,39.8,38.5,39.8,41.4"/>
				<path d="M327.1,835l4.9-1.7h-7.1l-7.1-5.7l8.5-1.4c0,0-10-4.3-12.8-1.4c-2.8,2.8-2.8-2.8-2.8-2.8l10.7-2.7l0.7-0.2
					c0,0-5.9-2.3-10.1-0.4c-4.2,1.9-7-1-7-1l12.8-7.2c0,0-14.2,2.8-15.6,4.3c-1.4,1.4-4.3-4.3-4.3-4.3l15.6-10
					c0,0-22.8,5.7-22.8,7.2c0,1.5-4.3-7.2-4.3-7.2s19.9-7.2,19.9-8.5c0-1.4-24.2,5.7-24.2,5.7l-4.3-2.8c0,0,27-12.8,27-14.2
					c0-1.4-39.8,10-39.8,10l-2.8-1.4c0,0,34.1-15.7,37-17.1c2.8-1.4-42.7-2.8-49.8,1.4c-7.1,4.3-7.1,5.7-7.1,5.7s1.4-5.7,8.5-8.5
					c7.1-2.8,46.9-8.5,46.9-8.5s4.3-1.4,0-2.8c-4.3-1.4-58.3-7.2-61.2-5.7c0,0,55.5-2.8,58.3-1.4c0,0-61.2-34.2-68.3-31.3l56.9,15.7
					l-62.6-34.2l49.8,20L241,703.8l19.9,7.2c0,0-51.2-35.7-59.7-35.7c0,0,12.8,1.4,18.5,4.3c5.7,2.8,65.4,32.8,72.5,38.5
					c7.1,5.7,32.7,25.6,35.6,29.9c2.8,4.3,28.5,37.1,29.9,42.7c1.4,5.7,10,41.4,10,48.5s2.8,2.8,2.8,2.8l-2.8-47l-2.8-54.1
					l11.4,76.9l1.4,2.8l5.7-136.8l2.8,87l18.5-38.5l-14.2,61.3l10-28.5l-19.9,71.2c0,0-2.8,5.7,0,2.8c2.8-2.8,8.5-21.4,8.5-21.4
					s12.8-32.8,15.6-35.7c2.8-2.8,4.3-8.5,11.4-18.5c7.1-9.9,62.6-52.7,65.4-54.1c2.8-1.4,14.2-8.5,19.9-10l-56.9,47.1l39.8-25.6
					l-45.5,38.5l34.1-20l-38.4,31.3l35.6-12.8l-39.8,22.9l32.7,2.8l-31.3,2.8l21.3,7.2l-21.3-1.4l18.5,14.2l-18.5-7.2l17.1,12.8
					l-1.4,2.8l-17.1-8.5l14.2,11.4l-4.3,2.8l-15.6-7.2l14.2,8.5l22.8-17.1c0,0,32.7-25.6,55.5-31.3c0,0,27-14.2,52.6-15.7
					c0,0,49.8-5.7,86.8-1.4l14.2,4.3h-32.7l-52.6,4.3l-10,2.8H648l-72.5,8.5h54l-62.6,7.2l46.9,7.2l-56.9-1.4l35.6,25.6l-42.7-20
					l19.9,28.5l-28.5-22.9l11.4,35.7l-15.7-27l12.8,48.5l-22.8-41.4l8.5,38.5l-18.5-31.3l8.5,37.1l-17.1-28.5l10,29.9l-18.5-24.3
					l7.1,27L489.8,839l8.5,25.6L480,840.5l3.9,23.5l-12.5-22.1l2.8,27l-10-8.5v8.5l-8.5,5.7l-5.7-11.4l1.4,12.8l-12.8-11.4l5.7,11.4
					l-64,31.3L322,896"/>
			</g>
			<g>
				<path d="M-163,1269.5l54.4-13.6c0,0-6.9-6.3-6.9-11.3c-0.1-5,16.2-32.7,16.2-32.7s30.7-40.9,32.2-42.1
					c1.7-1.4,32.1-38.1,32.1-38.1s29.1-38.7,29.5-40.6c0.6-2.1,31.3-51,32.2-56.3l-2.9-13.5c0,0-1.9,5.4-5.6,11.3
					c-4.5,7.1-11.4,16.3-12.3,17.7c-0.5,0.8-11.6,16.5-11.6,16.5l-7.8,10.7l-11,14.4l-25.4,31.6l-27.2,27.9l-31.7,35.8l-41.5,54
					c-0.1,0.2-0.3,0.4-0.3,0.6L-163,1269.5z"/>
				<path d="M26.8,1034.9c0,0,13.5-26,13.9-29.1c0.4-3.1,6.3-22.8,7.1-32.8c0.8-10.2,1.2-13.3,1.3-17.4c0.1-4.1-1.4-15.8-1.4-15.8
					l-6.9,0.5l0.2,7.9l0.4,13c0,0.8,0,1.6-0.1,2.3l-1.1,8l-1.5,10.6l-2.8,10.6l-2,9.5c-0.1,0.4-0.6,2.3-0.8,2.5l-4.1,7.7l-5.1,9.1
					L26.8,1034.9"/>
				<path d="M40.7,1053.1c-0.5-35.2-15.1-80.4-14.7-78.4c0.4,1.9,10.3,20,10.3,20l2.3-3.5l-1-4.8c0,0-11.9-27.6-8.6-21.4
					c3.3,6.3,9.5,16.1,9.3,15.1c-0.2-1-3.4-25.4-3.4-25.4l-6-4.8c0,0,8.3,8.1,9,9.2c1.6,2.7-2.9-13.5-1.7-12.7
					c1.2,0.8,3.4,11.3,3.4,11.3l1.8-2.8L41,940.3l-4.9-23.2c-7.5-2.4-13.5,11.9-12.6,11.7l3.6-1.8c-3.3-1.3-12,23.8-12,23.8
					c1.5-2.3,8.6-7,8.6-7l0.2,1c-3.3-1.3-9.7,25.2-9.7,25.2c0.8-1.2,7.4-12.6,7.4-12.6c-8,9.7-3.8,67.3-3.8,67.3L21,1007l0.3,11
					l1.4,6.9l2.1-4.8l0.6-11l12.8,64.8c0,0,0.4-12.2-0.2-15s2.3,10.6,2.3,10.6"/>
				<path d="M59.4,919.1c0,0,0,0-0.5,2.1c-0.5,2.1,0.6,2.9,0.6,2.9s8.2,5.3,8.7,3.2c0.5-2.1-5.4-15.9-5.4-15.9s2.5-0.1,6.1-0.3
					c6.5-0.2,16.8-0.5,24-0.1c11.2,0.6,29.3,14.9,29.3,14.9l-16.6-2.5c12.3,1.4,35.5,15.6,35.5,15.6c-5.6-2.8-26.3-5.5-26.3-5.5
					c6-0.3,40.3,19.7,40.3,19.7c-4.5-2.1-14.1-5-14.1-5c3.3,1.3,22.4,20.5,22.4,20.5l-11.4-6.7c4.1,0.1,14.9,23.1,14.9,23.1
					s-10.1-12.3-11.9-13.5c-2.3-1.5-13.6-7.3-11.7-7.7c1.9-0.4,7.4,20.6,8.4,25.4c1,4.8-7.7,29.8-7.7,29.8
					c0.6-2.1-3.9-32.5-3.9-32.5c0.4,1.9-4,19-4,19l-4.4-16.2c-0.4-1.9-6.8-17.7-6.4-15.7c0.4,2-3.3,12.8-3.3,12.8
					c0.6-2.1-2.7-12.5-3.3-15.4c-0.6-2.9-6-18.8-5.6-16.9s-3.8,20-3.8,20s-1.5-11.8-2.1-14.6c-0.6-2.9-3.8-13.3-3.8-13.3
					s-2.3,3.5-2.8,5.6c-0.5,2.1-3,9.7-3,9.7c-0.2-1-0.7-8-0.7-8c-0.4-1.9-8.3-20.4-7-18.6c0.1,0.2,0.2,0.4,0.2,0.7
					c-0.1,3.1-7.1,13.9-7.1,13.9l-6.2-14.8l-7.1-0.5c0.8-0.2,8.6,6.8,11.9,8.7c0.5,0.3,0.9,0.5,1.1,0.6c2.1,0.5,8.4,11.3,8.4,11.3
					c-1.2-0.8-3.5-2.3-4.9-4c-1.4-1.7-13.4-6.2-13.4-6.2c1.9-0.4,17.7,12.3,17.7,12.3c3.1,0.3,7.1,9.6,7.1,9.6
					c-1.4-1.7-14.1-5-14.1-5c3.8-0.8,17.5,11.4,17.5,11.4c4.1,0.1,9.5,16.1,14.7,31.1c5.2,15,2,37.9,2,37.9
					c1.5-2.3-6.3-29.8-6.3-29.8l-0.3,3.1c-0.6,11.2,3.3,34.6,3.2,38.6s5.8,17.9,5.8,17.9c-4.5-2.1-5.9-8.8-8.4-11.3
					c-2.5-2.5-3.3-15.4-4.4-16.2s-1-18.9-1.4-20.9c-0.4-1.9-2-18.7-2-18.7c-0.3-6-13.5-16.2-13.5-16.2s-1.4-1.7,1-0.2
					c2.3,1.5,5.3,20.1,5.9,23c0.6,2.9-6.7,20.6-6.7,20.6c0.4,1.9-3.6-21.5-3.6-21.5c1.6,2.7-32.9-69.5-32.5-67.6
					c0.4,1.9-2.1,13.5-2.1,13.5l-3.5-21.5l-0.9,5.2"/>
				<path d="M68.9,907.1l-0.1,4l6.1-9.3l1.6,9.1l3-11.1c0,0,3.4,6.3,4,9.2l2,4.6c0,0,2.1-13.5,1.7-15.5c-0.4-2,6.7,12.7,7.1,14.6
					c0.4,1.9-0.6-17-1-18.9c-0.4-1.9,7.9,15.9,8.4,19.6s-1.7-21.1-3.1-22.8c-1.4-1.7,12.5,25.5,13.2,28c0.7,2.5-1-27.6-3-32.2
					c-2-4.6,6,13.8,6.8,17.7c0.8,3.9-1-18.9-1.4-20.9s10,28,11,32.9c1,4.8-2.3-29.7-2.9-32.7c-0.6-2.9,6.8,36.9,7.2,38.8
					c0.6,2.7,4.4-36.2,1-42.5c0,0,3.8,8.4,6.8,17.7c0,0,0.6-16.2-0.5-21.1c-1.1-4.9,10.4,29.9,11.4,34.9c0.8,3.8-1.6-30.8-3.5-35.6
					c-2-4.6,10.3,20,11.7,26.7c1.4,6.8-1.3-25-4.4-30.2c-3.1-5.3,6.7,12.7,9.5,21.2c2.8,8.5-0.6-17-2.4-20.7
					c-1.8-3.7,6.3,10.7,7.7,17.5s-0.9-13.9-2.9-18.5s8.3,15.3,9.1,19.2c0.8,3.9,0.4-12.2-0.6-17s6.8,3.6,10.1,9.9
					c0,0-0.5-12-4.4-16.2c0,0,7.7,5,10.4,11.3c0.1,0.2,0.1,0.3,0.2,0.5c2.4,6.6-1.9-13.7-4.2-15.2c0,0,14.7,17,15.3,20
					c0,0-8.6-21.4-11.9-22.7c0,0,22.6,14.6,25.9,18.8c0.2,0.3,0.3,0.6,0.4,0.7c2.5,2.5-17.3-24.6-20.4-24.9c0,0,37,13.2,40.3,14.5
					c0,0-27.6-16.3-31.8-17.3c0,0,36.7,7.4,42.3,10.1c0,0-28.1-14.1-32.2-14.3l44.7,11.6c0,0-34.1-13.8-37.4-15.2l48.9,12.7
					c0,0-45.6-20.6-56.9-22.2c-11.1-1.5-41,0.7-50.6,2.8c-9.6,2-45.3,13.7-51.6,17c-5.8,3.1-40.7,30.8-44.1,33.6
					c-3.4,2.7-3.7,25-3.7,25"/>
				<path d="M35.9,917.1c0,0-1.8-3.6-2.7-3.4c-1,0.2-0.2,3.3-0.2,3.3l-2.6,1.2l-0.8-2.7l-1,4.2l-2.1,2.5c0,0-2.5-9.6-3.4-9.4
					s2.6,21.7,2.6,21.7l-3.2,3.7c0,0-5.1-19-4.7-22.2s0,28.2,1.3,29.9c0,0-5.5-26-4.6-31.2c0,0-1.8,38.6-1.8,38.7
					c0,0-3.5-30.4-4.8-32.2c0,0-0.9,19.3-0.2,27.2c0,0-3.2-24.6-4.6-26.2c0,0,2,37.9,1.5,40c0,0-4.9-23.2-6.1-23.9
					c0,0,3.3,34.6,4.5,35.4c0,0-14.6-40.2-13.1-42.5c0,0,1.7,26.8,2.5,30.6c0,0-7.8-22.6-7.5-25.6c0,0,4.3,39.4,5.7,41.1
					c0,0-13.1-33.5-13.2-38.5c0,0,8.2,38.6,9.6,40.3c0,0-20.1-38.1-20.1-47.1c0,0,15.6,45,16.4,49.5c0,0.2,0.2,0.3,0.2,0.3
					c0.4,1.9-23.7-45.2-23.1-47.5c0,0,18.1,42.4,19.5,44.1c0,0-18.5-30.3-22.7-40.5c0,0,17.1,42.6,18.5,44.3
					c0,0-14.7-22.1-16.5-25.7c-1.8-3.6-8.5-16.3-8.9-18.2c0,0,13.8,36.4,15.1,38.1c1.4,1.7,6.5,11.7,8.1,14.4
					c0,0-13.7-17.2-16.4-20.7c-2.7-3.4-14.8-27-14.8-27s18.3,43.4,19.5,49.2c0,0-20.3-39-24.4-39.1c0,0,9.6,40.3,11.3,43.8
					c0,0-15.7-36-17.6-35.6c0,0,6.2,48.1,8.2,52.7c0,0-16-32.9-15.9-36.9c0,0,1.4,49.2,0.2,43.2c-0.2-1-9.3-34.3-8.8-36.4
					c0,0-1.9,19.6-0.3,22.3c0,0-4.8-13.1-5.3-20.1c-0.5-7-1.1-28.9,1.7-34.6c0,0,9.9-24.3,13.9-29.1c4-4.9,10.6-16.3,18.6-21.2
					c8-4.9,30.5-11.5,33.6-12.2c2.9-0.6,23.2-3.4,31-0.6c8.7,3.2,14.9,3.9,17.2,5.4c0.2,0.1,0,0,1.3,0.3c7.4,1.7,38.4-4.3,38.4-4.3
					l7.2,40.4l-31,12.7l-9.3-32.3"/>
				<path d="M23.6,893.6c0,0,2.2-9.5,1-10.3c-1.2-0.8-4.4,9.7-4.4,9.7l-4.3,1.3c0,0,6.3-8.4,4.1-8.9c-2.2-0.5-8.6,7-8.6,7l-4.3-1.1
					c0,0,3-9.7,2.6-11.6c-0.4-1.9-6.6,11.5-6.6,11.5L-6,891c0,0,1.5-21.5-0.9-23.1c-2.4-1.6-2.3,12.6-2.3,12.6l-3-9.4
					c0,0-5.7,20.4-2,23.7c3.7,3.2-5.1,4.1-5.1,4.1s-3.1-19.4-0.5-21.1c0,0-4.1,13.9-3.5,16.8c0.6,2.9-2.7-17.5-2.4-20.7
					c0.3-3.2-2.9,0.6-3,4.7c-0.1,4,0,14.1,1.4,15.8c1.4,1.7-3.6,1.8-3.6,1.8s-2.9-18.5-3.5-21.5c0,0-3.2-10.4-3.8,0.8
					s3.5,21.5,4,23.4s-3.8,0.8-3.8,0.8l-4.7-36.3c0,0-4.7,11-5.2,13.2c-0.5,1.9-2.5,18.5-1.2,21.4c0,0-4.3-14.1-4.6-20.2
					c-0.3-6-1.5-11.8-2.8-8.5c-1.3,3.3-2.9,14.7-2.5,16.6c0,0-1.5-11.8-1.4-15.8c0.1-3.5-2.9,0.8-3.4,2.7
					c-0.6,2.1-1.6,11.6-1.9,14.5c-0.3,3.1,0,14.1,0.8,17.9c0.8,3.8,1.3,10.8,1.3,10.8l-4.8,1l2.3-3.5c0,0-4.2-15.2-4.3-20.3
					c-0.1-5,0.3-22.3,0.8-24.4c2.4-8.8,5.4-12.3,3.9-9.9c-1.5,2.3-4.9,10.1-5.2,13.2c-0.3,3.1-0.6,25.3-1,28.4
					c-0.4,3.5-0.8,10.2-7.2,13.6c-6.4,3.4-6.3,3.4-8.2,3.8c0,0,6.5-3.8,7.6-6.8c1.3-3.3,3.4-7.9,2.5-16.6
					c-0.4-4.2,0.2-12.9,0.5-21.3c0.1-4,0.2-8.3,0.6-11.2c0.6-4.2-3.2,3.7-4.6,16.1c-1.4,12.4,0.7,12.9-0.9,19.3
					c-1.7,6.4-4.3,8.1-7.2,8.6c-2.9,0.6-9.8,1.1-10,0.1c0,0,9.6-2,10.9-5.3c1.2-2.9,1.3-3.3,3.3-12.8c0,0,0.6-11.2,1.4-12.4
					c0.8-1.2,1-9.3,1.4-12.4c0.3-3.1-1.6-2.7,1.3-3.3l-0.9,5.2c0,0-1.1,8.2-2.7,15.7c-0.5,2.2-0.3,4.2-0.7,6.2
					c-0.6,2.9-1.7,6.4-2.4,7.6c0,0-3.6,6.9-11.1,4.4c-7.9-2.5-8.7-3.2-12.4-6.4c0,0,8.9,4.1,13.9,4.1c5,0,5.3-4.5,6.5-7.5
					c1.3-3.3,0.4-12.2-0.2-15c-0.6-2.9,1-15.7,2.8-19.8c2.1-4.5,8.7-10.9,12.9-14.8c0,0,16.8-10.6,26.8-10.8c0,0,25-0.3,29.7,2.7
					c0,0,32.4,20.3,32.8,22.3"/>
				<path d="M13.9,853.5l3-1.8l-4.8,1l-5.6-2.8l5.6-2.2c0,0-7.3-1.5-8.9,0.9c-1.6,2.4-2.3-1.5-2.3-1.5l6.8-3.3l0.5-0.2
					c0,0-4.3-0.7-6.9,1.2c-2.5,1.9-4.9,0.3-4.9,0.3l7.6-6.8c0,0-9.2,4-10,5.1c-0.8,1.2-3.5-2.3-3.5-2.3l9.1-9c0,0-14.6,7.2-14.4,8.2
					c0.2,1-3.9-4.2-3.9-4.2s12.4-7.8,12.2-8.6c-0.2-1-15.5,7.4-15.5,7.4l-3.3-1.3c0,0,16.4-12.5,16.2-13.5
					c-0.2-1-25.5,12.5-25.5,12.5l-2.1-0.5c0,0,20.8-15.5,22.5-16.9c1.7-1.4-29.2,4.2-33.4,8.2c-4.2,3.9-4,4.9-4,4.9s0.1-4,4.5-7.1
					c4.4-3,30.7-12.6,30.7-12.6s2.7-1.6-0.4-1.9s-40.4,3.6-42.1,5c0,0,37.1-9.9,39.2-9.4c0,0-46.2-14.3-50.6-11.3l40.7,2.4
					l-47.2-14.1l36.5,6.3l-22.8-8.3l14.5,1.9c0,0-39.7-16.7-45.5-15.5c0,0,8.8-0.9,13.1,0.2c4.3,1.1,48.9,12.7,54.5,15.5
					c5.6,2.8,25.7,12.7,28.2,15.1c2.5,2.4,24.6,21.1,26.3,24.7c1.7,3.6,12.7,26.5,13.7,31.3s2.3,1.7,2.3,1.7l-8.6-31.4l-9.7-36.3
					l18.8,50.4l1.4,1.7L30,743l14.4,58.5l7-28.6l-0.8,43.4l2.6-20.8L50,846.6c0,0-1.1,4.3,0.4,1.9c1.5-2.3,2.7-15.7,2.7-15.7
					s3.9-24.1,5.5-26.3c1.5-2.3,1.7-6.4,5-14.1c3.4-7.9,34.7-44.6,36.4-46.1c1.7-1.5,8.4-7.9,12-9.6l-31.7,40.1l23.2-23.1
					l-25.2,32.6l20.2-18.4l-21.4,26.7l22.2-13.8l-23.6,21.2l22.5-2.8l-20.7,6.4l15.4,1.7l-14.6,2.1l14.5,7.1l-13.5-2.2l13.4,6.2
					l-0.6,2.1L79.3,819l11.3,5.7l-2.5,2.5l-11.6-2.6l10.8,3.7l12.9-14.8c0,0,18.4-22.1,33-29.2c0,0,16.2-13.5,33.3-18.2
					c0,0,32.8-11,58.4-13.5l10.2,0.8l-22.1,4.7l-34.9,10.5l-6.3,3.4l49-10.4l-47.8,16.6l36.5-7.9L168.4,784l32.7-2l-38.6,7.3
					l27.7,12.2l-31.7-7.4l17.6,16.4l-22.5-11.3l12.8,22.5l-14.5-16l15.6,30.9L146.2,812l11.3,24.9l-17-18.5l11.1,23.9l-15.6-16.8
					l11,18.8l-16-13.7l8.7,17.3l-15.2-14.9l9.5,16.1l-16-13.7l6,15.3l-11.6-13.1l5.8,17.9l-8-4.3l1.2,5.8l-4.9,5.1l-5.5-7l2.8,8.5
					l-10.2-6.1l5.5,7l-38.7,30.4l-41,0.7"/>
			</g>
			<g>
				<path d="M1408.7,1374.1l81.1-2.8c0,0-7.8-11-6.4-18.1c1.4-7.2,32.7-41.4,32.7-41.4s55.8-48.6,58.3-49.9
					c2.8-1.4,56.9-44.1,56.9-44.1s52.8-45.9,54.1-48.5c1.4-2.8,59.7-62.7,62.6-69.8v-20c0,0-4.3,7.2-11.4,14.2
					c-8.6,8.6-21.1,19.8-22.8,21.4c-1,1-21.3,20-21.3,20l-14.3,13l-19.9,17.1l-45.5,37.1l-46.9,31.3l-55.7,41l-75,63.8
					c-0.3,0.2-0.5,0.4-0.7,0.7L1408.7,1374.1z"/>
				<path d="M1747.9,1099.6c0,0,27-32.8,28.4-37.1c1.4-4.3,15.8-30.2,19.9-44.1c4.3-14.2,5.7-18.5,7.1-24.3
					c1.4-5.7,2.8-22.9,2.8-22.9l-10-1.4l-2,11.1l-3.4,18.5c-0.2,1.1-0.5,2.2-0.9,3.3l-4,10.8l-5.4,14.6l-7.1,14.2l-5.7,12.8
					c-0.3,0.6-1.6,3-1.8,3.3l-8.1,9.5l-10,11.4L1747.9,1099.6"/>
				<path d="M1762.2,1129.5c10-49.9,2.8-118.3,2.8-115.4c0,2.8,8.5,31.3,8.5,31.3l4.3-4.3v-7.2c0,0-8.5-42.7-5.7-32.8
					c2.8,10,8.5,25.6,8.5,24.3s2.8-37.1,2.8-37.1l-7.1-8.5c0,0,9.3,13.8,10,15.7c1.4,4.3,0-20,1.4-18.5c1.4,1.4,1.4,17.1,1.4,17.1
					l3.3-3.5l3.8-20.8v-34.4c-10-5.7-22.8,12.8-21.3,12.8l5.7-1.4c-4.3-2.8-24.2,29.9-24.2,29.9c2.8-2.8,14.2-7.2,14.2-7.2v1.4
					c-4.3-2.8-21.3,32.8-21.3,32.8c1.4-1.4,14.2-15.7,14.2-15.7c-14.2,11.4-25.6,94-25.6,94l10-24.3l-2.8,15.7l-0.2,10.1l4.5-6.1
					l4.2-15.4l-1.4,95.4c0,0,4.3-17.1,4.3-21.4c0-4.2,0,15.7,0,15.7"/>
				<path d="M1829.1,945.7c0,0,0,0-1.4,2.8c-1.4,2.8,0,4.3,0,4.3s10,10,11.4,7.2c1.4-2.8-2.8-24.3-2.8-24.3s3.5,0.5,8.7,1.5
					c9.3,1.6,23.9,4.3,33.9,7.2c15.7,4.3,37,29.9,37,29.9l-22.8-8.5c17.1,5.7,45.5,32.8,45.5,32.8c-7.1-5.7-35.6-15.7-35.6-15.7
					c8.5,1.4,51.2,39.9,51.2,39.9c-5.7-4.3-18.5-11.4-18.5-11.4c4.3,2.8,25.6,35.7,25.6,35.7l-14.2-12.8
					c5.7,1.4,14.2,37.1,14.2,37.1s-10.6-20.6-12.8-22.9c-2.8-2.8-17.1-14.2-14.2-14.2s4.3,31.3,4.3,38.5s-19.9,39.9-19.9,39.9
					c1.4-2.8,4.3-47,4.3-47c0,2.8-11.4,25.6-11.4,25.6l-1.4-24.3c0-2.8-4.3-27-4.3-24.3c0,2.8-8.5,17.1-8.5,17.1
					c1.4-2.8,0-18.5,0-22.9s-2.8-28.5-2.8-25.6c0,2.8-11.4,27-11.4,27s1.4-17.1,1.4-21.4c0-4.2-1.4-20-1.4-20s-4.3,4.3-5.7,7.2
					c-1.4,2.8-7.1,12.8-7.1,12.8c0-1.4,1.4-11.4,1.4-11.4c0-2.8-5.7-31.3-4.3-28.5c0.1,0.2,0.1,0.6,0,1
					c-1.1,4.4-14.2,17.5-14.2,17.5l-4.3-22.9l-10-2.8c1.2,0,10.1,12,14.2,15.9c0.6,0.6,1.1,1,1.4,1.1c2.8,1.4,8.5,18.5,8.5,18.5
					c-1.4-1.4-4.3-4.3-5.7-7.2c-1.4-2.8-17.1-12.8-17.1-12.8c2.8,0,21.3,22.9,21.3,22.9c4.3,1.4,7.1,15.7,7.1,15.7
					c-1.4-2.8-18.5-11.4-18.5-11.4c5.7,0,21.3,21.4,21.3,21.4c5.7,1.4,8.5,25.6,11.4,48.5c2.9,22.9-8.5,54.2-8.5,54.2
					c2.8-2.8,0-44.1,0-44.1l-1.4,4.3c-4.3,15.7-5.7,49.9-7.1,55.6c-1.4,5.7,2.8,27,2.8,27c-5.7-4.3-5.7-14.2-8.5-18.5
					s0-22.9-1.4-24.3c-1.4-1.4,4.3-27,4.3-29.9c0-2.9,2.8-27,2.8-27c1.4-8.5-14.2-27-14.2-27s-1.4-2.8,1.4,0
					c2.8,2.8,1.4,29.9,1.4,34.2c0,4.2-15.7,27-15.7,27c0,2.8,1.4-31.3,1.4-31.3c1.4,4.3-25.6-108.3-25.6-105.5
					c0,2.8-7.1,18.5-7.1,18.5l1.4-31.3l-2.8,7.2"/>
				<path d="M1846.2,931.5l-1.4,5.7l11.4-11.4l-0.5,13.4l7.6-14.8c0,0,2.8,10,2.8,14.2l1.4,7.2c0,0,7.1-18.5,7.1-21.4
					s5.7,20,5.7,22.9c0,2.8,4.3-24.3,4.3-27c0-2.8,6.4,24.9,6.1,30.2c-0.4,5.4,3.9-30.2,2.5-33.1c-1.4-2.8,10,39.9,10.2,43.6
					c0.2,3.7,6.9-39.4,5.5-46.6c-1.4-7.2,4.3,21.4,4.3,27c0,5.7,4.3-27,4.3-29.9s5.7,42.5,5.7,49.9c0,7.2,5.7-42.7,5.7-47
					c0-4.2-1.4,54.1-1.4,57c0,4,17.1-49.9,14.2-59.8c0,0,2.8,12.8,4.3,27c0,0,5.7-22.9,5.7-29.9s5.7,45.5,5.7,52.7
					c0,5.7,7.1-44.1,5.7-51.3c-1.4-7.2,8.5,31.3,8.5,41.4s5.7-35.7,2.8-44.1c-2.8-8.5,5.7,20,7.1,32.8c1.4,12.8,4.3-24.3,2.8-29.9
					c-1.5-5.7,5.7,17.1,5.7,27s2.8-20,1.4-27c-1.4-7.2,7.1,24.3,7.1,29.9c0,5.7,4.3-17.1,4.3-24.3s8.5,7.2,11.4,17.1
					c0,0,2.8-17.1-1.4-24.3c0,0,9.4,9.4,11.3,19.1c0.1,0.3,0.1,0.5,0.1,0.8c1.4,10,1.4-20-1.4-22.9c0,0,15.7,28.5,15.7,32.8
					c0,0-5.7-32.8-10-35.7c0,0,27.5,27.5,30.9,34.6c0.2,0.5,0.2,0.9,0.4,1.1c2.8,4.3-17.1-39.9-21.3-41.4c0,0,48.4,29.9,52.6,32.8
					c0,0-34.1-31.3-39.8-34.2c0,0,49.8,21.4,56.9,27c0,0-35.6-28.5-41.3-29.9l59.7,29.9c0,0-44.1-29.9-48.4-32.8l65.4,32.8
					c0,0-58.3-42.7-74-48.5c-15.2-5.5-58.3-11.4-72.5-11.4c-14.2,0-68.3,5.7-78.2,8.5c-9.2,2.6-66.8,31.3-72.5,34.2
					c-5.7,2.8-12.8,34.2-12.8,34.2"/>
				<path d="M1796.4,935.6c0,0-1.4-5.7-2.8-5.7s-1.3,4.6-1.3,4.6l-4.1,0.9l-0.3-4l-2.7,5.7l-3.8,2.9c0,0-0.6-14.3-2-14.3
					s-2.8,31.3-2.8,31.3l-5.7,4.3c0,0-1.4-28.5,0-32.8c1.4-4.3-8.5,39.9-7.1,42.7c0,0,0-38.5,2.8-45.6c0,0-14.2,54-14.2,54.1
					c0,0,4.3-44.1,2.8-47c0,0-7.1,27-8.5,38.5c0,0,2.8-35.7,1.4-38.5c0,0-8.5,54.1-10,57c0,0,0-34.2-1.4-35.7c0,0-5.7,49.9-4.3,51.3
					c0,0-8.5-61.3-5.7-64.1c0,0-5.7,38.5-5.7,44.1c0,0-4.3-34.2-2.8-38.5c0,0-5.7,57-4.3,59.8c0,0-8.5-51.3-7.1-58.5
					c0,0,0,57,1.4,59.8c0,0-17.1-59.8-14.2-72.7c0,0,8.5,68.4,8.3,75.1c0,0.3,0.2,0.4,0.2,0.5c0,2.8-19.9-71.2-18.5-74.2
					c0,0,12.8,65.5,14.2,68.4c0,0-17.1-48.5-19.9-64.1c0,0,11.4,65.5,12.8,68.4c0,0-14.2-35.7-15.7-41.4c-1.4-5.7-7.1-25.6-7.1-28.5
					c0,0,8.5,55.6,10,58.5c1.4,2.8,5.7,18.5,7.1,22.9c0,0-14.2-28.5-17.1-34.2c-2.9-5.6-12.8-42.7-12.8-42.7s12.8,66.9,12.8,75.6
					c0,0-17.1-61.3-22.8-62.7c0,0,1.4,59.8,2.8,65.5c0,0-11.4-55.6-14.2-55.6c0,0-5.7,69.8-4.3,76.9c0,0-12.8-51.3-11.4-57
					c0,0-12.8,69.9-12.8,61.3c0-1.4-2.8-51.3-1.4-54.1c0,0-8.5,27-7.1,31.3c0,0-2.8-20-1.4-29.9c1.4-10,7.1-41.4,12.8-48.5
					c0,0,21.3-31.3,28.4-37.1c7.1-5.8,19.9-20,32.7-24.3c12.8-4.3,46.7-7.2,51.2-7.2c4.3,0,33.9,2.1,44.1,8.5
					c11.4,7.2,19.9,10,22.8,12.8c0.2,0.2,0,0,1.8,0.8c10,4.6,55.7,5.5,55.7,5.5l-2,59.2l-47.7,8.7l-3.5-48.6"/>
				<path d="M1786.1,898.6c0,0,6-12.8,4.6-14.2s-9.2,12.3-9.2,12.3l-6.5,0.5c0,0,11.4-10,8.5-11.4c-2.8-1.4-14.2,7.2-14.2,7.2
					l-5.7-2.8c0,0,7.1-12.8,7.1-15.7s-12.8,14.2-12.8,14.2l-12.8-2.8c0,0,8.5-29.9,5.7-32.8s-7.1,17.1-7.1,17.1l-1.4-14.2
					c0,0-14.2,27-10,32.8c4.3,5.7-8.5,4.3-8.5,4.3s1.4-28.5,5.7-29.9c0,0-10,18.5-10,22.9c0,4.4,1.4-25.6,2.8-29.9
					c1.4-4.3-4.3,0-5.7,5.7c-1.4,5.7-4.3,20-2.8,22.9c1.4,2.8-5.7,1.4-5.7,1.4s1.4-27,1.4-31.3c0,0-1.4-15.7-5.7,0
					c-4.3,15.7-1.4,31.3-1.4,34.2s-5.7,0-5.7,0l4.3-52.7c0,0-10,14.2-11.4,17.1c-1.3,2.5-9.2,25.5-8.1,29.8c0,0-1.8-21.4-0.4-29.8
					c1.4-8.4,1.4-17.1-1.4-12.8c-2.8,4.3-8.5,20-8.5,22.9c0,0,1.4-17.1,2.8-22.9c1.2-5-4.4,0.3-5.7,2.8c-1.4,2.8-5.8,15.9-7.1,20
					c-1.4,4.3-4.3,20-4.3,25.6c0,5.7-1.4,15.7-1.4,15.7h-7.1l4.3-4.3c0,0-1.4-22.9,0-29.9c1.4-7.2,7.1-31.3,8.5-34.2
					c6-11.8,11.4-15.7,8.5-12.8c-2.8,2.9-10,12.8-11.4,17.1s-8.5,35.7-10,39.9c-1.6,4.9-4.3,14.2-14.2,17.1c-10,2.8-10,2.8-12.8,2.8
					c0,0,10.3-3.4,12.8-7.2c2.8-4.3,7.1-10,8.5-22.9c0.7-6.1,4.2-18.2,7.1-29.9c1.4-5.7,2.8-11.5,4.3-15.7
					c2.1-5.7-5.7,4.3-11.4,21.4c-5.7,17.1-2.8,18.5-7.1,27s-8.5,10-12.8,10s-14.2-1.4-14.2-2.8c0,0,14.2,0,17.1-4.3
					c2.5-3.7,2.8-4.3,8.5-17.1c0,0,4.3-15.7,5.7-17.1c1.4-1.4,4.3-12.8,5.7-17.1c1.4-4.3-1.4-4.3,2.8-4.3l-2.8,7.2
					c0,0-4,11.1-8.5,21.4c-1.3,3-1.7,5.8-2.8,8.5c-1.7,4-4.3,8.5-5.7,10c0,0-7.1,8.5-17.1,2.8c-10.5-6-11.4-7.2-15.7-12.8
					c0,0,11.4,8.5,18.5,10c7.1,1.4,8.9-4.8,11.4-8.5c2.8-4.3,4.3-17.1,4.3-21.4s6.1-22,10-27c4.3-5.7,15.7-12.8,22.8-17.1
					c0,0,27-10,41.3-7.2c0,0,35.6,7.2,41.3,12.8c0,0,39.8,38.5,39.8,41.4"/>
				<path d="M1784.4,839.1l4.9-1.7h-7.1l-7.1-5.7l8.5-1.4c0,0-10-4.3-12.8-1.4c-2.8,2.8-2.8-2.8-2.8-2.8l10.7-2.7l0.7-0.2
					c0,0-5.9-2.3-10.1-0.4c-4.2,1.9-7-1-7-1l12.8-7.2c0,0-14.2,2.8-15.7,4.3c-1.4,1.4-4.3-4.3-4.3-4.3l15.7-10
					c0,0-22.8,5.7-22.8,7.2c0,1.4-4.3-7.2-4.3-7.2s19.9-7.2,19.9-8.5s-24.2,5.7-24.2,5.7l-4.3-2.8c0,0,27-12.8,27-14.2
					s-39.8,10-39.8,10l-2.8-1.4c0,0,34.1-15.7,37-17.1s-42.7-2.8-49.8,1.4c-7.1,4.3-7.1,5.7-7.1,5.7s1.4-5.7,8.5-8.5
					c7.1-2.8,46.9-8.5,46.9-8.5s4.3-1.4,0-2.8c-4.3-1.4-58.3-7.2-61.2-5.7c0,0,55.5-2.8,58.3-1.4c0,0-61.2-34.2-68.3-31.3l56.9,15.7
					l-62.6-34.2l49.8,20l-29.9-18.5l19.9,7.2c0,0-51.2-35.7-59.7-35.7c0,0,12.8,1.4,18.5,4.3c5.7,2.8,65.4,32.8,72.5,38.5
					c7.1,5.7,32.7,25.6,35.6,29.9c2.9,4.3,28.4,37.1,29.9,42.7c1.5,5.7,10,41.4,10,48.5c0,7.2,2.8,2.8,2.8,2.8l-2.8-47l-2.8-54.1
					l11.4,76.9l1.4,2.8l5.7-136.8l2.8,87l18.5-38.5l-14.2,61.3l10-28.5l-19.9,71.2c0,0-2.8,5.7,0,2.8c2.8-2.8,8.5-21.4,8.5-21.4
					s12.8-32.8,15.7-35.7c2.8-2.8,4.3-8.5,11.4-18.5c7.1-10,62.6-52.7,65.4-54.1c2.8-1.4,14.2-8.5,19.9-10l-56.9,47l39.8-25.6
					l-45.5,38.5l34.1-20l-38.4,31.3l35.6-12.8l-39.8,22.9l32.7,2.8l-31.3,2.8l21.3,7.2l-21.3-1.4l18.5,14.2l-18.5-7.2l17.1,12.8
					l-1.4,2.8l-17.1-8.5l14.2,11.4l-4.3,2.8l-15.7-7.2l14.2,8.5l22.8-17.1c0,0,32.7-25.6,55.5-31.3c0,0,27-14.2,52.6-15.7
					c0,0,49.8-5.7,86.8-1.4l14.2,4.3h-32.7l-52.6,4.3l-10,2.8h72.5l-72.5,8.5h54.1l-62.6,7.2l46.9,7.2l-56.9-1.4l35.6,25.6l-42.7-20
					l19.9,28.5l-28.4-22.9l11.4,35.7l-15.7-27l12.8,48.5l-22.8-41.4l8.5,38.5l-18.5-31.3l8.5,37.1l-17.1-28.5l10,29.9l-18.5-24.3
					l7.1,27l-17.1-25.6l8.5,25.6l-18.5-24.3l3.9,23.5l-12.5-22.1l2.8,27l-10-8.5v8.5l-8.5,5.7l-5.7-11.4l1.4,12.8l-12.8-11.4
					l5.7,11.4l-64,31.3l-58.3-11.4"/>
			</g>
			<g>
				<g class="st4">
					<rect x="-0.1" y="148.9" class="st3" width="1920.3" height="16"/>
					<rect x="-0.1" y="126.8" class="st3" width="1920.3" height="16"/>
					<rect x="-0.1" y="103.9" class="st3" width="1920.3" height="16"/>
					<rect x="-0.1" y="171" class="st3" width="1920.3" height="16"/>
					<rect x="-0.1" y="-4.4" class="st3" width="1920.3" height="16"/>
					<rect x="-0.1" y="474.5" class="st3" width="1920.3" height="16"/>
					<rect x="-0.1" y="628.8" class="st3" width="1920.3" height="16"/>
					<rect x="-0.1" y="605.7" class="st3" width="1920.3" height="16"/>
					<rect x="-0.1" y="583.6" class="st3" width="1920.3" height="16"/>
					<rect x="-0.1" y="562.7" class="st3" width="1920.3" height="16"/>
					<rect x="-0.1" y="540.6" class="st3" width="1920.3" height="16"/>
					<rect x="-0.1" y="518.5" class="st3" width="1920.3" height="16"/>
					<rect x="-0.1" y="496.5" class="st3" width="1920.3" height="16"/>
					<rect x="-0.1" y="454.5" class="st3" width="1920.3" height="16"/>
					<rect x="-0.1" y="409.4" class="st3" width="1920.3" height="16"/>
					<rect x="-0.1" y="432.4" class="st3" width="1920.3" height="16"/>
					<rect x="-0.1" y="388.3" class="st3" width="1920.3" height="16"/>
					<rect x="0.4" y="367" class="st3" width="1920.3" height="16"/>
					<rect x="-0.1" y="344.3" class="st3" width="1920.3" height="16"/>
					<rect x="-0.1" y="322.2" class="st3" width="1920.3" height="16"/>
					<rect x="-0.1" y="301.2" class="st3" width="1920.3" height="16"/>
					<rect x="-0.1" y="278.1" class="st3" width="1920.3" height="16"/>
					<rect x="-0.1" y="257.1" class="st3" width="1920.3" height="16"/>
					<rect x="-0.1" y="236.1" class="st3" width="1920.3" height="16"/>
					<rect x="-0.1" y="214" class="st3" width="1920.3" height="16"/>
					<rect x="-0.1" y="193" class="st3" width="1920.3" height="16"/>
					<rect x="-0.1" y="81.8" class="st3" width="1920.3" height="16"/>
					<rect x="-0.1" y="60.7" class="st3" width="1920.3" height="16"/>
					<rect x="-0.1" y="38.7" class="st3" width="1920.3" height="16"/>
					<rect x="-0.1" y="16.7" class="st3" width="1920.3" height="16"/>
				</g>
				<g class="st4">
					<rect x="-0.4" y="805.4" class="st3" width="1920.3" height="16"/>
					<polyline class="st3" points="-0.4,788.6 -0.4,783.3 1919.9,783.3 1919.9,799.3 -0.4,799.3 -0.4,788.6 					"/>
					<rect x="-0.4" y="760.3" class="st3" width="1920.3" height="16"/>
					<rect x="-0.4" y="827.4" class="st3" width="1920.3" height="16"/>
					<rect x="-0.4" y="652.1" class="st3" width="1920.3" height="16"/>
					<rect x="-0.4" y="1131" class="st3" width="1920.3" height="16"/>
					<rect x="-0.4" y="1285.3" class="st3" width="1920.3" height="16"/>
					<rect x="-0.4" y="1262.2" class="st3" width="1920.3" height="16"/>
					<rect x="-0.4" y="1240.1" class="st3" width="1920.3" height="16"/>
					<rect x="-0.4" y="1219" class="st3" width="1920.3" height="16"/>
					<rect x="-0.4" y="1197.1" class="st3" width="1920.3" height="16"/>
					<rect x="-0.4" y="1175" class="st3" width="1920.3" height="16"/>
					<rect x="-0.4" y="1152.9" class="st3" width="1920.3" height="16"/>
					<rect x="-0.4" y="1110.9" class="st3" width="1920.3" height="16"/>
					<rect x="-0.4" y="1065.9" class="st3" width="1920.3" height="16"/>
					<rect x="-0.4" y="1088.8" class="st3" width="1920.3" height="16"/>
					<polyline class="st3" points="-0.4,1055 -0.4,1044.8 1919.9,1044.8 1919.9,1060.8 -0.4,1060.8 -0.4,1055 					"/>
					<rect x="0.1" y="1023.3" class="st3" width="1920.3" height="16"/>
					<rect x="-0.4" y="1000.7" class="st3" width="1920.3" height="16"/>
					<rect x="-0.4" y="978.7" class="st3" width="1920.3" height="16"/>
					<rect x="-0.4" y="957.6" class="st3" width="1920.3" height="16"/>
					<rect x="-0.4" y="934.6" class="st3" width="1920.3" height="16"/>
					<rect x="-0.4" y="913.6" class="st3" width="1920.3" height="16"/>
					<rect x="-0.4" y="892.5" class="st3" width="1920.3" height="16"/>
					<rect x="-0.4" y="870.5" class="st3" width="1920.3" height="16"/>
					<rect x="-0.4" y="849.4" class="st3" width="1920.3" height="16"/>
					<rect x="-0.4" y="738.2" class="st3" width="1920.3" height="16"/>
					<rect x="-0.4" y="717.2" class="st3" width="1920.3" height="16"/>
					<rect x="-0.4" y="695.2" class="st3" width="1920.3" height="16"/>
					<rect x="-0.4" y="673.1" class="st3" width="1920.3" height="16"/>
				</g>
			</g>
			<g>
				<path d="M877.5,979.7l1.8,5l-11.2-9.3l1.5,12l-8-12.7c0,0-1.7,9.2-1.4,13l-0.7,6.6c0,0-7.9-16-8.2-18.6
					c-0.3-2.6-3.4,18.4-3.2,21s-5.9-21.5-6.1-24c-0.2-2.5-3.7,22.9-2.9,27.6s-6-26.8-5-29.5s-5.6,36.7-5.5,40.1
					c0.1,3.3-9.5-34.9-8.8-41.4c0.7-6.6-2,19.6-1.6,24.7c0.4,5.1-6.1-24-6.3-26.5c-0.2-2.5-1.5,38.8-0.9,45.2
					c0.6,6.4-8.7-37.9-9-41.8s5.8,48.5,6.1,51.1c0.3,3.6-19.5-43.3-17.8-52.6c0,0-1.5,11.7-1.6,24.7c0,0-7-20.1-7.6-26.3
					c-0.6-6.4-1.3,41.3-0.7,47.8c0.5,5.1-10.1-39.1-9.4-45.6c0.7-6.6-5,28.8-4.2,37.9s-8.1-31.5-6.3-39.5c1.8-8-3.4,18.4-3.6,30
					c-0.2,11.6-5.9-21.5-5.1-26.6c0.8-5.2-3.7,15.8-2.8,24.9c0.8,8.9-4.2-17.7-3.5-24.3s-4.4,22.4-3.9,27.4s-5.3-15-5.9-21.5
					c-0.6-6.4-7.1,7.2-8.8,16.3c0,0-4-15.1-0.8-21.9c0,0-7.7,9.3-8.5,18.1c0,0.2,0,0.5,0,0.7c-0.4,9.1-3-17.8-0.6-20.7
					c0,0-11.7,26.9-11.3,30.7c0,0,2.4-29.9,6-32.9c0,0-22.4,27-24.9,33.6c-0.2,0.4-0.1,0.8-0.2,1c-2.2,4.1,12-37.3,15.7-38.9
					c0,0-40.9,30.9-44.5,33.9c0,0,28-31,32.9-34.1c0,0-42.9,23.4-48.8,29c0,0,29.5-28.5,34.5-30.3L625,995.3
					c0,0,37.1-30.5,40.7-33.5l-56,35c0,0,48.8-43.2,62.4-49.8c13.2-6.3,51.4-15.1,64.2-16.3c12.8-1.2,61.8-0.6,71,1.1
					c8.5,1.6,62.7,22.6,68,24.7c5.3,2.1,14.4,29.6,14.4,29.6"/>
				<path d="M883.7,998.8l3.1,4.3l-13.4-5.6l5,11l-11.4-9.7c0,0,1,9.3,2.5,12.8l1.3,6.4c0,0-12.3-13-13.3-15.3
					c-1-2.4,2.1,18.6,3.1,21s-11.9-18.7-12.8-21.2c-0.9-2.4,3.2,23,5.3,27.3c2.1,4.4-13.6-23.9-13.4-26.7s5.4,36.7,6.5,40
					c1.1,3.2-19.3-30.4-20.5-37c-1.2-6.6,3.8,19.3,5.7,24.1c2,4.7-12.8-21.2-13.8-23.5c-1-2.4,9.9,37.5,12.4,43.5
					c2.5,5.9-19.4-33.7-20.9-37.3s19.8,44.6,20.8,47.1c1.4,3.3-31.3-35.8-32.4-44.9c0,0,2,11.6,5.7,24.1c0,0-12.6-17-15-23.1
					c-2.4-6,10.9,39.9,13.3,45.9c2,4.7-21.1-34.4-22.3-40.9c-1.3-6.4,3.6,29,7.1,37.4c3.4,8.4-17-27.7-17.5-35.9
					c-0.6-8.2,2.1,18.6,5.3,29.7s-11.9-18.7-12.6-24c-0.8-5.2,1.1,16.2,4.5,24.6c3.4,8.4-9.2-15.6-10.5-22.2
					c-1.3-6.4,2.4,22.7,4.3,27.3c1.9,4.7-9.4-12.8-11.9-18.7s-4.7,8.9-3.6,18.2c0,0-8.2-13.3-7.1-20.8c0,0-4.6,11.1-2.8,19.9
					c0,0.2,0.1,0.5,0.2,0.7c2.2,8.8-8-16.1-6.6-19.6c0,0-3.3,29.1-1.8,32.8c0,0-6.5-29.2-3.9-33.2c0,0-13.5,32.5-14,39.5
					c0,0.5,0.1,0.8,0.1,1c-0.9,4.5,0.5-39.2,3.6-41.8c0,0-30.1,41.6-32.6,45.5c0,0,17.7-37.9,21.5-42.2c0,0-34.2,35-38.2,42.1
					c0,0,19.9-36,24.1-39.2l-39.5,45.5c0,0,26.5-40.2,29.1-43.9l-43.3,49.9c0,0,34-55.7,45-65.9c10.8-9.9,44.7-29.5,56.6-34.5
					c11.9-5,58.9-18.7,68.2-19.9c8.5-1,66.5,3.1,72.2,3.5c5.7,0.4,22.4,24.2,22.4,24.2"/>
				<path d="M922.6,979.3c0,0,0.8-5.2,2.1-5.3s1.5,4,1.5,4l3.8,0.4v-3.7l2.9,4.9l3.6,2.3c0,0-0.6-12.9,0.6-13
					c1.2-0.1,5.2,27.9,5.2,27.9l5.5,3.3c0,0-1.1-25.7-2.8-29.4c-1.7-3.7,11,35.1,10,37.8c0,0-3.2-34.6-6.4-40.7
					c0,0,17.2,47.4,17.3,47.4c0,0-7.5-39.3-6.5-42c0,0,8.7,23.8,10.9,33.9c0,0-5.5-31.7-4.5-34.5c0,0,12.2,47.9,13.7,50.4
					c0,0-2.9-30.7-1.7-32.1c0,0,9.3,44.2,8.1,45.7c0,0,2.5-55.8-0.3-58.1c0,0,8.3,34.1,8.8,39.2c0,0,1-31-0.7-34.8
					c0,0,9.9,50.7,8.8,53.4c0,0,3.4-46.8,1.5-53.1c0,0,4.8,51.2,3.7,53.9c0,0,10.3-55.2,6.7-66.4c0,0-1.9,62.1-1.2,68
					c0,0.3-0.1,0.4-0.1,0.5c0.2,2.6,11.9-65.6,10.4-68.1c0,0-6,59.9-7,62.6c0,0,11.3-44.9,12.5-59.3c0,0-4.7,59.8-5.8,62.5
					c0,0,9.8-33.2,10.6-38.5c0.8-5.2,4.2-23.7,4-26.2c0,0-3,50.6-4,53.3c-1,2.7-3.6,17.1-4.5,21.1c0,0,10.4-26.7,12.5-32.1
					c2.1-5.3,7.9-39.5,7.9-39.5s-5.9,61.2-5.2,68.9c0,0,10.2-56.5,15.2-58.2c0,0,3.7,53.9,2.9,59.1c0,0,5.6-50.9,8.1-51.1
					c0,0,11,62.2,10.3,68.7c0,0,7.2-47.2,5.4-52.1c0,0,17.4,61.7,16.6,54c-0.1-1.3-1.8-46.3-3.3-48.8c0,0,9.9,23.6,9,27.5
					c0,0,0.9-18.1-1.2-27c-2.1-8.9-9.8-36.6-15.6-42.4c0,0-21.8-26.3-28.7-30.8s-19.6-16.2-31.4-19c-11.9-2.8-42.5-2.5-46.6-2.1
					c-3.8,0.4-30.2,4.8-38.9,11.4c-9.6,7.4-17,10.6-19.4,13.4c-0.2,0.2,0,0-1.5,0.9c-8.6,5-49.6,9.6-49.6,9.6l6.8,53l43.6,3.8
					l-1-43.9"/>
				<path d="M929.9,998c0,0,3.7-3.8,4.8-3.2s-1.1,4.2-1.1,4.2l2.8,2.5l2.1-3l-0.4,5.7l1.6,4c0,0,6.9-10.9,8-10.3
					c1.1,0.6-11.8,25.8-11.8,25.8l2.5,5.9c0,0,13.9-21.7,14.7-25.6c0.8-4-11.2,35.1-13.6,36.7c0,0,17.3-30,18.2-37
					c0,0-13.2,48.6-13.2,48.8c0,0,16.5-36.5,18.9-38.1c0,0-6.6,24.4-10.6,34c0,0,13.8-29.1,16.2-30.7c0,0-17.6,46.2-17.8,49.1
					c0,0,15.3-26.7,17.1-27.2c0,0-17.9,41.6-19.7,42c0,0,34.2-44,33.2-47.6c0,0-12.8,32.7-15.4,37.1c0,0,18.7-24.9,19.5-28.8
					c0,0-21.1,47.2-23.5,48.7c0,0,29.7-36.3,31.8-42.4c0,0-25.6,44.5-28,46.2c0,0,40.2-39.2,43.7-50.4c0,0-37.4,49.7-40.2,54.9
					c-0.1,0.2-0.3,0.2-0.4,0.3c-1.3,2.2,47.5-46.8,47.7-49.6c0,0-39.4,45.5-41.8,47.1c0,0,35.1-30.2,44.3-41.2
					c0,0-38.3,46.2-40.7,47.7c0,0,27.1-21.5,30.8-25.2c3.7-3.8,17.1-16.8,18.3-19.1c0,0-31.6,39.7-34,41.2s-12.8,11.9-15.8,14.6
					c0,0,23.9-15.8,28.7-19c4.8-3.2,29.2-27.6,29.2-27.6s-40.1,46.6-43.9,53.3c0,0,40.8-40.3,45.9-38.8c0,0-28,46.2-31.6,50
					c0,0,33.8-38.4,36.1-37.1c0,0-26.9,57.2-31.2,62.1c0,0,33-34.4,34.5-39.5c0,0-21.4,60.4-17.5,53.7c0.6-1.1,25.2-38.9,25.4-41.7
					c0,0-5.5,25.1-8.5,27.7c0,0,11.2-14.3,14.5-22.8s13-35.6,11.7-43.6c0,0-2.6-34.2-5.6-41.8c-3-7.8-6.6-24.6-14.7-33.7
					c-8.1-9.1-33.3-26.6-36.8-28.6c-3.3-1.9-27.4-13.5-38.3-13.1c-12.1,0.5-20-1.2-23.5-0.2c-0.3,0.1,0,0-1.8-0.2
					c-9.9-0.9-46-20.9-46-20.9l-25,47.3l33.4,28.2l24.5-36.5"/>
				<path d="M928.7,945.2c0,0-6.5-11-5.3-12.4c1.2-1.4,9.3,10.3,9.3,10.3l5.9-0.1c0,0-11.1-8.1-8.6-9.5c2.4-1.5,13.4,5.2,13.4,5.2
					l4.9-3c0,0-7.5-10.9-7.7-13.5c-0.2-2.6,12.7,11.7,12.7,11.7l11.3-3.6c0,0-10.2-26.1-7.9-28.9c2.3-2.8,7.8,14.7,7.8,14.7
					l0.1-12.9c0,0,15,23.2,11.7,28.5c-3.3,5.4,8,3.1,8,3.1s-3.7-25.4-7.6-26.3c0,0,10.5,15.8,10.8,19.7c0.4,3.8-3.4-23-5.1-26.6
					c-1.6-3.7,3.8-0.4,5.6,4.6c1.8,5,5.5,17.5,4.5,20.3c-1,2.7,5.2,0.8,5.2,0.8s-3.5-24.3-3.9-28c0,0,0-14.2,5.1-0.5
					c5.2,13.7,3.9,28,4.1,30.5c0.2,2.5,5.1-0.5,5.1-0.5l-8.3-47c0,0,10.1,11.9,11.7,14.4c1.4,2.2,10.4,22.2,9.8,26.1
					c0,0-0.2-19.3-2.2-26.8s-2.7-15.2,0.2-11.6c2.9,3.6,9.3,17.2,9.6,19.8c0,0-2.7-15.2-4.5-20.3c-1.5-4.4,4-0.1,5.3,2.1
					c1.5,2.4,6.5,13.8,8.1,17.3c1.6,3.7,5.5,17.5,6,22.7c0.5,5.1,2.6,13.9,2.6,13.9l6.4-0.6l-4.2-3.5c0,0-0.6-20.7-2.5-26.8
					c-1.9-6.3-9-27.5-10.5-29.9c-6.4-10.1-11.6-13.2-8.7-10.8c2.8,2.3,10,10.7,11.7,14.4c1.7,3.7,10.7,31.2,12.3,35
					c1.9,4.2,5,12.4,14.2,14.1s9.2,1.7,11.7,1.5c0,0-9.5-2.2-12.1-5.3c-2.9-3.6-7.2-8.4-9.6-19.8c-1.1-5.4-5.3-16-8.9-26.2
					c-1.8-5-3.5-10.1-5.2-13.7c-2.3-5,5.5,3.3,12,18.2c6.5,14.9,4.1,16.4,8.7,23.8c4.6,7.4,8.5,8.3,12.3,8
					c3.8-0.3,12.7-2.5,12.5-3.8c0,0-12.8,1.2-15.7-2.4c-2.6-3.2-2.9-3.6-9.1-14.6c0,0-5.2-13.7-6.5-14.8c-1.4-1.2-4.9-11.1-6.5-14.8
					c-1.6-3.7,0.9-4-2.9-3.6l3.2,6.2c0,0,4.5,9.7,9.5,18.5c1.5,2.6,2,5.1,3.3,7.5c1.9,3.4,4.6,7.4,5.9,8.5c0,0,7.1,7.2,15.6,1.1
					c8.9-6.3,9.6-7.4,13-12.8c0,0-9.5,8.6-15.8,10.5c-6.3,1.9-8.4-3.6-10.9-6.8c-2.9-3.6-5.3-15-5.6-18.8
					c-0.3-3.8-7.4-19.2-11.2-23.5c-4.3-4.8-15.1-10.2-21.9-13.4c0,0-25.1-6.8-37.6-2.9c0,0-31.3,9.4-36,15c0,0-32.5,37.9-32.3,40.5"
					/>
				<path d="M925.2,891.6l-4.5-1.1l6.4-0.6l5.9-5.7l-7.8-0.6c0,0,8.6-4.7,11.4-2.3s2.3-2.8,2.3-2.8l-9.8-1.5l-0.7-0.1
					c0,0,5.1-2.6,9-1.2c3.9,1.4,6.2-1.5,6.2-1.5l-12.1-5.3c0,0,13,1.4,14.4,2.5c1.4,1.2,3.5-4.2,3.5-4.2l-14.9-7.7
					c0,0,20.9,3.2,21,4.5s3.2-6.9,3.2-6.9s-18.5-4.7-18.6-6c-0.1-1.3,22.2,3.1,22.2,3.1l3.6-2.9c0,0-25.3-9.2-25.5-10.5
					c-0.1-1.3,36.6,5.6,36.6,5.6l2.4-1.5c0,0-32-11.2-34.7-12.2s38.1-6.1,44.8-2.9c6.7,3.2,6.9,4.5,6.9,4.5s-1.8-5-8.4-7.1
					c-6.6-2-42.9-3.7-42.9-3.7s-4-0.9-0.2-2.5c3.7-1.6,51.8-11.3,54.5-10.3c0,0-50.1,2.1-52.5,3.6c0,0,52.1-35.9,58.7-33.9
					l-49.6,18.8l53.3-35.9l-43,22.2l25.3-19.1l-17.3,8.2c0,0,43-36.3,50.7-37.1c0,0-11.4,2.3-16.3,5.4c-4.9,3-56,35-61.9,40.7
					c-5.9,5.7-27.2,25.7-29.4,29.8c-2.2,4.1-22.4,35.7-23.2,40.9c-0.8,5.2-5.5,38-4.9,44.3c0.6,6.4-2.3,2.8-2.3,2.8l-1.4-42.4
					l-2-48.9l-3.8,70l-1,2.7l-16.6-122.3l4.7,78.3l-19.8-33.1l17.9,53.8l-11.3-24.8l23.9,62.3c0,0,3,4.9,0.2,2.5
					c-2.8-2.3-9.5-18.4-9.5-18.4s-14.2-28.3-17-30.6c-2.8-2.3-4.5-7.4-11.8-15.7c-7.3-8.4-60.6-42-63.3-43c-2.7-1-13.5-6.6-18.7-7.4
					l55,37.5l-37.9-19.8l44.1,30.7l-32.3-15l37.1,25l-33-8.5l37.7,17.1l-29.1,5.3l28.3-0.1l-18.6,8.3l19-3.1L812.4,876l16-8
					L814.1,881l1.5,2.4l14.6-9.1l-11.8,11.5l4.1,2.2l13.5-7.8l-12.1,8.9l-21.8-13.4c0,0-31.5-20.4-52.5-23.6c0,0-25.5-10.5-48.6-9.6
					c0,0-45.2-0.9-78,6l-12.4,5l29.4-2.8l47.6-0.6l9.2,1.7l-65.2,6.1l65.9,1.6l-48.5,4.5l56.8,1.1l-41.5,10.5l51-6.1l-29.8,26
					l36.7-21.6l-15.5,27.2l23.6-22.9l-7.2,33l11.8-25.6l-7.4,44.5l17-39.1l-4.4,35.3l14-29.7l-4.6,34l12.8-27l-6.4,27.7l14.6-23.4
					l-4.1,25l13.2-24.5l-5.5,23.8l14.6-23.4l-1.6,21.5l9.3-20.9l-0.3,24.6l8.2-8.5l0.7,7.8l8.1,4.4l4.2-10.7l-0.2,11.6l10.5-11.3
					l-4.2,10.7l60.1,22.8l51.4-15.1"/>
				<path d="M882.9,986.6c0,0,19.1,350.3,34.8,440.6c0,0,17.2,116.4,39.9,165.1l79-7.5c0,0-35.4,15.9-53.8-14
					c-18-29.1-36.6-143.4-46.6-179c-10.5-37.2-43.1-379.7-16.9-394.9"/>
			</g>
		</g>
	</g>
</g>
<path class="st5" d="M-16.7,110.1"/>
</svg>
