<?xml version="1.0" encoding="utf-8"?>
<!-- Generator: Adobe Illustrator 23.0.0, SVG Export Plug-In . SVG Version: 6.00 Build 0)  -->
<svg version="1.1" id="Camada_1" xmlns="http://www.w3.org/2000/svg" xmlns:xlink="http://www.w3.org/1999/xlink" x="0px" y="0px"
	 viewBox="0 0 560 560" style="enable-background:new 0 0 560 560;" xml:space="preserve">
<style type="text/css">
	.st0{opacity:0.55;fill:none;stroke:url(#SVGID_1_);stroke-width:4;stroke-miterlimit:10;enable-background:new    ;}
	.st1{opacity:0.45;fill:none;stroke:url(#SVGID_2_);stroke-width:4;stroke-miterlimit:10;enable-background:new    ;}
	.st2{fill:none;stroke:url(#SVGID_3_);stroke-width:4;stroke-miterlimit:10;}
	.st3{fill:none;}
	.st4{fill:#FF00FF;}
	.st5{font-family:'outrunfuture';}
	.st6{font-size:84px;}
	.st7{fill:none;stroke:#FFFFFF;stroke-width:5;stroke-miterlimit:10;}
	.st8{fill:url(#SVGID_4_);}
	.st9{fill:url(#SVGID_5_);}
	.st10{fill:url(#SVGID_6_);}
	.st11{fill:url(#SVGID_7_);}
	.st12{fill:url(#SVGID_8_);}
	.st13{fill:url(#SVGID_9_);}
	.st14{fill:url(#SVGID_10_);}
	.st15{fill:url(#SVGID_11_);}
	.st16{fill:url(#SVGID_12_);}
	.st17{fill:url(#SVGID_13_);}
	.st18{fill:url(#SVGID_14_);}
	.st19{fill:url(#SVGID_15_);}
	.st20{fill:url(#SVGID_16_);}
	.st21{fill:url(#SVGID_17_);}
	.st22{fill:url(#SVGID_18_);}
	.st23{fill:url(#SVGID_19_);}
	.st24{fill:url(#SVGID_20_);}
	.st25{fill:url(#SVGID_21_);}
	.st26{fill:url(#SVGID_22_);}
	.st27{fill:url(#SVGID_23_);}
	.st28{fill:url(#SVGID_24_);}
	.st29{fill:url(#SVGID_25_);}
	.st30{fill:url(#SVGID_26_);}
	.st31{fill:url(#SVGID_27_);}
	.st32{fill:none;stroke:#D300EA;}
	.st33{font-family:'Streamster';}
	.st34{font-size:49px;}
	.st35{fill:#00FFFF;}
	.st36{fill:none;stroke:#00D4F7;stroke-miterlimit:10;}
</style>
<g>
	
		<linearGradient id="SVGID_1_" gradientUnits="userSpaceOnUse" x1="275.7567" y1="344.3246" x2="202.9027" y2="72.43" gradientTransform="matrix(1 0 0 -1 0 478)">
		<stop  offset="0" style="stop-color:#C400C1"/>
		<stop  offset="0.2151" style="stop-color:#F300F2"/>
		<stop  offset="0.2709" style="stop-color:#FFFFFF"/>
		<stop  offset="0.3045" style="stop-color:#FF00FF"/>
		<stop  offset="0.6453" style="stop-color:#FF00FF"/>
		<stop  offset="0.7067" style="stop-color:#FFFFFF"/>
		<stop  offset="0.7514" style="stop-color:#FF00FF"/>
		<stop  offset="1" style="stop-color:#FF00FF"/>
	</linearGradient>
	<polygon class="st0" points="264.3,418.6 435.5,179.5 92.5,179.5 	"/>
	
		<linearGradient id="SVGID_2_" gradientUnits="userSpaceOnUse" x1="214.5188" y1="262.2308" x2="141.6662" y2="-9.6586" gradientTransform="matrix(0.9921 -0.1256 -0.1256 -0.9921 74.9966 420.6092)">
		<stop  offset="0" style="stop-color:#C400C1"/>
		<stop  offset="0.2151" style="stop-color:#F300F2"/>
		<stop  offset="0.2709" style="stop-color:#FFFFFF"/>
		<stop  offset="0.3045" style="stop-color:#FF00FF"/>
		<stop  offset="0.6453" style="stop-color:#FF00FF"/>
		<stop  offset="0.7067" style="stop-color:#FFFFFF"/>
		<stop  offset="0.7514" style="stop-color:#FF00FF"/>
		<stop  offset="1" style="stop-color:#FF00FF"/>
	</linearGradient>
	<polygon class="st1" points="279.3,417.6 419.2,158.9 78.8,202 	"/>
	
		<linearGradient id="SVGID_3_" gradientUnits="userSpaceOnUse" x1="328.294" y1="437.8358" x2="255.4368" y2="165.9291" gradientTransform="matrix(0.9913 0.1315 0.1315 -0.9913 -85.6082 527.5087)">
		<stop  offset="0" style="stop-color:#C400C1"/>
		<stop  offset="0.2151" style="stop-color:#F300F2"/>
		<stop  offset="0.2709" style="stop-color:#FFFFFF"/>
		<stop  offset="0.3045" style="stop-color:#FF00FF"/>
		<stop  offset="0.6453" style="stop-color:#FF00FF"/>
		<stop  offset="0.7067" style="stop-color:#FFFFFF"/>
		<stop  offset="0.7514" style="stop-color:#FF00FF"/>
		<stop  offset="1" style="stop-color:#FF00FF"/>
	</linearGradient>
	<polygon class="st2" points="248.6,417.6 449.8,203.1 109.7,158 	"/>
	<g>
		<g>
			<rect x="83.3" y="213.3" class="st3" width="328.6" height="124.7"/>
			<text transform="matrix(1 0 0 1 94.5893 273.7951)" class="st4 st5 st6">B.O.B</text>
		</g>
	</g>
	<g>
		<g>
			<rect x="77" y="209.9" class="st3" width="328.6" height="124.7"/>
			<text transform="matrix(1 0 0 1 88.3182 270.3474)" class="st7 st5 st6">B.O.B</text>
			<g>
				
					<linearGradient id="SVGID_4_" gradientUnits="userSpaceOnUse" x1="131.185" y1="278.4092" x2="131.185" y2="194.6892" gradientTransform="matrix(1 0 0 -1 0 478)">
					<stop  offset="0" style="stop-color:#156DFF"/>
					<stop  offset="0.2039" style="stop-color:#159AFF"/>
					<stop  offset="0.4609" style="stop-color:#FFFFFF"/>
					<stop  offset="0.5" style="stop-color:#0050E9"/>
					<stop  offset="1" style="stop-color:#04006A"/>
				</linearGradient>
				<path class="st8" d="M160.8,199.6h18.7c2.4,0.4,3.5,1,3.5,1.8v0.8c0.4,0,0.7,0.1,0.7,0.3c-0.2,0.2-0.3,0.6-0.3,1.3
					c0.3,0,0.8,0.3,1.3,1l-0.7,0.3c0-0.2-0.1-0.3-0.3-0.3v0.7l0.6,0.8c-1.9,0.7-2.9,1.5-2.9,2.5c-11.5,2.8-21.3,6-29.6,9.6
					c-2.4,1-5.8,2.2-10,3.6v0.3h17.7c2.4,0,5.5-0.1,9.4-0.3c4.1,0.9,6.1,1.8,6.1,2.8v1.2h0.3v0.5c-0.9,0-1.3,0.2-1.3,0.5
					c0.2,0.9,0.3,1.4,0.3,1.5c-0.4,0.6-0.7,1.1-0.7,1.5v0.8c-0.7,0.1-6.1,2.8-16.1,8.1c-11.6,6-30.9,17.9-57.9,35.8
					c-5.5,4-12.4,6.9-20.9,8.6c0-0.3-0.3-0.5-1-0.5v-0.3c0-0.9,4.2-5.5,12.6-14v-0.3c-0.4,0-0.7-0.2-0.7-0.5v-3.3
					c0-1.8,1.4-5.6,4.2-11.4c7.1-21.2,12.9-37.9,17.4-50.2l1.9-1.3h1.9l0.9,0.5l1.6-1c0.1,0.4,0.3,0.5,0.6,0.5
					C118.3,201.1,132.5,200.4,160.8,199.6z M114.1,230.8c-0.4,0.6-3.6,10.1-9.6,28.4h0.3c19.5-12.9,34.8-22.1,45.7-27.6v-0.3H136
					C133,231.3,125.7,231.1,114.1,230.8z M147.6,209.2c-17.8,0.4-26.7,0.9-26.7,1.5c0,0.4-0.6,2.3-1.9,5.6c0.3,0,0.6,0.3,1,0.8
					l-0.3,0.5c0.4,0.1,0.6,0.2,0.6,0.5c-0.5,0.3-0.9,0.5-1.3,0.5c0.2,0.3,0.3,0.6,0.3,0.8c4.4-1,14.3-4.4,29.6-10.2V209
					C148.1,209.2,147.7,209.2,147.6,209.2z"/>
				
					<linearGradient id="SVGID_5_" gradientUnits="userSpaceOnUse" x1="182.77" y1="278.4046" x2="182.77" y2="194.6913" gradientTransform="matrix(1 0 0 -1 0 478)">
					<stop  offset="0" style="stop-color:#156DFF"/>
					<stop  offset="0.2039" style="stop-color:#159AFF"/>
					<stop  offset="0.4609" style="stop-color:#FFFFFF"/>
					<stop  offset="0.5" style="stop-color:#0050E9"/>
					<stop  offset="1" style="stop-color:#04006A"/>
				</linearGradient>
				<path class="st9" d="M184.2,256.5c0.4,0.2,0.7,0.3,0.7,0.5c0.1,0,0.2,0,0.2-0.2c0.6,0.1,1,0.2,1.3,0.2l0.3-0.2
					c0.5,0,0.8,0.4,0.8,1.2l0.3-0.2h0.2c0.7,0.2,1,0.9,1,2.1c0,3.7-1.2,6.9-3.6,9.6c-1.1,0.4-2.1,0.9-2.8,1.5l-0.2-0.3l-0.3,0.2
					c-0.7-1-1.3-1.5-1.8-1.5c-1.6,1.2-2.5,1.8-2.6,1.8v-0.2c0.1-0.2,0.2-0.4,0.2-0.5c-0.2,0-0.3,0.2-0.3,0.5h-0.3l-0.2-0.9
					c0-1.3-0.1-3.1-0.3-5.4c1-3.4,1.6-5.4,2-5.7c0.4,0,0.7-0.3,0.7-1l0.3-0.2v0.5h0.5c0.2,0,0.3-0.2,0.3-0.5h0.3
					c0.1,0.5,0.2,0.7,0.5,0.7c0.4,0,0.7-0.4,0.7-1.3h0.7c0.5,0.4,0.8,0.7,0.8,0.7h0.2v-0.2l-0.2-0.9
					C183.7,256.6,184,256.5,184.2,256.5z"/>
				
					<linearGradient id="SVGID_6_" gradientUnits="userSpaceOnUse" x1="241.325" y1="278.4046" x2="241.325" y2="194.6913" gradientTransform="matrix(1 0 0 -1 0 478)">
					<stop  offset="0" style="stop-color:#156DFF"/>
					<stop  offset="0.2039" style="stop-color:#159AFF"/>
					<stop  offset="0.4609" style="stop-color:#FFFFFF"/>
					<stop  offset="0.5" style="stop-color:#0050E9"/>
					<stop  offset="1" style="stop-color:#04006A"/>
				</linearGradient>
				<path class="st10" d="M252.3,200.2h1.4c3,0,6.6,0.4,10.7,1.4v-0.2c-0.2-0.3-0.3-0.5-0.3-0.6h0.3c0.4,0,0.5,0.2,0.5,0.6h0.3v-0.2
					c-0.2-0.2-0.3-0.5-0.3-0.8h0.3c0.2,0,1,0.6,2.5,1.8c1-0.1,1.5-0.2,1.6-0.2c3.1,0.7,6,3.2,8.5,7.3c4.2,7.9,6.3,15.2,6.3,21.7
					c0,3-1.1,9.5-3.3,19.4h-0.5v-1.6H280l-0.3,2h-0.5l-0.5-3.9h-0.3c-1.5,3.8-6.6,9.1-15.3,16c-6.3,5-13.2,9-20.8,12
					c-5.4,1.7-9.3,2.5-11.5,2.5c-2.4,0-7.5-0.9-15.3-2.5c-5.2,0-9.9-2.4-14.3-7.3c-1.6-3.7-2.5-7.6-2.5-11.8
					c0-11.1,4.5-21.6,13.4-31.3c3-4.4,8.2-9.1,15.6-14.1c7.3-3.8,11.2-5.7,11.5-5.7c0-1.2,3.2-2.5,9.6-4.1
					C249.6,200.4,250.7,200.2,252.3,200.2z M220.5,236.3c0.9,1.5,1.4,2.9,1.4,4.1c-2.7,6.4-4.1,10.4-4.1,11.8c0,2.9,1.4,6.1,4.1,9.4
					c3.5,1.4,6,2.1,7.4,2.1c9.2-1,14.9-2.3,17-3.9c8.6-4.9,12.9-8,12.9-9.4c6.6-9.3,9.9-18.9,9.9-28.8c0-2.2-0.6-3.4-1.7-3.7
					c-6.4-4.3-10.5-6.5-12.3-6.5l-3.3,2c-6.3,2.3-12.5,5.3-18.4,9.2c-3.5,2.6-5.2,4.5-5.2,5.7C226.8,228.2,224.3,230.9,220.5,236.3z
					"/>
				
					<linearGradient id="SVGID_7_" gradientUnits="userSpaceOnUse" x1="291.13" y1="278.4046" x2="291.13" y2="194.6913" gradientTransform="matrix(1 0 0 -1 0 478)">
					<stop  offset="0" style="stop-color:#156DFF"/>
					<stop  offset="0.2039" style="stop-color:#159AFF"/>
					<stop  offset="0.4609" style="stop-color:#FFFFFF"/>
					<stop  offset="0.5" style="stop-color:#0050E9"/>
					<stop  offset="1" style="stop-color:#04006A"/>
				</linearGradient>
				<path class="st11" d="M292.5,256.5c0.4,0.2,0.7,0.3,0.7,0.5c0.1,0,0.2,0,0.2-0.2c0.6,0.1,1,0.2,1.3,0.2l0.3-0.2
					c0.5,0,0.8,0.4,0.8,1.2l0.3-0.2h0.2c0.7,0.2,1,0.9,1,2.1c0,3.7-1.2,6.9-3.6,9.6c-1.1,0.4-2.1,0.9-2.8,1.5l-0.2-0.3l-0.3,0.2
					c-0.7-1-1.3-1.5-1.8-1.5c-1.6,1.2-2.5,1.8-2.6,1.8v-0.2c0.1-0.2,0.2-0.4,0.2-0.5c-0.2,0-0.3,0.2-0.3,0.5h-0.3l-0.2-0.9
					c0-1.3-0.1-3.1-0.3-5.4c1-3.4,1.6-5.4,2-5.7c0.4,0,0.7-0.3,0.7-1l0.3-0.2v0.5h0.5c0.2,0,0.3-0.2,0.3-0.5h0.3
					c0,0.5,0.2,0.7,0.5,0.7c0.4,0,0.7-0.4,0.7-1.3h0.7c0.5,0.4,0.8,0.7,0.8,0.7h0.2v-0.2l-0.2-0.9
					C292.1,256.6,292.3,256.5,292.5,256.5z"/>
				
					<linearGradient id="SVGID_8_" gradientUnits="userSpaceOnUse" x1="349.795" y1="278.4092" x2="349.795" y2="194.6892" gradientTransform="matrix(1 0 0 -1 0 478)">
					<stop  offset="0" style="stop-color:#156DFF"/>
					<stop  offset="0.2039" style="stop-color:#159AFF"/>
					<stop  offset="0.4609" style="stop-color:#FFFFFF"/>
					<stop  offset="0.5" style="stop-color:#0050E9"/>
					<stop  offset="1" style="stop-color:#04006A"/>
				</linearGradient>
				<path class="st12" d="M379.4,199.6h18.7c2.4,0.4,3.5,1,3.5,1.8v0.8c0.4,0,0.7,0.1,0.7,0.3c-0.2,0.2-0.3,0.6-0.3,1.3
					c0.3,0,0.8,0.3,1.3,1l-0.7,0.3c0-0.2-0.1-0.3-0.3-0.3v0.7l0.6,0.8c-1.9,0.7-2.9,1.5-2.9,2.5c-11.5,2.8-21.3,6-29.6,9.6
					c-2.4,1-5.8,2.2-10,3.6v0.3h17.7c2.4,0,5.5-0.1,9.4-0.3c4.1,0.9,6.1,1.8,6.1,2.8v1.2h0.3v0.5c-0.9,0-1.3,0.2-1.3,0.5
					c0.2,0.9,0.3,1.4,0.3,1.5c-0.4,0.6-0.7,1.1-0.7,1.5v0.8c-0.7,0.1-6.1,2.8-16.1,8.1c-11.6,6-31,17.9-57.9,35.8
					c-5.5,4-12.5,6.9-20.9,8.6c0-0.3-0.3-0.5-1-0.5v-0.3c0-0.9,4.2-5.5,12.5-14v-0.3c-0.4,0-0.7-0.2-0.7-0.5v-3.3
					c0-1.8,1.4-5.6,4.2-11.4c7.1-21.2,12.9-37.9,17.4-50.2l1.9-1.3h1.9l0.9,0.5l1.6-1c0,0.4,0.3,0.5,0.6,0.5
					C336.9,201.1,351.1,200.4,379.4,199.6z M332.7,230.8c-0.4,0.6-3.6,10.1-9.6,28.4h0.3c19.5-12.9,34.8-22.1,45.7-27.6v-0.3h-14.5
					C351.6,231.3,344.3,231.1,332.7,230.8z M366.2,209.2c-17.8,0.4-26.7,0.9-26.7,1.5c0,0.4-0.6,2.3-1.9,5.6c0.3,0,0.6,0.3,1,0.8
					l-0.3,0.5c0.4,0.1,0.6,0.2,0.6,0.5c-0.5,0.3-0.9,0.5-1.3,0.5c0.2,0.3,0.3,0.6,0.3,0.8c4.4-1,14.3-4.4,29.6-10.2V209
					C366.7,209.2,366.3,209.2,366.2,209.2z"/>
			</g>
		</g>
	</g>
	<rect x="150.4" y="301.2" class="st3" width="240.2" height="33.4"/>
	<rect x="374.8" y="292.4" class="st3" width="5.4" height="0.4"/>
	<rect x="453.6" y="279.1" class="st3" width="10.8" height="0.4"/>
	<g>
		<g>
			<g>
				
					<linearGradient id="SVGID_9_" gradientUnits="userSpaceOnUse" x1="151.2974" y1="216.2543" x2="151.2974" y2="146.4621" gradientTransform="matrix(1 0 0 -1 0 478)">
					<stop  offset="2.230000e-02" style="stop-color:#FFC3FF"/>
					<stop  offset="6.150000e-02" style="stop-color:#FF00FF"/>
					<stop  offset="0.6955" style="stop-color:#E000BB"/>
					<stop  offset="1" style="stop-color:#8D0080"/>
				</linearGradient>
				<path class="st13" d="M173.2,264.3c1,0.7,1.6,1.5,1.9,2.5c0.3,1,0.4,2,0.2,3.1c-0.1,1.1-0.4,2.1-0.9,3.2c-0.5,1.1-1,2-1.6,2.7
					c-0.5,0.7-1.1,1.4-1.7,2c-0.6,0.6-1.3,1.2-2,1.8c0,0-0.1,0.1-0.3,0.2c-0.2,0.1-0.4,0.2-0.6,0.4c-0.2,0.1-0.4,0.2-0.5,0.3
					c-0.2,0.1-0.2,0.1-0.2,0c0,0,0.1,0,0.1,0s0-0.1,0-0.1l0.1-0.1c0.5-0.7,1-1.3,1.4-1.8c0.4-0.5,0.7-0.9,1-1.4
					c0.3-0.4,0.6-0.9,0.8-1.3c0.3-0.4,0.5-0.9,0.8-1.4c0.3-0.6,0.7-1.4,1-2.2s0.5-1.7,0.6-2.5c0.1-0.8-0.1-1.6-0.4-2.2
					c-0.3-0.7-1-1.2-2.1-1.5c-1-0.2-1.9-0.2-2.8-0.1c-0.9,0.1-1.8,0.3-2.7,0.6s-1.8,0.6-2.7,1s-1.7,0.8-2.5,1.1
					c-3.4,1.8-6.5,4-9.3,6.6c-2.9,2.6-5.5,5.4-8,8.3c-1.2,1.5-2.4,3-3.6,4.5c-1.2,1.5-2.3,3.1-3.3,4.8c-1,1.6-1.9,3.3-2.7,5.1
					c-0.8,1.8-1.5,3.6-2,5.4c-0.3,0.9-0.4,1.9-0.5,2.9c-0.1,1,0.1,2,0.6,3c0.5,0.9,1.2,1.4,2.1,1.7c0.9,0.3,1.9,0.5,2.9,0.4
					c1,0,2.1-0.1,3.1-0.4c1-0.2,1.9-0.5,2.7-0.7c2.9-1,5.7-2.3,8.4-3.8s5.2-3.2,7.6-5.1c2.4-1.9,4.8-3.9,7.1-6.1s4.6-4.5,7-6.8
					c0,0,0.1-0.1,0.2-0.2c0.1-0.1,0.2-0.2,0.4-0.4c0.1-0.1,0.2-0.2,0.3-0.3c0.1-0.1,0.2-0.1,0.2-0.1c0,0.2-0.1,0.5-0.3,0.9
					c-0.2,0.4-0.4,0.7-0.6,1c-0.9,1.3-1.8,2.6-2.8,3.9c-1,1.3-2.1,2.6-3.1,3.7c-2.5,2.7-5.2,5.3-8.1,7.5c-2.9,2.3-5.9,4.3-9.2,6.1
					c-1.3,0.6-2.8,1.4-4.5,2.1c-1.7,0.7-3.5,1.3-5.3,1.7c-1.8,0.4-3.6,0.5-5.3,0.3c-1.7-0.2-3.3-0.8-4.6-2c-0.9-0.8-1.6-1.8-2-2.9
					c-0.4-1.1-0.6-2.3-0.6-3.4c0-1.2,0.1-2.4,0.4-3.7c0.3-1.2,0.6-2.4,1-3.5c1.4-3.6,3.1-7,5.2-10.1c2.1-3.1,4.4-6.1,7-9
					c2.6-2.8,5.3-5.5,8.2-8c2.9-2.5,6.1-4.6,9.5-6.4c0.9-0.5,2.1-0.9,3.3-1.4c1.3-0.5,2.6-0.9,3.9-1.1c1.4-0.3,2.7-0.4,4-0.3
					C171,263.2,172.2,263.6,173.2,264.3z"/>
				
					<linearGradient id="SVGID_10_" gradientUnits="userSpaceOnUse" x1="178.443" y1="216.2543" x2="178.443" y2="146.4621" gradientTransform="matrix(1 0 0 -1 0 478)">
					<stop  offset="2.230000e-02" style="stop-color:#FFC3FF"/>
					<stop  offset="6.150000e-02" style="stop-color:#FF00FF"/>
					<stop  offset="0.6955" style="stop-color:#E000BB"/>
					<stop  offset="1" style="stop-color:#8D0080"/>
				</linearGradient>
				<path class="st14" d="M187.8,295.3c-0.3,0.3-0.6,0.6-0.9,1c-0.3,0.4-0.7,0.7-1,1c-0.3,0.3-0.5,0.5-0.6,0.6
					c-1.3,1.1-2.6,2.3-4,3.4c-1.4,1.1-2.9,2.1-4.5,3c-0.8,0.5-1.6,0.9-2.5,1.3s-1.7,0.6-2.6,0.6c-0.8,0-1.5-0.3-2.1-0.8
					c-0.6-0.5-0.9-1.2-0.8-2c0.2-1.9,0.8-3.5,1.8-5.1c1-1.5,2.1-2.9,3.4-4.3c0.6-0.6,1.3-1.3,2-1.8c0.7-0.6,1.4-1.1,2.2-1.6
					c0.7-0.5,1.5-1,2.3-1.4c0.8-0.4,1.6-0.7,2.4-1c0.4-0.1,0.8-0.2,1.3-0.2c0.5,0,0.9,0.1,1.3,0.3c0.8,0.5,1.1,1.1,1.1,1.9
					c-0.1,0.8-0.4,1.6-0.9,2.5c-0.3,0.4-0.5,0.7-0.8,1c-0.3,0.3-0.5,0.6-0.8,1c-1.2,1.3-2.5,2.4-4,3.2c-1,0.6-2.1,1.1-3.1,1.5
					c-1.1,0.4-2.2,0.8-3.6,1.2c-0.7,0.9-1.2,2-1.6,3.1c1,0,2-0.2,3.1-0.7c1.1-0.4,2.3-1,3.4-1.7c1.1-0.7,2.3-1.4,3.4-2.1
					c1.1-0.7,2.1-1.4,3-2c0.1,0,0.3-0.2,0.6-0.4c0.4-0.3,0.7-0.6,1.1-0.9s1-0.7,1.6-1.1C188.1,294.8,188,295,187.8,295.3z
					 M175.5,297.4c-0.3,0.4-0.6,0.7-0.8,0.9c-0.2,0.3-0.4,0.6-0.6,0.9c1.1-0.3,2.2-0.7,3.3-1.3s2-1.3,2.9-2s1.7-1.7,2.4-2.6
					c0.7-1,1.3-2,1.6-3.2c-1.7,0.8-3.3,1.9-4.7,3.2S176.9,295.9,175.5,297.4z"/>
				
					<linearGradient id="SVGID_11_" gradientUnits="userSpaceOnUse" x1="189.116" y1="216.2543" x2="189.116" y2="146.4621" gradientTransform="matrix(1 0 0 -1 0 478)">
					<stop  offset="2.230000e-02" style="stop-color:#FFC3FF"/>
					<stop  offset="6.150000e-02" style="stop-color:#FF00FF"/>
					<stop  offset="0.6955" style="stop-color:#E000BB"/>
					<stop  offset="1" style="stop-color:#8D0080"/>
				</linearGradient>
				<path class="st15" d="M199.5,295.5c0,0.1-0.1,0.2-0.4,0.5c-0.3,0.3-0.6,0.6-1,0.9c-0.4,0.3-0.8,0.7-1.2,1
					c-0.4,0.3-0.6,0.5-0.8,0.7c-0.5,0.4-1,0.8-1.5,1.2c-0.5,0.4-1,0.8-1.5,1.2c-0.8,0.6-1.5,1.3-2.3,2c-0.7,0.6-1.4,1.3-2.2,2.1
					c-0.2,0.2-0.5,0.5-0.7,0.7c-0.2,0.2-0.5,0.4-0.7,0.6c-0.5,0.3-0.9,0.3-1.4,0.1c-0.5-0.2-0.8-0.6-0.8-1.1c-0.1-0.5,0-1,0.3-1.6
					c0.3-0.5,0.5-1,0.8-1.4c0.8-1.2,1.5-2.4,2.4-3.6c0.8-1.2,1.6-2.4,2.3-3.6c0.1-0.2,0.2-0.4,0.1-0.7c-0.1-0.3-0.2-0.6-0.2-0.8
					c-1.1,1-2.3,2-3.7,3s-2.7,1.9-3.9,2.8c-1.2,0.8-2.3,1.5-3.1,1.9c-0.9,0.5-1.3,0.6-1.4,0.5c0-0.1,0.2-0.3,0.8-0.7
					c0.5-0.4,1.2-1,2-1.6c0.8-0.6,1.7-1.4,2.7-2.2c1-0.8,1.9-1.6,2.8-2.4s1.6-1.5,2.2-2.2s1-1.3,1.1-1.7c0-0.5,0-1.2,0-1.9
					c0-0.7,0.3-1.3,0.8-1.8c0.4-0.4,0.9-0.6,1.4-0.6c0.5,0,1,0.3,1.2,0.9c0.3,0.6,0.3,1.1,0,1.7c-0.2,0.5-0.5,1.1-0.7,1.5
					c-0.1,0.2-0.1,0.3-0.2,0.4s-0.1,0.3-0.1,0.5c0.1,0.5,0.2,0.9,0.4,1.3s0.4,0.8,0.6,1.3c0.3,0.6,0.3,1.3,0.2,1.8
					c-0.1,0.6-0.4,1.1-0.8,1.7c-0.4,0.6-0.8,1.1-1.2,1.7c-0.4,0.6-0.8,1.1-1.2,1.7c0.8-0.5,1.5-1,2.2-1.5c0.7-0.5,1.4-1,2.2-1.5
					c0.1-0.1,0.4-0.3,0.8-0.6c0.5-0.3,1-0.6,1.5-0.9c0.5-0.3,1-0.6,1.4-0.8C199.2,295.5,199.5,295.4,199.5,295.5z"/>
				
					<linearGradient id="SVGID_12_" gradientUnits="userSpaceOnUse" x1="205.8229" y1="216.2543" x2="205.8229" y2="146.4621" gradientTransform="matrix(1 0 0 -1 0 478)">
					<stop  offset="2.230000e-02" style="stop-color:#FFC3FF"/>
					<stop  offset="6.150000e-02" style="stop-color:#FF00FF"/>
					<stop  offset="0.6955" style="stop-color:#E000BB"/>
					<stop  offset="1" style="stop-color:#8D0080"/>
				</linearGradient>
				<path class="st16" d="M216.2,285.6c0,0,0,0.1-0.1,0.3c-0.1,0.2-0.5,0.6-1,1.3c-0.6,0.7-1.4,1.7-2.5,3c-1.1,1.3-2.7,3.1-4.7,5.4
					c-1.5,1.6-2.9,3.2-4.3,4.6c-1.4,1.4-2.9,2.9-4.5,4.4c-0.3,0.3-0.6,0.6-0.9,0.8s-0.6,0.3-1.1,0.3c-0.4-0.1-0.8-0.3-1.1-0.6
					s-0.5-0.7-0.4-1.1c0-0.4,0.1-0.8,0.2-1.2c0.1-0.5,0.3-0.9,0.5-1.4c0.2-0.5,0.4-1,0.6-1.4c0.2-0.5,0.4-0.9,0.6-1.2
					c0.6-1.4,1.4-2.7,2.1-4.1c0.7-1.4,1.5-2.7,2.4-4.1c0.2-0.4,0.5-0.7,0.7-1.1c0.3-0.4,0.5-0.7,0.9-1c0.1-0.1,0.2-0.2,0.3-0.1
					c0.1,0.1,0.1,0.2,0.1,0.3c0,0.1,0,0.3,0,0.5c0,0.2-0.1,0.3-0.1,0.3c-0.1,0.7-0.4,1.5-0.7,2.5c-0.4,0.9-0.8,1.9-1.2,2.9
					c-0.4,1-0.8,1.9-1.3,2.9s-0.7,1.8-1,2.5c0.3-0.4,0.9-1,1.9-1.9s2-1.9,3.2-3c1.2-1.1,2.5-2.3,3.8-3.5c1.3-1.2,2.5-2.3,3.7-3.2
					c1.1-1,2.1-1.7,2.8-2.3C215.6,285.7,216.1,285.5,216.2,285.6z"/>
				
					<linearGradient id="SVGID_13_" gradientUnits="userSpaceOnUse" x1="216.813" y1="216.2543" x2="216.813" y2="146.4621" gradientTransform="matrix(1 0 0 -1 0 478)">
					<stop  offset="2.230000e-02" style="stop-color:#FFC3FF"/>
					<stop  offset="6.150000e-02" style="stop-color:#FF00FF"/>
					<stop  offset="0.6955" style="stop-color:#E000BB"/>
					<stop  offset="1" style="stop-color:#8D0080"/>
				</linearGradient>
				<path class="st17" d="M226.2,295.3c-0.3,0.3-0.6,0.6-0.9,1c-0.3,0.4-0.7,0.7-1,1c-0.3,0.3-0.5,0.5-0.6,0.6
					c-1.3,1.1-2.6,2.3-4,3.4c-1.4,1.1-2.9,2.1-4.5,3c-0.8,0.5-1.6,0.9-2.5,1.3s-1.7,0.6-2.6,0.6c-0.8,0-1.5-0.3-2.1-0.8
					c-0.6-0.5-0.9-1.2-0.8-2c0.2-1.9,0.8-3.5,1.8-5.1c1-1.5,2.1-2.9,3.4-4.3c0.6-0.6,1.3-1.3,2-1.8c0.7-0.6,1.4-1.1,2.2-1.6
					c0.7-0.5,1.5-1,2.3-1.4c0.8-0.4,1.6-0.7,2.4-1c0.4-0.1,0.8-0.2,1.3-0.2c0.5,0,0.9,0.1,1.3,0.3c0.8,0.5,1.1,1.1,1.1,1.9
					c-0.1,0.8-0.4,1.6-0.9,2.5c-0.3,0.4-0.5,0.7-0.8,1c-0.3,0.3-0.5,0.6-0.8,1c-1.2,1.3-2.5,2.4-4,3.2c-1,0.6-2.1,1.1-3.1,1.5
					c-1.1,0.4-2.2,0.8-3.6,1.2c-0.7,0.9-1.2,2-1.6,3.1c1,0,2-0.2,3.1-0.7c1.1-0.4,2.3-1,3.4-1.7c1.1-0.7,2.3-1.4,3.4-2.1
					c1.1-0.7,2.1-1.4,3-2c0.1,0,0.3-0.2,0.6-0.4c0.4-0.3,0.7-0.6,1.1-0.9s1-0.7,1.6-1.1C226.5,294.8,226.4,295,226.2,295.3z
					 M213.9,297.4c-0.3,0.4-0.6,0.7-0.8,0.9c-0.2,0.3-0.4,0.6-0.6,0.9c1.1-0.3,2.2-0.7,3.3-1.3s2-1.3,2.9-2s1.7-1.7,2.4-2.6
					c0.7-1,1.3-2,1.6-3.2c-1.7,0.8-3.3,1.9-4.7,3.2S215.3,295.9,213.9,297.4z"/>
				
					<linearGradient id="SVGID_14_" gradientUnits="userSpaceOnUse" x1="214.8106" y1="216.2543" x2="214.8106" y2="146.4621" gradientTransform="matrix(1 0 0 -1 0 478)">
					<stop  offset="2.230000e-02" style="stop-color:#FFC3FF"/>
					<stop  offset="6.150000e-02" style="stop-color:#FF00FF"/>
					<stop  offset="0.6955" style="stop-color:#E000BB"/>
					<stop  offset="1" style="stop-color:#8D0080"/>
				</linearGradient>
				<path class="st18" d="M235.9,288.9c0.2,0.1,0,0.5-0.3,1.3c-0.4,0.8-0.9,1.7-1.6,2.8c-0.7,1.1-1.5,2.3-2.4,3.6
					c-0.9,1.3-1.7,2.5-2.5,3.6c-0.8,1.1-1.5,2.1-2.1,3c-0.6,0.8-1,1.4-1.1,1.5c-2.5,3.6-5.2,7-8.1,10.3c-2.9,3.3-6,6.3-9.5,9
					c-1.7,1.3-3.4,2.5-5.2,3.6s-3.7,2-5.7,2.7c-0.9,0.3-1.8,0.6-2.7,0.8c-0.9,0.2-1.9,0.4-2.8,0.4c-0.2,0-0.4,0-0.6,0
					c-0.2,0-0.4,0-0.6-0.1c-0.3-0.1-0.3-0.1-0.1-0.3s0.3-0.2,0.4-0.2c0.4-0.2,0.8-0.3,1.3-0.4s0.8-0.3,1.3-0.4
					c2-0.7,3.9-1.6,5.7-2.7c1.8-1.1,3.5-2.3,5.2-3.5s3.2-2.7,4.7-4.1s3-3,4.4-4.5c0.7-0.8,1.5-1.7,2.3-2.7c0.8-1,1.7-2.1,2.5-3.3
					c0.9-1.1,1.7-2.3,2.6-3.5c0.9-1.2,1.7-2.3,2.5-3.5c1.9-2.6,3.8-5.3,5.7-8.1c-1.4,1-2.8,1.9-4.2,2.8c-1.4,0.9-2.8,1.8-4.3,2.7
					c-0.1,0.1-0.3,0.2-0.6,0.3c-0.2,0.1-0.4,0.1-0.4,0.1c0-0.1,0.1-0.1,0.1-0.3c0.4-0.4,0.8-0.8,1.3-1.2c0.5-0.4,0.9-0.7,1.4-1.1
					c0.2-0.1,0.6-0.5,1.3-1c0.7-0.5,1.5-1.1,2.4-1.8c0.9-0.7,1.9-1.4,3-2.2s2.1-1.4,3-2.1c1-0.6,1.8-1.1,2.5-1.4
					C235.1,288.8,235.6,288.7,235.9,288.9z M239.2,280.6c0.1,0.3,0.1,0.5,0,0.8c-0.1,0.3-0.2,0.5-0.4,0.8c-0.2,0.3-0.4,0.5-0.6,0.7
					c-0.2,0.2-0.5,0.3-0.7,0.4c-0.2,0.1-0.4,0.2-0.7,0.2c-0.3,0-0.5,0.1-0.8,0c-0.3,0-0.5-0.1-0.7-0.2c-0.2-0.1-0.4-0.3-0.5-0.5
					c-0.2-0.5-0.1-1,0.2-1.5c0.3-0.5,0.7-0.8,1.1-1.1c0.2-0.1,0.4-0.2,0.7-0.3c0.3-0.1,0.6-0.1,0.9-0.1s0.6,0.1,0.9,0.1
					C238.9,280.1,239.1,280.3,239.2,280.6z"/>
				
					<linearGradient id="SVGID_15_" gradientUnits="userSpaceOnUse" x1="240.7194" y1="216.2543" x2="240.7194" y2="146.4621" gradientTransform="matrix(1 0 0 -1 0 478)">
					<stop  offset="2.230000e-02" style="stop-color:#FFC3FF"/>
					<stop  offset="6.150000e-02" style="stop-color:#FF00FF"/>
					<stop  offset="0.6955" style="stop-color:#E000BB"/>
					<stop  offset="1" style="stop-color:#8D0080"/>
				</linearGradient>
				<path class="st19" d="M251.8,295.7c0,0-0.1,0.1-0.1,0.3c-0.4,0.4-0.8,0.8-1.3,1.1c-0.5,0.4-0.9,0.7-1.4,1.1
					c-1.5,1.1-3.1,2.3-4.9,3.8c-0.6,0.4-1,0.8-1.5,1.3c-0.4,0.4-0.9,0.9-1.4,1.4c-0.1,0.1-0.3,0.3-0.6,0.5c-0.3,0.2-0.4,0.4-0.5,0.4
					c-0.3,0.3-0.6,0.4-1,0.3c-0.4-0.1-0.8-0.3-1-0.6c-0.3-0.3-0.4-0.7-0.3-1.1c0.1-0.4,0.2-0.8,0.4-1.1c0.4-0.8,0.7-1.6,1.1-2.3
					s0.9-1.5,1.4-2.2c-0.5,0.4-1,0.9-1.4,1.3c-0.5,0.4-0.9,0.8-1.4,1.2c-0.7,0.6-1.4,1.3-2.2,1.9s-1.5,1.2-2.3,1.8
					c-0.2,0.2-0.4,0.3-0.7,0.5c-0.3,0.2-0.6,0.4-0.8,0.5c-0.3,0.1-0.6,0.2-0.9,0.2c-0.3,0-0.6-0.1-0.8-0.3c-0.4-0.3-0.5-0.6-0.6-1.1
					c0-0.5,0-0.9,0.2-1.2c0.3-1.1,0.9-2.3,1.6-3.4c0.7-1.1,1.5-2.2,2.3-3.1s1.5-1.7,2.2-2.3c0.6-0.6,1.1-1,1.3-1.2
					c0.6-0.6,1.3-1.1,2.1-1.7c0.8-0.6,1.7-1.1,2.6-1.6s1.9-0.9,2.8-1.1c1-0.3,1.9-0.4,2.8-0.4c0.5,0,1,0.1,1.5,0.2
					c0.5,0.1,1,0.4,1.2,0.7c0,0,0.1,0.1,0.1,0.2c0.1,0.1,0,0.2-0.1,0.1c-0.9-0.2-1.7-0.3-2.5-0.1c-0.8,0.2-1.6,0.4-2.4,0.8
					c-0.8,0.4-1.5,0.9-2.3,1.4c-0.7,0.6-1.4,1.1-2.1,1.6c-0.6,0.5-1.2,1.1-1.9,1.8c-0.7,0.7-1.4,1.5-2,2.3c-0.6,0.8-1.3,1.7-1.9,2.6
					c-0.6,0.9-1.1,1.9-1.6,2.9c1.3-0.9,2.7-1.8,4.1-2.9c1.4-1.1,2.9-2.1,4.2-3.2c0.6-0.6,1.4-1.1,2.1-1.6c0.8-0.5,1.5-1.1,2.2-1.7
					c0.2-0.2,0.4-0.4,0.8-0.6c0.3-0.2,0.6-0.5,0.9-0.7c0.3-0.2,0.6-0.4,0.8-0.6c0.3-0.2,0.4-0.3,0.5-0.3c0.3-0.1,0.5,0,0.6,0.2
					c0.2,0.2,0.2,0.4,0.1,0.6c0,0.1-0.1,0.2-0.2,0.3s-0.3,0.3-0.4,0.5c-0.2,0.2-0.3,0.4-0.5,0.5c-0.1,0.2-0.2,0.3-0.3,0.3
					c-0.5,0.6-1.1,1.3-1.7,2.1c-0.6,0.8-1.3,1.5-1.9,2.3c-0.6,0.7-1.1,1.4-1.6,1.9c-0.4,0.6-0.7,0.9-0.9,1.1
					c0.3-0.2,0.7-0.5,1.2-0.8c0.5-0.3,0.9-0.6,1.2-0.8c0.9-0.6,1.9-1.2,2.8-1.8c0.9-0.6,1.9-1.1,2.9-1.6c0.1-0.1,0.2-0.2,0.5-0.3
					C251.6,295.7,251.7,295.7,251.8,295.7z"/>
				
					<linearGradient id="SVGID_16_" gradientUnits="userSpaceOnUse" x1="281.7519" y1="216.2511" x2="281.7519" y2="146.4589" gradientTransform="matrix(1 0 0 -1 0 478)">
					<stop  offset="2.230000e-02" style="stop-color:#FFC3FF"/>
					<stop  offset="6.150000e-02" style="stop-color:#FF00FF"/>
					<stop  offset="0.6955" style="stop-color:#E000BB"/>
					<stop  offset="1" style="stop-color:#8D0080"/>
				</linearGradient>
				<path class="st20" d="M302.2,261.8c0,0,0,0.1,0,0.3c0,0.2-0.1,0.3-0.2,0.5c-0.1,0.2-0.2,0.4-0.3,0.5c-0.1,0.2-0.1,0.3-0.2,0.3
					c-1,1.8-2,3.6-3.1,5.3c-1.1,1.7-2.3,3.5-3.4,5.2c-1.2,1.8-2.5,3.6-3.8,5.4s-2.5,3.6-3.9,5.4c-2,2.8-4,5.5-6,8.3
					c-2,2.8-4.1,5.5-6.3,8.2c0.3-0.2,0.7-0.5,1.1-0.8s0.8-0.6,1-0.7c0.9-0.6,1.9-1.3,3-2s2.1-1.2,3.1-1.8c0.1-0.1,0.2-0.2,0.5-0.3
					c0.3-0.1,0.4-0.2,0.5-0.1c-0.1,0.1-0.3,0.4-0.7,0.7c-0.4,0.4-0.9,0.7-1.4,1.1c-0.5,0.4-1,0.8-1.5,1.2c-0.5,0.4-0.8,0.6-1,0.8
					c-0.9,0.7-1.8,1.5-2.8,2.4s-1.9,1.7-2.7,2.4c-0.4,0.4-0.8,0.6-1,0.9c-0.2,0.2-0.6,0.4-1.1,0.7c-0.7,0.3-1.3,0.1-1.8-0.3
					c-0.3-0.3-0.3-0.7-0.2-1.2s0.2-0.9,0.4-1.3c0.3-0.8,0.8-1.7,1.4-2.6c0.6-1,1.2-1.8,1.7-2.5c-1.2,1.1-2.6,2.3-4.1,3.5
					s-3,2.4-4.4,3.4c-0.2,0.2-0.4,0.3-0.7,0.5c-0.3,0.2-0.6,0.4-0.8,0.5c-0.3,0.1-0.6,0.2-0.9,0.2c-0.3,0-0.6-0.1-0.8-0.3
					c-0.4-0.3-0.5-0.7-0.6-1.1c0-0.5,0-0.9,0.2-1.3c0.5-1.5,1.1-2.8,2-4c0.8-1.2,1.7-2.3,2.6-3.3s1.8-1.9,2.7-2.6
					c0.9-0.7,1.6-1.3,2.2-1.8c0.6-0.4,1.3-0.9,2.2-1.4c0.8-0.5,1.7-0.9,2.6-1.3c0.9-0.4,1.8-0.6,2.8-0.8c0.9-0.2,1.8-0.2,2.6,0
					c1-1.3,1.9-2.6,2.7-3.8c0.8-1.2,1.7-2.5,2.7-3.8c1.3-1.8,2.7-3.5,4-5.2c1.3-1.7,2.7-3.5,4-5.1c1-1.2,1.9-2.4,2.9-3.6
					s2-2.3,3.1-3.4c0,0,0.1-0.1,0.3-0.3c0.2-0.2,0.3-0.4,0.5-0.5s0.4-0.3,0.5-0.4C302,261.7,302.1,261.7,302.2,261.8z M265.1,303.1
					c1.2-0.9,2.5-1.8,3.8-2.8c1.3-0.9,2.7-2,4-3.1c1.3-1.1,2.6-2.3,3.9-3.7c1.3-1.3,2.4-2.8,3.5-4.5c-0.7,0-1.4,0.1-2.2,0.4
					s-1.5,0.6-2.2,1.1s-1.4,0.9-2,1.4s-1.1,0.9-1.6,1.3c-0.3,0.3-0.8,0.7-1.4,1.5c-0.6,0.7-1.3,1.5-2,2.4c-0.7,0.9-1.4,1.9-2.1,3
					C266.1,301.1,265.5,302.1,265.1,303.1z"/>
				
					<linearGradient id="SVGID_17_" gradientUnits="userSpaceOnUse" x1="288.9337" y1="216.2543" x2="288.9337" y2="146.4621" gradientTransform="matrix(1 0 0 -1 0 478)">
					<stop  offset="2.230000e-02" style="stop-color:#FFC3FF"/>
					<stop  offset="6.150000e-02" style="stop-color:#FF00FF"/>
					<stop  offset="0.6955" style="stop-color:#E000BB"/>
					<stop  offset="1" style="stop-color:#8D0080"/>
				</linearGradient>
				<path class="st21" d="M298.3,295.3c-0.3,0.3-0.6,0.6-0.9,1c-0.3,0.4-0.7,0.7-1,1c-0.3,0.3-0.5,0.5-0.6,0.6
					c-1.3,1.1-2.6,2.3-4,3.4c-1.4,1.1-2.9,2.1-4.5,3c-0.8,0.5-1.6,0.9-2.5,1.3s-1.7,0.6-2.6,0.6c-0.8,0-1.5-0.3-2.1-0.8
					c-0.6-0.5-0.9-1.2-0.8-2c0.2-1.9,0.8-3.5,1.8-5.1c1-1.5,2.1-2.9,3.4-4.3c0.6-0.6,1.3-1.3,2-1.8c0.7-0.6,1.4-1.1,2.2-1.6
					c0.7-0.5,1.5-1,2.3-1.4c0.8-0.4,1.6-0.7,2.5-1c0.4-0.1,0.8-0.2,1.3-0.2c0.5,0,0.9,0.1,1.3,0.3c0.8,0.5,1.1,1.1,1.1,1.9
					c-0.1,0.8-0.4,1.6-0.9,2.5c-0.3,0.4-0.5,0.7-0.8,1c-0.3,0.3-0.5,0.6-0.8,1c-1.2,1.3-2.5,2.4-4,3.2c-1,0.6-2.1,1.1-3.1,1.5
					c-1,0.4-2.2,0.8-3.6,1.2c-0.7,0.9-1.2,2-1.6,3.1c1,0,2-0.2,3.1-0.7c1.1-0.4,2.3-1,3.4-1.7c1.1-0.7,2.3-1.4,3.4-2.1
					c1.1-0.7,2.1-1.4,3-2c0.1,0,0.3-0.2,0.6-0.4c0.4-0.3,0.7-0.6,1.1-0.9s1-0.7,1.6-1.1C298.6,294.8,298.5,295,298.3,295.3z
					 M286,297.4c-0.3,0.4-0.6,0.7-0.8,0.9c-0.2,0.3-0.4,0.6-0.6,0.9c1.1-0.3,2.2-0.7,3.3-1.3s2-1.3,2.9-2s1.7-1.7,2.4-2.6
					c0.7-1,1.3-2,1.6-3.2c-1.7,0.8-3.3,1.9-4.7,3.2S287.4,295.9,286,297.4z"/>
				
					<linearGradient id="SVGID_18_" gradientUnits="userSpaceOnUse" x1="318.291" y1="216.2543" x2="318.291" y2="146.4621" gradientTransform="matrix(1 0 0 -1 0 478)">
					<stop  offset="2.230000e-02" style="stop-color:#FFC3FF"/>
					<stop  offset="6.150000e-02" style="stop-color:#FF00FF"/>
					<stop  offset="0.6955" style="stop-color:#E000BB"/>
					<stop  offset="1" style="stop-color:#8D0080"/>
				</linearGradient>
				<path class="st22" d="M326.5,288.3c0.4,0.1,0.8,0.4,1,0.7s0.4,0.5,0.3,0.4c-0.1,0-0.2-0.1-0.4-0.1c-0.2-0.1-0.4-0.1-0.8-0.1
					c-0.6-0.1-1.2,0-1.9,0.2s-1.2,0.4-1.9,0.8s-1.3,0.8-1.9,1.2c-0.6,0.5-1.3,1-1.9,1.5c-0.3,0.3-0.8,0.8-1.6,1.6
					c-0.8,0.8-1.6,1.7-2.4,2.7c-0.8,1-1.5,2.1-2.1,3.2s-0.9,2.1-0.9,3.1c1-0.1,2.1-0.6,3.3-1.4c1.3-0.8,2.5-1.8,3.7-2.8
					c1.2-1.1,2.3-2.3,3.3-3.5c1-1.2,1.6-2.3,2-3.4c0.1-0.3,0.2-0.6,0.3-1c0-0.3,0-0.6-0.1-1c-0.1-0.2-0.1-0.3-0.1-0.3
					c0-0.1,0.2-0.1,0.4,0.2s0.4,0.6,0.5,1c0.4,1.5,0.2,3-0.6,4.6c-0.8,1.6-1.8,3-3.2,4.4c-1.4,1.3-2.8,2.5-4.5,3.5
					c-1.6,1-3.1,1.6-4.4,2c-0.9,0.3-1.7,0.3-2.5,0c-0.6-0.3-1.1-0.7-1.4-1.4s-0.3-1.3-0.3-2c0.1-0.9,0.4-1.7,0.7-2.4
					s0.8-1.5,1.3-2.3c0.5-0.6,1-1.4,1.7-2.2c0.7-0.8,1.5-1.6,2.3-2.3c0.9-0.8,1.8-1.5,2.8-2.2c1-0.7,2-1.3,3-1.7c1-0.5,2-0.8,3-1
					C324.6,288,325.6,288,326.5,288.3z"/>
				
					<linearGradient id="SVGID_19_" gradientUnits="userSpaceOnUse" x1="334.3003" y1="216.2543" x2="334.3003" y2="146.4621" gradientTransform="matrix(1 0 0 -1 0 478)">
					<stop  offset="2.230000e-02" style="stop-color:#FFC3FF"/>
					<stop  offset="6.150000e-02" style="stop-color:#FF00FF"/>
					<stop  offset="0.6955" style="stop-color:#E000BB"/>
					<stop  offset="1" style="stop-color:#8D0080"/>
				</linearGradient>
				<path class="st23" d="M345.7,295.3c0.1,0.1,0,0.3-0.3,0.5c-0.3,0.2-0.4,0.4-0.5,0.4c-1.5,1.2-2.9,2.4-4.4,3.5
					c-0.9,0.7-1.7,1.4-2.5,2.2c-0.8,0.8-1.7,1.5-2.5,2.3l-1.2,1c-0.2,0.1-0.3,0.3-0.5,0.3c-0.2,0.1-0.3,0.2-0.5,0.3
					c-0.4,0.1-0.8,0-1.1-0.3c-0.3-0.2-0.5-0.6-0.6-1c-0.1-0.4,0-0.9,0.2-1.4c0.2-0.5,0.4-0.9,0.6-1.3c0.5-1,1-1.9,1.6-2.7
					s1.3-1.8,2.2-2.9c-0.9,0.8-1.8,1.5-2.6,2.3s-1.7,1.5-2.5,2.3c-0.7,0.6-1.4,1.3-2.2,1.9s-1.5,1.2-2.2,1.8
					c-0.2,0.2-0.4,0.3-0.7,0.5c-0.3,0.2-0.6,0.4-0.8,0.5c-0.3,0.1-0.6,0.2-0.9,0.2s-0.6-0.1-0.8-0.3c-0.4-0.3-0.6-0.8-0.6-1.4
					c0-0.6,0.1-1.2,0.4-1.9c0.3-0.6,0.5-1.3,0.9-1.9c0.4-0.6,0.6-1,0.8-1.4c0.9-1.3,1.8-2.5,2.9-3.7c1.1-1.2,2.2-2.2,3.4-3.2
					c0.6-0.6,1.4-1.1,2.1-1.6c0.8-0.5,1.5-0.9,2.4-1.1c0,0,0.1,0,0.2-0.1c0.1,0,0.2,0,0.3,0s0.2,0,0.3,0c0.1,0,0,0.1,0,0.2
					c-0.1,0.2-0.3,0.3-0.4,0.4c-0.1,0.1-0.3,0.2-0.5,0.4c-0.4,0.3-0.7,0.6-1,0.9c-0.3,0.3-0.6,0.7-1,1c-0.7,0.8-1.4,1.6-2,2.5
					c-0.7,0.9-1.3,1.8-2,2.8c-0.6,0.9-1.3,1.9-1.9,2.8c-0.6,0.9-1.2,1.9-1.8,2.7c2.6-1.7,5.3-3.7,7.9-5.9s5.3-4.4,8.1-6.7
					c0.4-0.3,0.9-0.7,1.4-1.1c0.5-0.4,1-0.7,1.2-0.7c0.3,0,0.5,0,0.6,0.2c0.2,0.2,0.2,0.4,0.1,0.6c0,0.1-0.2,0.4-0.4,0.7
					c-0.3,0.3-0.4,0.6-0.5,0.7s-0.3,0.4-0.7,0.9c-0.4,0.5-0.8,1.1-1.4,1.8c-0.5,0.7-1.1,1.4-1.7,2.2c-0.6,0.8-1.2,1.5-1.7,2.3
					c-0.5,0.7-1,1.4-1.4,1.9c-0.4,0.6-0.6,0.9-0.7,1.1c0,0,0.3-0.2,0.7-0.5c0.5-0.3,1-0.7,1.6-1.1c0.6-0.5,1.3-0.9,2.1-1.5
					c0.8-0.5,1.5-1,2.1-1.4c0.6-0.4,1.2-0.7,1.7-1S345.6,295.2,345.7,295.3z"/>
				
					<linearGradient id="SVGID_20_" gradientUnits="userSpaceOnUse" x1="366.421" y1="216.2543" x2="366.421" y2="146.4621" gradientTransform="matrix(1 0 0 -1 0 478)">
					<stop  offset="2.230000e-02" style="stop-color:#FFC3FF"/>
					<stop  offset="6.150000e-02" style="stop-color:#FF00FF"/>
					<stop  offset="0.6955" style="stop-color:#E000BB"/>
					<stop  offset="1" style="stop-color:#8D0080"/>
				</linearGradient>
				<path class="st24" d="M392,271.6c1.3-0.1,1.9-0.1,1.9,0c0,0-0.6,0.2-1.9,0.4c-0.6,0.1-1.3,0.3-2.2,0.4c-0.9,0.1-1.8,0.3-2.9,0.5
					c-2.9,0.5-5.7,0.9-8.4,1.4c-2.7,0.4-5.6,0.9-8.6,1.4c-1.5,0.2-3,0.4-4.4,0.6c-1.4,0.2-2.8,0.4-4.1,0.5c-1,1.5-1.9,2.8-2.6,3.9
					c-0.8,1.1-1.3,1.9-1.5,2.2c-1.2,1.7-2.4,3.4-3.6,5s-2.5,3.3-3.7,5c-1,1.4-2.1,2.7-3.1,4.1c-1,1.4-2,2.7-3,4.1
					c1.1-0.8,2.3-1.6,3.5-2.4c1.2-0.8,2.4-1.5,3.6-2.3c0.3-0.2,0.5-0.3,0.8-0.4s0.5-0.3,0.8-0.4c0.3-0.1,0.4-0.2,0.4-0.1
					c0,0.1-0.2,0.3-0.6,0.7c-0.4,0.3-0.8,0.7-1.3,1.1c-0.5,0.4-1,0.8-1.4,1.1c-0.5,0.3-0.8,0.6-0.9,0.7c-0.9,0.7-1.7,1.4-2.5,2.1
					c-0.9,0.7-1.7,1.4-2.5,2.2c-0.3,0.3-0.6,0.5-1,0.8s-0.6,0.6-1,0.9c-0.3,0.2-0.5,0.4-0.8,0.6s-0.6,0.2-1,0.1
					c-0.5-0.2-0.7-0.4-0.9-0.7c-0.1-0.3-0.1-0.7,0-1.1c0.1-0.4,0.3-0.8,0.5-1.1c0.2-0.4,0.4-0.7,0.6-1c0.3-0.6,0.6-1.1,1-1.6
					c0.3-0.5,0.7-1,1-1.5c1.2-1.9,2.5-3.7,3.8-5.4c1.3-1.8,2.6-3.6,3.9-5.4c0.4-0.5,0.8-1.1,1.5-2s1.3-1.7,2-2.6
					c0.7-1,1.5-1.9,2.2-3c0.8-1,1.5-2,2.3-3c-0.8,0.1-1.6,0.1-2.5,0.3s-1.8,0.2-2.6,0.3s-1.7,0.1-2.5,0.2c-0.8,0.1-1.5,0.1-2.2,0.1
					c-1.3,0-2-0.1-2-0.3c0-0.1,0.1-0.2,0.4-0.3c0.3-0.1,0.8-0.3,1.4-0.4c1.7-0.5,3.6-0.9,5.6-1.1c2.1-0.3,4.1-0.6,6.1-0.9
					c0.6-0.8,1.1-1.4,1.5-1.9c0.4-0.5,0.6-0.8,0.7-0.9c1.3-1.6,2.5-3.2,3.9-4.8c1.3-1.6,2.7-3.1,4.1-4.6c0,0,0.1-0.1,0.3-0.3
					c0.1-0.1,0.3-0.2,0.4-0.3c0.1-0.1,0.3-0.1,0.3-0.1c0.1,0,0.1,0.2,0,0.4c-0.4,0.9-0.9,1.8-1.4,2.7c-0.5,0.9-1.1,1.7-1.7,2.7
					c-0.6,0.9-1.3,1.9-2,3c-0.7,1.1-1.5,2.3-2.4,3.6c1-0.1,2.1-0.3,3.2-0.4c1.1-0.1,2.2-0.2,3.4-0.4c3-0.3,5.9-0.6,8.6-0.9
					s5.5-0.5,8.4-0.8c1.1-0.1,2.1-0.2,3-0.3C390.7,271.7,391.4,271.7,392,271.6z"/>
				
					<linearGradient id="SVGID_21_" gradientUnits="userSpaceOnUse" x1="354.5359" y1="216.2543" x2="354.5359" y2="146.4621" gradientTransform="matrix(1 0 0 -1 0 478)">
					<stop  offset="2.230000e-02" style="stop-color:#FFC3FF"/>
					<stop  offset="6.150000e-02" style="stop-color:#FF00FF"/>
					<stop  offset="0.6955" style="stop-color:#E000BB"/>
					<stop  offset="1" style="stop-color:#8D0080"/>
				</linearGradient>
				<path class="st25" d="M365,295.5c0,0.1-0.1,0.2-0.4,0.5s-0.6,0.6-1,0.9c-0.4,0.3-0.8,0.7-1.2,1c-0.4,0.3-0.6,0.5-0.8,0.7
					c-0.5,0.4-1,0.8-1.5,1.2c-0.5,0.4-1,0.8-1.5,1.2c-0.8,0.6-1.5,1.3-2.3,2c-0.7,0.6-1.4,1.3-2.2,2.1c-0.2,0.2-0.5,0.5-0.7,0.7
					c-0.2,0.2-0.5,0.4-0.7,0.6c-0.5,0.3-0.9,0.3-1.4,0.1c-0.5-0.2-0.8-0.6-0.8-1.1c-0.1-0.5,0-1,0.3-1.6c0.3-0.5,0.5-1,0.8-1.4
					c0.8-1.2,1.5-2.4,2.4-3.6c0.8-1.2,1.6-2.4,2.3-3.6c0.1-0.2,0.2-0.4,0.1-0.7c-0.1-0.3-0.2-0.6-0.2-0.8c-1.1,1-2.3,2-3.7,3
					s-2.7,1.9-3.9,2.8s-2.3,1.5-3.1,1.9c-0.9,0.5-1.3,0.6-1.4,0.5c0-0.1,0.2-0.3,0.8-0.7c0.5-0.4,1.2-1,2-1.6
					c0.8-0.6,1.7-1.4,2.7-2.2c1-0.8,1.9-1.6,2.8-2.4s1.6-1.5,2.2-2.2c0.6-0.7,1-1.3,1.1-1.7c0-0.5,0-1.2,0-1.9
					c0-0.7,0.3-1.3,0.8-1.8c0.4-0.4,0.9-0.6,1.4-0.6c0.5,0,1,0.3,1.2,0.9c0.3,0.6,0.3,1.1,0,1.7s-0.5,1.1-0.7,1.5
					c-0.1,0.2-0.1,0.3-0.2,0.4s-0.1,0.3-0.1,0.5c0.1,0.5,0.2,0.9,0.4,1.3s0.4,0.8,0.6,1.3c0.3,0.6,0.3,1.3,0.2,1.8
					c-0.1,0.6-0.4,1.1-0.8,1.7c-0.4,0.6-0.8,1.1-1.2,1.7s-0.8,1.1-1.2,1.7c0.8-0.5,1.5-1,2.2-1.5c0.7-0.5,1.5-1,2.2-1.5
					c0.1-0.1,0.4-0.3,0.8-0.6c0.5-0.3,1-0.6,1.5-0.9s1-0.6,1.5-0.8C364.7,295.5,364.9,295.4,365,295.5z"/>
				
					<linearGradient id="SVGID_22_" gradientUnits="userSpaceOnUse" x1="369.591" y1="216.2543" x2="369.591" y2="146.4621" gradientTransform="matrix(1 0 0 -1 0 478)">
					<stop  offset="2.230000e-02" style="stop-color:#FFC3FF"/>
					<stop  offset="6.150000e-02" style="stop-color:#FF00FF"/>
					<stop  offset="0.6955" style="stop-color:#E000BB"/>
					<stop  offset="1" style="stop-color:#8D0080"/>
				</linearGradient>
				<path class="st26" d="M377.8,288.3c0.4,0.1,0.8,0.4,1,0.7s0.4,0.5,0.3,0.4c-0.1,0-0.2-0.1-0.4-0.1c-0.2-0.1-0.4-0.1-0.8-0.1
					c-0.6-0.1-1.2,0-1.9,0.2s-1.2,0.4-1.9,0.8s-1.3,0.8-1.9,1.2c-0.6,0.5-1.3,1-1.9,1.5c-0.3,0.3-0.8,0.8-1.6,1.6
					c-0.8,0.8-1.6,1.7-2.4,2.7c-0.8,1-1.5,2.1-2.1,3.2s-0.9,2.1-0.9,3.1c1-0.1,2.1-0.6,3.3-1.4c1.3-0.8,2.5-1.8,3.7-2.8
					c1.2-1.1,2.3-2.3,3.3-3.5c1-1.2,1.6-2.3,2-3.4c0.1-0.3,0.2-0.6,0.3-1c0-0.3,0-0.6-0.1-1c-0.1-0.2-0.1-0.3-0.1-0.3
					c0-0.1,0.2-0.1,0.4,0.2s0.4,0.6,0.5,1c0.4,1.5,0.2,3-0.6,4.6c-0.8,1.6-1.8,3-3.2,4.4c-1.4,1.3-2.8,2.5-4.5,3.5
					c-1.6,1-3.1,1.6-4.4,2c-0.9,0.3-1.7,0.3-2.5,0c-0.6-0.3-1.1-0.7-1.4-1.4s-0.3-1.3-0.3-2c0.1-0.9,0.4-1.7,0.7-2.4
					s0.8-1.5,1.3-2.3c0.5-0.6,1-1.4,1.7-2.2c0.7-0.8,1.5-1.6,2.3-2.3c0.9-0.8,1.8-1.5,2.8-2.2c1-0.7,2-1.3,3-1.7c1-0.5,2-0.8,3-1
					C375.9,288,376.9,288,377.8,288.3z"/>
				
					<linearGradient id="SVGID_23_" gradientUnits="userSpaceOnUse" x1="404.1437" y1="216.2543" x2="404.1437" y2="146.4621" gradientTransform="matrix(1 0 0 -1 0 478)">
					<stop  offset="2.230000e-02" style="stop-color:#FFC3FF"/>
					<stop  offset="6.150000e-02" style="stop-color:#FF00FF"/>
					<stop  offset="0.6955" style="stop-color:#E000BB"/>
					<stop  offset="1" style="stop-color:#8D0080"/>
				</linearGradient>
				<path class="st27" d="M419.7,296.1c0,0,0,0.1-0.2,0.3c-0.2,0.1-0.4,0.3-0.6,0.5c-0.2,0.2-0.4,0.4-0.6,0.5s-0.3,0.3-0.4,0.4
					c-0.4,0.3-0.7,0.6-1.1,0.9c-0.4,0.3-0.7,0.6-1.1,0.9c-0.9,0.6-1.7,1.3-2.5,2c-0.9,0.7-1.7,1.4-2.5,2.1c-0.2,0.2-0.5,0.4-0.8,0.7
					c-0.3,0.3-0.5,0.5-0.7,0.7c-0.3,0.3-0.7,0.6-1.1,0.8c-0.4,0.2-0.9,0.2-1.3-0.2c-0.2-0.1-0.3-0.3-0.3-0.5
					c-0.1-0.2-0.1-0.4-0.2-0.6c-0.1-0.5,0-1,0-1.5c0.1-0.5,0.2-1,0.4-1.5s0.4-1,0.6-1.5s0.5-0.9,0.7-1.4c0.5-0.9,1.1-1.9,1.8-3
					c0.8-1.1,1.5-2,2.1-2.8c-1.1,0.7-2.3,1.5-3.3,2.4s-2.2,1.7-3.2,2.6c-0.2,0.1-0.5,0.5-1.1,1s-1.3,1.1-2,1.7c-0.7,0.6-1.4,1-2,1.5
					s-1.1,0.5-1.3,0.4c-0.2-0.1-0.2-0.4-0.1-0.9c0.1-0.5,0.4-1,0.7-1.7c0.3-0.6,0.7-1.4,1.1-2.1c0.4-0.7,0.9-1.5,1.3-2.1
					c0.4-0.7,0.8-1.3,1.2-1.8c0.4-0.5,0.6-0.9,0.8-1.1c-2.4,1.7-4.6,3.6-6.8,5.7c-2.1,2.1-4.1,4.4-6.1,6.9c-0.1,0.2-0.3,0.3-0.4,0.5
					s-0.3,0.3-0.5,0.4c-0.4,0.2-0.8,0.1-1.1-0.1c-0.4-0.2-0.5-0.5-0.6-1c0-1.1,0.3-2.2,0.9-3.3c0.6-1.1,1.2-2.1,1.8-3.1
					c0.3-0.4,0.7-1,1.2-1.7s1.2-1.4,1.9-2.3c0.7-0.8,1.5-1.7,2.2-2.5c0.8-0.9,1.5-1.7,2.3-2.4c0.7-0.8,1.4-1.5,2-2.1
					c0.6-0.6,1.1-1.1,1.5-1.4c0.1-0.1,0.2,0,0.1,0.1c0,0.2-0.1,0.4-0.2,0.7c-0.1,0.3-0.2,0.6-0.4,0.9s-0.2,0.4-0.3,0.5
					c-0.5,0.9-1,1.7-1.6,2.6s-1.2,1.7-1.8,2.6c-0.6,0.9-1.3,1.7-1.9,2.6s-1.1,1.7-1.6,2.6c1.2-1,2.4-2,3.6-3.1c1.2-1,2.3-2,3.3-2.9
					s2.1-1.7,3.1-2.5c1-0.7,1.9-1.3,2.8-1.7c0.4-0.2,0.9-0.2,1.4,0.1c0.4,0.2,0.6,0.5,0.7,0.9c0.1,0.4,0,0.8-0.2,1.1
					c-0.9,1.2-1.8,2.3-2.7,3.3c-1,1.1-1.9,2.1-2.8,3.3c1.7-1,3.3-2.2,4.8-3.5c1.5-1.3,3-2.6,4.6-3.9c0.5-0.4,1-0.8,1.5-1.2
					c0.5-0.4,1.1-0.7,1.7-0.9c0.2-0.1,0.5-0.1,0.7-0.1s0.5,0.1,0.7,0.2c0.4,0.2,0.6,0.5,0.7,0.9s0,0.8-0.2,1.1
					c-0.2,0.4-0.5,0.7-0.8,1s-0.5,0.6-0.8,1c-0.3,0.4-0.7,0.8-1,1.2c-0.3,0.4-0.7,0.8-1,1.2c-0.7,0.8-1.4,1.6-2,2.4
					c-0.6,0.8-1.2,1.7-1.8,2.5c-0.8,1.1-1.4,2.2-1.8,3.4c0.6-0.5,1.3-1,2-1.4c0.7-0.5,1.4-1,2.1-1.5c0.1-0.1,0.5-0.4,1.2-0.8
					s1.4-0.9,2.2-1.4s1.5-0.9,2.1-1.3C419.3,296.2,419.7,296,419.7,296.1z"/>
				
					<linearGradient id="SVGID_24_" gradientUnits="userSpaceOnUse" x1="426.2703" y1="216.2543" x2="426.2703" y2="146.4621" gradientTransform="matrix(1 0 0 -1 0 478)">
					<stop  offset="2.230000e-02" style="stop-color:#FFC3FF"/>
					<stop  offset="6.150000e-02" style="stop-color:#FF00FF"/>
					<stop  offset="0.6955" style="stop-color:#E000BB"/>
					<stop  offset="1" style="stop-color:#8D0080"/>
				</linearGradient>
				<path class="st28" d="M437.6,295.3c0.1,0.1,0,0.3-0.3,0.5c-0.3,0.2-0.4,0.4-0.5,0.4c-1.5,1.2-2.9,2.4-4.4,3.5
					c-0.9,0.7-1.7,1.4-2.5,2.2c-0.8,0.8-1.7,1.5-2.5,2.3l-1.2,1c-0.2,0.1-0.3,0.3-0.5,0.3c-0.2,0.1-0.3,0.2-0.5,0.3
					c-0.4,0.1-0.8,0-1.1-0.3c-0.3-0.2-0.5-0.6-0.6-1c-0.1-0.4,0-0.9,0.2-1.4c0.2-0.5,0.4-0.9,0.6-1.3c0.5-1,1-1.9,1.6-2.7
					s1.3-1.8,2.2-2.9c-0.9,0.8-1.8,1.5-2.6,2.3s-1.7,1.5-2.5,2.3c-0.7,0.6-1.4,1.3-2.2,1.9s-1.5,1.2-2.2,1.8
					c-0.2,0.2-0.4,0.3-0.7,0.5c-0.3,0.2-0.6,0.4-0.8,0.5c-0.3,0.1-0.6,0.2-0.9,0.2s-0.6-0.1-0.8-0.3c-0.4-0.3-0.6-0.8-0.6-1.4
					c0-0.6,0.1-1.2,0.4-1.9c0.3-0.6,0.5-1.3,0.9-1.9c0.4-0.6,0.6-1,0.8-1.4c0.9-1.3,1.8-2.5,2.9-3.7c1.1-1.2,2.2-2.2,3.4-3.2
					c0.6-0.6,1.4-1.1,2.1-1.6c0.8-0.5,1.5-0.9,2.4-1.1c0,0,0.1,0,0.2-0.1c0.1,0,0.2,0,0.3,0s0.2,0,0.3,0c0.1,0,0,0.1,0,0.2
					c-0.1,0.2-0.3,0.3-0.4,0.4c-0.1,0.1-0.3,0.2-0.5,0.4c-0.4,0.3-0.7,0.6-1,0.9c-0.3,0.3-0.6,0.7-1,1c-0.7,0.8-1.4,1.6-2,2.5
					c-0.7,0.9-1.3,1.8-2,2.8c-0.6,0.9-1.3,1.9-1.9,2.8c-0.6,0.9-1.2,1.9-1.8,2.7c2.6-1.7,5.3-3.7,7.9-5.9s5.3-4.4,8.1-6.7
					c0.4-0.3,0.9-0.7,1.4-1.1c0.5-0.4,1-0.7,1.2-0.7c0.3,0,0.5,0,0.6,0.2c0.2,0.2,0.2,0.4,0.1,0.6c0,0.1-0.2,0.4-0.4,0.7
					c-0.3,0.3-0.4,0.6-0.5,0.7s-0.3,0.4-0.7,0.9c-0.4,0.5-0.8,1.1-1.4,1.8c-0.5,0.7-1.1,1.4-1.7,2.2c-0.6,0.8-1.2,1.5-1.7,2.3
					c-0.5,0.7-1,1.4-1.4,1.9c-0.4,0.6-0.6,0.9-0.7,1.1c0,0,0.3-0.2,0.7-0.5c0.5-0.3,1-0.7,1.6-1.1c0.6-0.5,1.3-0.9,2.1-1.5
					c0.8-0.5,1.5-1,2.1-1.4c0.6-0.4,1.2-0.7,1.7-1S437.6,295.2,437.6,295.3z"/>
				
					<linearGradient id="SVGID_25_" gradientUnits="userSpaceOnUse" x1="442.3186" y1="216.2543" x2="442.3186" y2="146.4621" gradientTransform="matrix(1 0 0 -1 0 478)">
					<stop  offset="2.230000e-02" style="stop-color:#FFC3FF"/>
					<stop  offset="6.150000e-02" style="stop-color:#FF00FF"/>
					<stop  offset="0.6955" style="stop-color:#E000BB"/>
					<stop  offset="1" style="stop-color:#8D0080"/>
				</linearGradient>
				<path class="st29" d="M453.8,296.3c0,0.1,0,0.2-0.2,0.3c-0.2,0.2-0.4,0.3-0.6,0.5c-0.2,0.2-0.4,0.4-0.6,0.5
					c-0.2,0.2-0.3,0.3-0.4,0.3c-0.4,0.3-0.7,0.6-1.1,0.9c-0.4,0.3-0.8,0.6-1.1,0.9c-1,0.9-2.2,1.7-3.3,2.5c-1.2,0.8-2.3,1.7-3.3,2.8
					c-0.2,0.1-0.3,0.3-0.5,0.4c-0.2,0.1-0.4,0.3-0.6,0.4c-0.2,0.1-0.4,0.1-0.6,0.1c-0.2,0-0.4-0.1-0.7-0.3c-0.4-0.3-0.6-0.7-0.6-1.3
					c0-0.6,0.1-1.2,0.3-1.9c0.2-0.7,0.5-1.3,0.8-1.9c0.3-0.6,0.5-1.1,0.7-1.5c0.5-0.9,1.1-1.9,1.8-2.9c0.8-1,1.4-2,2-2.7
					c-1.1,0.7-2.1,1.3-3.1,1.9c-1,0.6-1.9,1.3-2.9,2s-2,1.7-3,2.9c-1,1.1-2.2,2.6-3.4,4.4c-0.1,0.2-0.3,0.3-0.4,0.5
					s-0.3,0.3-0.5,0.4c-0.4,0.2-0.7,0.1-1.1-0.1c-0.4-0.2-0.6-0.5-0.6-1c-0.1-0.5,0.2-1.4,0.9-2.5c0.6-1.2,1.5-2.5,2.6-3.9
					c1.1-1.4,2.3-2.9,3.7-4.4c1.4-1.5,2.8-2.9,4.3-4.2c0.3-0.3,0.7-0.5,1.1-0.9c0.4-0.3,0.7-0.5,1-0.6c0.1,0,0,0.1-0.1,0.3
					c-0.1,0.2-0.3,0.4-0.5,0.7c-0.2,0.3-0.4,0.6-0.6,0.9c-0.2,0.3-0.4,0.5-0.5,0.7c-0.6,0.9-1.1,1.5-1.5,2.1
					c-0.4,0.6-0.8,1.1-1.1,1.6c-0.4,0.5-0.8,1.1-1.2,1.7s-1,1.4-1.8,2.4c1.1-0.9,2.4-1.9,3.6-3s2.6-2.1,3.9-3.1
					c1.3-1,2.5-1.9,3.6-2.7c1.2-0.8,2.2-1.4,3.1-1.9c0.5-0.2,0.9-0.2,1.4,0.1c0.4,0.2,0.6,0.5,0.7,0.9s0,0.8-0.3,1.1
					c-0.5,0.8-1.2,1.6-2,2.4c-0.9,0.9-1.6,1.7-2.3,2.5c-0.7,0.8-1.4,1.6-2,2.4c-0.6,0.8-1.2,1.7-1.8,2.5c-0.3,0.5-0.7,1.1-1,1.6
					s-0.6,1.1-0.8,1.8c0.6-0.5,1.3-1,2-1.5s1.4-0.9,2.1-1.4c0.1-0.1,0.3-0.2,0.7-0.4c0.3-0.2,0.8-0.5,1.2-0.8c0.5-0.3,1-0.6,1.5-1
					s1-0.6,1.5-0.9c0.5-0.3,0.8-0.5,1.1-0.6C453.6,296.3,453.8,296.3,453.8,296.3z"/>
				
					<linearGradient id="SVGID_26_" gradientUnits="userSpaceOnUse" x1="469.1819" y1="216.2511" x2="469.1819" y2="146.4589" gradientTransform="matrix(1 0 0 -1 0 478)">
					<stop  offset="2.230000e-02" style="stop-color:#FFC3FF"/>
					<stop  offset="6.150000e-02" style="stop-color:#FF00FF"/>
					<stop  offset="0.6955" style="stop-color:#E000BB"/>
					<stop  offset="1" style="stop-color:#8D0080"/>
				</linearGradient>
				<path class="st30" d="M489.6,261.8c0,0,0,0.1,0,0.3c0,0.2-0.1,0.3-0.2,0.5c-0.1,0.2-0.2,0.4-0.3,0.5c-0.1,0.2-0.1,0.3-0.2,0.3
					c-1,1.8-2,3.6-3.1,5.3c-1.1,1.7-2.3,3.5-3.4,5.2c-1.2,1.8-2.5,3.6-3.8,5.4s-2.5,3.6-3.9,5.4c-2,2.8-4,5.5-6,8.3
					c-2,2.8-4.1,5.5-6.3,8.2c0.3-0.2,0.7-0.5,1.1-0.8s0.8-0.6,1-0.7c0.9-0.6,1.9-1.3,3-2s2.1-1.2,3.1-1.8c0.1-0.1,0.2-0.2,0.5-0.3
					c0.3-0.1,0.4-0.2,0.5-0.1c-0.1,0.1-0.3,0.4-0.7,0.7c-0.4,0.4-0.9,0.7-1.4,1.1c-0.5,0.4-1,0.8-1.5,1.2c-0.5,0.4-0.8,0.6-1,0.8
					c-0.9,0.7-1.8,1.5-2.8,2.4s-1.9,1.7-2.7,2.4c-0.4,0.4-0.8,0.6-1,0.9c-0.2,0.2-0.6,0.4-1.1,0.7c-0.7,0.3-1.3,0.1-1.8-0.3
					c-0.3-0.3-0.3-0.7-0.2-1.2s0.2-0.9,0.4-1.3c0.3-0.8,0.8-1.7,1.4-2.6c0.6-1,1.2-1.8,1.7-2.5c-1.2,1.1-2.6,2.3-4.1,3.5
					s-3,2.4-4.4,3.4c-0.2,0.2-0.4,0.3-0.7,0.5c-0.3,0.2-0.6,0.4-0.8,0.5c-0.3,0.1-0.6,0.2-0.9,0.2c-0.3,0-0.6-0.1-0.8-0.3
					c-0.4-0.3-0.5-0.7-0.6-1.1c0-0.5,0-0.9,0.2-1.3c0.5-1.5,1.1-2.8,2-4c0.8-1.2,1.7-2.3,2.6-3.3s1.8-1.9,2.7-2.6
					c0.9-0.7,1.6-1.3,2.2-1.8c0.6-0.4,1.3-0.9,2.2-1.4c0.8-0.5,1.7-0.9,2.6-1.3c0.9-0.4,1.8-0.6,2.8-0.8c0.9-0.2,1.8-0.2,2.6,0
					c1-1.3,1.9-2.6,2.7-3.8c0.8-1.2,1.7-2.5,2.7-3.8c1.3-1.8,2.7-3.5,4-5.2c1.3-1.7,2.7-3.5,4-5.1c1-1.2,1.9-2.4,2.9-3.6
					s2-2.3,3.1-3.4c0,0,0.1-0.1,0.3-0.3c0.2-0.2,0.3-0.4,0.5-0.5s0.4-0.3,0.5-0.4C489.4,261.7,489.6,261.7,489.6,261.8z
					 M452.5,303.1c1.2-0.9,2.5-1.8,3.8-2.8c1.3-0.9,2.7-2,4-3.1c1.3-1.1,2.6-2.3,3.9-3.7c1.3-1.3,2.4-2.8,3.5-4.5
					c-0.7,0-1.4,0.1-2.2,0.4s-1.5,0.6-2.2,1.1s-1.4,0.9-2,1.4s-1.1,0.9-1.6,1.3c-0.3,0.3-0.8,0.7-1.4,1.5c-0.6,0.7-1.3,1.5-2,2.4
					c-0.7,0.9-1.4,1.9-2.1,3C453.5,301.1,453,302.1,452.5,303.1z"/>
				
					<linearGradient id="SVGID_27_" gradientUnits="userSpaceOnUse" x1="476.701" y1="216.2543" x2="476.701" y2="146.4621" gradientTransform="matrix(1 0 0 -1 0 478)">
					<stop  offset="2.230000e-02" style="stop-color:#FFC3FF"/>
					<stop  offset="6.150000e-02" style="stop-color:#FF00FF"/>
					<stop  offset="0.6955" style="stop-color:#E000BB"/>
					<stop  offset="1" style="stop-color:#8D0080"/>
				</linearGradient>
				<path class="st31" d="M484.9,288.3c0.4,0.1,0.8,0.4,1,0.7s0.4,0.5,0.3,0.4c-0.1,0-0.2-0.1-0.4-0.1c-0.2-0.1-0.4-0.1-0.8-0.1
					c-0.6-0.1-1.2,0-1.9,0.2s-1.2,0.4-1.9,0.8s-1.3,0.8-1.9,1.2c-0.6,0.5-1.3,1-1.9,1.5c-0.3,0.3-0.8,0.8-1.6,1.6
					c-0.8,0.8-1.6,1.7-2.4,2.7c-0.8,1-1.5,2.1-2.1,3.2s-0.9,2.1-0.9,3.1c1-0.1,2.1-0.6,3.3-1.4c1.3-0.8,2.5-1.8,3.7-2.8
					c1.2-1.1,2.3-2.3,3.3-3.5c1-1.2,1.6-2.3,2-3.4c0.1-0.3,0.2-0.6,0.3-1c0-0.3,0-0.6-0.1-1c-0.1-0.2-0.1-0.3-0.1-0.3
					c0-0.1,0.2-0.1,0.4,0.2s0.4,0.6,0.5,1c0.4,1.5,0.2,3-0.6,4.6c-0.8,1.6-1.8,3-3.2,4.4c-1.4,1.3-2.8,2.5-4.5,3.5
					c-1.6,1-3.1,1.6-4.4,2c-0.9,0.3-1.7,0.3-2.5,0c-0.6-0.3-1.1-0.7-1.4-1.4s-0.3-1.3-0.3-2c0.1-0.9,0.4-1.7,0.7-2.4
					s0.8-1.5,1.3-2.3c0.5-0.6,1-1.4,1.7-2.2c0.7-0.8,1.5-1.6,2.3-2.3c0.9-0.8,1.8-1.5,2.8-2.2c1-0.7,2-1.3,3-1.7c1-0.5,2-0.8,3-1
					C483,288,484,288,484.9,288.3z"/>
			</g>
			<rect x="89.6" y="261.8" class="st3" width="425.7" height="74.6"/>
			<text transform="matrix(1 0 0 1 122.8126 305.5383)" class="st32 st33 st34">Cerveja de outro mundo</text>
		</g>
		<g>
			<rect x="88.1" y="261.8" class="st3" width="425.7" height="74.6"/>
			<text transform="matrix(1 0 0 1 121.3869 305.5385)" class="st35 st33 st34">Cerveja de outro mundo</text>
			<text transform="matrix(1 0 0 1 121.3869 305.5385)" class="st36 st33 st34">Cerveja de outro mundo</text>
		</g>
	</g>
</g>
</svg>
