<?xml version="1.0" encoding="utf-8"?>
<!-- Generator: Adobe Illustrator 23.0.0, SVG Export Plug-In . SVG Version: 6.00 Build 0)  -->
<svg version="1.1" id="Camada_1" xmlns="http://www.w3.org/2000/svg" xmlns:xlink="http://www.w3.org/1999/xlink" x="0px" y="0px"
	 viewBox="0 0 194.4 30.5" style="enable-background:new 0 0 194.4 30.5;" xml:space="preserve">
<style type="text/css">
	.st0{fill:url(#SVGID_1_);}
	.st1{fill:url(#SVGID_2_);}
	.st2{fill:url(#SVGID_3_);}
	.st3{fill:url(#SVGID_4_);}
	.st4{fill:url(#SVGID_5_);}
	.st5{fill:url(#SVGID_6_);}
	.st6{fill:url(#SVGID_7_);}
</style>
<g>
	
		<linearGradient id="SVGID_1_" gradientUnits="userSpaceOnUse" x1="13.1" y1="2.9" x2="13.1" y2="33.4" gradientTransform="matrix(1 0 0 -1 0 33.4)">
		<stop  offset="0" style="stop-color:#FFFFFF"/>
		<stop  offset="0.5056" style="stop-color:#00F3FF"/>
		<stop  offset="1" style="stop-color:#00A098"/>
	</linearGradient>
	<path class="st0" d="M26.2,6.4H0V4.5c0-0.3,0-0.7,0.1-1.1h26.1V6.4z M6.9,9.8H0v-3h6.9V9.8z M26,13.3H0.1C0,12.9,0,12.5,0,12.2
		v-1.9h21.7C23.7,10.3,25.1,11.3,26,13.3z M26.2,26c0,0.3,0,0.7-0.1,1.1H0v-3h26.2V26z M26,27.5c-0.9,2-2.3,3-4.3,3H0v-3H26z
		 M26.2,3h-26c0.9-2,2.3-3,4.3-3h21.7V3z M26.2,16.7H4.5c-2,0-3.4-1-4.3-3h25.9c0.1,0.4,0.1,0.8,0.1,1.1V16.7z M26.2,20.2h-6.9v-3
		h6.9V20.2z M26.2,23.6h-6.9v-3h6.9V23.6z"/>
	
		<linearGradient id="SVGID_2_" gradientUnits="userSpaceOnUse" x1="41.5" y1="2.9" x2="41.5" y2="33.4" gradientTransform="matrix(1 0 0 -1 0 33.4)">
		<stop  offset="0" style="stop-color:#FFFFFF"/>
		<stop  offset="0.5056" style="stop-color:#00F3FF"/>
		<stop  offset="1" style="stop-color:#00A098"/>
	</linearGradient>
	<path class="st1" d="M35.3,3h-6.9V0h6.9V3z M35.3,6.4h-6.9v-3h6.9V6.4z M35.3,9.8h-6.9v-3h6.9V9.8z M35.3,13.3h-6.9v-3h6.9V13.3z
		 M35.3,16.7h-6.9v-3h6.9V16.7z M35.3,20.2h-6.9v-3h6.9V20.2z M35.3,23.6h-6.9v-3h6.9V23.6z M54.6,26c0,0.3,0,0.7-0.1,1.1h-26
		c-0.1-0.4-0.1-0.8-0.1-1.1v-1.9h26.2V26z M54.4,27.5c-0.9,2-2.3,3-4.3,3H32.9c-2,0-3.4-1-4.3-3H54.4z M54.6,3h-6.9V0h6.9V3z
		 M54.6,6.4h-6.9v-3h6.9V6.4z M54.6,9.8h-6.9v-3h6.9V9.8z M54.6,13.3h-6.9v-3h6.9V13.3z M54.6,16.7h-6.9v-3h6.9V16.7z M54.6,20.2
		h-6.9v-3h6.9V20.2z M54.6,23.6h-6.9v-3h6.9V23.6z"/>
	
		<linearGradient id="SVGID_3_" gradientUnits="userSpaceOnUse" x1="69.9" y1="2.9" x2="69.9" y2="33.4" gradientTransform="matrix(1 0 0 -1 0 33.4)">
		<stop  offset="0" style="stop-color:#FFFFFF"/>
		<stop  offset="0.5056" style="stop-color:#00F3FF"/>
		<stop  offset="1" style="stop-color:#00A098"/>
	</linearGradient>
	<path class="st2" d="M82.8,3h-26V0h21.7C80.5,0,81.9,1,82.8,3z M83,6.4H56.8v-3h26.1C83,3.8,83,4.2,83,4.5L83,6.4L83,6.4z
		 M63.6,9.8h-6.8v-3h6.9L63.6,9.8L63.6,9.8z M83,12.2c0,0.3,0,0.7-0.1,1.1H56.8v-3H83V12.2z M82.8,13.7c-0.9,2-2.3,3-4.3,3H56.8v-3
		H82.8z M63.6,20.2h-6.8v-3h6.9L63.6,20.2L63.6,20.2z M63.6,23.6h-6.8v-3h6.9L63.6,23.6L63.6,23.6z M63.6,27h-6.8v-3h6.9L63.6,27
		L63.6,27z M63.6,30.5h-6.8v-3h6.9L63.6,30.5L63.6,30.5z M83,9.8h-6.9v-3H83V9.8z"/>
	
		<linearGradient id="SVGID_4_" gradientUnits="userSpaceOnUse" x1="98.25" y1="2.9" x2="98.25" y2="33.4" gradientTransform="matrix(1 0 0 -1 0 33.4)">
		<stop  offset="0" style="stop-color:#FFFFFF"/>
		<stop  offset="0.5056" style="stop-color:#00F3FF"/>
		<stop  offset="1" style="stop-color:#00A098"/>
	</linearGradient>
	<path class="st3" d="M111.4,6.4H85.2V4.5c0-0.3,0-0.7,0.1-1.1h26c0.1,0.4,0.1,0.8,0.1,1.1L111.4,6.4L111.4,6.4z M92,9.8h-6.9v-3H92
		V9.8z M92,13.3h-6.9v-3H92V13.3z M92,16.7h-6.9v-3H92V16.7z M92,20.2h-6.9v-3H92V20.2z M92,23.6h-6.9v-3H92V23.6z M111.4,26
		c0,0.3,0,0.7-0.1,1.1h-26c-0.1-0.4-0.1-0.8-0.1-1.1v-1.9h26.2L111.4,26L111.4,26z M111.2,3H85.4c0.9-2,2.3-3,4.3-3h17.2
		C108.8,0,110.3,1,111.2,3z M111.2,27.5c-0.9,2-2.3,3-4.3,3H89.7c-2,0-3.4-1-4.3-3H111.2z M111.4,9.8h-6.9v-3h6.9V9.8z M111.4,13.3
		h-6.9v-3h6.9V13.3z M111.4,16.7h-6.9v-3h6.9V16.7z M111.4,20.2h-6.9v-3h6.9V20.2z M111.4,23.6h-6.9v-3h6.9V23.6z"/>
	
		<linearGradient id="SVGID_5_" gradientUnits="userSpaceOnUse" x1="126.65" y1="2.9" x2="126.65" y2="33.4" gradientTransform="matrix(1 0 0 -1 0 33.4)">
		<stop  offset="0" style="stop-color:#FFFFFF"/>
		<stop  offset="0.5056" style="stop-color:#00F3FF"/>
		<stop  offset="1" style="stop-color:#00A098"/>
	</linearGradient>
	<path class="st4" d="M139.5,3h-26V0h21.7C137.2,0,138.7,1,139.5,3z M139.8,6.4h-26.2v-3h26.1c0.1,0.4,0.1,0.8,0.1,1.1L139.8,6.4
		L139.8,6.4z M120.4,9.8h-6.9v-3h6.9V9.8z M139.5,10.3c-0.9,2-2.3,3-4.3,3h-21.7v-3H139.5z M139.5,16.7h-26v-3h21.7
		C137.2,13.7,138.7,14.7,139.5,16.7z M120.4,20.2h-6.9v-3h6.9V20.2z M120.4,23.6h-6.9v-3h6.9V23.6z M120.4,27h-6.9v-3h6.9V27z
		 M120.4,30.5h-6.9v-3h6.9V30.5z M139.8,8.8c0,0.3,0,0.7-0.1,1.1h-6.8v-3h6.9L139.8,8.8L139.8,8.8z M139.8,20.2h-6.9v-3h6.8
		c0.1,0.4,0.1,0.8,0.1,1.1L139.8,20.2L139.8,20.2z M139.8,23.6h-6.9v-3h6.9V23.6z M139.8,27h-6.9v-3h6.9V27z M139.8,30.5h-6.9v-3
		h6.9V30.5z"/>
	
		<linearGradient id="SVGID_6_" gradientUnits="userSpaceOnUse" x1="155" y1="2.9" x2="155" y2="33.4" gradientTransform="matrix(1 0 0 -1 0 33.4)">
		<stop  offset="0" style="stop-color:#FFFFFF"/>
		<stop  offset="0.5056" style="stop-color:#00F3FF"/>
		<stop  offset="1" style="stop-color:#00A098"/>
	</linearGradient>
	<path class="st5" d="M168.1,3h-26.2V0h26.2V3z M168.1,6.4h-26.2v-3h26.2V6.4z M158.9,9.8H152v-3h6.9V9.8z M158.9,13.3H152v-3h6.9
		V13.3z M158.9,16.7H152v-3h6.9V16.7z M158.9,20.2H152v-3h6.9V20.2z M158.9,23.6H152v-3h6.9V23.6z M158.9,27H152v-3h6.9V27z
		 M158.9,30.5H152v-3h6.9V30.5z"/>
	
		<linearGradient id="SVGID_7_" gradientUnits="userSpaceOnUse" x1="182.35" y1="2.9" x2="182.35" y2="33.4" gradientTransform="matrix(1 0 0 -1 0 33.4)">
		<stop  offset="0" style="stop-color:#FFFFFF"/>
		<stop  offset="0.5056" style="stop-color:#00F3FF"/>
		<stop  offset="1" style="stop-color:#00A098"/>
	</linearGradient>
	<path class="st6" d="M194.4,6.4h-24.1V4.5c0-0.3,0-0.7,0.1-1.1h24V6.4z M177.2,9.8h-6.9v-3h6.9V9.8z M194.4,13.3h-24.1v-3h24.1
		V13.3z M194.4,16.7h-24.1v-3h24.1V16.7z M177.2,20.2h-6.9v-3h6.9V20.2z M177.2,23.6h-6.9v-3h6.9V23.6z M194.4,27h-24
		c-0.1-0.4-0.1-0.8-0.1-1.1V24h24.1V27z M194.4,3h-23.9c0.9-2,2.3-3,4.3-3h19.6L194.4,3L194.4,3z M194.4,30.5h-19.6
		c-2,0-3.4-1-4.3-3h23.9L194.4,30.5L194.4,30.5z"/>
</g>
</svg>
