<?xml version="1.0" encoding="utf-8"?>
<!-- Generator: Adobe Illustrator 23.0.0, SVG Export Plug-In . SVG Version: 6.00 Build 0)  -->
<svg version="1.1" id="Camada_1" xmlns="http://www.w3.org/2000/svg" xmlns:xlink="http://www.w3.org/1999/xlink" x="0px" y="0px"
	 viewBox="0 0 189.5 30.5" style="enable-background:new 0 0 189.5 30.5;" xml:space="preserve">
<style type="text/css">
	.st0{fill:url(#SVGID_1_);}
	.st1{fill:url(#SVGID_2_);}
	.st2{fill:url(#SVGID_3_);}
	.st3{fill:url(#SVGID_4_);}
	.st4{fill:url(#SVGID_5_);}
	.st5{fill:url(#SVGID_6_);}
	.st6{fill:url(#SVGID_7_);}
</style>
<g>
	
		<linearGradient id="SVGID_1_" gradientUnits="userSpaceOnUse" x1="13.15" y1="2.9" x2="13.15" y2="33.4" gradientTransform="matrix(1 0 0 -1 0 33.4)">
		<stop  offset="0" style="stop-color:#FFFFFF"/>
		<stop  offset="0.5056" style="stop-color:#00F3FF"/>
		<stop  offset="1" style="stop-color:#00A098"/>
	</linearGradient>
	<path class="st0" d="M26.3,6.4H0V4.5c0-0.3,0-0.7,0.1-1.1h26c0.1,0.4,0.1,0.8,0.1,1.1v1.9H26.3z M6.9,9.8H0v-3h6.9V9.8z M6.9,13.3
		H0v-3h6.9V13.3z M6.9,16.7H0v-3h6.9V16.7z M6.9,20.2H0v-3h6.9V20.2z M6.9,23.6H0v-3h6.9V23.6z M26.3,26c0,0.3,0,0.7-0.1,1.1h-26
		c-0.1-0.4-0.1-0.8-0.1-1.1v-1.9h26.2C26.3,24.1,26.3,26,26.3,26z M26.1,3H0.3c0.9-2,2.3-3,4.3-3h17.2C23.7,0,25.2,1,26.1,3z
		 M26.1,27.5c-0.9,2-2.3,3-4.3,3H4.6c-2,0-3.4-1-4.3-3H26.1z M26.3,9.8h-6.9v-3h6.9V9.8z M26.3,13.3h-6.9v-3h6.9V13.3z M26.3,16.7
		h-6.9v-3h6.9V16.7z M26.3,20.2h-6.9v-3h6.9V20.2z M26.3,23.6h-6.9v-3h6.9V23.6z"/>
	
		<linearGradient id="SVGID_2_" gradientUnits="userSpaceOnUse" x1="40.45" y1="2.9" x2="40.45" y2="33.4" gradientTransform="matrix(1 0 0 -1 0 33.4)">
		<stop  offset="0" style="stop-color:#FFFFFF"/>
		<stop  offset="0.5056" style="stop-color:#00F3FF"/>
		<stop  offset="1" style="stop-color:#00A098"/>
	</linearGradient>
	<path class="st1" d="M52.5,6.4H28.4V4.5c0-0.3,0-0.7,0.1-1.1h24V6.4z M35.3,9.8h-6.9v-3h6.9V9.8z M52.5,13.3H28.4v-3h24.1V13.3z
		 M52.5,16.7H28.4v-3h24.1V16.7z M35.3,20.2h-6.9v-3h6.9V20.2z M35.3,23.6h-6.9v-3h6.9V23.6z M35.3,27h-6.9v-3h6.9V27z M35.3,30.5
		h-6.9v-3h6.9V30.5z M52.5,3H28.6c0.9-2,2.3-3,4.3-3h19.6V3z"/>
	
		<linearGradient id="SVGID_3_" gradientUnits="userSpaceOnUse" x1="66.65" y1="2.9" x2="66.65" y2="33.4" gradientTransform="matrix(1 0 0 -1 0 33.4)">
		<stop  offset="0" style="stop-color:#FFFFFF"/>
		<stop  offset="0.5056" style="stop-color:#00F3FF"/>
		<stop  offset="1" style="stop-color:#00A098"/>
	</linearGradient>
	<path class="st2" d="M78.7,6.4H54.6V4.5c0-0.3,0-0.7,0.1-1.1h24V6.4z M61.5,9.8h-6.9v-3h6.9V9.8z M78.7,13.3H54.6v-3h24.1V13.3z
		 M78.7,16.7H54.6v-3h24.1V16.7z M61.5,20.2h-6.9v-3h6.9V20.2z M61.5,23.6h-6.9v-3h6.9V23.6z M78.7,27h-24c-0.1-0.4-0.1-0.8-0.1-1.1
		V24h24.1V27z M78.7,3H54.8c0.9-2,2.3-3,4.3-3h19.6V3z M78.7,30.5H59.1c-2,0-3.4-1-4.3-3h23.9V30.5z"/>
	
		<linearGradient id="SVGID_4_" gradientUnits="userSpaceOnUse" x1="94" y1="2.9" x2="94" y2="33.4" gradientTransform="matrix(1 0 0 -1 0 33.4)">
		<stop  offset="0" style="stop-color:#FFFFFF"/>
		<stop  offset="0.5056" style="stop-color:#00F3FF"/>
		<stop  offset="1" style="stop-color:#00A098"/>
	</linearGradient>
	<path class="st3" d="M106.9,3h-26V0h21.7C104.6,0,106,1,106.9,3z M107.1,6.4H80.9v-3H107c0.1,0.4,0.1,0.8,0.1,1.1L107.1,6.4
		L107.1,6.4z M87.8,9.8h-6.9v-3h6.9V9.8z M106.9,10.3c-0.9,2-2.3,3-4.3,3H80.9v-3H106.9z M106.9,16.7h-26v-3h21.7
		C104.6,13.7,106,14.7,106.9,16.7z M87.8,20.2h-6.9v-3h6.9V20.2z M87.8,23.6h-6.9v-3h6.9V23.6z M87.8,27h-6.9v-3h6.9V27z M87.8,30.5
		h-6.9v-3h6.9V30.5z M107.1,8.8c0,0.3,0,0.7-0.1,1.1h-6.8v-3h6.9L107.1,8.8L107.1,8.8z M107.1,20.2h-6.9v-3h6.8
		c0.1,0.4,0.1,0.8,0.1,1.1L107.1,20.2L107.1,20.2z M107.1,23.6h-6.9v-3h6.9V23.6z M107.1,27h-6.9v-3h6.9V27z M107.1,30.5h-6.9v-3
		h6.9V30.5z"/>
	
		<linearGradient id="SVGID_5_" gradientUnits="userSpaceOnUse" x1="122.4" y1="2.9" x2="122.4" y2="33.4" gradientTransform="matrix(1 0 0 -1 0 33.4)">
		<stop  offset="0" style="stop-color:#FFFFFF"/>
		<stop  offset="0.5056" style="stop-color:#00F3FF"/>
		<stop  offset="1" style="stop-color:#00A098"/>
	</linearGradient>
	<path class="st4" d="M135.5,3h-26.2V0h26.2V3z M135.5,6.4h-26.2v-3h26.2V6.4z M126.2,9.8h-6.8v-3h6.9L126.2,9.8L126.2,9.8z
		 M126.2,13.3h-6.8v-3h6.9L126.2,13.3L126.2,13.3z M126.2,16.7h-6.8v-3h6.9L126.2,16.7L126.2,16.7z M126.2,20.2h-6.8v-3h6.9
		L126.2,20.2L126.2,20.2z M126.2,23.6h-6.8v-3h6.9L126.2,23.6L126.2,23.6z M126.2,27h-6.8v-3h6.9L126.2,27L126.2,27z M126.2,30.5
		h-6.8v-3h6.9L126.2,30.5L126.2,30.5z"/>
	
		<linearGradient id="SVGID_6_" gradientUnits="userSpaceOnUse" x1="146.1" y1="2.9" x2="146.1" y2="33.4" gradientTransform="matrix(1 0 0 -1 0 33.4)">
		<stop  offset="0" style="stop-color:#FFFFFF"/>
		<stop  offset="0.5056" style="stop-color:#00F3FF"/>
		<stop  offset="1" style="stop-color:#00A098"/>
	</linearGradient>
	<path class="st5" d="M138.6,27.5l-1.2,3h-7.7l1.2-3H138.6z M140,24l-1.2,3h-7.7l1.2-3H140z M159.8,23.6h-27.4l1.2-3h24.9
		L159.8,23.6z M158.4,20.2h-24.6l1.2-3h22.2L158.4,20.2z M144.1,13.7l-1.2,3h-7.7l1.2-3H144.1z M145.5,10.3l-1.2,3h-7.7l1.2-3H145.5
		z M154.3,9.8h-7.7l-0.4-1l-0.4,1h-7.7l1.2-3h13.9L154.3,9.8z M152.9,6.4h-13.6l1.2-3h11.2L152.9,6.4z M151.5,3h-10.8l1.2-3h8.4
		L151.5,3z M155.7,13.3H148l-1.2-3h7.7L155.7,13.3z M157,16.7h-7.7l-1.2-3h7.7L157,16.7z M161.2,27h-7.8l-1.2-3h7.7L161.2,27z
		 M162.5,30.5h-7.7l-1.2-3h7.7L162.5,30.5z"/>
	
		<linearGradient id="SVGID_7_" gradientUnits="userSpaceOnUse" x1="176.4" y1="2.9" x2="176.4" y2="33.4" gradientTransform="matrix(1 0 0 -1 0 33.4)">
		<stop  offset="0" style="stop-color:#FFFFFF"/>
		<stop  offset="0.5056" style="stop-color:#00F3FF"/>
		<stop  offset="1" style="stop-color:#00A098"/>
	</linearGradient>
	<path class="st6" d="M189.5,6.4h-26.2V4.5c0-0.3,0-0.7,0.1-1.1h26.1L189.5,6.4L189.5,6.4z M170.2,9.8h-6.9v-3h6.9V9.8z M189.3,13.3
		h-25.9c-0.1-0.4-0.1-0.8-0.1-1.1v-1.9H185C187,10.3,188.4,11.3,189.3,13.3z M189.5,26c0,0.3,0,0.7-0.1,1.1h-26.1v-3h26.2V26
		L189.5,26z M189.3,27.5c-0.9,2-2.3,3-4.3,3h-21.7v-3H189.3z M189.5,3h-26c0.9-2,2.3-3,4.3-3h21.7V3z M189.5,16.7h-21.7
		c-2,0-3.4-1-4.3-3h25.9c0.1,0.4,0.1,0.8,0.1,1.1V16.7z M189.5,20.2h-6.9v-3h6.9V20.2z M189.5,23.6h-6.9v-3h6.9V23.6z"/>
</g>
</svg>
