<?xml version="1.0" encoding="utf-8"?>
<!-- Generator: Adobe Illustrator 23.0.0, SVG Export Plug-In . SVG Version: 6.00 Build 0)  -->
<svg version="1.1" xmlns="http://www.w3.org/2000/svg" xmlns:xlink="http://www.w3.org/1999/xlink" x="0px" y="0px"
	 viewBox="0 0 224.9 30.5" style="enable-background:new 0 0 224.9 30.5;" xml:space="preserve">
<style type="text/css">
	.st0{fill:url(#SVGID_1_);}
	.st1{fill:url(#SVGID_2_);}
	.st2{fill:url(#SVGID_3_);}
	.st3{fill:url(#SVGID_4_);}
	.st4{fill:url(#SVGID_5_);}
	.st5{fill:url(#SVGID_6_);}
	.st6{fill:url(#SVGID_7_);}
	.st7{fill:url(#SVGID_8_);}
</style>
<g id="Camada_1">
	<g>
		
			<linearGradient id="SVGID_1_" gradientUnits="userSpaceOnUse" x1="13.05" y1="2.9" x2="13.05" y2="33.4" gradientTransform="matrix(1 0 0 -1 0 33.4)">
			<stop  offset="0" style="stop-color:#FFFFFF"/>
			<stop  offset="0.5056" style="stop-color:#00F3FF"/>
			<stop  offset="1" style="stop-color:#00A098"/>
		</linearGradient>
		<path class="st0" d="M26,3H0V0h21.7C23.6,0,25.1,1,26,3z M26.2,6.4H-0.1v-3H26c0.1,0.4,0.1,0.8,0.1,1.1L26.2,6.4L26.2,6.4z
			 M6.8,9.8h-6.9v-3h6.9V9.8z M26.2,12.2c0,0.3,0,0.7-0.1,1.1H-0.1v-3h26.2L26.2,12.2L26.2,12.2z M26,13.7c-0.9,2-2.3,3-4.3,3H-0.1
			v-3H26z M6.8,20.2h-6.9v-3h6.9V20.2z M6.8,23.6h-6.9v-3h6.9V23.6z M6.8,27h-6.9v-3h6.9V27z M6.8,30.5h-6.9v-3h6.9V30.5z M26.2,9.8
			h-6.9v-3h6.9V9.8z"/>
		
			<linearGradient id="SVGID_2_" gradientUnits="userSpaceOnUse" x1="41.45" y1="2.9" x2="41.45" y2="33.4" gradientTransform="matrix(1 0 0 -1 0 33.4)">
			<stop  offset="0" style="stop-color:#FFFFFF"/>
			<stop  offset="0.5056" style="stop-color:#00F3FF"/>
			<stop  offset="1" style="stop-color:#00A098"/>
		</linearGradient>
		<path class="st1" d="M54.3,3h-26V0H50C52,0,53.5,1,54.3,3z M54.6,6.4H28.3v-3h26.1c0.1,0.4,0.1,0.8,0.1,1.1L54.6,6.4L54.6,6.4z
			 M35.2,9.8h-6.9v-3h6.9V9.8z M54.3,10.3c-0.9,2-2.3,3-4.3,3H28.3v-3H54.3z M54.3,16.7h-26v-3H50C52,13.7,53.5,14.7,54.3,16.7z
			 M35.2,20.2h-6.9v-3h6.9V20.2z M35.2,23.6h-6.9v-3h6.9V23.6z M35.2,27h-6.9v-3h6.9V27z M35.2,30.5h-6.9v-3h6.9V30.5z M54.6,8.8
			c0,0.3,0,0.7-0.1,1.1h-6.8v-3h6.9V8.8z M54.6,20.2h-6.9v-3h6.8c0.1,0.4,0.1,0.8,0.1,1.1V20.2z M54.6,23.6h-6.9v-3h6.9V23.6z
			 M54.6,27h-6.9v-3h6.9V27z M54.6,30.5h-6.9v-3h6.9V30.5z"/>
		
			<linearGradient id="SVGID_3_" gradientUnits="userSpaceOnUse" x1="69.8" y1="2.9" x2="69.8" y2="33.4" gradientTransform="matrix(1 0 0 -1 0 33.4)">
			<stop  offset="0" style="stop-color:#FFFFFF"/>
			<stop  offset="0.5056" style="stop-color:#00F3FF"/>
			<stop  offset="1" style="stop-color:#00A098"/>
		</linearGradient>
		<path class="st2" d="M82.9,6.4H56.7V4.5c0-0.3,0-0.7,0.1-1.1h26c0.1,0.4,0.1,0.8,0.1,1.1C82.9,4.5,82.9,6.4,82.9,6.4z M63.6,9.8
			h-6.9v-3h6.9V9.8z M63.6,13.3h-6.9v-3h6.9V13.3z M63.6,16.7h-6.9v-3h6.9V16.7z M63.6,20.2h-6.9v-3h6.9V20.2z M63.6,23.6h-6.9v-3
			h6.9V23.6z M82.9,26c0,0.3,0,0.7-0.1,1.1h-26c-0.1-0.4-0.1-0.8-0.1-1.1v-1.9h26.2C82.9,24.1,82.9,26,82.9,26z M82.7,3H56.9
			c0.9-2,2.3-3,4.3-3h17.2C80.4,0,81.8,1,82.7,3z M82.7,27.5c-0.9,2-2.3,3-4.3,3H61.2c-2,0-3.4-1-4.3-3H82.7z M82.9,9.8H76v-3h6.9
			V9.8z M82.9,13.3H76v-3h6.9V13.3z M82.9,16.7H76v-3h6.9V16.7z M82.9,20.2H76v-3h6.9V20.2z M82.9,23.6H76v-3h6.9V23.6z"/>
		
			<linearGradient id="SVGID_4_" gradientUnits="userSpaceOnUse" x1="98.2" y1="2.9" x2="98.2" y2="33.4" gradientTransform="matrix(1 0 0 -1 0 33.4)">
			<stop  offset="0" style="stop-color:#FFFFFF"/>
			<stop  offset="0.5056" style="stop-color:#00F3FF"/>
			<stop  offset="1" style="stop-color:#00A098"/>
		</linearGradient>
		<path class="st3" d="M111.1,3h-26V0h21.7C108.8,0,110.2,1,111.1,3z M111.3,6.4H85.1v-3h26.1c0.1,0.4,0.1,0.8,0.1,1.1L111.3,6.4
			L111.3,6.4z M92,9.8h-6.9v-3H92V9.8z M92,13.3h-6.9v-3H92V13.3z M92,16.7h-6.9v-3H92V16.7z M92,20.2h-6.9v-3H92V20.2z M92,23.6
			h-6.9v-3H92V23.6z M111.3,26c0,0.3,0,0.7-0.1,1.1H85.1v-3h26.2V26z M111.1,27.5c-0.9,2-2.3,3-4.3,3H85.1v-3H111.1z M111.3,9.8
			h-6.9v-3h6.9V9.8z M111.3,13.3h-6.9v-3h6.9V13.3z M111.3,16.7h-6.9v-3h6.9V16.7z M111.3,20.2h-6.9v-3h6.9V20.2z M111.3,23.6h-6.9
			v-3h6.9V23.6z"/>
		
			<linearGradient id="SVGID_5_" gradientUnits="userSpaceOnUse" x1="126.55" y1="2.9" x2="126.55" y2="33.4" gradientTransform="matrix(1 0 0 -1 0 33.4)">
			<stop  offset="0" style="stop-color:#FFFFFF"/>
			<stop  offset="0.5056" style="stop-color:#00F3FF"/>
			<stop  offset="1" style="stop-color:#00A098"/>
		</linearGradient>
		<path class="st4" d="M120.3,3h-6.9V0h6.9V3z M120.3,6.4h-6.9v-3h6.9V6.4z M120.3,9.8h-6.9v-3h6.9V9.8z M120.3,13.3h-6.9v-3h6.9
			V13.3z M120.3,16.7h-6.9v-3h6.9V16.7z M120.3,20.2h-6.9v-3h6.9V20.2z M120.3,23.6h-6.9v-3h6.9V23.6z M139.7,26
			c0,0.3,0,0.7-0.1,1.1h-26c-0.1-0.4-0.1-0.8-0.1-1.1v-1.9h26.2L139.7,26L139.7,26z M139.5,27.5c-0.9,2-2.3,3-4.3,3H118
			c-2,0-3.4-1-4.3-3H139.5z M139.7,3h-6.9V0h6.9V3z M139.7,6.4h-6.9v-3h6.9V6.4z M139.7,9.8h-6.9v-3h6.9V9.8z M139.7,13.3h-6.9v-3
			h6.9V13.3z M139.7,16.7h-6.9v-3h6.9V16.7z M139.7,20.2h-6.9v-3h6.9V20.2z M139.7,23.6h-6.9v-3h6.9V23.6z"/>
		
			<linearGradient id="SVGID_6_" gradientUnits="userSpaceOnUse" x1="155" y1="2.9" x2="155" y2="33.4" gradientTransform="matrix(1 0 0 -1 0 33.4)">
			<stop  offset="0" style="stop-color:#FFFFFF"/>
			<stop  offset="0.5056" style="stop-color:#00F3FF"/>
			<stop  offset="1" style="stop-color:#00A098"/>
		</linearGradient>
		<path class="st5" d="M168.1,3h-26.2V0h26.2V3z M168.1,6.4h-26.2v-3h26.2V6.4z M158.8,9.8h-6.9v-3h6.9V9.8z M158.8,13.3h-6.9v-3
			h6.9V13.3z M158.8,16.7h-6.9v-3h6.9V16.7z M158.8,20.2h-6.9v-3h6.9V20.2z M158.8,23.6h-6.9v-3h6.9V23.6z M158.8,27h-6.9v-3h6.9V27
			z M158.8,30.5h-6.9v-3h6.9V30.5z"/>
		
			<linearGradient id="SVGID_7_" gradientUnits="userSpaceOnUse" x1="183.35" y1="2.9" x2="183.35" y2="33.4" gradientTransform="matrix(1 0 0 -1 0 33.4)">
			<stop  offset="0" style="stop-color:#FFFFFF"/>
			<stop  offset="0.5056" style="stop-color:#00F3FF"/>
			<stop  offset="1" style="stop-color:#00A098"/>
		</linearGradient>
		<path class="st6" d="M196.5,6.4h-26.2V4.5c0-0.3,0-0.7,0.1-1.1h26c0.1,0.4,0.1,0.8,0.1,1.1L196.5,6.4L196.5,6.4z M177.1,9.8h-6.9
			v-3h6.9V9.8z M177.1,13.3h-6.9v-3h6.9V13.3z M177.1,16.7h-6.9v-3h6.9V16.7z M177.1,20.2h-6.9v-3h6.9V20.2z M177.1,23.6h-6.9v-3
			h6.9V23.6z M196.5,26c0,0.3,0,0.7-0.1,1.1h-26c-0.1-0.4-0.1-0.8-0.1-1.1v-1.9h26.2L196.5,26L196.5,26z M196.2,3h-25.8
			c0.9-2,2.3-3,4.3-3h17.2C193.9,0,195.3,1,196.2,3z M196.2,27.5c-0.9,2-2.3,3-4.3,3h-17.2c-2,0-3.4-1-4.3-3H196.2z M196.5,9.8h-6.9
			v-3h6.9V9.8z M196.5,13.3h-6.9v-3h6.9V13.3z M196.5,16.7h-6.9v-3h6.9V16.7z M196.5,20.2h-6.9v-3h6.9V20.2z M196.5,23.6h-6.9v-3
			h6.9V23.6z"/>
		
			<linearGradient id="SVGID_8_" gradientUnits="userSpaceOnUse" x1="211.75" y1="2.9" x2="211.75" y2="33.4" gradientTransform="matrix(1 0 0 -1 0 33.4)">
			<stop  offset="0" style="stop-color:#FFFFFF"/>
			<stop  offset="0.5056" style="stop-color:#00F3FF"/>
			<stop  offset="1" style="stop-color:#00A098"/>
		</linearGradient>
		<path class="st7" d="M224.8,6.4h-26.2V4.5c0-0.3,0-0.7,0.1-1.1h26.1V6.4z M205.5,9.8h-6.9v-3h6.9V9.8z M224.6,13.3h-25.9
			c-0.1-0.4-0.1-0.8-0.1-1.1v-1.9h21.7C222.3,10.3,223.7,11.3,224.6,13.3z M224.8,26c0,0.3,0,0.7-0.1,1.1h-26.1v-3h26.2V26z
			 M224.6,27.5c-0.9,2-2.3,3-4.3,3h-21.7v-3H224.6z M224.8,3h-26c0.9-2,2.3-3,4.3-3h21.7V3z M224.8,16.7h-21.7c-2,0-3.4-1-4.3-3
			h25.9c0.1,0.4,0.1,0.8,0.1,1.1V16.7z M224.8,20.2H218v-3h6.9v3H224.8z M224.8,23.6H218v-3h6.9v3H224.8z"/>
	</g>
</g>
<g id="Camada_2">
</g>
</svg>
