<?xml version="1.0" encoding="utf-8"?>
<!-- Generator: Adobe Illustrator 23.0.0, SVG Export Plug-In . SVG Version: 6.00 Build 0)  -->
<svg version="1.1" id="Camada_1" xmlns="http://www.w3.org/2000/svg" xmlns:xlink="http://www.w3.org/1999/xlink" x="0px" y="0px"
	 viewBox="0 0 720 430" style="enable-background:new 0 0 720 430;" xml:space="preserve">
<style type="text/css">
	.st0{fill:#B0FFF7;}
	.st1{opacity:0.1;}
	.st2{fill:#FFFFFF;}
</style>
<image style="overflow:visible;" width="720" height="430" xlink:href="bifanas-720x430.jpg" >
</image>
<rect x="566" class="st0" width="154" height="430"/>
<g>
	<path d="M596.8,29.5H576v-1.7c0-0.3,0-0.6,0.1-0.9h20.6V29.5z M582,32.5H576v-2.6h5.9V32.5z M582,35.5H576v-2.6h5.9V35.5z
		 M582,38.4H576v-2.6h5.9V38.4z M582,41.4H576v-2.6h5.9V41.4z M582,44.3H576v-2.6h5.9V44.3z M596.8,47.3h-20.6
		c-0.1-0.3-0.1-0.7-0.1-0.9v-1.7h20.7V47.3z M596.8,26.6h-20.5c0.8-1.7,2-2.6,3.7-2.6h16.8V26.6z M596.8,50.3h-16.8
		c-1.7,0-2.9-0.9-3.7-2.6h20.5V50.3z"/>
	<path d="M621.2,29.5h-22.6v-1.7c0-0.3,0-0.6,0.1-0.9h22.3c0.1,0.3,0.1,0.7,0.1,0.9V29.5z M604.5,32.5h-5.9v-2.6h5.9V32.5z
		 M604.5,35.5h-5.9v-2.6h5.9V35.5z M604.5,38.4h-5.9v-2.6h5.9V38.4z M604.5,41.4h-5.9v-2.6h5.9V41.4z M604.5,44.3h-5.9v-2.6h5.9
		V44.3z M621.2,46.4c0,0.3,0,0.6-0.1,0.9h-22.3c-0.1-0.3-0.1-0.7-0.1-0.9v-1.7h22.6V46.4z M621,26.6h-22.2c0.8-1.7,2-2.6,3.7-2.6
		h14.8C619,24,620.2,24.9,621,26.6z M621,47.7c-0.8,1.7-2,2.6-3.7,2.6h-14.8c-1.7,0-2.9-0.9-3.7-2.6H621z M621.2,32.5h-5.9v-2.6h5.9
		V32.5z M621.2,35.5h-5.9v-2.6h5.9V35.5z M621.2,38.4h-5.9v-2.6h5.9V38.4z M621.2,41.4h-5.9v-2.6h5.9V41.4z M621.2,44.3h-5.9v-2.6
		h5.9V44.3z"/>
	<path d="M645.4,26.6H623V24h18.7C643.4,24,644.6,24.9,645.4,26.6z M645.6,29.5H623V27h22.5c0.1,0.3,0.1,0.7,0.1,0.9V29.5z
		 M628.9,32.5H623v-2.6h5.9V32.5z M628.9,35.5H623v-2.6h5.9V35.5z M628.9,38.4H623v-2.6h5.9V38.4z M628.9,41.4H623v-2.6h5.9V41.4z
		 M628.9,44.3H623v-2.6h5.9V44.3z M645.6,46.4c0,0.3,0,0.6-0.1,0.9H623v-2.6h22.6V46.4z M645.4,47.7c-0.8,1.7-2,2.6-3.7,2.6H623
		v-2.6H645.4z M645.6,32.5h-5.9v-2.6h5.9V32.5z M645.6,35.5h-5.9v-2.6h5.9V35.5z M645.6,38.4h-5.9v-2.6h5.9V38.4z M645.6,41.4h-5.9
		v-2.6h5.9V41.4z M645.6,44.3h-5.9v-2.6h5.9V44.3z"/>
	<path d="M653.4,26.6h-5.9V24h5.9V26.6z M653.4,29.5h-5.9V27h5.9V29.5z M653.4,32.5h-5.9v-2.6h5.9V32.5z M653.4,35.5h-5.9v-2.6h5.9
		V35.5z M653.4,38.4h-5.9v-2.6h5.9V38.4z M653.4,41.4h-5.9v-2.6h5.9V41.4z M653.4,44.3h-5.9v-2.6h5.9V44.3z M653.4,47.3h-5.9v-2.6
		h5.9V47.3z M653.4,50.3h-5.9v-2.6h5.9V50.3z"/>
	<path d="M677.8,29.5h-22.6v-1.7c0-0.3,0-0.6,0.1-0.9h22.5V29.5z M661.1,32.5h-5.9v-2.6h5.9V32.5z M661.1,35.5h-5.9v-2.6h5.9V35.5z
		 M661.1,38.4h-5.9v-2.6h5.9V38.4z M661.1,41.4h-5.9v-2.6h5.9V41.4z M661.1,44.3h-5.9v-2.6h5.9V44.3z M677.8,47.3h-22.5
		c-0.1-0.3-0.1-0.7-0.1-0.9v-1.7h22.6V47.3z M677.8,26.6h-22.4c0.8-1.7,2-2.6,3.7-2.6h18.7V26.6z M677.8,50.3h-18.7
		c-1.7,0-2.9-0.9-3.7-2.6h22.4V50.3z M677.8,35.5h-13.3v-2.6h13.3V35.5z M677.8,38.4h-13.3v-2.6h13.3V38.4z M677.8,41.4h-5.9v-2.6
		h5.9V41.4z M677.8,44.3h-5.9v-2.6h5.9V44.3z"/>
	<path d="M702.2,29.5h-22.6v-1.7c0-0.3,0-0.6,0.1-0.9h22.3c0.1,0.3,0.1,0.7,0.1,0.9V29.5z M685.5,32.5h-5.9v-2.6h5.9V32.5z
		 M685.5,35.5h-5.9v-2.6h5.9V35.5z M685.5,38.4h-5.9v-2.6h5.9V38.4z M685.5,41.4h-5.9v-2.6h5.9V41.4z M685.5,44.3h-5.9v-2.6h5.9
		V44.3z M702.2,46.4c0,0.3,0,0.6-0.1,0.9h-22.3c-0.1-0.3-0.1-0.7-0.1-0.9v-1.7h22.6V46.4z M702,26.6h-22.2c0.8-1.7,2-2.6,3.7-2.6
		h14.8C700,24,701.3,24.9,702,26.6z M702,47.7c-0.8,1.7-2,2.6-3.7,2.6h-14.8c-1.7,0-2.9-0.9-3.7-2.6H702z M702.2,32.5h-5.9v-2.6h5.9
		V32.5z M702.2,35.5h-5.9v-2.6h5.9V35.5z M702.2,38.4h-5.9v-2.6h5.9V38.4z M702.2,41.4h-5.9v-2.6h5.9V41.4z M702.2,44.3h-5.9v-2.6
		h5.9V44.3z"/>
	<path d="M710,35.5H704v-2.6h5.9V35.5z M710,38.4H704v-2.6h5.9V38.4z M710,47.3H704v-2.6h5.9V47.3z M710,50.3H704v-2.6h5.9V50.3z"/>
	<path d="M624.3,71h-9.6v-2.6h9.6V71z M624.3,73.9h-9.6v-2.6h9.6V73.9z M624.3,76.9h-5.9v-2.6h5.9V76.9z M624.3,79.9h-5.9v-2.6h5.9
		V79.9z M624.3,82.8h-5.9v-2.6h5.9V82.8z M624.3,85.8h-5.9v-2.6h5.9V85.8z M624.3,88.7h-5.9v-2.6h5.9V88.7z M624.3,91.7h-5.9v-2.6
		h5.9V91.7z M624.3,94.7h-5.9v-2.6h5.9V94.7z"/>
	<path d="M646.7,71h-20.5v-2.6H643C644.7,68.4,645.9,69.3,646.7,71z M646.9,73.9h-20.7v-2.6h20.6c0.1,0.3,0.1,0.7,0.1,0.9V73.9z
		 M646.7,80.2c-0.8,1.7-2,2.6-3.7,2.6h-16.8v-1.7c0-0.3,0-0.6,0.1-0.9H646.7z M632.1,85.8h-5.9v-2.6h5.9V85.8z M632.1,88.7h-5.9
		v-2.6h5.9V88.7z M646.9,91.7h-20.7v-2.6h20.7V91.7z M646.9,94.7h-20.7v-2.6h20.7V94.7z M646.9,78.9c0,0.3,0,0.6-0.1,0.9h-20.4
		c0.8-1.7,2-2.6,3.7-2.6h16.8V78.9z M646.9,76.9H641v-2.6h5.9V76.9z"/>
	<path d="M671.1,71h-22.4v-2.6h18.7C669.1,68.4,670.4,69.3,671.1,71z M671.3,73.9h-22.6v-2.6h22.5c0.1,0.3,0.1,0.7,0.1,0.9V73.9z
		 M654.7,76.9h-5.9v-2.6h5.9V76.9z M671.1,77.3c-0.8,1.7-2,2.6-3.7,2.6h-18.7v-2.6H671.1z M671.1,82.8h-22.4v-2.6h18.7
		C669.1,80.2,670.4,81.1,671.1,82.8z M654.7,85.8h-5.9v-2.6h5.9V85.8z M654.7,88.7h-5.9v-2.6h5.9V88.7z M671.3,90.8
		c0,0.3,0,0.6-0.1,0.9h-22.5v-2.6h22.6V90.8z M671.1,92.1c-0.8,1.7-2,2.6-3.7,2.6h-18.7v-2.6H671.1z M671.3,76c0,0.3,0,0.6-0.1,0.9
		h-5.8v-2.6h5.9V76z M671.3,85.8h-5.9v-2.6h5.8c0.1,0.3,0.1,0.7,0.1,0.9V85.8z M671.3,88.7h-5.9v-2.6h5.9V88.7z"/>
	<path d="M621.1,216.5v2.4h-9.1v-2.4H621.1z"/>
	<path d="M651.7,204.2H631v-2.6h20.7V204.2z M651.7,207.1H631v-2.6h20.7V207.1z M636.9,210.1H631v-2.6h5.9V210.1z M651.5,213.1
		h-20.4c-0.1-0.3-0.1-0.7-0.1-0.9v-1.7h16.8C649.5,210.5,650.7,211.3,651.5,213.1z M651.7,224c0,0.3,0,0.6-0.1,0.9H631v-2.6h20.7
		V224z M651.5,225.3c-0.8,1.7-2,2.6-3.7,2.6H631v-2.6H651.5z M651.7,216h-16.8c-1.7,0-2.9-0.9-3.7-2.6h20.4c0.1,0.3,0.1,0.7,0.1,0.9
		V216z M651.7,219h-5.9v-2.6h5.9V219z M651.7,221.9h-5.9v-2.6h5.9V221.9z"/>
	<path d="M674.2,207.1h-20.7v-1.7c0-0.3,0-0.6,0.1-0.9h20.5c0.1,0.3,0.1,0.7,0.1,0.9V207.1z M659.4,210.1h-5.9v-2.6h5.9V210.1z
		 M659.4,213.1h-5.9v-2.6h5.9V213.1z M659.4,216h-5.9v-2.6h5.9V216z M659.4,219h-5.9v-2.6h5.9V219z M659.4,221.9h-5.9v-2.6h5.9
		V221.9z M674.2,224c0,0.3,0,0.6-0.1,0.9h-20.5c-0.1-0.3-0.1-0.7-0.1-0.9v-1.7h20.7V224z M674.1,204.2h-20.3c0.8-1.7,2-2.6,3.7-2.6
		h13C672.1,201.6,673.3,202.5,674.1,204.2z M674.1,225.3c-0.8,1.7-2,2.6-3.7,2.6h-13c-1.7,0-2.9-0.9-3.7-2.6H674.1z M674.2,210.1
		h-5.9v-2.6h5.9V210.1z M674.2,213.1h-5.9v-2.6h5.9V213.1z M674.2,216h-5.9v-2.6h5.9V216z M674.2,219h-5.9v-2.6h5.9V219z
		 M674.2,221.9h-5.9v-2.6h5.9V221.9z"/>
	<path d="M617.7,251.5h-20.7v-1.7c0-0.3,0-0.6,0.1-0.9h20.6V251.5z M602.9,254.5h-5.9v-2.6h5.9V254.5z M602.9,257.5h-5.9v-2.6h5.9
		V257.5z M602.9,260.4h-5.9v-2.6h5.9V260.4z M602.9,263.4h-5.9v-2.6h5.9V263.4z M602.9,266.3h-5.9v-2.6h5.9V266.3z M617.7,269.3H597
		c-0.1-0.3-0.1-0.7-0.1-0.9v-1.7h20.7V269.3z M617.7,248.6h-20.5c0.8-1.7,2-2.6,3.7-2.6h16.8V248.6z M617.7,272.3h-16.8
		c-1.7,0-2.9-0.9-3.7-2.6h20.5V272.3z"/>
	<path d="M640.2,251.5h-20.7v-1.7c0-0.3,0-0.6,0.1-0.9h20.6V251.5z M625.4,254.5h-5.9v-2.6h5.9V254.5z M640.2,257.5h-20.7v-2.6h20.7
		V257.5z M640.2,260.4h-20.7v-2.6h20.7V260.4z M625.4,263.4h-5.9v-2.6h5.9V263.4z M625.4,266.3h-5.9v-2.6h5.9V266.3z M640.2,269.3
		h-20.6c-0.1-0.3-0.1-0.7-0.1-0.9v-1.7h20.7V269.3z M640.2,248.6h-20.5c0.8-1.7,2-2.6,3.7-2.6h16.8V248.6z M640.2,272.3h-16.8
		c-1.7,0-2.9-0.9-3.7-2.6h20.5V272.3z"/>
	<path d="M649.8,248.6h-7.7V246h5.8L649.8,248.6z M651.9,251.5h-9.8V249h8L651.9,251.5z M654,254.5h-11.9v-2.6h10.1L654,254.5z
		 M656.1,257.5h-7.9l-0.2-0.3v0.3h-5.9v-2.6h12.2L656.1,257.5z M648,260.4h-5.9v-2.6h5.9V260.4z M648,263.4h-5.9v-2.6h5.9V263.4z
		 M648,266.3h-5.9v-2.6h5.9V266.3z M648,269.3h-5.9v-2.6h5.9V269.3z M648,272.3h-5.9v-2.6h5.9V272.3z M658.2,260.4h-7.9l-1.8-2.6
		h7.9L658.2,260.4z M664.6,263.4h-12.2l-1.9-2.6h7.9l0.2,0.3v-0.3h5.9V263.4z M664.6,266.3h-10.1l-1.8-2.6h11.9V266.3z M664.6,269.3
		h-8l-1.8-2.6h9.8V269.3z M664.6,272.3h-5.8l-1.9-2.6h7.7V272.3z M664.6,248.6h-5.9V246h5.9V248.6z M664.6,251.5h-5.9V249h5.9V251.5
		z M664.6,254.5h-5.9v-2.6h5.9V254.5z M664.6,257.5h-5.9v-2.6h5.9V257.5z M664.6,260.4h-5.9v-2.6h5.9V260.4z"/>
	<path d="M689.1,248.6h-22.6V246h22.6V248.6z M689.1,251.5h-22.6V249h22.6V251.5z M681.1,254.5h-5.9v-2.6h5.9V254.5z M681.1,257.5
		h-5.9v-2.6h5.9V257.5z M681.1,260.4h-5.9v-2.6h5.9V260.4z M681.1,263.4h-5.9v-2.6h5.9V263.4z M681.1,266.3h-5.9v-2.6h5.9V266.3z
		 M681.1,269.3h-5.9v-2.6h5.9V269.3z M681.1,272.3h-5.9v-2.6h5.9V272.3z"/>
	<path d="M625.5,293h-7.7v-2.6h5.8L625.5,293z M627.6,295.9h-9.8v-2.6h8L627.6,295.9z M629.8,298.9h-11.9v-2.6h10.1L629.8,298.9z
		 M631.9,301.9H624l-0.2-0.3v0.3h-5.9v-2.6H630L631.9,301.9z M623.8,304.8h-5.9v-2.6h5.9V304.8z M623.8,307.8h-5.9v-2.6h5.9V307.8z
		 M623.8,310.7h-5.9v-2.6h5.9V310.7z M623.8,313.7h-5.9v-2.6h5.9V313.7z M623.8,316.7h-5.9v-2.6h5.9V316.7z M634,304.8h-7.9
		l-1.8-2.6h7.9L634,304.8z M640.4,307.8h-12.2l-1.9-2.6h7.9l0.2,0.3v-0.3h5.9V307.8z M640.4,310.7h-10.1l-1.8-2.6h11.9V310.7z
		 M640.4,313.7h-8l-1.8-2.6h9.8V313.7z M640.4,316.7h-5.8l-1.9-2.6h7.7V316.7z M640.4,293h-5.9v-2.6h5.9V293z M640.4,295.9h-5.9
		v-2.6h5.9V295.9z M640.4,298.9h-5.9v-2.6h5.9V298.9z M640.4,301.9h-5.9v-2.6h5.9V301.9z M640.4,304.8h-5.9v-2.6h5.9V304.8z"/>
	<path d="M648.8,314.1l-1,2.6h-6.7l1-2.6H648.8z M650,311.1l-1,2.6h-6.7l1-2.6H650z M667,310.7h-23.5l1-2.6h21.5L667,310.7z
		 M665.8,307.8h-21.2l1-2.6h19.1L665.8,307.8z M653.5,302.2l-1,2.6h-6.7l1-2.6H653.5z M654.7,299.3l-1,2.6H647l1-2.6H654.7z
		 M662.2,298.9h-6.7l-0.4-0.9l-0.4,0.9h-6.7l1-2.6h12L662.2,298.9z M661.1,295.9h-11.7l1-2.6h9.6L661.1,295.9z M659.9,293h-9.3
		l1-2.6h7.3L659.9,293z M663.4,301.9h-6.7l-1-2.6h6.7L663.4,301.9z M664.6,304.8h-6.7l-1-2.6h6.7L664.6,304.8z M668.2,313.7h-6.7
		l-1-2.6h6.7L668.2,313.7z M669.3,316.7h-6.7l-1-2.6h6.7L669.3,316.7z"/>
	<path d="M600.7,337.4h-22.4v-2.6H597C598.7,334.8,599.9,335.7,600.7,337.4z M600.9,340.3h-22.6v-2.6h22.5c0.1,0.3,0.1,0.7,0.1,0.9
		V340.3z M584.2,343.3h-5.9v-2.6h5.9V343.3z M600.7,343.7c-0.8,1.7-2,2.6-3.7,2.6h-18.7v-2.6H600.7z M600.7,349.2h-22.4v-2.6H597
		C598.7,346.6,599.9,347.5,600.7,349.2z M584.2,352.2h-5.9v-2.6h5.9V352.2z M584.2,355.1h-5.9v-2.6h5.9V355.1z M600.9,357.2
		c0,0.3,0,0.6-0.1,0.9h-22.5v-2.6h22.6V357.2z M600.7,358.5c-0.8,1.7-2,2.6-3.7,2.6h-18.7v-2.6H600.7z M600.9,342.4
		c0,0.3,0,0.6-0.1,0.9h-5.8v-2.6h5.9V342.4z M600.9,352.2h-5.9v-2.6h5.8c0.1,0.3,0.1,0.7,0.1,0.9V352.2z M600.9,355.1h-5.9v-2.6h5.9
		V355.1z"/>
	<path d="M608.6,337.4h-5.9v-2.6h5.9V337.4z M608.6,340.3h-5.9v-2.6h5.9V340.3z M608.6,343.3h-5.9v-2.6h5.9V343.3z M608.6,346.3
		h-5.9v-2.6h5.9V346.3z M608.6,349.2h-5.9v-2.6h5.9V349.2z M608.6,352.2h-5.9v-2.6h5.9V352.2z M608.6,355.1h-5.9v-2.6h5.9V355.1z
		 M608.6,358.1h-5.9v-2.6h5.9V358.1z M608.6,361.1h-5.9v-2.6h5.9V361.1z"/>
	<path d="M631.2,340.3h-20.7v-1.7c0-0.3,0-0.6,0.1-0.9h20.6V340.3z M616.4,343.3h-5.9v-2.6h5.9V343.3z M631.2,346.3h-20.7v-2.6h20.7
		V346.3z M631.2,349.2h-20.7v-2.6h20.7V349.2z M616.4,352.2h-5.9v-2.6h5.9V352.2z M616.4,355.1h-5.9v-2.6h5.9V355.1z M616.4,358.1
		h-5.9v-2.6h5.9V358.1z M616.4,361.1h-5.9v-2.6h5.9V361.1z M631.2,337.4h-20.5c0.8-1.7,2-2.6,3.7-2.6h16.8V337.4z"/>
	<path d="M636.2,358.5l-1,2.6h-6.7l1-2.6H636.2z M637.3,355.5l-1,2.6h-6.7l1-2.6H637.3z M654.4,355.1h-23.5l1-2.6h21.5L654.4,355.1z
		 M653.2,352.2H632l1-2.6h19.1L653.2,352.2z M640.9,346.6l-1,2.6h-6.7l1-2.6H640.9z M642.1,343.7l-1,2.6h-6.7l1-2.6H642.1z
		 M649.6,343.3H643l-0.4-0.9l-0.4,0.9h-6.7l1-2.6h12L649.6,343.3z M648.4,340.3h-11.7l1-2.6h9.6L648.4,340.3z M647.3,337.4h-9.3
		l1-2.6h7.3L647.3,337.4z M650.8,346.3h-6.7l-1-2.6h6.7L650.8,346.3z M652,349.2h-6.7l-1-2.6h6.7L652,349.2z M655.5,358.1h-6.7
		l-1-2.6h6.7L655.5,358.1z M656.7,361.1h-6.7l-1-2.6h6.7L656.7,361.1z"/>
	<path d="M665.1,337.4h-7.7v-2.6h5.8L665.1,337.4z M667.2,340.3h-9.8v-2.6h8L667.2,340.3z M669.3,343.3h-11.9v-2.6h10.1L669.3,343.3
		z M671.4,346.3h-7.9l-0.2-0.3v0.3h-5.9v-2.6h12.2L671.4,346.3z M663.3,349.2h-5.9v-2.6h5.9V349.2z M663.3,352.2h-5.9v-2.6h5.9
		V352.2z M663.3,355.1h-5.9v-2.6h5.9V355.1z M663.3,358.1h-5.9v-2.6h5.9V358.1z M663.3,361.1h-5.9v-2.6h5.9V361.1z M673.5,349.2
		h-7.9l-1.8-2.6h7.9L673.5,349.2z M680,352.2h-12.2l-1.9-2.6h7.9l0.2,0.3v-0.3h5.9V352.2z M680,355.1h-10.1l-1.8-2.6H680V355.1z
		 M680,358.1h-8l-1.8-2.6h9.8V358.1z M680,361.1h-5.8l-1.9-2.6h7.7V361.1z M680,337.4H674v-2.6h5.9V337.4z M680,340.3H674v-2.6h5.9
		V340.3z M680,343.3H674v-2.6h5.9V343.3z M680,346.3H674v-2.6h5.9V346.3z M680,349.2H674v-2.6h5.9V349.2z"/>
	<path d="M688.3,358.5l-1,2.6h-6.7l1-2.6H688.3z M689.5,355.5l-1,2.6h-6.7l1-2.6H689.5z M706.5,355.1H683l1-2.6h21.5L706.5,355.1z
		 M705.3,352.2h-21.2l1-2.6h19.1L705.3,352.2z M693.1,346.6l-1,2.6h-6.7l1-2.6H693.1z M694.2,343.7l-1,2.6h-6.7l1-2.6H694.2z
		 M701.8,343.3h-6.7l-0.4-0.9l-0.4,0.9h-6.7l1-2.6h12L701.8,343.3z M700.6,340.3h-11.7l1-2.6h9.6L700.6,340.3z M699.4,337.4h-9.3
		l1-2.6h7.3L699.4,337.4z M703,346.3h-6.7l-1-2.6h6.7L703,346.3z M704.2,349.2h-6.7l-1-2.6h6.7L704.2,349.2z M707.7,358.1h-6.7
		l-1-2.6h6.7L707.7,358.1z M708.9,361.1h-6.7l-1-2.6h6.7L708.9,361.1z"/>
</g>
<g>
	<g class="st1">
		<rect x="-73" y="50.1" class="st2" width="639" height="5.3"/>
		<rect x="-73" y="42.8" class="st2" width="639" height="5.3"/>
		<rect x="-73" y="35.2" class="st2" width="639" height="5.3"/>
		<rect x="-73" y="57.5" class="st2" width="639" height="5.3"/>
		<rect x="-73" y="-0.8" class="st2" width="639" height="5.3"/>
		<rect x="-73" y="158.3" class="st2" width="639" height="5.3"/>
		<rect x="-73" y="209.5" class="st2" width="639" height="5.3"/>
		<rect x="-73" y="201.9" class="st2" width="639" height="5.3"/>
		<rect x="-73" y="194.6" class="st2" width="639" height="5.3"/>
		<rect x="-73" y="187.6" class="st2" width="639" height="5.3"/>
		<rect x="-73" y="180.3" class="st2" width="639" height="5.3"/>
		<rect x="-73" y="172.9" class="st2" width="639" height="5.3"/>
		<rect x="-73" y="165.6" class="st2" width="639" height="5.3"/>
		<rect x="-73" y="151.6" class="st2" width="639" height="5.3"/>
		<rect x="-73" y="136.7" class="st2" width="639" height="5.3"/>
		<rect x="-73" y="144.3" class="st2" width="639" height="5.3"/>
		<rect x="-73" y="129.7" class="st2" width="639" height="5.3"/>
		<rect x="-72.9" y="122.6" class="st2" width="639" height="5.3"/>
		<rect x="-73" y="115" class="st2" width="639" height="5.3"/>
		<rect x="-73" y="107.7" class="st2" width="639" height="5.3"/>
		<rect x="-73" y="100.7" class="st2" width="639" height="5.3"/>
		<rect x="-73" y="93.1" class="st2" width="639" height="5.3"/>
		<rect x="-73" y="86.1" class="st2" width="639" height="5.3"/>
		<rect x="-73" y="79.1" class="st2" width="639" height="5.3"/>
		<rect x="-73" y="71.8" class="st2" width="639" height="5.3"/>
		<rect x="-73" y="64.8" class="st2" width="639" height="5.3"/>
		<rect x="-73" y="27.8" class="st2" width="639" height="5.3"/>
		<rect x="-73" y="20.8" class="st2" width="639" height="5.3"/>
		<rect x="-73" y="13.5" class="st2" width="639" height="5.3"/>
		<rect x="-73" y="6.2" class="st2" width="639" height="5.3"/>
	</g>
	<g class="st1">
		<rect x="-73.1" y="268.2" class="st2" width="639" height="5.3"/>
		<rect x="-73.1" y="260.9" class="st2" width="639" height="5.3"/>
		<rect x="-73.1" y="253.2" class="st2" width="639" height="5.3"/>
		<rect x="-73.1" y="275.5" class="st2" width="639" height="5.3"/>
		<rect x="-73.1" y="217.3" class="st2" width="639" height="5.3"/>
		<rect x="-73.1" y="376.4" class="st2" width="639" height="5.3"/>
		<rect x="-73.1" y="427.6" class="st2" width="639" height="5.3"/>
		<rect x="-73.1" y="420" class="st2" width="639" height="5.3"/>
		<rect x="-73.1" y="412.6" class="st2" width="639" height="5.3"/>
		<rect x="-73.1" y="405.6" class="st2" width="639" height="5.3"/>
		<rect x="-73.1" y="398.3" class="st2" width="639" height="5.3"/>
		<rect x="-73.1" y="391" class="st2" width="639" height="5.3"/>
		<rect x="-73.1" y="383.7" class="st2" width="639" height="5.3"/>
		<rect x="-73.1" y="369.7" class="st2" width="639" height="5.3"/>
		<rect x="-73.1" y="354.7" class="st2" width="639" height="5.3"/>
		<rect x="-73.1" y="362.4" class="st2" width="639" height="5.3"/>
		<rect x="-73.1" y="347.7" class="st2" width="639" height="5.3"/>
		<rect x="-72.9" y="340.6" class="st2" width="639" height="5.3"/>
		<rect x="-73.1" y="333.1" class="st2" width="639" height="5.3"/>
		<rect x="-73.1" y="325.8" class="st2" width="639" height="5.3"/>
		<rect x="-73.1" y="318.8" class="st2" width="639" height="5.3"/>
		<rect x="-73.1" y="311.1" class="st2" width="639" height="5.3"/>
		<rect x="-73.1" y="304.1" class="st2" width="639" height="5.3"/>
		<rect x="-73.1" y="297.1" class="st2" width="639" height="5.3"/>
		<rect x="-73.1" y="289.8" class="st2" width="639" height="5.3"/>
		<rect x="-73.1" y="282.8" class="st2" width="639" height="5.3"/>
		<rect x="-73.1" y="245.9" class="st2" width="639" height="5.3"/>
		<rect x="-73.1" y="238.9" class="st2" width="639" height="5.3"/>
		<rect x="-73.1" y="231.6" class="st2" width="639" height="5.3"/>
		<rect x="-73.1" y="224.3" class="st2" width="639" height="5.3"/>
	</g>
</g>
</svg>
